<svg id="Capa_1" data-name="Capa 1" xmlns="http://www.w3.org/2000/svg" viewBox="0 0 80 80"><defs><style>.cls-1{fill:none;}.cls-2{fill:#b3cc37;}.cls-3{fill:#eb6824;}.cls-4{fill:#e51e55;}.cls-5{fill:#027090;}.cls-6{fill:#1ecad3;}</style></defs><path class="cls-1" d="M59.45,33.43c-3.08.2-12.33-.3-12.34-.3,0-.21.32-9.43-1.78-12.54-2.67-3.95-12.49-1.71-12.49-1.71s.28,1.43.31,1.93c.21,3.07-.31,12.33-.31,12.33h0c-.14,0-9.42-.32-12.54,1.78C16.35,37.6,18.59,47.4,18.59,47.4s1.44-.26,1.92-.3c3.08-.2,12.33.3,12.33.3h0c0,.23-.32,9.44,1.78,12.55,2.67,3.95,12.48,1.7,12.48,1.7s-.27-1.43-.31-1.92c-.2-3.07.31-12.34.31-12.34h0c.1,0,9.41.33,12.54-1.79,4-2.66,1.71-12.47,1.71-12.47S59.92,33.4,59.45,33.43Z"/><path class="cls-2" d="M74.91,51.21a27,27,0,0,1-.28,4c7.19-10.81,6.87-20.41.17-28.36.07.81.11,1.64.11,2.49Z"/><path class="cls-3" d="M52.22,4.51c-7.37-5.5-16.17-5.69-26,.36A59.24,59.24,0,0,1,40.1,3.4,60.52,60.52,0,0,1,52.22,4.51Z"/><path class="cls-4" d="M5.05,29.33a27.92,27.92,0,0,1,.27-3.94C-1.83,36.25-1.46,45.84,5.16,53.7c-.08-.81-.11-1.64-.11-2.49Z"/><path class="cls-5" d="M27.7,76c7.37,5.53,16.09,5.73,25.89-.27A59.28,59.28,0,0,1,40.1,77.14,62.3,62.3,0,0,1,27.7,76Z"/><path class="cls-6" d="M72.39,26.84C71.5,16.57,64.94,9.51,52.22,6.92A60.52,60.52,0,0,0,40.1,5.81,59.24,59.24,0,0,0,26.23,7.28C15.05,10,9,16.33,7.73,25.39a27.92,27.92,0,0,0-.27,3.94V51.21c0,.85,0,1.68.11,2.49C8.45,64,15,71,27.7,73.61a63.05,63.05,0,0,0,12.4,1.12,58.68,58.68,0,0,0,13.49-1.4c11.22-2.64,17.31-9,18.63-18.13a27,27,0,0,0,.28-4V29.33C72.5,28.48,72.46,27.65,72.39,26.84ZM59.66,45.6c-3.13,2.12-12.44,1.79-12.54,1.79h0s-.51,9.27-.31,12.34c0,.49.31,1.92.31,1.92S37.32,63.9,34.65,60c-2.1-3.11-1.79-12.32-1.78-12.55h0s-9.25-.5-12.33-.3c-.48,0-1.92.3-1.92.3s-2.24-9.8,1.71-12.47c3.12-2.1,12.4-1.79,12.54-1.78h0s.52-9.26.31-12.33c0-.5-.31-1.93-.31-1.93s9.82-2.24,12.49,1.71c2.1,3.11,1.79,12.33,1.78,12.54,0,0,9.26.5,12.34.3.47,0,1.92-.3,1.92-.3S63.61,42.94,59.66,45.6Z"/></svg>