<svg id="Capa_1" data-name="Capa 1" xmlns="http://www.w3.org/2000/svg" viewBox="0 0 185 50"><defs><style>.cls-1{fill:none;}.cls-2{fill:#b7d333;}.cls-3{fill:#f16823;}.cls-4{fill:#ea1954;}.cls-5{fill:#006f93;}.cls-6{fill:#1ecad3;}.cls-7{fill:#496a79;}.cls-8{fill:#21bece;}</style></defs><path class="cls-1" d="M92.88,18.35c-1.17.07-4.69-.12-4.69-.12s.12-3.58-.68-4.77c-1-1.5-4.75-.65-4.75-.65s.1.55.12.73c.07,1.17-.12,4.7-.12,4.7h0c-.06,0-3.59-.12-4.78.68-1.5,1-.64,4.74-.64,4.74s.54-.1.73-.11c1.17-.08,4.69.11,4.69.11h0c0,.09-.12,3.59.68,4.78,1,1.5,4.74.65,4.74.65s-.1-.55-.11-.73c-.08-1.18.11-4.7.11-4.7h0s3.58.12,4.77-.68c1.5-1,.65-4.75.65-4.75Z"/><path class="cls-2" d="M98.76,25.11a10.58,10.58,0,0,1-.1,1.52c2.73-4.11,2.61-7.77.06-10.79,0,.31,0,.62,0,.95Z"/><path class="cls-3" d="M90.13,7.34c-2.8-2.09-6.15-2.16-9.89.14a22.32,22.32,0,0,1,5.28-.56A23.6,23.6,0,0,1,90.13,7.34Z"/><path class="cls-4" d="M72.18,16.79a12.06,12.06,0,0,1,.1-1.5c-2.71,4.13-2.57,7.78-.06,10.77,0-.31,0-.62,0-.95Z"/><path class="cls-5" d="M80.8,34.55c2.81,2.1,6.12,2.18,9.85-.1a22.29,22.29,0,0,1-5.13.53A23.81,23.81,0,0,1,80.8,34.55Z"/><path class="cls-6" d="M97.8,15.84c-.33-3.91-2.83-6.59-7.67-7.58a22.85,22.85,0,0,0-4.61-.42,22.32,22.32,0,0,0-5.28.56c-4.25,1-6.54,3.44-7,6.89a10.4,10.4,0,0,0-.1,1.5v8.32c0,.33,0,.64,0,.95C73.48,30,76,32.65,80.8,33.63a23.81,23.81,0,0,0,4.72.43,22.29,22.29,0,0,0,5.13-.53c4.27-1,6.59-3.41,7.09-6.9a10.55,10.55,0,0,0,.11-1.52V16.79C97.85,16.46,97.83,16.15,97.8,15.84ZM93,23c-1.19.8-4.73.68-4.77.68h0s-.19,3.52-.11,4.7c0,.18.11.73.11.73s-3.73.85-4.74-.65c-.8-1.19-.69-4.69-.68-4.78h0s-3.52-.19-4.69-.11c-.19,0-.73.11-.73.11s-.86-3.73.64-4.74c1.19-.8,4.72-.68,4.78-.68h0s.19-3.53.12-4.7c0-.18-.12-.73-.12-.73s3.73-.85,4.75.65c.8,1.19.68,4.69.68,4.77s3.52.19,4.69.12l.73-.12S94.46,22,93,23Z"/><path class="cls-7" d="M11.62,16.44a3.85,3.85,0,0,0-.83-.93,3.93,3.93,0,0,0-1.12-.62,3.78,3.78,0,0,0-1.3-.22,4.34,4.34,0,0,0-2.12.48,4,4,0,0,0-1.41,1.29,5.69,5.69,0,0,0-.79,1.85,9,9,0,0,0-.25,2.14,8.24,8.24,0,0,0,.25,2.06,5.42,5.42,0,0,0,.79,1.8,4.07,4.07,0,0,0,1.41,1.29,4.34,4.34,0,0,0,2.12.48A3.43,3.43,0,0,0,11,25a4.81,4.81,0,0,0,1.16-2.73h3.58A8.78,8.78,0,0,1,15,25.14a6.73,6.73,0,0,1-1.56,2.17,6.53,6.53,0,0,1-2.26,1.36,8.33,8.33,0,0,1-2.84.47,8.52,8.52,0,0,1-3.47-.67,7.33,7.33,0,0,1-2.6-1.85A8.11,8.11,0,0,1,.67,23.86a10.07,10.07,0,0,1-.56-3.43,10.38,10.38,0,0,1,.56-3.49A8.34,8.34,0,0,1,2.3,14.13a7.43,7.43,0,0,1,2.6-1.89,8.53,8.53,0,0,1,3.47-.68A8.35,8.35,0,0,1,11,12a7.09,7.09,0,0,1,2.21,1.17A6.32,6.32,0,0,1,14.82,15a6.84,6.84,0,0,1,.8,2.59H12A3.16,3.16,0,0,0,11.62,16.44Z"/><path class="cls-7" d="M20.18,12V28.77H16.84V12Z"/><path class="cls-7" d="M21.17,15.23l2.26-3.31h3.7L23.5,15.23Zm3.44,1.49V28.77H21.26v-12Z"/><path class="cls-7" d="M29.24,16.6v1.69h.07A3.93,3.93,0,0,1,31,16.75,4.82,4.82,0,0,1,33,16.27a5.71,5.71,0,0,1,2.2.36,3.21,3.21,0,0,1,1.35,1,3.8,3.8,0,0,1,.7,1.58,10.07,10.07,0,0,1,.2,2.06v7.49H34.14V21.89a4.34,4.34,0,0,0-.47-2.25A1.84,1.84,0,0,0,32,18.9a2.33,2.33,0,0,0-2,.81,4.55,4.55,0,0,0-.61,2.68v6.38H26.07V16.6Z"/><path class="cls-7" d="M38.94,14.71V12h3.34v2.75Zm3.34,1.89V28.77H38.94V16.6Z"/><path class="cls-7" d="M49.55,18.79a2.37,2.37,0,0,0-1.34.36,2.94,2.94,0,0,0-.88.94,4,4,0,0,0-.48,1.27,6.53,6.53,0,0,0-.14,1.38,6.17,6.17,0,0,0,.14,1.34,3.83,3.83,0,0,0,.46,1.24,2.53,2.53,0,0,0,.85.9,2.35,2.35,0,0,0,1.32.36,2.48,2.48,0,0,0,1.85-.67,3.2,3.2,0,0,0,.81-1.81h3.23a5.51,5.51,0,0,1-1.89,3.7,6,6,0,0,1-4,1.27A6.6,6.6,0,0,1,47,28.61a5.43,5.43,0,0,1-1.94-1.28,5.82,5.82,0,0,1-1.25-2,6.74,6.74,0,0,1-.45-2.5,8,8,0,0,1,.42-2.63A5.8,5.8,0,0,1,45,18.14a5.49,5.49,0,0,1,1.95-1.38,6.65,6.65,0,0,1,2.64-.49,7.57,7.57,0,0,1,2.08.28,5.5,5.5,0,0,1,1.79.86,4.63,4.63,0,0,1,1.28,1.43,4.68,4.68,0,0,1,.57,2H52A2.23,2.23,0,0,0,49.55,18.79Z"/><path class="cls-7" d="M56.52,18.39a3.85,3.85,0,0,1,1.32-1.25,5.46,5.46,0,0,1,1.8-.67,9.72,9.72,0,0,1,2-.2,13.13,13.13,0,0,1,1.86.13,5.55,5.55,0,0,1,1.72.5A3.34,3.34,0,0,1,66.5,18,2.93,2.93,0,0,1,67,19.73v6.33a11.55,11.55,0,0,0,.1,1.58,2.81,2.81,0,0,0,.33,1.13H64a3.83,3.83,0,0,1-.16-.58c0-.2-.06-.4-.08-.6a4.32,4.32,0,0,1-1.88,1.15,7.54,7.54,0,0,1-2.21.33,6.06,6.06,0,0,1-1.63-.21,3.73,3.73,0,0,1-1.32-.66,3.09,3.09,0,0,1-.88-1.13,3.84,3.84,0,0,1-.32-1.62,3.61,3.61,0,0,1,.37-1.71,3.06,3.06,0,0,1,.94-1.07,4,4,0,0,1,1.32-.6,15.19,15.19,0,0,1,1.49-.32c.5-.08,1-.14,1.49-.19a7.56,7.56,0,0,0,1.29-.21,2.17,2.17,0,0,0,.89-.41.89.89,0,0,0,.31-.79,1.75,1.75,0,0,0-.18-.86A1.17,1.17,0,0,0,63,18.8a1.77,1.77,0,0,0-.68-.24,5.49,5.49,0,0,0-.83-.06,2.51,2.51,0,0,0-1.56.43,1.93,1.93,0,0,0-.66,1.41H55.93A3.81,3.81,0,0,1,56.52,18.39Zm6.6,4.72c-.21.06-.44.12-.68.17s-.5.09-.77.12l-.8.12a6.14,6.14,0,0,0-.74.18,2.33,2.33,0,0,0-.63.32,1.55,1.55,0,0,0-.44.51,1.61,1.61,0,0,0-.16.78,1.6,1.6,0,0,0,.16.75,1.3,1.3,0,0,0,.45.48,1.93,1.93,0,0,0,.66.25,3.94,3.94,0,0,0,.77.07,3,3,0,0,0,1.53-.33,2.17,2.17,0,0,0,.8-.79,2.46,2.46,0,0,0,.32-.93,6.14,6.14,0,0,0,.06-.75V22.81A1.6,1.6,0,0,1,63.12,23.11Z"/><path class="cls-7" d="M116,27.44a9.26,9.26,0,0,1-10.55,0,6.44,6.44,0,0,1-1.87-5.09V11.92h3.69V22.37a7.34,7.34,0,0,0,.12,1.34,2.78,2.78,0,0,0,.49,1.17,2.66,2.66,0,0,0,1.05.82,4.15,4.15,0,0,0,1.8.32,3.45,3.45,0,0,0,2.73-.88,4.23,4.23,0,0,0,.75-2.77V11.92h3.7V22.37A6.35,6.35,0,0,1,116,27.44Z"/><path class="cls-7" d="M122.23,16.56v1.69h.07A3.93,3.93,0,0,1,124,16.71a4.82,4.82,0,0,1,2.07-.48,5.71,5.71,0,0,1,2.2.36,3.33,3.33,0,0,1,1.36,1,3.82,3.82,0,0,1,.69,1.57,10.07,10.07,0,0,1,.2,2.06v7.49h-3.34V21.85a4.27,4.27,0,0,0-.47-2.24,1.82,1.82,0,0,0-1.67-.74,2.33,2.33,0,0,0-2,.81,4.49,4.49,0,0,0-.61,2.67v6.38h-3.34V16.56Z"/><path class="cls-7" d="M131.46,14.68V11.92h3.34v2.76Zm3.34,1.88V28.73h-3.34V16.56Z"/><path class="cls-7" d="M134.52,18.8V16.56h2v-.94a3.67,3.67,0,0,1,1-2.66,4.11,4.11,0,0,1,3.06-1c.3,0,.6,0,.89,0l.88.06v2.49a9.81,9.81,0,0,0-1.23-.07,1.27,1.27,0,0,0-1,.32,1.54,1.54,0,0,0-.3,1.07v.73h2.31V18.8h-2.31v9.93h-3.34V18.8Z"/><path class="cls-7" d="M145.16,16.56v2.26h0a4.05,4.05,0,0,1,.64-1.05,4.23,4.23,0,0,1,.92-.82,4.14,4.14,0,0,1,1.1-.53,3.91,3.91,0,0,1,1.23-.19,2.58,2.58,0,0,1,.73.12v3.1l-.57-.08-.63,0a3.65,3.65,0,0,0-1.56.3,2.72,2.72,0,0,0-1,.84,3.29,3.29,0,0,0-.55,1.23,6.24,6.24,0,0,0-.17,1.53v5.49H142V16.56Z"/><path class="cls-7" d="M150.4,18.35a4.15,4.15,0,0,1,1.32-1.25,5.78,5.78,0,0,1,1.8-.67,10.56,10.56,0,0,1,2-.2,12.89,12.89,0,0,1,1.85.13,5.56,5.56,0,0,1,1.72.51,3.41,3.41,0,0,1,1.27,1,2.93,2.93,0,0,1,.5,1.78V26A13.31,13.31,0,0,0,161,27.6a2.76,2.76,0,0,0,.33,1.13h-3.39a5.47,5.47,0,0,1-.15-.58,3.94,3.94,0,0,1-.08-.6,4.36,4.36,0,0,1-1.89,1.15,7.54,7.54,0,0,1-2.21.33,6,6,0,0,1-1.62-.21,3.64,3.64,0,0,1-1.32-.66,2.91,2.91,0,0,1-.88-1.13,3.8,3.8,0,0,1-.32-1.62,3.61,3.61,0,0,1,.36-1.71,3.16,3.16,0,0,1,.94-1.07,4.68,4.68,0,0,1,1.32-.6c.5-.13,1-.24,1.5-.32s1-.14,1.48-.18a8.2,8.2,0,0,0,1.29-.22,2.21,2.21,0,0,0,.9-.41.89.89,0,0,0,.3-.79,1.78,1.78,0,0,0-.17-.86,1.38,1.38,0,0,0-.47-.49,1.71,1.71,0,0,0-.68-.23,5.53,5.53,0,0,0-.84-.06,2.53,2.53,0,0,0-1.55.42,1.86,1.86,0,0,0-.66,1.41h-3.34A3.87,3.87,0,0,1,150.4,18.35ZM157,23.07a4.64,4.64,0,0,1-.69.17c-.24.05-.5.09-.76.12s-.53.07-.8.12a6.17,6.17,0,0,0-.74.19,2,2,0,0,0-.64.32,1.49,1.49,0,0,0-.43.5,1.61,1.61,0,0,0-.17.78A1.54,1.54,0,0,0,153,26a1.21,1.21,0,0,0,.44.48,1.93,1.93,0,0,0,.66.25,4,4,0,0,0,.78.07,3,3,0,0,0,1.53-.33,2.17,2.17,0,0,0,.8-.79,2.51,2.51,0,0,0,.32-.93,5.82,5.82,0,0,0,.05-.75V22.77A1.4,1.4,0,0,1,157,23.07Z"/><path class="cls-7" d="M165,16.56v1.69h.07a3.85,3.85,0,0,1,1.64-1.54,4.83,4.83,0,0,1,2.08-.48,5.78,5.78,0,0,1,2.2.36,3.36,3.36,0,0,1,1.35,1,3.82,3.82,0,0,1,.69,1.57,9.41,9.41,0,0,1,.2,2.06v7.49h-3.34V21.85a4.27,4.27,0,0,0-.47-2.24,1.8,1.8,0,0,0-1.67-.74,2.33,2.33,0,0,0-2,.81,4.49,4.49,0,0,0-.61,2.67v6.38h-3.34V16.56Z"/><path class="cls-7" d="M180.18,19.08h-5.87V16.56h10.27v2.52l-6.33,7.13H185v2.52H173.85V26.21Z"/><path class="cls-8" d="M111.84,36.81a2.09,2.09,0,0,0-1.24-.35,3.05,3.05,0,0,0-.6.06,1.71,1.71,0,0,0-.52.2,1.15,1.15,0,0,0-.37.39,1.17,1.17,0,0,0-.14.59.77.77,0,0,0,.2.55,1.47,1.47,0,0,0,.53.34,4.48,4.48,0,0,0,.75.21l.85.19c.29.07.57.15.85.24a3.49,3.49,0,0,1,.75.37,2,2,0,0,1,.52.59,1.76,1.76,0,0,1,.2.9,1.74,1.74,0,0,1-.26,1,2.11,2.11,0,0,1-.66.67,3.19,3.19,0,0,1-.91.38,4.94,4.94,0,0,1-1,.11,4.34,4.34,0,0,1-1.16-.15,2.9,2.9,0,0,1-.95-.46,2.2,2.2,0,0,1-.66-.79,2.6,2.6,0,0,1-.24-1.15h.92a1.62,1.62,0,0,0,.18.79,1.76,1.76,0,0,0,.46.55,2.12,2.12,0,0,0,.68.31,3,3,0,0,0,.8.1,3.66,3.66,0,0,0,.65-.06,1.94,1.94,0,0,0,.6-.21,1.15,1.15,0,0,0,.42-.4,1.18,1.18,0,0,0,.17-.65.91.91,0,0,0-.2-.61,1.32,1.32,0,0,0-.53-.38,3.67,3.67,0,0,0-.75-.24l-.85-.19c-.29-.06-.57-.14-.85-.22a3.43,3.43,0,0,1-.75-.34,1.58,1.58,0,0,1-.52-.54,1.5,1.5,0,0,1-.2-.83,1.93,1.93,0,0,1,.22-1,1.9,1.9,0,0,1,.6-.66,2.82,2.82,0,0,1,.84-.39,4,4,0,0,1,1-.12,3.85,3.85,0,0,1,1,.13,2.37,2.37,0,0,1,.84.42,2.08,2.08,0,0,1,.57.71,2.66,2.66,0,0,1,.23,1h-.92a1.51,1.51,0,0,0-.56-1.14"/><path class="cls-8" d="M118.18,43.19a.74.74,0,0,1-.53-.18.81.81,0,0,1-.2-.62,2.24,2.24,0,0,1-.83.62,2.88,2.88,0,0,1-1,.18,3,3,0,0,1-.68-.07,1.47,1.47,0,0,1-.55-.26,1.32,1.32,0,0,1-.38-.46,1.51,1.51,0,0,1-.13-.67A1.55,1.55,0,0,1,114,41a1.31,1.31,0,0,1,.4-.47,2.5,2.5,0,0,1,.57-.27c.21-.06.43-.11.65-.15a6.22,6.22,0,0,1,.68-.1,3.85,3.85,0,0,0,.57-.11.8.8,0,0,0,.38-.19.45.45,0,0,0,.15-.37.89.89,0,0,0-.11-.46.7.7,0,0,0-.28-.26,1.35,1.35,0,0,0-.37-.13,2.88,2.88,0,0,0-.41,0,1.84,1.84,0,0,0-.92.2.9.9,0,0,0-.4.79h-.86a1.84,1.84,0,0,1,.2-.82,1.53,1.53,0,0,1,.49-.55,2.17,2.17,0,0,1,.71-.3,3.7,3.7,0,0,1,.83-.09,5.49,5.49,0,0,1,.7,0,2.09,2.09,0,0,1,.64.21,1.29,1.29,0,0,1,.46.44,1.49,1.49,0,0,1,.17.75v2.7a2.41,2.41,0,0,0,0,.45.22.22,0,0,0,.24.14,1,1,0,0,0,.27,0v.67a1.22,1.22,0,0,1-.62.13M117,40.54l-.56.1-.58.08a2.05,2.05,0,0,0-.53.15.9.9,0,0,0-.38.28.82.82,0,0,0-.15.52.69.69,0,0,0,.09.36.84.84,0,0,0,.22.24,1,1,0,0,0,.33.13,1.58,1.58,0,0,0,.38,0,2,2,0,0,0,.73-.12A1.43,1.43,0,0,0,117,42a1.13,1.13,0,0,0,.28-.39,1,1,0,0,0,.1-.39v-.88a1,1,0,0,1-.43.17"/><rect class="cls-8" x="119.14" y="35.82" width="0.86" height="7.26"/><path class="cls-8" d="M124.38,43.08v-.83h0a1.71,1.71,0,0,1-.7.71,2,2,0,0,1-1,.23,2.4,2.4,0,0,1-.86-.13,1.56,1.56,0,0,1-.56-.39,1.66,1.66,0,0,1-.3-.61,3.1,3.1,0,0,1-.09-.78V37.82h.87v3.56a1,1,0,0,0,1.06,1.06,1.78,1.78,0,0,0,.69-.12A1.33,1.33,0,0,0,124,42a1.75,1.75,0,0,0,.29-.52,2.29,2.29,0,0,0,.09-.66v-3h.86v5.26Z"/><path class="cls-8" d="M129.82,43.08v-.71h0a1.25,1.25,0,0,1-.67.63,2.53,2.53,0,0,1-1,.19,2.36,2.36,0,0,1-1.06-.22,2.21,2.21,0,0,1-.75-.6,2.57,2.57,0,0,1-.45-.87,3.4,3.4,0,0,1-.16-1.06,3.62,3.62,0,0,1,.15-1.06,2.57,2.57,0,0,1,.45-.87,2.19,2.19,0,0,1,.75-.59,2.46,2.46,0,0,1,1-.22,3.42,3.42,0,0,1,.44,0,2.79,2.79,0,0,1,.47.14,2.38,2.38,0,0,1,.44.25,1.35,1.35,0,0,1,.35.4h0V35.82h.87v7.26Zm-3.1-1.86a1.86,1.86,0,0,0,.29.62,1.36,1.36,0,0,0,.51.44,1.72,1.72,0,0,0,1.47,0,1.67,1.67,0,0,0,.5-.45,2.18,2.18,0,0,0,.28-.64,3.53,3.53,0,0,0,.08-.72,3.08,3.08,0,0,0-.09-.75,2,2,0,0,0-.29-.64,1.46,1.46,0,0,0-.51-.44,1.64,1.64,0,0,0-.76-.16,1.49,1.49,0,0,0-.75.17,1.51,1.51,0,0,0-.49.45,2,2,0,0,0-.26.66,3.67,3.67,0,0,0-.08.75,2.55,2.55,0,0,0,.1.72"/><path class="cls-8" d="M137.87,43.19a.78.78,0,0,1-.54-.18.85.85,0,0,1-.2-.62,2.13,2.13,0,0,1-.82.62,2.9,2.9,0,0,1-1,.18,2.93,2.93,0,0,1-.67-.07,1.47,1.47,0,0,1-.55-.26,1.22,1.22,0,0,1-.38-.46,1.51,1.51,0,0,1-.13-.67,1.55,1.55,0,0,1,.15-.73,1.31,1.31,0,0,1,.4-.47,2.15,2.15,0,0,1,.57-.27c.21-.06.43-.11.65-.15A6.22,6.22,0,0,1,136,40a3.7,3.7,0,0,0,.56-.11.79.79,0,0,0,.39-.19.45.45,0,0,0,.14-.37.9.9,0,0,0-.1-.46.77.77,0,0,0-.28-.26,1.47,1.47,0,0,0-.37-.13,3,3,0,0,0-.42,0,1.8,1.8,0,0,0-.91.2.9.9,0,0,0-.4.79h-.86a1.84,1.84,0,0,1,.2-.82,1.53,1.53,0,0,1,.49-.55,2.21,2.21,0,0,1,.7-.3,3.8,3.8,0,0,1,.84-.09,5.49,5.49,0,0,1,.7,0,2.09,2.09,0,0,1,.64.21,1.29,1.29,0,0,1,.46.44,1.49,1.49,0,0,1,.17.75v2.7a2.41,2.41,0,0,0,0,.45.22.22,0,0,0,.24.14,1,1,0,0,0,.27,0v.67a1.22,1.22,0,0,1-.62.13m-1.21-2.65-.56.1-.58.08a2.05,2.05,0,0,0-.53.15.9.9,0,0,0-.38.28.82.82,0,0,0-.15.52.69.69,0,0,0,.09.36.72.72,0,0,0,.22.24,1,1,0,0,0,.33.13,1.58,1.58,0,0,0,.38,0,2,2,0,0,0,.73-.12,1.43,1.43,0,0,0,.5-.29,1.13,1.13,0,0,0,.28-.39,1,1,0,0,0,.09-.39v-.88a1,1,0,0,1-.42.17"/><path class="cls-8" d="M143.35,37.82v.77h-1v3.26a.78.78,0,0,0,0,.24.26.26,0,0,0,.09.15.52.52,0,0,0,.2.06l.33,0h.4v.76h-.66a3.22,3.22,0,0,1-.58,0,.87.87,0,0,1-.39-.17.72.72,0,0,1-.21-.35,1.9,1.9,0,0,1-.07-.59V38.59h-.9v-.77h.9V36.25h.86v1.57Z"/><path class="cls-8" d="M147.34,43.08v-.83h0a1.79,1.79,0,0,1-.71.71,2,2,0,0,1-1,.23,2.4,2.4,0,0,1-.86-.13,1.36,1.36,0,0,1-.86-1,3.12,3.12,0,0,1-.08-.78V37.82h.86v3.56a1.05,1.05,0,0,0,.28.78,1.08,1.08,0,0,0,.79.28,1.76,1.76,0,0,0,.68-.12,1.26,1.26,0,0,0,.49-.35,1.55,1.55,0,0,0,.29-.52,2.28,2.28,0,0,0,.1-.66v-3h.86v5.26Z"/><path class="cls-8" d="M151.35,38.59a1.7,1.7,0,0,1,.57-.53,2.42,2.42,0,0,1,.78-.29,4.28,4.28,0,0,1,.87-.09,5.49,5.49,0,0,1,.8.06,2.33,2.33,0,0,1,.75.22,1.31,1.31,0,0,1,.54.45,1.21,1.21,0,0,1,.22.77v2.73a4.88,4.88,0,0,0,0,.68,1.1,1.1,0,0,0,.14.49H154.6a1.82,1.82,0,0,1-.07-.25,2,2,0,0,1,0-.26,1.81,1.81,0,0,1-.81.5,3.08,3.08,0,0,1-1,.14,2.65,2.65,0,0,1-.71-.09,1.69,1.69,0,0,1-.57-.28,1.32,1.32,0,0,1-.38-.49,1.68,1.68,0,0,1-.14-.7,1.59,1.59,0,0,1,.16-.74,1.31,1.31,0,0,1,.41-.46,1.85,1.85,0,0,1,.57-.26,4.89,4.89,0,0,1,.64-.14l.65-.08a3.71,3.71,0,0,0,.55-.09.89.89,0,0,0,.39-.18.37.37,0,0,0,.13-.34.76.76,0,0,0-.07-.37.63.63,0,0,0-.21-.22.83.83,0,0,0-.29-.1l-.36,0a1.09,1.09,0,0,0-.67.18.81.81,0,0,0-.29.61H151.1a1.7,1.7,0,0,1,.25-.85m2.85,2-.29.07-.33,0-.35.05-.32.08a1.15,1.15,0,0,0-.27.14.67.67,0,0,0-.19.22.69.69,0,0,0-.07.34.63.63,0,0,0,.07.32.55.55,0,0,0,.19.21.92.92,0,0,0,.29.11,1.84,1.84,0,0,0,.33,0,1.36,1.36,0,0,0,.67-.14,1,1,0,0,0,.34-.34,1.11,1.11,0,0,0,.14-.41,2,2,0,0,0,0-.32v-.54a.63.63,0,0,1-.23.13"/><rect class="cls-8" x="156.53" y="35.82" width="1.44" height="7.26"/><path class="cls-8" d="M161.11,38.77a.94.94,0,0,0-.57.16,1.24,1.24,0,0,0-.39.4,2,2,0,0,0-.2.55,3.07,3.07,0,0,0-.07.6,3,3,0,0,0,.07.58,1.86,1.86,0,0,0,.19.53,1.26,1.26,0,0,0,.37.39,1.07,1.07,0,0,0,.58.16,1,1,0,0,0,.79-.29,1.34,1.34,0,0,0,.35-.78h1.4a2.41,2.41,0,0,1-.82,1.6,2.64,2.64,0,0,1-1.72.54A2.73,2.73,0,0,1,160,43a2.32,2.32,0,0,1-.84-.55,2.57,2.57,0,0,1-.54-.85,3.14,3.14,0,0,1-.19-1.08,3.54,3.54,0,0,1,.18-1.14,2.59,2.59,0,0,1,.52-.9,2.51,2.51,0,0,1,.85-.6,2.9,2.9,0,0,1,1.14-.21,3.37,3.37,0,0,1,.9.12,2.89,2.89,0,0,1,.77.37,2.09,2.09,0,0,1,.55.63,1.85,1.85,0,0,1,.25.87h-1.42a1,1,0,0,0-1.07-.9"/><path class="cls-8" d="M164.13,38.59a1.53,1.53,0,0,1,.57-.53,2.28,2.28,0,0,1,.77-.29,4.28,4.28,0,0,1,.87-.09,5.62,5.62,0,0,1,.81.06,2.2,2.2,0,0,1,.74.22,1.34,1.34,0,0,1,.55.45,1.28,1.28,0,0,1,.21.77v2.73c0,.24,0,.47,0,.68a1.25,1.25,0,0,0,.14.49h-1.46a1.82,1.82,0,0,1-.07-.25,2.06,2.06,0,0,1,0-.26,1.79,1.79,0,0,1-.82.5,3.08,3.08,0,0,1-.95.14,2.58,2.58,0,0,1-.7-.09,1.52,1.52,0,0,1-.57-.28,1.23,1.23,0,0,1-.38-.49,1.54,1.54,0,0,1-.14-.7,1.48,1.48,0,0,1,.16-.74,1.28,1.28,0,0,1,.4-.46,1.85,1.85,0,0,1,.57-.26,5,5,0,0,1,.65-.14l.64-.08a3.86,3.86,0,0,0,.56-.09,1,1,0,0,0,.39-.18.42.42,0,0,0,.13-.34.75.75,0,0,0-.08-.37.7.7,0,0,0-.2-.22,1,1,0,0,0-.3-.1l-.36,0a1.11,1.11,0,0,0-.67.18.8.8,0,0,0-.28.61h-1.45a1.61,1.61,0,0,1,.26-.85m2.85,2-.3.07-.33,0-.34.05-.32.08a1,1,0,0,0-.28.14.67.67,0,0,0-.19.22.82.82,0,0,0-.07.34.76.76,0,0,0,.07.32.58.58,0,0,0,.2.21.78.78,0,0,0,.28.11,1.87,1.87,0,0,0,.34,0,1.35,1.35,0,0,0,.66-.14,1,1,0,0,0,.34-.34,1.11,1.11,0,0,0,.14-.41,2.23,2.23,0,0,0,0-.32v-.54a.73.73,0,0,1-.23.13"/><path class="cls-8" d="M170.63,37.82v.74h0a1.65,1.65,0,0,1,.72-.67,2,2,0,0,1,.89-.21,2.35,2.35,0,0,1,.95.16,1.41,1.41,0,0,1,.59.44,1.7,1.7,0,0,1,.3.68,4.82,4.82,0,0,1,.08.89v3.23h-1.44v-3a1.92,1.92,0,0,0-.2-1,.8.8,0,0,0-.72-.32,1,1,0,0,0-.86.35,1.93,1.93,0,0,0-.26,1.16v2.75h-1.45V37.82Z"/><path class="cls-8" d="M177.3,38.77a1,1,0,0,0-.58.16,1.24,1.24,0,0,0-.39.4,2,2,0,0,0-.2.55,3.05,3.05,0,0,0-.06.6,2.93,2.93,0,0,0,.06.58,1.86,1.86,0,0,0,.19.53,1.09,1.09,0,0,0,.38.39,1,1,0,0,0,.56.16,1.06,1.06,0,0,0,.8-.29,1.34,1.34,0,0,0,.35-.78h1.4a2.41,2.41,0,0,1-.82,1.6,2.66,2.66,0,0,1-1.72.54,2.73,2.73,0,0,1-1.08-.2,2.32,2.32,0,0,1-.84-.55,2.57,2.57,0,0,1-.54-.85,3.14,3.14,0,0,1-.19-1.08,3.54,3.54,0,0,1,.18-1.14,2.59,2.59,0,0,1,.52-.9,2.51,2.51,0,0,1,.85-.6,2.9,2.9,0,0,1,1.14-.21,3.37,3.37,0,0,1,.9.12,2.89,2.89,0,0,1,.77.37,2.09,2.09,0,0,1,.55.63,2,2,0,0,1,.25.87h-1.42a1,1,0,0,0-1.06-.9"/><path class="cls-8" d="M181.66,41.82a1.3,1.3,0,0,0,.93.32,1.34,1.34,0,0,0,.76-.22.88.88,0,0,0,.38-.46H185a2.42,2.42,0,0,1-.93,1.35,2.77,2.77,0,0,1-1.53.4,2.9,2.9,0,0,1-1.12-.2,2.34,2.34,0,0,1-.84-.56,2.4,2.4,0,0,1-.53-.87,3.1,3.1,0,0,1-.19-1.12,3,3,0,0,1,.19-1.1,2.57,2.57,0,0,1,.55-.88,2.7,2.7,0,0,1,.85-.59,2.75,2.75,0,0,1,1.09-.21,2.52,2.52,0,0,1,1.17.26,2.32,2.32,0,0,1,.82.7,2.81,2.81,0,0,1,.46,1,3.82,3.82,0,0,1,.11,1.17h-3.8a1.45,1.45,0,0,0,.36,1m1.63-2.77a1,1,0,0,0-.79-.28,1.2,1.2,0,0,0-.57.12,1.09,1.09,0,0,0-.37.29,1,1,0,0,0-.19.36,1.8,1.8,0,0,0-.07.35h2.35a1.72,1.72,0,0,0-.36-.84"/></svg>