<svg id="Capa_1" data-name="Capa 1" xmlns="http://www.w3.org/2000/svg" viewBox="0 0 185 50"><defs><style>.cls-1{fill:none;}.cls-2{fill:#b3cc37;}.cls-3{fill:#eb6824;}.cls-4{fill:#e51e55;}.cls-5{fill:#027090;}.cls-6{fill:#1ecad3;}.cls-7{fill:#4a6a79;}</style></defs><path class="cls-1" d="M92.82,22.39c-1.18.08-4.7-.11-4.7-.11s.12-3.59-.68-4.77c-1-1.51-4.75-.66-4.75-.66s.11.55.12.74c.07,1.17-.12,4.69-.12,4.69h0c-.06,0-3.59-.12-4.78.68-1.5,1-.65,4.75-.65,4.75s.55-.1.74-.11c1.17-.08,4.69.11,4.69.11h0c0,.09-.12,3.59.68,4.78,1,1.5,4.75.65,4.75.65S88,32.59,88,32.4c-.08-1.17.12-4.69.12-4.69h0s3.58.13,4.78-.67c1.5-1,.65-4.75.65-4.75S93,22.38,92.82,22.39Z"/><path class="cls-2" d="M98.7,29.16a10.68,10.68,0,0,1-.1,1.52c2.73-4.12,2.61-7.77.06-10.8,0,.31,0,.63,0,.95Z"/><path class="cls-3" d="M90.07,11.38c-2.81-2.09-6.16-2.16-9.9.14A22.32,22.32,0,0,1,85.45,11,23.71,23.71,0,0,1,90.07,11.38Z"/><path class="cls-4" d="M72.11,20.83a10.4,10.4,0,0,1,.1-1.5c-2.72,4.13-2.58,7.78-.06,10.78,0-.31,0-.63,0-.95Z"/><path class="cls-5" d="M80.73,38.6c2.81,2.11,6.13,2.19,9.86-.1a22.44,22.44,0,0,1-5.14.53A23.81,23.81,0,0,1,80.73,38.6Z"/><path class="cls-6" d="M97.74,19.88c-.34-3.91-2.83-6.59-7.67-7.58a23,23,0,0,0-4.62-.42,22.32,22.32,0,0,0-5.28.56c-4.25,1-6.54,3.44-7,6.89a10.4,10.4,0,0,0-.1,1.5v8.33c0,.32,0,.64,0,.95.33,3.92,2.81,6.59,7.66,7.57a23.08,23.08,0,0,0,4.72.43,22.44,22.44,0,0,0,5.14-.53c4.27-1,6.59-3.41,7.09-6.9a10.68,10.68,0,0,0,.1-1.52V20.83C97.78,20.51,97.77,20.19,97.74,19.88ZM92.9,27c-1.2.8-4.74.68-4.78.67h0s-.2,3.52-.12,4.69c0,.19.12.74.12.74s-3.74.85-4.75-.65c-.8-1.19-.68-4.69-.68-4.78h0s-3.52-.19-4.69-.11c-.19,0-.74.11-.74.11S76.41,24,77.91,23c1.19-.8,4.72-.68,4.78-.68h0s.19-3.52.12-4.69c0-.19-.12-.74-.12-.74s3.74-.85,4.75.66c.8,1.18.68,4.69.68,4.77s3.52.19,4.7.11c.18,0,.73-.11.73-.11S94.4,26,92.9,27Z"/><path class="cls-7" d="M11.52,20.49a3.67,3.67,0,0,0-.83-.93,3.73,3.73,0,0,0-1.12-.63,3.79,3.79,0,0,0-1.31-.22,4.3,4.3,0,0,0-2.11.48,4,4,0,0,0-1.42,1.3,5.81,5.81,0,0,0-.79,1.85,9.42,9.42,0,0,0-.24,2.14,8.86,8.86,0,0,0,.24,2.06,5.64,5.64,0,0,0,.79,1.8,4,4,0,0,0,1.42,1.28,4.19,4.19,0,0,0,2.11.49,3.41,3.41,0,0,0,2.65-1,4.75,4.75,0,0,0,1.17-2.73h3.58a8.78,8.78,0,0,1-.73,2.85,6.59,6.59,0,0,1-1.56,2.16,6.41,6.41,0,0,1-2.26,1.37,8.35,8.35,0,0,1-2.85.47,8.59,8.59,0,0,1-3.47-.67,7.42,7.42,0,0,1-2.6-1.85A8,8,0,0,1,.57,27.91,10.12,10.12,0,0,1,0,24.48,10.45,10.45,0,0,1,.57,21a8.25,8.25,0,0,1,1.62-2.81,7.52,7.52,0,0,1,2.6-1.89,8.59,8.59,0,0,1,3.47-.68,8.67,8.67,0,0,1,2.63.4,7.09,7.09,0,0,1,2.21,1.17,6.45,6.45,0,0,1,1.62,1.89,6.9,6.9,0,0,1,.8,2.59H11.94A3.11,3.11,0,0,0,11.52,20.49Z"/><path class="cls-7" d="M20.09,16V32.82H16.74V16Z"/><path class="cls-7" d="M21.07,19.27,23.33,16H27l-3.62,3.31Zm3.44,1.5V32.82H21.17v-12Z"/><path class="cls-7" d="M29.15,20.64v1.7h.07a3.84,3.84,0,0,1,1.65-1.55,4.75,4.75,0,0,1,2.07-.48,5.51,5.51,0,0,1,2.2.37,3.22,3.22,0,0,1,1.36,1,3.86,3.86,0,0,1,.69,1.58,10,10,0,0,1,.2,2.06v7.49H34.05V25.94a4.31,4.31,0,0,0-.47-2.25A1.84,1.84,0,0,0,31.9,23a2.31,2.31,0,0,0-2,.81,4.49,4.49,0,0,0-.61,2.67v6.39H26V20.64Z"/><path class="cls-7" d="M38.85,18.76V16h3.34v2.76Zm3.34,1.88V32.82H38.85V20.64Z"/><path class="cls-7" d="M49.47,22.83a2.28,2.28,0,0,0-1.34.37,2.74,2.74,0,0,0-.88.94,4.14,4.14,0,0,0-.49,1.27,7.18,7.18,0,0,0-.14,1.38,6.93,6.93,0,0,0,.14,1.34,4.29,4.29,0,0,0,.46,1.23,2.59,2.59,0,0,0,.86.91,2.32,2.32,0,0,0,1.32.35A2.46,2.46,0,0,0,51.25,30a3.14,3.14,0,0,0,.81-1.8h3.23a5.51,5.51,0,0,1-1.89,3.7,6.05,6.05,0,0,1-4,1.27,6.63,6.63,0,0,1-2.51-.46A5.52,5.52,0,0,1,45,31.38a5.79,5.79,0,0,1-1.24-2,6.79,6.79,0,0,1-.45-2.51,8,8,0,0,1,.41-2.62,5.9,5.9,0,0,1,1.21-2.1,5.72,5.72,0,0,1,2-1.37,6.56,6.56,0,0,1,2.63-.5,7.64,7.64,0,0,1,2.09.28,5.82,5.82,0,0,1,1.79.86,4.78,4.78,0,0,1,1.28,1.44,4.6,4.6,0,0,1,.57,2H51.94A2.24,2.24,0,0,0,49.47,22.83Z"/><path class="cls-7" d="M56.44,22.43a4,4,0,0,1,1.32-1.25,5.94,5.94,0,0,1,1.8-.67,10.46,10.46,0,0,1,2-.2,14.79,14.79,0,0,1,1.86.13,5.84,5.84,0,0,1,1.72.51,3.41,3.41,0,0,1,1.27,1,2.93,2.93,0,0,1,.5,1.78v6.34A13.14,13.14,0,0,0,67,31.68a2.82,2.82,0,0,0,.33,1.14H64c-.06-.19-.11-.39-.15-.58s-.07-.4-.09-.6a4.32,4.32,0,0,1-1.88,1.15,7.54,7.54,0,0,1-2.21.33A6.06,6.06,0,0,1,58,32.91a3.73,3.73,0,0,1-1.32-.66,3.17,3.17,0,0,1-.88-1.13,3.88,3.88,0,0,1-.32-1.63,3.54,3.54,0,0,1,.37-1.7,3,3,0,0,1,.94-1.07,4,4,0,0,1,1.32-.6,12.75,12.75,0,0,1,1.49-.32c.51-.08,1-.14,1.49-.19a10.23,10.23,0,0,0,1.29-.21,2.35,2.35,0,0,0,.9-.41.9.9,0,0,0,.3-.79,1.85,1.85,0,0,0-.17-.86,1.34,1.34,0,0,0-.47-.5,1.87,1.87,0,0,0-.69-.23,5.4,5.4,0,0,0-.83-.06,2.58,2.58,0,0,0-1.56.42,2,2,0,0,0-.66,1.41H55.85A3.87,3.87,0,0,1,56.44,22.43ZM63,27.15a6.11,6.11,0,0,1-.68.18c-.24.05-.5.08-.76.12l-.8.11a6.33,6.33,0,0,0-.75.19,2.33,2.33,0,0,0-.63.32,1.46,1.46,0,0,0-.44.51,1.91,1.91,0,0,0,0,1.53,1.3,1.3,0,0,0,.45.48,1.93,1.93,0,0,0,.66.25,4.92,4.92,0,0,0,.78.07,3,3,0,0,0,1.53-.33,2.33,2.33,0,0,0,.8-.79,2.43,2.43,0,0,0,.31-.93,6.43,6.43,0,0,0,.06-.76V26.86A1.49,1.49,0,0,1,63,27.15Z"/><path class="cls-7" d="M115.92,31.49a9.27,9.27,0,0,1-10.56,0,6.44,6.44,0,0,1-1.87-5.09V16h3.69V26.42a7.5,7.5,0,0,0,.12,1.34,2.78,2.78,0,0,0,.49,1.17,2.92,2.92,0,0,0,1,.82,4.3,4.3,0,0,0,1.8.32,3.53,3.53,0,0,0,2.74-.88,4.23,4.23,0,0,0,.75-2.77V16h3.7V26.42A6.35,6.35,0,0,1,115.92,31.49Z"/><path class="cls-7" d="M122.18,20.6v1.7h.07a3.86,3.86,0,0,1,1.65-1.54,4.69,4.69,0,0,1,2.07-.49,5.7,5.7,0,0,1,2.2.37,3.22,3.22,0,0,1,1.36,1,3.86,3.86,0,0,1,.69,1.58,9.41,9.41,0,0,1,.2,2.06v7.49h-3.34V25.9a4.34,4.34,0,0,0-.47-2.25,1.84,1.84,0,0,0-1.67-.74,2.33,2.33,0,0,0-2,.81,4.53,4.53,0,0,0-.61,2.68v6.38H119V20.6Z"/><path class="cls-7" d="M131.41,18.72V16h3.34v2.76Zm3.34,1.88V32.78h-3.34V20.6Z"/><path class="cls-7" d="M134.47,22.84V20.6h2v-.94a3.63,3.63,0,0,1,1-2.66,4.09,4.09,0,0,1,3.06-1c.3,0,.59,0,.89,0l.87.06v2.49a12,12,0,0,0-1.22-.07,1.3,1.3,0,0,0-1,.32,1.59,1.59,0,0,0-.29,1.07v.73h2.3v2.24h-2.3v9.94h-3.35V22.84Z"/><path class="cls-7" d="M145.11,20.6v2.26h0a4.17,4.17,0,0,1,.64-1,3.83,3.83,0,0,1,.92-.83,4.47,4.47,0,0,1,1.1-.53,4.21,4.21,0,0,1,1.23-.19,2.58,2.58,0,0,1,.73.12V23.5c-.16,0-.35-.06-.57-.08a4.64,4.64,0,0,0-.63,0,3.5,3.5,0,0,0-1.56.31,2.69,2.69,0,0,0-1,.83,3.42,3.42,0,0,0-.56,1.24,6.72,6.72,0,0,0-.16,1.53v5.49h-3.34V20.6Z"/><path class="cls-7" d="M150.37,22.39a4,4,0,0,1,1.31-1.24,5.89,5.89,0,0,1,1.8-.68,10.56,10.56,0,0,1,2-.2,14.79,14.79,0,0,1,1.86.13,5.84,5.84,0,0,1,1.72.51A3.34,3.34,0,0,1,160.35,22a2.91,2.91,0,0,1,.49,1.78v6.33a11.45,11.45,0,0,0,.1,1.58,2.76,2.76,0,0,0,.33,1.13h-3.39a3.83,3.83,0,0,1-.16-.58c0-.2-.06-.4-.08-.6a4.32,4.32,0,0,1-1.88,1.15,7.55,7.55,0,0,1-2.22.33,6,6,0,0,1-1.62-.21,3.73,3.73,0,0,1-1.32-.66,3,3,0,0,1-.88-1.13,3.8,3.8,0,0,1-.32-1.62,3.61,3.61,0,0,1,.36-1.71,3.08,3.08,0,0,1,1-1.07,4,4,0,0,1,1.32-.6,15.19,15.19,0,0,1,1.49-.32c.5-.08,1-.14,1.48-.19a10.11,10.11,0,0,0,1.3-.21,2.17,2.17,0,0,0,.89-.41.93.93,0,0,0,.31-.79,1.75,1.75,0,0,0-.18-.86,1.17,1.17,0,0,0-.47-.49,1.77,1.77,0,0,0-.68-.24,5.53,5.53,0,0,0-.84-.06,2.55,2.55,0,0,0-1.55.42,1.9,1.9,0,0,0-.66,1.42h-3.34A3.78,3.78,0,0,1,150.37,22.39Zm6.6,4.72a6.11,6.11,0,0,1-.68.18c-.25.05-.5.09-.77.12s-.53.07-.8.12a6.14,6.14,0,0,0-.74.18,2.4,2.4,0,0,0-.64.32,1.52,1.52,0,0,0-.43.51,1.61,1.61,0,0,0-.17.78,1.57,1.57,0,0,0,.17.75,1.3,1.3,0,0,0,.45.48,1.8,1.8,0,0,0,.65.25,4.11,4.11,0,0,0,.78.07,3,3,0,0,0,1.53-.33,2.17,2.17,0,0,0,.8-.79,2.4,2.4,0,0,0,.32-.93,6.14,6.14,0,0,0,.06-.75V26.82A1.42,1.42,0,0,1,157,27.11Z"/><path class="cls-7" d="M165,20.6v1.7H165a3.86,3.86,0,0,1,1.65-1.54,4.69,4.69,0,0,1,2.07-.49,5.79,5.79,0,0,1,2.21.37,3.25,3.25,0,0,1,1.35,1,3.86,3.86,0,0,1,.69,1.58,9.41,9.41,0,0,1,.2,2.06v7.49h-3.34V25.9a4.34,4.34,0,0,0-.47-2.25,1.83,1.83,0,0,0-1.67-.74,2.33,2.33,0,0,0-2,.81,4.53,4.53,0,0,0-.61,2.68v6.38h-3.35V20.6Z"/><path class="cls-7" d="M180.15,23.12h-5.86V20.6h10.26v2.52l-6.33,7.14H185v2.52H173.82V30.26Z"/></svg>