<?xml version="1.0" encoding="UTF-8"?>
<svg id="Capa_1" data-name="Capa 1" xmlns="http://www.w3.org/2000/svg" viewBox="0 0 183.64 200">
  <defs>
    <style>
      .cls-1 {
        fill: #4b6b7a;
      }
    </style>
  </defs>
  <path class="cls-1" d="M181.98,193.69c-8.66-8.5-17.33-17-25.74-25.74-8.62-8.95-17.75-16.9-30.48-19.32-1.67-.32-2.57-1.25-.81-2.69,7.07-5.76,10.79-14.15,16.46-21.02,12.22-14.82,13.9-32.5,11.01-50.3-1.45-8.93-2.86-17.84-3.61-26.84-1.35-16.32-11.98-29.41-27.85-33.67-3.37-.9-6.4-2.27-9.44-4.01C87.31-3.79,63.26-3.36,39.53,11.42c-1.4,.87-2.78,1.58-4.49,1.94C17.8,16.97,6.35,29.63,4.48,47.11c-.69,6.48,.08,13.36-1.87,19.39C-.11,74.87,.02,83.17,0,91.61c-.03,11.9,3.56,22.75,10.87,32.02,5.88,7.46,10.03,16.28,17.54,22.48,.64,.53,.92,1.52,1.27,2.34,3.65,8.56,8.68,16.2,14.82,23.21,4.41,5.02,8.08,10.47,6.68,17.83-.39,2.05,.1,4.25-.1,6.36-.24,2.55,1.19,2.55,3.04,2.53,1.94-.03,3.61,.13,3.37-2.74-.24-2.91-.05-5.86-.05-9.21,13.05,7.43,25.53,7.43,38.35-.04,0,3.42,.09,6.4-.03,9.37-.08,1.87,.38,2.55,2.46,2.69,3.11,.21,4.04-.64,4.06-3.91,.02-6.74-1.17-13.39,3.77-19.75,6.72-8.66,10.24-10.34,20.35-5.81,3.37,1.51,6.24,3.65,8.83,6.26,7.7,7.74,15.51,15.38,23.12,23.22,1.88,1.93,2.87,2.13,4.86,.09,1.91-1.96,1.57-2.91-.18-4.62-8.03-7.85-15.87-15.88-23.87-23.75-5.55-5.46-12.14-9.02-20-9.62-12.41-.94-24.86-.16-37.29-.4-2.25-.04-4.99,.28-5.11-2.99-.12-3.41,2.5-3.6,5.09-3.6,10.77,.02,21.54-.06,32.31,.03,12.36,.1,23.02,4.35,31.79,13.2,10.47,10.55,21.05,21,31.49,31.58,1.72,1.75,2.67,2.47,4.85,.3,2.22-2.21,1.5-3.2-.3-4.96Zm-37.74-88.04c-.46-8.72-1.87-17.13-5.62-25.02-.6-1.25-.24-1.83,.83-2.42,2.18-1.2,4.32-2.48,7.09-4.08,.59,10.93,1.41,21.35-2.3,31.52Zm-135.38,.46c-3.04-12.11-4.54-24.17-.4-36.41,1.75-5.18,1.64-10.73,1.74-16.14,.2-11.15,3.47-20.81,12.58-27.92,3.4-2.65,7.14-4.81,11.31-5.49,4.21-.69,7.54-2.76,11.09-4.79,21.25-12.14,42.51-12.1,63.58,.51,3.13,1.87,6.25,3.31,9.91,4.14,13.81,3.15,22.59,14.44,24.11,30.39,.45,4.68,.67,9.38,.92,14.07,.16,3.1-5.01,8.3-8.23,8.53-1.45,.1-1.71-1.02-2.29-1.8-10.2-13.53-23.65-21.31-40.6-22.73-2.38-.2-3.16-.97-3.36-3.47-.62-7.69-1.67-15.35-2.53-23.02-.22-1.93-.24-3.53-3.2-2.78-2.34,.59-3.88,.78-3.19,3.81,1.56,6.8,2.04,13.77,2.5,20.71,.09,1.4,1.23,4-.96,4.13-2.67,.17-6.11,1.96-8.07-1.9-1.8-3.54-3.45-7.17-3.38-11.17,.06-3.51-2.27-2.25-3.97-2.52-2.52-.4-2.69,1.05-2.51,2.96,.41,4.36,1.86,8.45,3.56,12.79-16.98-.04-31.34,5.66-43.18,17.95-1.55-1.77-1.93-3.86-2.04-5.82-.12-2.13-1.1-2.23-2.83-2.37-3.29-.28-4.49,.74-3.33,4,.25,.7,.1,1.62,.48,2.2,3.92,6,1.16,10.98-1.79,16.39-4.31,7.92-5.48,16.78-5.92,25.75Zm11.77,7.1c.97,5.04,2.17,10.03,3.21,15.05,.14,.66-.05,1.39-.12,2.86-9.81-17.2-11.12-34.06-1.82-50.91,9.33-16.9,24.24-25.43,43.42-25.76,11.76-.2,23.65-1.34,35.3,1.62,31,7.88,46.43,44.26,30.52,71.96-.41,.72-1.04,1.31-1.57,1.96-.22-.16-.44-.32-.66-.48,1.65-7.29,3.32-14.58,4.96-21.87,.37-1.66,.02-3.22-.49-4.87-7.68-25.12-30.71-41.94-57.38-41.81-25.86,.12-48.98,17.44-56.35,42.06-1.09,3.64,.34,6.85,.98,10.2Zm85.03,32.51c-.24,1.56-1.13,1.57-2.2,1.57-4.24,.02-8.48-.04-12.72,.03-1.83,.03-2.56-1.4-3.66-2.37-6.32-5.52-15.28-5.37-21.41,.36-5.97,5.58-6.7,14.98-1.67,21.41,5,6.39,14.85,8.62,20.99,3.39,4.41-3.75,8.79-3.83,13.71-3.78,1.34,.01,2.68,0,4.41,0-4.26,12.14-15.73,20.12-27.28,19.45-13.56-.78-24.6-10.34-27.38-23.63-1.29-6.15-.86-12.38-.75-18.57,.06-2.91,1.66-5.51,4.87-5.63,5.87-.22,9.75-3.54,13.39-7.54,2.26-2.49,4.75-4.65,8.27-5.16,4.86-.7,8.92,.72,12.22,4.39,3.89,4.34,8.01,8.08,14.43,8.4,3.2,.16,5.27,4.4,4.77,7.66Zm-29.13,20.53c-5.98-.64-9.78-4.54-9.73-9.37,.05-4.64,3.39-8.32,7.82-8.6-6.29,7.51-5.9,12.53,1.91,17.97Zm37.44-18.86c-1.77-.2-2.16-.8-2.34-2.47-1.02-9.68-2.88-11.64-12.47-13.47-3.93-.75-5.97-4-8.46-6.54-4.29-4.35-9.24-6.55-15.41-6.21-5.34,.3-9.47,2.75-13.02,6.5-3.24,3.43-6.38,6.37-11.77,6.71-5.2,.33-8.91,6-9.1,11.96-.12,3.93-.02,7.87-.02,12.99-7.27-10.75-9.53-21.96-11.99-33.1-.78-3.54-1.17-7.2-2.37-10.59-2.02-5.73-.84-10.83,1.71-16.02,9.23-18.77,29.41-31.29,49.57-29.92,22.9,1.55,39.07,12.98,48,34.31,1.15,2.74,1.35,5.33,.58,8.32-2.92,11.38-4.54,23.08-8.43,34.24-.78,2.24-1.77,3.59-4.49,3.29Z"/>
  <path class="cls-1" d="M65.5,106.7c-1.56-.7-2.92-3.25-5.33-1.05-5.05,4.62-6.51,4.55-12.08-.24-2.24-1.93-3.47,.56-5,1.15-2.17,.85-.42,2.29,.25,3.18,2.69,3.56,6.31,5.46,11.32,5.54,3.96-.2,7.77-1.75,10.31-5.53,.53-.78,2.83-2.03,.53-3.05Z"/>
  <path class="cls-1" d="M110.41,106.87c-1.51-1.14-3.52-3.88-6.22-.45-2.85,3.6-7.47,3.74-10.18,.18-2.64-3.46-4.76-1.11-6.24,.15-2.22,1.9,.6,3.25,1.65,4.42,2.52,2.81,5.85,4.1,9.66,4.08,3.89-.04,7.46-1.55,9.94-4.53,.9-1.08,3.14-2.53,1.39-3.85Z"/>
</svg>