<?xml version="1.0" encoding="utf-8"?>
<!-- Generator: Adobe Illustrator 27.0.0, SVG Export Plug-In . SVG Version: 6.00 Build 0)  -->
<svg version="1.1" id="Capa_1" xmlns="http://www.w3.org/2000/svg" xmlns:xlink="http://www.w3.org/1999/xlink" x="0px" y="0px"
	 viewBox="0 0 100 100" style="enable-background:new 0 0 100 100;" xml:space="preserve">
<style type="text/css">
	.st0{fill:#196480;}
	.st1{fill-rule:evenodd;clip-rule:evenodd;fill:#196480;}
</style>
<g>
	<g>
		<path class="st0" d="M57.2,89.09c4.1,2.14,7.87,1.59,11.58-0.26c2.94-1.47,5.37-3.59,7.5-6.08c1.45-1.69,4.48-1.95,6.33-0.55
			c1.85,1.4,2.39,4.23,1.15,6.09c-6.33,9.56-18.65,14.03-28.93,10.5c-2.84-0.97-5.32-2.53-7.5-4.59c-0.36-0.34-0.84-0.74-1.29-0.77
			c-5.52-0.39-9.6-3.39-12.77-7.54c-2.35-3.08-4.15-6.59-6.18-9.91c-0.3-0.48-0.45-1.08-0.81-1.49C20.9,68.32,18.41,60.91,17.06,53
			c-1.15-6.74-1.37-13.54-1.5-20.36c-0.14-7.7,2.21-14.53,6.65-20.65C27.09,5.24,33.99,1.77,42.06,0.45
			c8.84-1.44,16.88,0.53,23.91,6.06c5.63,4.43,8.55,10.5,9.71,17.45c1.23,7.37,1.22,14.8,0.67,22.21c-0.33,4.49-1.11,8.98-2.01,13.4
			c-1.07,5.25-3.49,9.94-6.86,14.13c-0.35,0.44-0.69,0.92-0.92,1.43C64.31,80.28,61.48,85.04,57.2,89.09z M67.16,70.5
			c2.4-3.39,3.97-6.83,4.95-10.54c2.27-8.61,2.61-17.39,2.37-26.23c-0.05-1.75-0.78-2.32-2.24-2.82c-7.41-2.54-15.03-3.8-22.85-3.92
			c-10.44-0.15-20.55,1.78-30.49,4.84c-0.96,0.3-1.27,0.79-1.21,1.75c0.29,4.9,0.36,9.82,0.86,14.69
			c0.64,6.12,1.84,12.15,4.66,17.71c0.8,1.57,1.77,3.05,2.85,4.88c0.7-2.82,2.04-4.64,4.33-5.51c1.81-0.69,3.77-1,5.56-1.73
			c1.08-0.43,2.07-1.23,2.92-2.05C40.06,60.41,41,59,42.2,57.87c0.57-0.54,0.87-0.97,0.86-1.77c-0.04-3.91-0.02-7.82-0.02-11.73
			c0-0.75,0.04-1.56,1.01-1.57c0.94-0.01,1.09,0.73,1.08,1.52c-0.02,1.29,0,2.57,0,3.86c0,2.7,0,5.41,0,8.15
			c0.33,0.05,0.51,0.11,0.68,0.1c3.41-0.3,5.94,1.2,7.67,3.99c1.39,2.25,3.32,3.32,5.88,3.77C62.93,64.83,66.04,66.27,67.16,70.5z
			 M17.65,29.98c18.87-5.9,37.64-7.42,56.63-0.63c-0.1-0.92-0.16-1.66-0.26-2.41c-0.78-5.69-2.27-11.13-6.17-15.57
			c-6.3-7.15-14.35-9.99-23.7-9.01C33.35,3.5,25.27,8.76,20.64,18.8C19.04,22.27,18.05,25.92,17.65,29.98z M55.19,87.97
			c0.81-0.76,1.35-1.22,1.83-1.73c2.66-2.84,4.72-6.08,6.46-9.55c0.43-0.85,0.37-1.5-0.13-2.24c-1.71-2.55-3.87-4.29-7.14-4.24
			c-2.75,0.04-4.95-1.05-6.62-3.3c-2-2.71-3.47-2.76-5.66-0.24c-2.17,2.49-4.74,3.98-8.16,4.07c-3.16,0.08-4.82,2.31-6.07,4.76
			c-0.13,0.25-0.11,0.69,0.03,0.95c2.64,5.19,5.74,10.03,10.91,13.1c1.13,0.67,2.42,1.06,3.85,1.66c-0.97-1.89-1.81-3.44-2.53-5.04
			c-0.21-0.47-0.31-1.21-0.08-1.61c0.65-1.14,1.34-2.35,2.3-3.21c2.38-2.11,6.46-1.07,7.9,1.74C52.9,84.73,54.04,86.2,55.19,87.97z
			 M65.06,72.94c0.28-2.45-0.68-4.46-2.61-5.43c-1.1-0.55-2.27-1.2-3.45-1.3c-3.47-0.28-5.79-2.07-7.54-4.93
			c-0.89-1.46-2.24-2.41-4.02-2.67c-2.96-0.43-4.84,1.2-6.2,3.44c-1.53,2.5-3.71,3.61-6.48,4.12c-1.51,0.28-3.01,0.89-4.36,1.64
			c-1.86,1.03-2.73,3.65-2,5.46c0.34-0.44,0.66-0.85,0.97-1.26c1.66-2.18,3.89-3.41,6.6-3.46c2.55-0.04,4.41-1.2,6.06-2.98
			c0.77-0.83,1.56-1.72,2.53-2.25c2.29-1.27,4.67-0.54,6.52,2.04c1.38,1.92,3.18,2.76,5.46,2.81c0.71,0.02,1.42,0.09,2.12,0.2
			C61.46,68.81,63.19,70.8,65.06,72.94z M57.62,97.57c0.45-2.01,0.82-3.66,1.2-5.32c-2.91-1.6-5.49-0.88-6.47,1.95
			c-0.13,0.37,0.12,1.18,0.43,1.33C54.33,96.28,55.95,96.89,57.62,97.57z M53.85,89.14c-0.63-0.52-1.33-1.45-2.23-1.75
			c-1.72-0.57-3.74,0.45-4.59,2.05c-0.16,0.3-0.21,0.89-0.02,1.11c0.93,1.11,1.95,2.15,2.77,3.03
			C51.18,92.06,52.43,90.68,53.85,89.14z M64.68,92.55c-3.78-0.13-5.04,1.24-4.55,5.12c1.82,0,3.64,0,5.41,0
			C65.24,95.89,64.97,94.28,64.68,92.55z M75.23,93.95c1.32-1.1,2.58-2.15,3.63-3.03c-1.32-1.33-2.53-2.56-3.8-3.85
			c-0.52,1.1-2.72,1.07-2.39,3.09C72.93,91.74,73.63,93.02,75.23,93.95z M70.22,90.56c-0.42,0.19-1.04,0.36-1.52,0.72
			c-0.59,0.44-1.45,1.01-1.49,1.58c-0.09,1.18,0.23,2.4,0.48,3.58c0.05,0.23,0.6,0.58,0.8,0.51c1.49-0.49,2.96-1.07,4.28-1.57
			C71.87,93.67,71.09,92.19,70.22,90.56z M50.39,84.66c-0.32-1.44-1.52-2.09-3.05-2.22c-1.65-0.15-2.75,0.92-3.08,2.25
			c-0.24,0.98,0.4,2.18,0.6,3.04C46.86,86.61,48.56,85.67,50.39,84.66z M82.32,86.03c-0.03-1.56-1.09-2.59-2.64-2.57
			c-1.35,0.02-2.33,0.86-2.3,1.98c0.05,1.68,1.45,3.11,2.98,3.05C81.19,88.45,82.35,87,82.32,86.03z"/>
		<path class="st0" d="M28.43,39.01c3.39,0,6.6,0.87,9.69,2.18c0.38,0.16,0.55,0.82,0.82,1.25c-0.54,0.24-1.15,0.77-1.61,0.66
			c-1.94-0.45-3.8-1.25-5.75-1.62c-3.76-0.72-7.39-0.35-10.72,1.79c-0.39,0.25-1.14-0.07-1.72-0.12c0.21-0.56,0.26-1.35,0.67-1.64
			C22.37,39.68,25.31,39.02,28.43,39.01z"/>
		<path class="st0" d="M73.46,41.96c-0.03,1.1-0.88,1.59-1.65,1.09c-5.12-3.37-10.4-2.63-15.74-0.67c-0.4,0.15-0.85,0.43-1.21,0.35
			c-0.48-0.09-1.06-0.39-1.28-0.78c-0.12-0.22,0.3-1.04,0.64-1.18c4.4-1.76,8.92-2.87,13.65-1.72c1.63,0.4,3.17,1.24,4.71,1.96
			C73,41.21,73.26,41.73,73.46,41.96z"/>
		<path class="st0" d="M62.56,51.77c-3.18-0.12-5.78-1.14-8.11-2.8c-0.36-0.26-0.37-1.02-0.54-1.54c0.58-0.07,1.25-0.36,1.73-0.17
			c1.28,0.5,2.42,1.34,3.71,1.8c3.29,1.17,6.29,0.52,8.88-1.84c0.57-0.52,1.14-1.05,1.82-0.36c0.72,0.73,0.23,1.37-0.37,1.94
			C67.61,50.8,65.04,51.54,62.56,51.77z"/>
		<path class="st0" d="M29.13,51.77c-2.88-0.13-5.4-1.13-7.38-3.26c-0.3-0.33-0.15-1.08-0.21-1.63c0.54,0.03,1.3-0.16,1.6,0.13
			c3.69,3.6,8.3,3.04,12.09,0.72c0.75-0.46,1.66-1.52,2.42-0.32c0.83,1.29-0.62,1.69-1.37,2.17C34.06,50.99,31.3,51.79,29.13,51.77z
			"/>
	</g>
</g>
</svg>
