<?xml version="1.0" encoding="UTF-8"?>
<svg id="Capa_1" data-name="Capa 1" xmlns="http://www.w3.org/2000/svg" viewBox="0 0 200 200">
  <defs>
    <style>
      .cls-1 {
        fill: #fff;
      }
    </style>
  </defs>
  <path class="cls-1" d="M100.07,131.88c4.06-4.17,7.99-8.29,12.01-12.32,17.55-17.6,35.28-35.02,52.63-52.81,10.3-10.57,12.47-23.27,7.2-36.98-4.75-12.38-17.45-20.8-30.83-20.97-9.65-.12-17.92,3.24-24.79,9.99-4.08,4.01-8.09,8.08-12.12,12.13-3.43,3.44-5.29,3.46-8.67,.07-4.1-4.11-8.1-8.32-12.32-12.3-9.57-9.05-20.88-12.19-33.53-8.48-12.95,3.81-21.12,12.69-23.86,25.93-2.43,11.74,.82,22.14,9.19,30.77,5.96,6.16,12.15,12.09,18.09,18.27,1.01,1.05,1.88,2.89,1.75,4.27-.31,3.42-4.53,4.63-7.18,2.01-7.21-7.12-14.83-13.92-21.23-21.71-11.16-13.6-13.05-29.14-5.55-45.02C28.27,9.04,41.3,.96,58.72,.48c12.45-.34,22.81,4.65,31.52,13.34,3.12,3.11,6.2,6.25,9.68,9.76,3.28-3.39,6.36-6.63,9.5-9.82C123.35-.39,143.72-3.67,160.65,5.49c24.65,13.33,29.93,46.59,10.49,66.76-6.9,7.16-14.16,13.97-21.19,21.02-15.35,15.38-30.65,30.81-45.96,46.22-3.26,3.28-5.1,3.31-8.29,.1-11.62-11.65-23.25-23.28-34.88-34.92-.37-.37-.77-.7-1.11-1.1-1.77-2.04-1.79-4.36-.06-6.05,1.73-1.69,4.09-1.71,6.03,.19,4.83,4.72,9.58,9.53,14.35,14.3,6,6,12,12,18,18,.54,.54,1.12,1.02,2.04,1.86Z"/>
  <path class="cls-1" d="M84.75,161.57c-3.31,4.37-6.53,8.33-9.39,12.53-1.87,2.75-4.1,3.69-7.39,3.67-20.61-.13-41.21-.06-61.82-.07-.86,0-1.74,.06-2.59-.07-2.22-.35-3.75-2.23-3.55-4.4,.22-2.28,1.52-3.61,3.82-3.85,.86-.09,1.73-.04,2.6-.04,19.83,0,39.65-.02,59.48,.04,1.73,0,2.85-.48,3.89-1.9,3.61-4.97,7.34-9.85,11.06-14.74,2.71-3.56,5.52-3.51,8.1,.15,7.79,11.02,15.56,22.06,23.34,33.09,.49,.7,1.01,1.38,1.75,2.39,2.89-4.36,5.99-8.31,8.28-12.69,2.63-5.01,6.17-7.18,11.83-6.41,3.15,.42,6.4,.03,9.6,.1,2.68,.06,4.36,1.69,4.38,4.1,.03,2.36-1.72,4.16-4.31,4.22-3.37,.08-6.76,.13-10.13-.02-1.87-.09-2.95,.54-3.97,2.11-3.79,5.89-7.68,11.71-11.65,17.48-2.56,3.73-5.53,3.63-8.2-.14-7.64-10.81-15.25-21.65-22.88-32.47-.64-.91-1.32-1.81-2.26-3.08Z"/>
  <path class="cls-1" d="M178.03,177.71c-5.46,0-10.91,.01-16.37,0-3.27,0-5.17-1.53-5.21-4.13-.04-2.63,1.8-4.22,5.06-4.22,11.09-.03,22.18-.03,33.26,0,3.06,0,4.85,1.62,4.82,4.2-.03,2.53-1.88,4.13-4.93,4.14-5.54,.03-11.09,0-16.63,0h0Z"/>
</svg>