<?xml version="1.0" encoding="utf-8"?>
<!-- Generator: Adobe Illustrator 27.0.0, SVG Export Plug-In . SVG Version: 6.00 Build 0)  -->
<svg version="1.1" id="Capa_1" xmlns="http://www.w3.org/2000/svg" xmlns:xlink="http://www.w3.org/1999/xlink" x="0px" y="0px"
	 viewBox="0 0 100 100" style="enable-background:new 0 0 100 100;" xml:space="preserve">
<style type="text/css">
	.st0{fill:#FFFFFF;}
	.st1{fill-rule:evenodd;clip-rule:evenodd;fill:#FFFFFF;}
</style>
<g>
	<g>
		<path class="st0" d="M50.14,65.88c2.03-2.09,4-4.15,6.02-6.17c8.79-8.81,17.67-17.54,26.36-26.45c5.16-5.29,6.25-11.65,3.61-18.52
			c-2.38-6.2-8.74-10.42-15.44-10.5c-4.84-0.06-8.98,1.62-12.42,5c-2.04,2.01-4.05,4.05-6.07,6.08c-1.72,1.72-2.65,1.73-4.34,0.04
			c-2.05-2.06-4.06-4.17-6.17-6.16c-4.79-4.53-10.46-6.11-16.79-4.25c-6.49,1.91-10.58,6.36-11.95,12.99
			c-1.22,5.88,0.41,11.09,4.6,15.41c2.99,3.08,6.09,6.06,9.06,9.15c0.51,0.53,0.94,1.45,0.88,2.14c-0.16,1.71-2.27,2.32-3.6,1.01
			c-3.61-3.56-7.43-6.97-10.64-10.88c-5.59-6.81-6.54-14.6-2.78-22.55C14.17,4.35,20.7,0.3,29.42,0.06
			c6.24-0.17,11.43,2.33,15.79,6.68c1.56,1.56,3.11,3.13,4.85,4.89c1.64-1.7,3.19-3.32,4.76-4.92C61.8-0.37,72-2.01,80.48,2.58
			c12.35,6.68,14.99,23.34,5.25,33.44c-3.46,3.59-7.09,7-10.61,10.53c-7.69,7.71-15.35,15.43-23.02,23.15
			c-1.63,1.65-2.55,1.66-4.15,0.05c-5.82-5.83-11.65-11.66-17.47-17.49c-0.18-0.18-0.38-0.35-0.55-0.55
			c-0.89-1.02-0.89-2.18-0.03-3.03c0.86-0.85,2.05-0.86,3.02,0.09c2.42,2.37,4.8,4.77,7.19,7.16c3.01,3.01,6.01,6.01,9.02,9.02
			C49.38,65.22,49.68,65.47,50.14,65.88z"/>
		<path class="st0" d="M42.46,80.75c-1.66,2.19-3.27,4.17-4.7,6.28c-0.94,1.38-2.05,1.85-3.7,1.84C23.74,88.8,13.42,88.83,3.1,88.83
			c-0.43,0-0.87,0.03-1.3-0.04c-1.11-0.18-1.88-1.12-1.78-2.2c0.11-1.14,0.76-1.81,1.91-1.93c0.43-0.04,0.87-0.02,1.3-0.02
			c9.93,0,19.86-0.01,29.79,0.02c0.87,0,1.43-0.24,1.95-0.95c1.81-2.49,3.68-4.93,5.54-7.38c1.36-1.78,2.76-1.76,4.06,0.07
			c3.9,5.52,7.79,11.05,11.69,16.58c0.25,0.35,0.51,0.69,0.88,1.2c1.45-2.18,3-4.16,4.15-6.35c1.32-2.51,3.09-3.59,5.93-3.21
			c1.58,0.21,3.2,0.02,4.81,0.05c1.34,0.03,2.18,0.85,2.19,2.05c0.01,1.18-0.86,2.08-2.16,2.11c-1.69,0.04-3.38,0.07-5.07-0.01
			c-0.94-0.04-1.48,0.27-1.99,1.06c-1.9,2.95-3.85,5.87-5.84,8.76c-1.28,1.87-2.77,1.82-4.11-0.07
			c-3.83-5.42-7.64-10.84-11.46-16.26C43.27,81.83,42.93,81.39,42.46,80.75z"/>
		<path class="st0" d="M89.19,88.84c-2.73,0-5.47,0.01-8.2,0c-1.64,0-2.59-0.77-2.61-2.07c-0.02-1.32,0.9-2.11,2.54-2.12
			c5.55-0.01,11.11-0.01,16.66,0c1.53,0,2.43,0.81,2.41,2.11c-0.02,1.27-0.94,2.07-2.47,2.08C94.74,88.84,91.96,88.83,89.19,88.84
			C89.19,88.83,89.19,88.84,89.19,88.84z"/>
	</g>
</g>
</svg>
