<?xml version="1.0" encoding="utf-8"?>
<!-- Generator: Adobe Illustrator 27.0.0, SVG Export Plug-In . SVG Version: 6.00 Build 0)  -->
<svg version="1.1" id="Capa_1" xmlns="http://www.w3.org/2000/svg" xmlns:xlink="http://www.w3.org/1999/xlink" x="0px" y="0px"
	 viewBox="0 0 100 100" style="enable-background:new 0 0 100 100;" xml:space="preserve">
<style type="text/css">
	.st0{fill:#FFFFFF;}
	.st1{fill-rule:evenodd;clip-rule:evenodd;fill:#FFFFFF;}
</style>
<g>
	<g>
		<path class="st0" d="M11.79,42.09c-0.39-5.13-0.44-10.02,0.55-14.86C14.58,16.27,20.85,8.45,31.1,4.11
			c14.22-6.02,28.33-5.53,41.85,2.11c9.02,5.1,13.82,13.28,15.06,23.46c0.49,4.05,0.36,8.17,0.52,12.38c-0.01,0,0.21,0.06,0.43,0.09
			c2.96,0.43,4.5,1.95,5,4.97c0.59,3.57-0.22,6.97-1.44,10.27c-1.6,4.34-3.92,8.24-7.43,11.36c-0.45,0.4-0.74,1.05-0.93,1.65
			c-2.32,7.23-5.57,13.94-10.91,19.47c-6.38,6.62-14.29,10.18-23.37,10.12c-9.45-0.06-17.55-3.91-23.96-11.01
			c-4.85-5.37-7.84-11.74-10.08-18.54c-0.24-0.75-0.75-1.48-1.31-2.04C9.3,63.23,6.4,56.99,5.88,49.67
			c-0.08-1.14,0.13-2.33,0.4-3.45C6.95,43.44,8.89,42.16,11.79,42.09z M86.78,36.13c-0.11-1.67-0.16-3.58-0.38-5.48
			C85.09,19.73,79.81,11.44,69.84,6.5c-9.4-4.65-19.3-5.76-29.55-3.55c-6.58,1.42-12.61,4.01-17.59,8.67
			c-6.33,5.93-9.01,13.49-9.32,21.94c-0.14,3.8,0.42,7.63,0.47,11.44c0.1,7.02,0.85,13.96,2.55,20.78
			c1.93,7.72,4.87,14.98,10.07,21.15c5.94,7.05,13.6,10.96,22.75,11.29c8,0.29,15.09-2.6,21.07-7.96
			c6.42-5.77,9.96-13.26,12.47-21.35C86.05,58.3,85.95,47.29,86.78,36.13z M11.71,44.01c-1.73-0.27-3.17,0.53-3.68,2.47
			c-0.31,1.2-0.46,2.5-0.36,3.73c0.46,5.66,2.71,10.6,6.25,14.99c0.09,0.11,0.27,0.16,0.11,0.07
			C13.27,58.29,12.49,51.18,11.71,44.01z M85.79,65.36c0.05,0.09,0.1,0.19,0.16,0.28c0.1-0.22,0.15-0.47,0.29-0.65
			c3.24-4.06,5.33-8.64,5.98-13.79c0.2-1.58-0.02-3.25-0.33-4.83c-0.27-1.36-1.3-2.21-2.75-2.44c-0.95-0.15-1.34,0.16-1.34,1.18
			c-0.01,2.14,0.01,4.3-0.23,6.42C87.06,56.15,86.4,60.75,85.79,65.36z"/>
		<path class="st0" d="M49.98,83.82c-1.8-0.41-3.67-0.63-5.38-1.27c-2.14-0.8-3.48-2.51-3.77-4.82c-0.07-0.53,0.38-1.24,0.79-1.68
			c0.46-0.49,1.15-0.77,1.75-1.14c2.1-1.29,3.47-1.3,5.39,0.2c0.94,0.73,1.58,0.7,2.5-0.02c1.91-1.49,3.3-1.47,5.39-0.17
			c0.36,0.22,0.71,0.45,1.06,0.68c1.74,1.11,1.93,1.63,1.11,3.51c-1.21,2.79-3.56,3.94-6.4,4.31c-0.78,0.1-1.58,0.1-2.37,0.15
			C50.03,83.65,50.01,83.73,49.98,83.82z M49.92,81.89c1.15-0.14,2.32-0.19,3.45-0.44c1.66-0.38,3.02-1.25,3.73-2.88
			c0.15-0.34,0.25-0.89,0.08-1.15c-0.99-1.52-3.44-1.92-4.93-0.89c-2.51,1.73-1.81,1.96-4.61-0.07c-0.04-0.03-0.07-0.06-0.11-0.08
			c-1.32-0.91-3.67-0.41-4.75,1c-0.44,0.58,0.27,2.13,1.54,2.99c0.72,0.49,1.55,0.88,2.39,1.09C47.75,81.72,48.83,81.75,49.92,81.89
			z"/>
		<path class="st0" d="M29.37,53.08c-1.73-0.49-4.04-1.12-6.33-1.79c-0.34-0.1-0.65-0.37-0.93-0.61c-0.53-0.45-1.27-0.98-0.52-1.67
			c0.24-0.23,1.17,0.02,1.61,0.31c2.98,1.94,6.26,2.01,9.56,1.46c1.45-0.24,2.79-1.15,4.21-1.68c0.44-0.16,0.97-0.07,1.46-0.09
			c-0.12,0.49-0.08,1.23-0.39,1.42c-1.12,0.71-2.31,1.41-3.57,1.8C33.05,52.66,31.54,52.74,29.37,53.08z"/>
		<path class="st0" d="M69.9,53.08c-1.9-0.42-3.81-0.77-5.68-1.29c-0.78-0.22-1.54-0.7-2.14-1.25c-0.35-0.32-0.36-1-0.52-1.52
			c0.52,0.05,1.18-0.1,1.54,0.17c3.53,2.54,10.39,2.54,13.89-0.03c0.35-0.26,0.96-0.16,1.44-0.23c-0.11,0.52-0.04,1.24-0.36,1.52
			c-2.06,1.83-4.67,2.15-7.28,2.37c-0.28,0.02-0.56,0-0.84,0C69.93,52.92,69.92,53,69.9,53.08z"/>
		<path class="st0" d="M29.47,38.44c-0.73,0.23-2.16,0.72-3.61,1.1c-0.41,0.11-0.9-0.08-1.35-0.14c0.16-0.46,0.2-1.2,0.51-1.34
			c1.12-0.51,2.31-0.98,3.52-1.17c2.88-0.46,5.66,0.08,8.26,1.35c0.81,0.4,1.55,1.03,2.18,1.69c0.24,0.25,0.07,0.88,0.09,1.34
			c-0.45-0.06-1.07,0.05-1.33-0.2C35.64,39.04,33,38.67,29.47,38.44z"/>
		<path class="st0" d="M69.92,36.46c1.59,0.45,3.21,0.82,4.75,1.4c0.41,0.15,0.9,1.1,0.77,1.45c-0.34,0.86-1.02,0.39-1.61,0.07
			c-3.02-1.64-8.74-0.91-11.31,1.46c-0.51,0.47-1.06,1.05-1.59,0.34c-0.22-0.29,0.05-1.23,0.39-1.61
			C62.85,37.87,66.47,36.73,69.92,36.46z"/>
		<path class="st0" d="M44.62,62.8c0.2-0.23,0.46-0.72,0.65-0.69c0.43,0.06,0.95,0.27,1.23,0.6c1.4,1.6,3.4,2.2,5.27,1.32
			c0.68-0.32,1.18-1.02,1.82-1.45c0.36-0.24,0.85-0.29,1.28-0.43c0.07,0.45,0.34,1.02,0.17,1.32c-1.12,1.91-2.91,2.66-5.05,2.65
			c-2.15,0-3.9-0.79-5.07-2.66C44.81,63.3,44.76,63.12,44.62,62.8z"/>
		<path class="st0" d="M34.75,71.54c0.25,0.29,0.61,0.53,0.74,0.87c0.62,1.6,1.22,3.22,1.71,4.86c0.1,0.34-0.3,0.83-0.47,1.25
			c-0.4-0.28-1.01-0.47-1.17-0.85c-0.63-1.5-1.17-3.04-1.62-4.6c-0.13-0.44,0.17-1,0.27-1.51C34.39,71.56,34.57,71.55,34.75,71.54z"
			/>
		<path class="st0" d="M33.13,67.36c-0.35,0.48-0.48,0.83-0.72,0.94c-0.24,0.11-0.75,0.11-0.87-0.05c-1.22-1.59-2.4-3.2-3.54-4.85
			c-0.12-0.18,0-0.67,0.17-0.86c0.18-0.19,0.76-0.35,0.84-0.25C30.41,63.94,31.75,65.64,33.13,67.36z"/>
		<path class="st0" d="M67.6,68.68c-0.14-0.63-0.49-1.27-0.3-1.56c1-1.57,2.1-3.07,3.25-4.53c0.18-0.22,0.86-0.24,1.18-0.09
			c0.19,0.09,0.32,0.82,0.16,1.06c-1.03,1.55-2.14,3.05-3.25,4.54C68.5,68.3,68.18,68.37,67.6,68.68z"/>
		<path class="st0" d="M25.02,60.06c-0.38-0.24-0.69-0.41-0.98-0.63c-1.21-0.94-2.45-1.86-3.59-2.88c-0.33-0.3-0.4-0.9-0.58-1.36
			c0.53-0.02,1.22-0.26,1.57-0.02c1.37,0.95,2.67,2.02,3.93,3.11c0.25,0.22,0.37,0.72,0.35,1.09C25.71,59.6,25.31,59.79,25.02,60.06
			z"/>
		<path class="st0" d="M74.9,59.95c-0.18-0.14-0.52-0.29-0.62-0.54c-0.1-0.25-0.06-0.73,0.11-0.88c1.5-1.25,3.02-2.46,4.59-3.61
			c0.2-0.15,0.83,0.04,1.07,0.27c0.16,0.16,0.14,0.82-0.05,0.98c-1.49,1.26-3.03,2.45-4.57,3.66C75.33,59.9,75.17,59.89,74.9,59.95z
			"/>
		<path class="st0" d="M63.31,79.02c-0.28-0.78-0.67-1.29-0.56-1.65c0.52-1.73,1.14-3.44,1.83-5.12c0.12-0.29,0.72-0.37,1.1-0.55
			c0.15,0.43,0.5,0.92,0.4,1.27c-0.49,1.65-1.08,3.26-1.7,4.87C64.26,78.17,63.88,78.41,63.31,79.02z"/>
		<path class="st0" d="M40.94,16.01c-0.1-0.09-0.57-0.31-0.62-0.6c-0.05-0.3,0.25-0.92,0.49-0.98c1.9-0.43,3.81-0.8,5.73-1.09
			c0.24-0.04,0.77,0.45,0.8,0.74c0.03,0.29-0.35,0.84-0.64,0.9C44.89,15.36,43.06,15.65,40.94,16.01z"/>
		<path class="st0" d="M52.3,13.05c1.9,0.33,3.51,0.55,5.08,0.92c0.39,0.09,0.67,0.68,1,1.04c-0.44,0.21-0.91,0.63-1.33,0.59
			c-1.57-0.14-3.13-0.38-4.67-0.7c-0.43-0.09-0.78-0.59-1.16-0.9C51.6,13.66,52,13.32,52.3,13.05z"/>
		<path class="st0" d="M31.13,21.03c-0.18-0.14-0.56-0.29-0.62-0.52c-0.07-0.3,0.01-0.84,0.22-0.98c1.57-1.07,3.18-2.1,4.82-3.06
			c0.23-0.14,0.88,0.05,1.05,0.29c0.16,0.22,0.08,0.91-0.13,1.06c-1.56,1.08-3.18,2.08-4.79,3.1C31.56,20.99,31.4,20.98,31.13,21.03
			z"/>
		<path class="st0" d="M62.92,15.51c1.83,1.11,3.58,2.15,5.28,3.26c0.19,0.12,0.26,0.8,0.11,0.97c-0.22,0.24-0.8,0.46-1.05,0.33
			c-1.69-0.87-3.34-1.82-4.96-2.81c-0.21-0.13-0.32-0.68-0.24-0.97C62.14,16.04,62.54,15.85,62.92,15.51z"/>
		<path class="st0" d="M75.73,27.73c-0.13,0.15-0.28,0.5-0.53,0.59c-0.25,0.1-0.74,0.05-0.87-0.12c-1.14-1.57-2.26-3.17-3.3-4.81
			c-0.14-0.22,0.06-0.82,0.29-1.05c0.16-0.16,0.83-0.12,0.96,0.05c1.17,1.61,2.27,3.26,3.39,4.91
			C75.72,27.38,75.7,27.49,75.73,27.73z"/>
		<path class="st0" d="M27.66,23.07c0.16,0.53,0.55,1.13,0.39,1.44c-0.68,1.27-1.49,2.47-2.33,3.64c-0.14,0.2-0.72,0.28-0.96,0.16
			c-0.25-0.13-0.53-0.71-0.44-0.88c0.78-1.37,1.64-2.69,2.5-4C26.9,23.29,27.15,23.27,27.66,23.07z"/>
		<path class="st0" d="M49.93,89.88c-0.51,0-1.05,0.1-1.53-0.03c-0.32-0.09-0.76-0.49-0.77-0.76c-0.01-0.29,0.42-0.81,0.69-0.84
			c1.11-0.1,2.24-0.1,3.34,0c0.27,0.02,0.7,0.54,0.7,0.82c-0.01,0.27-0.45,0.69-0.76,0.77C51.07,89.97,50.49,89.88,49.93,89.88z"/>
		<path class="st0" d="M38.59,85.2c0-0.07,0.09,0.29-0.02,0.57c-0.14,0.34-0.52,0.88-0.69,0.84c-0.37-0.08-0.87-0.42-0.95-0.75
			c-0.2-0.8-0.29-1.66-0.23-2.47c0.03-0.38,0.51-0.72,0.78-1.08c0.31,0.28,0.77,0.5,0.9,0.85C38.57,83.66,38.51,84.25,38.59,85.2z"
			/>
		<path class="st0" d="M61.47,84.25c0.01-0.14-0.02-0.72,0.17-1.23c0.11-0.3,0.66-0.72,0.86-0.66c0.34,0.11,0.76,0.56,0.79,0.9
			c0.07,0.73,0.01,1.5-0.2,2.2c-0.14,0.46-0.64,0.81-0.98,1.21c-0.24-0.44-0.51-0.86-0.7-1.31C61.33,85.16,61.43,84.89,61.47,84.25z
			"/>
	</g>
</g>
</svg>
