<?xml version="1.0" encoding="utf-8"?>
<!-- Generator: Adobe Illustrator 27.0.0, SVG Export Plug-In . SVG Version: 6.00 Build 0)  -->
<svg version="1.1" id="Capa_1" xmlns="http://www.w3.org/2000/svg" xmlns:xlink="http://www.w3.org/1999/xlink" x="0px" y="0px"
	 viewBox="0 0 100 100" style="enable-background:new 0 0 100 100;" xml:space="preserve">
<style type="text/css">
	.st0{fill:#196480;}
	.st1{fill-rule:evenodd;clip-rule:evenodd;fill:#196480;}
</style>
<g>
	<g>
		<path class="st0" d="M49.94,0c4.5,0,9,0,13.5,0c3.88,0,6.8,2.64,7.3,6.49c0.86,6.66,1.76,13.32,2.64,19.98
			c0.08,0.6,0.31,1.04,0.79,1.45c2.81,2.41,2.56,7.04-0.53,9.29c-0.78,0.57-1.18,1.24-1.44,2.13c-1.59,5.29-3.74,10.32-7.12,14.75
			c-0.79,1.04-1.72,1.97-2.63,2.91c-0.3,0.31-0.38,0.54-0.22,0.95c0.61,1.56,1.15,3.14,1.79,4.69c0.13,0.33,0.52,0.63,0.86,0.78
			c7.62,3.19,15.25,6.35,22.88,9.52c0.72,0.3,1.43,0.64,2.13,0.99c2.23,1.12,3.77,2.87,4.54,5.25c1.52,4.7,2.31,9.55,2.97,14.42
			c0.22,1.61,0.38,3.22,0.57,4.83c0.12,1.01-0.14,1.51-0.82,1.57c-0.68,0.07-1.04-0.37-1.14-1.36c-0.55-5.44-1.45-10.82-2.61-16.17
			c-0.84-3.87-2.84-6.39-6.58-7.86c-7.56-2.98-15.03-6.19-22.54-9.32c-0.47-0.19-0.74-0.09-1.07,0.26
			c-3.94,4.13-7.89,8.23-11.84,12.35c-0.96,1-1.34,1-2.31,0.02c-4.08-4.13-8.17-8.25-12.26-12.37c-0.29-0.29-0.53-0.49-1.01-0.29
			c-8.12,3.42-16.25,6.8-24.37,10.21c-2.14,0.9-3.48,2.5-4.15,4.72c-1.4,4.62-2.18,9.36-2.81,14.14c-0.2,1.48-0.31,2.97-0.53,4.44
			c-0.06,0.4-0.29,0.84-0.58,1.11c-0.17,0.16-0.77,0.13-0.92-0.04c-0.26-0.29-0.47-0.78-0.43-1.15c0.31-2.81,0.56-5.63,1.08-8.4
			c0.7-3.72,1.54-7.42,2.49-11.08c0.64-2.48,2.29-4.31,4.65-5.32c7.93-3.39,15.88-6.73,23.86-10.01c1.25-0.51,2.04-1.13,2.39-2.45
			c0.32-1.21,0.87-2.35,1.28-3.54c0.07-0.22,0.04-0.61-0.11-0.75c-3.74-3.46-6.04-7.85-7.95-12.47c-0.76-1.83-1.37-3.73-1.98-5.61
			c-0.24-0.73-0.57-1.28-1.22-1.73c-3.16-2.17-3.64-7.13-0.48-9.62c0.29-0.23,0.49-0.68,0.54-1.05c0.76-5.52,1.5-11.04,2.23-16.56
			c0.18-1.32,0.31-2.65,0.51-3.97c0.56-3.62,3.48-6.12,7.14-6.13C40.94,0,45.44,0,49.94,0z M35.19,40.3
			c0.34-0.1,0.61-0.18,0.88-0.25c2.95-0.8,5.89-1.64,8.86-2.37c2.31-0.57,4.66-0.97,7.06-0.62c4.15,0.61,8.17,1.77,12.16,3.01
			c0.71,0.22,0.99,0.06,1.31-0.56c1.63-3.13,3.23-6.28,4.99-9.33c0.9-1.56,1.36-3.04,0.77-4.79c-0.15-0.44-0.08-0.95-0.24-1.39
			c-0.13-0.38-0.36-0.84-0.69-1.01c-13.56-7.42-27.13-7.41-40.68,0.03c-0.3,0.17-0.55,0.61-0.63,0.96c-0.23,1.1-0.4,2.21-0.53,3.33
			c-0.04,0.36,0.02,0.78,0.18,1.09c1.34,2.49,2.71,4.95,4.07,7.42C33.54,37.32,34.36,38.8,35.19,40.3z M29.41,20.77
			c13.76-7,27.42-7,41.12-0.02c-0.01-0.22-0.01-0.37-0.03-0.52c-0.57-4.51-1.13-9.03-1.71-13.54c-0.37-2.89-2.45-4.72-5.41-4.73
			c-8.92-0.02-17.84-0.02-26.76,0c-3.1,0.01-5.12,1.92-5.47,5.02c-0.26,2.29-0.58,4.56-0.86,6.85C30,16.11,29.71,18.39,29.41,20.77z
			 M50.18,60.26c0.43-0.03,1.11-0.05,1.79-0.14c4.62-0.62,8.12-3.12,11.06-6.58c0.33-0.39,0.44-0.73,0.31-1.26
			c-0.65-2.56-0.49-5.07,0.55-7.53c0.25-0.59,0.37-1.25,0.53-1.88c0.13-0.49-0.06-0.75-0.58-0.88c-2.85-0.76-5.68-1.61-8.55-2.3
			c-2.13-0.52-4.28-1.02-6.51-0.72c-4.29,0.58-8.41,1.87-12.55,3.07c-0.43,0.12-0.53,0.36-0.43,0.75c0.16,0.63,0.26,1.29,0.5,1.89
			c0.86,2.05,1.4,4.23,0.77,6.35c-0.6,2.02,0.23,3.19,1.59,4.32c0.08,0.07,0.15,0.15,0.23,0.22C41.97,58.52,45.61,60.19,50.18,60.26
			z M39.53,58.79c-0.53,1.41-0.99,2.77-1.55,4.09c-0.26,0.62-0.14,0.97,0.31,1.42c2.98,2.97,5.94,5.97,8.9,8.96
			c0.99,1,1.98,1.99,2.93,2.96c0.13-0.06,0.16-0.06,0.17-0.08c3.9-4.05,7.81-8.1,11.69-12.16c0.13-0.14,0.22-0.44,0.16-0.61
			c-0.54-1.52-1.12-3.03-1.71-4.57C53.47,63.35,46.55,63.36,39.53,58.79z M35.05,51c0.44-1.51,0.2-3.55-0.44-5.29
			c-0.35-0.97-0.53-2.01-0.8-3.02c-0.15-0.57-0.23-1.18-0.5-1.69c-1.34-2.51-2.73-5-4.11-7.5c-0.73-1.31-1.46-2.62-2.22-3.99
			c-0.15,0.14-0.24,0.2-0.3,0.28c-1.51,1.84-1.05,4.55,1.08,6.02c0.91,0.63,1.49,1.44,1.76,2.49c0.9,3.49,2.37,6.75,3.99,9.95
			C33.97,49.17,34.5,50.02,35.05,51z M65.16,50.59c0.16-0.26,0.34-0.51,0.48-0.78c1.95-3.59,3.68-7.27,4.74-11.23
			c0.32-1.19,0.86-2.15,1.94-2.82c0.43-0.27,0.8-0.68,1.1-1.1c1.16-1.64,0.95-4-0.43-5.04c-0.13,0.22-0.27,0.44-0.39,0.67
			c-1.88,3.52-3.78,7.04-5.63,10.58c-0.29,0.56-0.4,1.21-0.57,1.83c-0.27,1-0.44,2.04-0.79,3.01
			C65.04,47.28,64.75,48.86,65.16,50.59z"/>
		<path class="st0" d="M72.6,90.79c-1.41,0-2.82,0-4.23,0c-0.66,0-1.14-0.23-1.21-0.94c-0.06-0.61,0.42-1.02,1.2-1.03
			c2.87-0.01,5.74-0.01,8.61,0c0.78,0,1.28,0.42,1.22,1.02c-0.07,0.7-0.55,0.95-1.21,0.95C75.53,90.79,74.06,90.8,72.6,90.79
			C72.6,90.79,72.6,90.79,72.6,90.79z"/>
		<path class="st0" d="M49.59,48.22c-2.82-0.22-5.09-0.38-7.35-0.6c-0.38-0.04-0.84-0.22-1.08-0.5c-0.18-0.2-0.21-0.8-0.04-0.98
			c0.26-0.28,0.74-0.49,1.12-0.47c2.06,0.1,4.12,0.42,6.17,0.41c3.18-0.03,6.36-0.26,9.55-0.43c0.8-0.04,1.29,0.19,1.4,0.79
			c0.11,0.64-0.29,1.1-1.15,1.17C55.14,47.84,52.09,48.04,49.59,48.22z"/>
		<path class="st0" d="M50.15,54.14c-2.55-0.18-5.11-0.35-7.66-0.55c-1.14-0.09-1.62-0.49-1.54-1.15c0.08-0.72,0.63-0.94,1.81-0.8
			c4.9,0.59,9.8,0.57,14.71,0.01c0.26-0.03,0.52-0.07,0.78-0.09c0.62-0.04,1.04,0.25,1.1,0.86c0.06,0.61-0.29,0.99-0.9,1.06
			c-1.35,0.15-2.7,0.33-4.05,0.4c-1.41,0.07-2.82,0.02-4.23,0.02C50.15,53.98,50.15,54.06,50.15,54.14z"/>
	</g>
</g>
</svg>
