<?xml version="1.0" encoding="UTF-8"?>
<svg id="Capa_1" data-name="Capa 1" xmlns="http://www.w3.org/2000/svg" viewBox="0 0 167 200">
  <defs>
    <style>
      .cls-1 {
        fill: #fff;
      }
    </style>
  </defs>
  <path class="cls-1" d="M164.16,150.4c-2.46-9.64-8.18-16.32-17.75-19.46-4.37-1.43-8.78-2.74-13.14-4.2-7.41-2.49-14.64-5.39-21.08-9.95-3.56-2.52-6.15-5.55-5.36-10.35,.14-.84,.11-1.74,0-2.6-.16-1.34,.44-2.19,1.4-3.07,6.04-5.62,11.39-11.82,15.36-19.09,.97-1.78,1.78-3.48,3.86-4.27,1.1-.42,1.93-1.39,2.71-2.32,4.55-5.44,4.68-18.82-.03-24.13-1.39-1.57-1.78-3.1-1.83-5-.24-8.49-1.27-16.87-3.29-25.14-2.09-8.55-6.66-14.72-15.45-17.18-17.24-4.82-34.48-4.8-51.74-.15-8.22,2.21-13.23,7.43-15.46,15.66-2.46,9.08-3.49,18.32-3.81,27.67-.05,1.46-.27,2.65-1.46,3.7-1.42,1.26-2.19,3-2.73,4.81-1.29,4.38-1.29,8.83-.48,13.27,.8,4.37,2.91,7.85,7.17,9.7,.58,.25,.92,.67,1.2,1.24,3.56,7.44,8.63,13.81,14.6,19.39,2.46,2.3,3.34,4.57,3.37,7.9,.04,4.15-1.59,6.98-4.7,9.35-4.62,3.51-9.82,5.88-15.13,8.09-6.29,2.62-12.9,4.29-19.35,6.41-9.51,3.13-15.56,9.44-18.13,19.13-1.53,5.77-2.31,11.63-2.56,17.58-.44,1.6,.2,3.28-.34,4.87v8.01c.42,3.38,2.77,5.37,5.35,7.06,3.7,2.44,7.76,4.13,12.01,5.36,17.15,4.95,34.7,7.02,52.49,7.4,1.27,0,2.55,0,3.83,0,1.61,.13,3.23-.26,4.83,.21h11.21c2.12-.54,4.31,.1,6.44-.36,5.72-.42,11.45-.72,17.16-1.27,11.56-1.12,23.05-2.74,34.24-5.98,5.33-1.54,10.57-3.34,15.05-6.77,2.29-1.75,4.25-3.89,4.26-6.92,.02-9.61-.31-19.21-2.71-28.6ZM50.59,16.41c1.28-2.89,3.78-4.56,6.71-5.65,7.09-2.65,14.46-3.64,21.96-3.88,9.99-.32,19.86,.27,29.43,3.55,4.36,1.49,7.24,4.31,8.73,8.66,2.45,7.12,3.39,14.5,4,22.17-25.35-10.35-50.55-10.34-75.94,0,.64-8.58,1.62-16.97,5.1-24.83Zm-2.41,59.98c-.46-2.19-1.77-3.41-3.9-4-1.89-.52-3-1.96-3.51-3.79-.92-3.34-1.02-6.72-.15-10.08,.43-1.66,1.29-3.15,2.79-4.01,1.18-.67,1.5-1.6,1.46-2.79-.06-1.86,.71-2.91,2.48-3.76,11.48-5.5,23.64-7.65,35.66-7.76,13.08,.13,25.1,2.33,36.47,7.74,1.76,.84,2.61,1.87,2.54,3.72-.04,1.29,.32,2.23,1.56,2.92,1.32,.73,2.07,2.07,2.51,3.5,1.13,3.68,.99,7.37-.17,11.02-.51,1.62-1.62,2.85-3.26,3.27-2.17,.55-3.46,1.79-3.95,3.94-.35,1.54-1.13,1.67-2.6,1.13-21.83-8.03-43.69-7.97-65.51,.05-1.43,.53-2.15,.29-2.44-1.1Zm4.86,8.1c-.11-.15-.13-.37-.24-.66,6.06-2.39,12.31-3.94,18.73-4.83,13.8-1.92,27.27-.52,40.43,4.01,2.45,.84,2.47,.84,.89,2.84-5.85,7.38-12.45,13.88-20.79,18.48-5.75,3.17-11.38,3.22-17.13,.05-8.89-4.89-15.86-11.86-21.89-19.89Zm6.5,36.91c2.21-1.64,4.08-3.63,5.53-5.99,1.45-2.36,1.82-4.97,1.71-8.19,11.14,8.2,22.11,8.29,33.22,.05,.24,1.73,.04,3.11,.35,4.44,.96,4.06,3.52,7.02,6.7,9.43,1.52,1.15,1.65,2.21,1.21,3.89-1.85,7.05-5.86,12.81-10.6,18.14-3.91,4.4-8.31,8.29-13.04,11.8-.63,.47-1.11,.98-2.04,.27-8.31-6.32-15.68-13.48-20.78-22.72-1.46-2.64-2.48-5.45-3.21-8.38-.29-1.18-.08-1.96,.95-2.72Zm97.74,60.43c-4.06,2.26-8.44,3.65-12.89,4.84-14.5,3.88-29.32,5.58-44.26,6.45-5.6,.33-11.2,.47-16.81,.43-20-.1-39.84-1.62-59.31-6.48-4.85-1.21-9.62-2.7-14.08-5.07-2.28-1.21-3.38-2.75-3.28-5.53,.27-7.67,.49-15.32,2.14-22.86,1.89-8.65,6.78-14.4,15.39-16.95,7.16-2.12,14.36-4.13,21.2-7.19,1.89-.84,3.76-1.71,5.6-2.65,.75-.38,1.16-.45,1.43,.5,3.21,11.21,10.54,19.59,18.86,27.28,3.04,2.81,6.3,5.35,9.69,7.74,1.42,1,2.89,1.42,4.44,.35,10.47-7.26,19.65-15.77,25.87-27.09,1.39-2.52,2.45-5.18,3.21-7.96,.23-.84,.4-1.34,1.45-.79,7.91,4.1,16.3,7.03,24.91,9.17,11.8,2.93,16.75,11.08,18.18,22.34,.77,6.1,1.02,12.22,1.23,18.35,.09,2.53-.94,3.99-2.97,5.13Z"/>
  <path class="cls-1" d="M136.33,160.22c-2.67-.02-5.34-.05-8.01,.02-1.11,.03-1.52-.29-1.49-1.45,.07-2.8,.07-5.61,0-8.41-.05-2.15-1.41-3.47-3.34-3.47-1.96,0-3.26,1.32-3.33,3.47-.05,1.4,0,2.8-.02,4.2-.03,1.79,.59,4.16-.31,5.22-1.06,1.24-3.51,.22-5.02,.41-1.53,0-2.73,0-3.93,0-2.61,.01-4.07,1.22-4.04,3.36,.02,2.14,1.45,3.32,4.09,3.34,2.54,.02,5.07,.08,7.61-.03,1.36-.06,1.69,.45,1.64,1.72-.08,2.53-.03,5.07-.02,7.61,.02,2.51,1.34,4.06,3.41,4.03,1.99-.03,3.25-1.54,3.27-3.98,.02-2.54,.1-5.08-.02-7.61-.07-1.45,.44-1.8,1.81-1.75,2.6,.1,5.21,.07,7.81,.01,2.39-.05,3.82-1.45,3.74-3.52-.07-1.91-1.56-3.16-3.86-3.18Z"/>
  <path class="cls-1" d="M86.8,26.95c.13-1.1-.51-2.59,.33-3.22,.76-.56,2.17-.22,3.28-.33,1.86-.19,3.04-1.53,3.01-3.34-.03-1.78-1.27-3.09-3.13-3.24-.73-.06-1.47-.07-2.2,0-.93,.07-1.35-.24-1.29-1.23,.05-.79,.05-1.6-.04-2.39-.22-1.82-1.65-3.09-3.34-3.08-2.13,.02-3.44,1.55-3.29,4.3,.1,1.9-.42,2.74-2.38,2.39-.26-.05-.53-.01-.8,0-2.09,.1-3.55,1.45-3.56,3.27,0,1.86,1.42,3.24,3.48,3.36q3,.18,3.21,3.3c.13,1.97,1.43,3.31,3.25,3.38,1.81,.06,3.24-1.25,3.46-3.17Z"/>
</svg>