<?xml version="1.0" encoding="UTF-8"?>
<svg id="Capa_1" data-name="Capa 1" xmlns="http://www.w3.org/2000/svg" viewBox="0 0 165.89 200">
  <defs>
    <style>
      .cls-1 {
        fill: #4b6b7a;
      }
    </style>
  </defs>
  <path class="cls-1" d="M163.26,143.02c-12.5-12.55-24.97-25.14-37.63-37.52-2.59-2.54-4-4.73-2.17-8.21,.65-1.23,.09-3.27,1.2-3.94,1.06-.64,2.78-.2,4.21-.22,5.45-.08,10.01-3.78,11.24-9.05,.6-2.58,.29-5.19,.32-7.78,.04-4.27-1.71-7.69-5.28-10.05-.91-.6-1.1-1.23-1.11-2.21-.03-3.58,0-7.17-.24-10.74-.54-8.07-2.86-15.65-6.65-22.78-.93-1.76-2.53-2.26-4.08-1.45-1.56,.82-2.14,2.42-1.22,4.14,4.92,9.12,6.63,18.9,6.13,29.15-.03,.64,.72,1.98-.79,1.87-1.17-.08-2.62,.92-3.26-1.48-5.44-20.3-18.4-32.85-39.08-37.25-2.94-.62-5.93-.77-8.93-.9,9.94-4.83,20.45-7.04,31.36-7.61,.75-.04,1.2,.32,1.71,.73,2.29,1.85,4.36,3.91,6.32,6.09,1.47,1.63,3.27,1.85,4.59,.62,1.39-1.28,1.33-2.9-.2-4.62-8.17-9.2-18.18-15.35-30.2-18.14-2.54-.59-5.11-1.03-7.66-1.54h-11.72c-2.43,.52-4.89,.94-7.28,1.58C40.46,7.74,26.26,21.99,20.1,44.28c-1.79,6.48-1.67,13.13-1.58,19.77,.01,.87-.04,1.55-.95,2.1-3.28,1.97-5.08,4.96-5.42,8.75-.24,2.66-.26,5.33,.05,7.99,.54,4.47,3.04,7.49,7.03,9.33,2.31,1.07,4.82,1.06,7.28,.86,1.47-.12,1.86,.5,2.12,1.74,2.97,13.64,10.19,24.54,21.24,33,1.77,1.35,4.49,1.94,5.21,4.02,.7,2.04,.16,4.51,.16,6.79,0,5.08-2.38,8.2-7.31,9.67-2.91,.87-5.84,1.72-8.72,2.67-1.77,.58-2.52,2.06-2.03,3.62,.53,1.71,1.99,2.5,3.82,1.98,3.3-.94,6.62-1.81,9.86-2.93,5.22-1.81,8.57-5.42,9.93-10.84,.67-2.67,.16-5.4,.47-8.23,9.94,4.27,19.89,4.37,29.97,.47,0,1.42,0,2.59,0,3.76,.02,7.33,3.98,12.83,10.99,14.99,9.4,2.89,18.84,5.66,28.25,8.5,7.44,2.24,12.36,7.11,14.92,14.42,1.32,3.78,.95,7.71,.96,11.6,0,3.85-2.16,6.03-6.02,6.05-5.6,.03-11.2-.04-16.8,.04-1.35,.02-1.57-.44-1.56-1.65,.06-5.6,.04-11.2,.02-16.8-.01-2.24-1.15-3.6-2.94-3.65-1.81-.05-3.19,1.3-3.07,3.48,.1,1.8-.66,1.91-2.12,1.91-23.97-.04-47.94-.05-71.9,.01-1.61,0-2.09-.35-2.02-2,.1-2.52-1.95-4.04-4.07-3.19-1.49,.6-1.85,1.85-1.85,3.33,.02,5.67-.03,11.33,.03,17,.01,1.16-.23,1.57-1.48,1.56-6.9-.06-13.81,0-20.71-.05-3.49-.03-5.73-2.26-5.83-5.72-.06-2.08-.08-4.17,.04-6.25,.54-9.63,6.71-17.34,16-20.09,1.67-.49,3.36-.97,5-1.55,1.82-.64,2.57-2.18,2-3.84-.52-1.51-2.07-2.28-3.79-1.82-1.62,.44-3.23,.93-4.84,1.42-8.96,2.74-15.2,8.44-18.64,17.16-2.19,5.56-1.97,11.41-1.48,17.15,.43,5.02,5.21,9.32,10,9.37,11.85,.13,23.71,.06,35.56,.03,1.74,0,2.93-1.34,2.88-3.01-.05-1.59-1.2-2.76-2.87-2.82-1.5-.05-3-.08-4.49,0-1.07,.06-1.46-.23-1.42-1.37,.09-2.47,.13-4.95-.01-7.42-.09-1.56,.41-1.9,1.91-1.89,20.45,.05,40.9,.03,61.35,.03,3.78,0,7.56,.04,11.33-.03,1.11-.02,1.44,.32,1.4,1.41-.08,2.41-.17,4.83,.02,7.22,.15,1.84-.55,2.06-2.15,2.05-18.3-.06-36.6-.04-54.91-.03-2.12,0-3.39,1.09-3.43,2.87-.04,1.8,1.24,2.98,3.31,2.98,27.62,0,55.23,.02,82.85,0,4.95,0,9.78-4.2,10.49-9.1,.6-4.08,.62-8.25-.14-12.26-2.15-11.41-8.9-18.93-20.03-22.35-9.21-2.83-18.47-5.51-27.71-8.27-4.59-1.37-6.98-4.53-7.05-9.33-.03-1.89,.08-3.78-.04-5.66-.07-1.1,.39-1.67,1.25-2.15,2.1-1.18,4.01-2.64,5.93-4.1,.93-.71,1.56-1.59,1.48-2.8-.08-1.19-.68-2.05-1.79-2.58-1.25-.6-2.3-.18-3.25,.58-3.05,2.45-6.33,4.54-9.82,6.3-6.54,3.32-13.52,4.51-20.61,2.68-13.58-3.49-23.66-11.78-30.7-23.8-7.52-12.83-7.83-27-5.65-40.91,3.77-23.96,25.87-39.32,49.62-35.03,17.73,3.2,29.15,14.06,34.09,31.34,2.56,8.94,1.72,18.2,1,27.35-.18,2.27-.58,4.55-1.49,6.77-.51-.43-.89-.78-1.3-1.09-3.96-2.99-9.79-1.27-11.36,3.43-.96,2.87-1.06,5.86-.76,8.87,.89,8.88,11.06,19.13,19.31,20.21,2.56,.33,4.52,1.61,6.33,3.45,7.39,7.53,14.91,14.93,22.35,22.42,2.36,2.38,5.13,3.32,8.34,2.38,6.03-1.78,7.68-8.96,3.1-13.56Zm-35.71-67.36c-.78-.08-2.07,.48-2.26-.39-.32-1.49-.14-3.1-.05-4.65,.03-.46,.63-.3,1-.32,5.97-.46,8.59,2.05,8.25,7.68-.02,.26,0,.52,0,.78,0,.65,0,1.3,0,1.95-.06,4.78-4.15,7.79-8.72,6.45-.49-.14-.61-.39-.6-.82,0-.65,.1-1.31,.01-1.95-.26-1.91,.1-2.94,2.46-2.72,1.92,.18,3.09-1.24,3.08-3-.02-1.74-1.16-2.79-3.16-3.01Zm-100.32-1.05c.17,.66-.08,1.13-.91,1.07-.58-.04-1.18-.05-1.75,.03-1.75,.23-3.01,1.57-2.88,3.11,.15,1.73,1.24,2.62,2.89,2.91,.87,.16,2.28-.45,2.52,.33,.44,1.45,.27,3.08,.33,4.64,0,.14-.18,.34-.33,.41-3.26,1.76-8.69-1.26-8.98-5.03-.09-1.16-.01-2.34-.01-3.51h-.03c0-.39,.02-.78,0-1.17-.37-6.52,3.9-7.44,8.53-7.11,.06,0,.16-.02,.19,.01,1.38,1.3,.07,2.88,.44,4.3ZM59.37,26.73c-5.87,3.7-12.14,6.78-17.15,11.74-6.8,6.74-11.46,14.67-13.6,24.04-.33,1.45-2.86,2.54-3.98,1.68-.2-.15-.24-.57-.25-.88-1.15-21.67,8.09-40.9,27.92-51.34,14.71-7.74,29.93-7.93,45.21-1.35,.42,.18,.83,.37,1.23,.58,.1,.05,.15,.19,.41,.53-14.68,1.57-27.6,7.29-39.79,14.98Zm77.14,99.92c-1.91,1.87-1.94,1.97-3.74,.01-2.28-2.48-5.21-3.5-8.37-4.19-7.49-1.63-13.64-8.32-14.7-15.87-.24-1.71,.15-3.37,.43-5.03,.13-.76,.65-1.25,1.48-1.29,.61,.12,1.04,.5,1.46,.92,7.83,7.83,15.64,15.68,23.5,23.47,.83,.83,.68,1.24-.06,1.97Zm22.74,23.75c-1.26,1.21-2.33,.46-3.34-.55-5.23-5.25-10.44-10.53-15.76-15.69-1.15-1.12-1.31-1.78,0-2.79,.54-.42,.83-1.16,1.41-2.01,.6,.8,.8,1.14,1.07,1.41,5.37,5.39,10.75,10.77,16.13,16.14,1.07,1.06,1.83,2.2,.48,3.49Z"/>
  <path class="cls-1" d="M64.84,78.51c-.92-1.51-2.69-1.89-4.41-.75-4.26,2.81-8.46,2.79-12.72,0-1.75-1.14-3.47-.78-4.42,.73-.95,1.52-.51,3.1,1.27,4.31,2.86,1.94,5.99,3.08,9.52,2.96,3.49,.13,6.61-1.02,9.48-2.94,1.76-1.18,2.22-2.78,1.29-4.31Z"/>
  <path class="cls-1" d="M66.6,115.93c2.89,2.03,6.07,3.18,9.64,3.07,3.5,.11,6.63-1.01,9.49-2.94,1.69-1.14,2.17-2.85,1.26-4.32-.95-1.53-2.64-1.89-4.4-.74-4.26,2.82-8.46,2.75-12.72,0-1.78-1.15-3.44-.8-4.41,.74-.93,1.47-.54,3.01,1.13,4.19Z"/>
  <path class="cls-1" d="M109.13,78.42c-1.02-1.49-2.61-1.75-4.43-.58-4.21,2.69-8.36,2.7-12.56,0-1.82-1.17-3.4-.9-4.43,.59-1.02,1.49-.54,3.22,1.31,4.45,2.87,1.91,5.99,3.04,9.5,2.89,3.43,.12,6.48-1.03,9.3-2.87,1.84-1.2,2.32-2.97,1.3-4.47Z"/>
  <path class="cls-1" d="M66.47,102.51c1.86,.14,5.53-3.4,5.46-5.29-.07-2.15-2.47-3.59-4.34-2.52-1.41,.81-2.56,2-3.42,3.36-1.16,1.85,.15,4.28,2.3,4.45Z"/>
  <path class="cls-1" d="M57.18,104.98c-1.12,.86-2.11,1.91-3.02,3-.76,.92-.71,2.05-.17,3.1,.52,.99,1.42,1.45,2.33,1.57,1.44,.04,4.36-2.31,5.16-3.97,.65-1.36,.31-2.55-.75-3.49-1.09-.96-2.42-1.08-3.55-.2Z"/>
  <path class="cls-1" d="M76.32,60.54c1.99-.05,2.87-1.46,2.87-4.6,0-.19,0-.39,0-.58-.02-2.53-1.09-3.97-2.94-3.97-1.88,0-2.99,1.45-3,3.94,0,.19,0,.39,0,.58,0,3.18,1,4.69,3.07,4.63Z"/>
  <path class="cls-1" d="M76.27,81.53c-1.81-.03-3,1.44-3.03,3.73,0,.26,0,.52,0,.78,0,3.18,1,4.72,3.04,4.68,1.97-.03,2.9-1.51,2.9-4.6,0-.32,0-.65,0-.97-.06-2.22-1.16-3.59-2.91-3.62Z"/>
  <path class="cls-1" d="M76.24,45.85c2.06,0,2.94-1.37,2.94-4.56,0-3.21-.85-4.5-2.97-4.49-2.08,0-2.97,1.36-2.97,4.52,0,3.11,.94,4.53,3,4.53Z"/>
  <path class="cls-1" d="M88.79,99.72c.06-2.03-3.57-5.53-5.47-5.38-2.23,.17-3.54,2.8-2.19,4.61,.84,1.12,1.92,2.1,3,3.01,.84,.71,1.86,.75,2.91,.25,1.12-.54,1.56-1.47,1.75-2.48Z"/>
  <path class="cls-1" d="M73.28,72.94c.29,1.58,1.2,2.66,2.89,2.6,2.26-.08,3.27-1.04,3.02-5.6-.13-2.35-1.26-3.55-3.29-3.37-1.9,.17-2.65,1.43-2.64,4.42,0,.65-.1,1.32,.02,1.95Z"/>
  <path class="cls-1" d="M93.72,104.49c-1.17-.08-2,.47-2.58,1.43-.58,.97-.64,2.02-.01,2.94,.91,1.35,2.03,2.57,3.44,3.4,1.86,1.09,4.3-.42,4.33-2.58,.03-1.75-3.39-5.16-5.19-5.19Z"/>
</svg>