<svg id="Capa_1" data-name="Capa 1" xmlns="http://www.w3.org/2000/svg" viewBox="0 0 100 100"><defs><style>.cls-1{fill:none;}.cls-2{fill:#adc536;}.cls-3{fill:#e36823;}.cls-4{fill:#de1f55;}.cls-5{fill:#02718b;}.cls-6{fill:#1ecad3;}</style></defs><path class="cls-1" d="M74.35,41.42c-3.85.25-15.44-.37-15.45-.37,0-.27.4-11.81-2.23-15.71C53.33,20.39,41,23.2,41,23.2s.34,1.79.38,2.41c.26,3.85-.38,15.44-.38,15.44v0c-.18,0-11.79-.41-15.7,2.22-4.95,3.35-2.14,15.63-2.14,15.63s1.8-.34,2.4-.38c3.86-.26,15.45.38,15.45.38h0c0,.28-.4,11.82,2.23,15.71,3.34,4.94,15.63,2.14,15.63,2.14s-.34-1.8-.39-2.41c-.25-3.85.39-15.45.39-15.45h0c.13,0,11.79.41,15.71-2.23,4.94-3.34,2.14-15.62,2.14-15.62S75,41.38,74.35,41.42Z"/><path class="cls-2" d="M93.72,63.69a35.14,35.14,0,0,1-.35,5c9-13.55,8.6-25.57.21-35.52.09,1,.14,2,.14,3.11Z"/><path class="cls-3" d="M65.3,5.2c-9.23-6.89-20.25-7.13-32.55.45A74.36,74.36,0,0,1,50.13,3.81,76,76,0,0,1,65.3,5.2Z"/><path class="cls-4" d="M6.22,36.28a35.78,35.78,0,0,1,.34-4.93C-2.39,45-1.92,57,6.36,66.8c-.09-1-.14-2-.14-3.11Z"/><path class="cls-5" d="M34.6,94.75c9.23,6.93,20.14,7.18,32.42-.34a73.68,73.68,0,0,1-16.89,1.75A77.74,77.74,0,0,1,34.6,94.75Z"/><path class="cls-6" d="M90.56,33.17c-1.11-12.87-9.33-21.7-25.26-25A76,76,0,0,0,50.13,6.83,74.36,74.36,0,0,0,32.75,8.67C18.76,12.06,11.22,20,9.58,31.35a35.78,35.78,0,0,0-.34,4.93V63.69c0,1.06,0,2.1.14,3.11,1.11,12.92,9.26,21.68,25.22,24.93a77.74,77.74,0,0,0,15.53,1.41A73.68,73.68,0,0,0,67,91.39c14-3.31,21.68-11.22,23.33-22.7a35.14,35.14,0,0,0,.35-5V36.28C90.7,35.22,90.65,34.18,90.56,33.17ZM74.62,56.67C70.7,59.31,59,58.9,58.91,58.9h0s-.64,11.6-.39,15.45c.05.61.39,2.41.39,2.41s-12.29,2.8-15.63-2.14c-2.63-3.89-2.24-15.43-2.23-15.71h0s-11.59-.64-15.45-.38c-.6,0-2.4.38-2.4.38s-2.81-12.28,2.14-15.63c3.91-2.63,15.52-2.24,15.7-2.22v0s.64-11.59.38-15.44c0-.62-.38-2.41-.38-2.41s12.29-2.81,15.63,2.14c2.63,3.9,2.24,15.44,2.23,15.71,0,0,11.6.62,15.45.37.6,0,2.41-.37,2.41-.37S79.56,53.33,74.62,56.67Z"/></svg>