<?xml version="1.0" encoding="UTF-8"?>
<svg id="Capa_1" data-name="Capa 1" xmlns="http://www.w3.org/2000/svg" viewBox="0 0 200 200">
  <defs>
    <style>
      .cls-1 {
        fill: #fff;
      }
    </style>
  </defs>
  <path class="cls-1" d="M145.68,116.81c-1.28-.44-3.35-.36-3.64-1.35-.31-1.05,.79-2.6,1.44-3.84,4.47-8.55,5.77-17.71,5.35-27.22-.09-2.08-1.25-3.33-3.05-3.27-1.73,.06-2.75,1.24-2.79,3.29-.03,1.3-.11,2.61,.02,3.9,.14,1.41-.54,1.95-1.74,2.31-2.88,.85-6.03,0-7.91-2.37-1.96-2.46-2.46-5.32-.85-8.01,1.69-2.82,1.66-5.24,.24-8.2-3.05-6.35,1.88-13.87,8.8-13.88,1.24,0,1.51,.37,1.48,1.54-.08,3.38-.05,6.77-.03,10.15,.01,2.11,1.17,3.41,2.93,3.39,1.67-.02,2.9-1.3,2.9-3.25,.02-11.65,.1-23.31-.02-34.96-.07-6.47-4.89-12.1-11.17-13.58-4.56-1.08-8.72-.09-12.5,2.64-3.85-11.92-16.25-14.13-24.04-7.98-.04-.05-.1-.09-.13-.14-5.33-9.94-12.89-12.13-22.73-6.52-.91,.52-.91,.01-1.16-.54-1.3-2.94-3.37-5.21-6.09-6.9-1.6-1-3.44-1.32-5.16-2.01h-5.46c-.2,.65-.84,.53-1.28,.68-6.05,2.12-9.49,6.39-10.28,12.71-.27,2.12-.14,4.29-.08,6.44,.04,1.31-.15,1.91-1.72,2.28-9.03,2.14-14.75,7.87-16.89,16.9-1.17,4.91-.42,9.99-.52,14.99-.05,2.26,1.13,3.53,3.01,3.48,1.8-.05,2.8-1.26,2.82-3.47,.02-3.65-.06-7.29,.04-10.94,.19-7.61,5.91-14.22,13.25-15.28,0,.66,0,1.3,0,1.93,0,4.1,.01,8.2,0,12.3,0,1.09,.19,2.09,1.05,2.82,.91,.77,1.96,.98,3.09,.46,1.36-.64,1.73-1.77,1.73-3.2-.02-8.98-.03-17.97,0-26.95,.02-5.33,3.88-9.31,8.95-9.3,5.07,0,8.9,3.98,8.93,9.31,.03,4.75,0,9.5,0,14.26,0,3.02,.89,4.42,2.84,4.48,2.01,.06,3.01-1.44,3.01-4.53,0-2.73-.02-5.47,0-8.2,.05-4.96,3.83-8.84,8.69-8.94,4.87-.1,8.85,3.8,8.92,8.88,.07,4.75-.01,9.5,.03,14.26,.02,2.11,1.22,3.35,3.01,3.31,1.72-.04,2.78-1.23,2.81-3.27,.04-2.6-.03-5.21,.02-7.81,.09-4.06,2.27-7.21,5.75-8.44,5.97-2.1,11.84,2.1,11.95,8.63,.08,4.75,0,9.5,.03,14.26,.01,2.1,1.03,3.25,2.77,3.31,1.81,.06,2.99-1.14,3.06-3.26,.06-2.08-.02-4.17,.03-6.25,.11-5.19,3.85-8.94,8.84-8.92,4.95,.01,8.75,3.87,8.79,9,.04,4.95-.04,9.9,.03,14.84,.02,1.25-.3,1.58-1.58,1.61-11.39,.24-18.69,11.78-14.03,22.18,.52,1.16,.37,1.94-.15,3-2.32,4.71-2.06,9.36,.98,13.64,2.98,4.2,7.21,6.16,12.32,5.51,1.92-.25,1.81,.28,1.51,1.7-1.17,5.53-3.86,10.45-6.09,15.55-.36,.81-.93,.7-1.6,.67-23.2-1.07-42.55,15.56-44.89,38.57-2.15,21.14,12.06,40.96,32.71,45.71,1.6,.37,3.32,.28,4.81,1.12h9.36c1.71-.75,3.59-.69,5.38-1.13,5.22-1.29,10.06-3.4,14.45-6.5,1.6-1.13,1.91-2.84,.91-4.23-.94-1.31-2.53-1.55-4.15-.61-.5,.29-.98,.63-1.48,.94-7.87,4.9-16.42,6.69-25.54,5.19-18.29-3.01-31.39-19.11-30.83-37.68,.55-18.31,14.76-33.44,33.22-35.36,25.49-2.66,45.95,21.65,39.07,46.39-1.12,4.04-2.88,7.78-5.23,11.24-.86,1.26-.99,2.56,.03,3.78,.81,.97,1.88,1.31,3.15,.89,1.09-.36,1.61-1.27,2.18-2.13,15.33-23.27,4.51-54.93-21.84-63.97Z"/>
  <path class="cls-1" d="M71.32,123.01c-.19-1.15,.07-1.92,.9-2.73,2.33-2.26,3.85-5.04,4.75-8.15,.65-2.21-.04-3.83-1.76-4.32-1.81-.52-3.22,.37-3.84,2.58-.62,2.17-1.54,4.21-3.23,5.68-2.6,2.27-3.3,4.89-2.54,8.22,.7,3.06-1.09,6.56-3.58,7.66-1.38-5.71-4.03-10.78-7.62-15.41-3.99-5.13-7.89-10.33-11.85-15.48-2.27-2.96-4.07-6.16-5.31-9.69-.37-1.04-.37-2.01-.07-3.04,1.32-4.57,5.26-7.53,9.97-7.48,4.58,.05,8.52,3.19,9.65,7.88,.69,2.89,2.32,4.69,5.19,5.42,2.72,.69,4.94,2.21,6.79,4.32,1.53,1.75,3.17,2.04,4.54,.89,1.46-1.23,1.4-2.92-.19-4.78-2.38-2.78-5.3-4.8-8.8-5.83-1.23-.36-1.72-.96-2.05-2.15-2.28-8.08-10.35-12.91-18.6-11.25-3.11,.62-5.72,2.17-8.04,4.27-.14-.2-.2-.24-.2-.29-.01-3.45,0-6.9-.03-10.35-.01-2.27-1.11-3.63-2.89-3.65-1.78-.02-2.94,1.37-2.95,3.6-.02,3.64,.01,7.29,0,10.93-.05,9.3,2.8,17.6,8.5,24.95,4.02,5.18,7.95,10.45,11.96,15.64,4.9,6.34,7.31,13.48,7.28,21.52-.06,17.9,0,35.8-.05,53.7,0,1.81,.34,3.3,1.93,4.32h1.95c1.38-.83,2.03-1.95,2.03-3.66-.06-18.81-.04-37.62-.08-56.43,0-1,.2-1.55,1.17-2.1,5.4-3.03,8.08-8.68,7.07-14.8Z"/>
  <path class="cls-1" d="M90.01,60.91c-.02-6.51-5.22-11.97-11.85-12.4-6.34-.41-12.3,4.55-13.09,10.89-.47,3.8,.88,6.39,4.27,8.16,2.53,1.32,5.29,1.68,8.09,1.85,2.87-.14,5.7-.51,8.28-1.86,2.65-1.39,4.31-3.45,4.3-6.63Z"/>
  <path class="cls-1" d="M79.12,172.04c-5.26-.17-10.04,4.01-10.55,9.24-.3,3.09,.84,5.22,3.61,6.72,2.05,1.1,4.27,1.48,6.56,1.5,2.37,.01,4.65-.35,6.77-1.46,2.37-1.24,3.76-3.09,3.72-5.89-.09-5.45-4.55-9.93-10.11-10.1Zm2.77,11.18c-1.01,.22-2.01,.46-3.07,.52-.88-.16-1.78-.26-2.65-.48-1.94-.49-2.22-1.11-1.32-2.84,.85-1.63,2.26-2.51,4.07-2.48,1.89,.03,3.28,.97,4.09,2.74,.6,1.32,.46,2.21-1.13,2.55Z"/>
  <path class="cls-1" d="M107.36,109.82c1.83,.75,3.76,.95,5.63,1.08,2.48-.15,4.86-.48,7-1.71,2.27-1.31,3.52-3.24,3.38-5.91-.26-5.09-4.13-9.23-9.15-9.86-4.95-.62-9.73,2.57-11.17,7.47-1.24,4.22,.25,7.28,4.3,8.94Zm1.86-8.5c1.06-1.57,2.6-2.35,4.49-2.03,1.78,.3,3,1.37,3.59,3.13,.35,1.05,.21,1.75-1,1.99-1.07,.21-2.13,.47-3.08,.68-.97-.15-1.81-.25-2.63-.42-2.23-.47-2.66-1.47-1.38-3.36Z"/>
  <path class="cls-1" d="M75.96,142.65c-.04,1.61,1.35,3.03,2.94,3.02,1.53-.01,2.85-1.32,2.89-2.87,.05-1.56-1.17-2.88-2.74-2.97-1.66-.09-3.05,1.18-3.09,2.82Z"/>
  <path class="cls-1" d="M109.85,50.86c.02-1.56-1.22-2.85-2.79-2.91-1.67-.07-3.03,1.2-3.04,2.84-.01,1.56,1.22,2.87,2.78,2.95,1.6,.08,3.03-1.26,3.05-2.88Z"/>
  <path class="cls-1" d="M46.34,60.13c1.53,.01,2.87-1.26,2.95-2.8,.08-1.61-1.25-3.02-2.89-3.04-1.57-.02-2.84,1.2-2.9,2.78-.06,1.68,1.21,3.04,2.84,3.06Z"/>
  <path class="cls-1" d="M83.91,135.4c1.6,.02,2.98-1.38,2.95-3-.03-1.64-1.41-2.89-3.08-2.81-1.58,.08-2.8,1.38-2.76,2.94,.04,1.54,1.35,2.85,2.88,2.87Z"/>
  <path class="cls-1" d="M57.5,66.38c-.04-1.54-1.33-2.8-2.89-2.81-1.62-.02-2.85,1.15-2.9,2.75-.06,1.69,1.2,3.03,2.84,3.05,1.62,.01,3-1.38,2.96-2.98Z"/>
  <path class="cls-1" d="M98.27,78.91c-.03-1.61-1.23-2.8-2.84-2.81-1.6-.01-2.87,1.18-2.94,2.75-.07,1.61,1.27,3.04,2.88,3.06,1.61,.02,2.93-1.35,2.9-3Z"/>
  <path class="cls-1" d="M85.94,84.78c.04-1.61-1.34-3.01-2.95-2.99-1.56,.01-2.81,1.26-2.84,2.85-.04,1.63,1.11,2.87,2.7,2.95,1.67,.08,3.05-1.18,3.09-2.81Z"/>
  <path class="cls-1" d="M90.65,91.2c0,1.56,1.26,2.87,2.8,2.92,1.6,.05,3.01-1.34,3-2.94,0-1.63-1.38-2.95-3.03-2.89-1.58,.06-2.78,1.32-2.77,2.92Z"/>
  <path class="cls-1" d="M117.02,58.87c-.02-1.57-1.29-2.85-2.83-2.88-1.61-.03-2.96,1.34-2.94,2.98,.02,1.67,1.34,2.9,3.03,2.83,1.6-.07,2.76-1.31,2.73-2.93Z"/>
  <path class="cls-1" d="M143.42,167.49c3.05,.06,6.1,.04,9.16,.01,2.6-.02,3.64-1.08,3.65-3.7,.02-4.36,.02-8.72,0-13.08-.01-2.61-1.03-3.64-3.67-3.67-2.99-.03-5.98-.07-8.96,.02-1.24,.04-1.52-.36-1.49-1.54,.08-3.06,.06-6.12,.01-9.17-.04-2.36-1.14-3.43-3.5-3.47-2.21-.04-4.42,0-6.62,0-2.21,0-4.42-.02-6.62,0-2.61,.03-3.64,1.05-3.66,3.69-.03,2.99-.07,5.99,.02,8.98,.04,1.23-.36,1.54-1.54,1.51-3.05-.08-6.1-.06-9.16-.01-2.38,.04-3.44,1.12-3.45,3.49-.03,4.42-.02,8.85,0,13.27,.01,2.6,1.08,3.65,3.69,3.67,3.05,.03,6.11,.05,9.16-.02,1.03-.02,1.32,.3,1.3,1.32-.06,3.12-.06,6.25,0,9.37,.04,2.39,1.11,3.44,3.49,3.45,4.42,.02,8.83,.02,13.25,0,2.61,0,3.65-1.04,3.68-3.67,.03-3.06,.05-6.12-.02-9.17-.02-1.04,.31-1.32,1.31-1.3Zm-3.69-5.83c-2.44,.02-3.41,.99-3.44,3.42-.03,3.12-.04,6.24,.01,9.36,.02,.98-.2,1.4-1.28,1.35-2.07-.08-4.16-.08-6.23,0-1.09,.04-1.28-.4-1.27-1.36,.05-3.06,.04-6.11,.01-9.17-.03-2.68-.97-3.58-3.66-3.61-1.43-.01-2.86,0-4.28,0-1.62,0-3.25-.05-4.87,.02-1.01,.05-1.37-.27-1.33-1.31,.07-2.01,.08-4.03,0-6.05-.05-1.13,.34-1.45,1.43-1.42,2.98,.06,5.97,.04,8.96,.02,2.83-.02,3.74-.92,3.76-3.73,.02-2.86,.08-5.72-.02-8.58-.05-1.39,.24-2.01,1.79-1.88,1.74,.15,3.51,.12,5.25,0,1.33-.08,1.82,.28,1.76,1.7-.11,2.92-.05,5.85-.03,8.78,.02,2.79,.92,3.69,3.77,3.71,2.99,.02,5.97,.05,8.96-.02,1.12-.03,1.45,.34,1.4,1.44-.08,2.01-.08,4.03,0,6.05,.04,1.05-.33,1.32-1.33,1.3-3.11-.06-6.23-.04-9.35-.01Z"/>
</svg>