<?xml version="1.0" encoding="utf-8"?>
<!-- Generator: Adobe Illustrator 27.0.0, SVG Export Plug-In . SVG Version: 6.00 Build 0)  -->
<svg version="1.1" id="Capa_1" xmlns="http://www.w3.org/2000/svg" xmlns:xlink="http://www.w3.org/1999/xlink" x="0px" y="0px"
	 viewBox="0 0 100 100" style="enable-background:new 0 0 100 100;" xml:space="preserve">
<style type="text/css">
	.st0{fill:#196480;}
	.st1{fill-rule:evenodd;clip-rule:evenodd;fill:#196480;}
</style>
<g>
	<g>
		<path class="st0" d="M50,5.01c15.83,0,31.67,0,47.5,0c2.06,0,2.5,0.45,2.5,2.5v84.99c0,2.05-0.45,2.5-2.5,2.5h-95
			c-2.05,0-2.5-0.45-2.5-2.5C0,64.16,0,35.83,0,7.51c0-2.06,0.44-2.5,2.5-2.5C18.33,5.01,34.17,5.01,50,5.01 M3.41,81.58h93.2V8.38
			H3.41V81.58z M96.62,85.07H3.38v6.53h93.24V85.07z"/>
		<path class="st0" d="M51.6,78.36c-11.35-0.1-20.83-1.52-29.82-5.44c-5.23-2.28-10.02-5.24-14-9.38c-1.36-1.42-1.39-1.67-0.52-3.47
			c7.51-15.58,15.03-31.15,22.55-46.72c0.93-1.93,1.72-2.13,3.46-0.92c4.24,2.95,8.8,5.11,14,5.74c5.59,0.67,10.74-0.71,15.6-3.35
			c1.37-0.74,2.68-1.61,3.97-2.47c1.6-1.07,2.43-0.88,3.27,0.86c7.31,15.14,14.62,30.27,21.93,45.41c0.32,0.65,0.6,1.33,0.95,1.96
			c0.54,0.96,0.35,1.76-0.38,2.55c-2.92,3.18-6.37,5.67-10.14,7.72c-7.04,3.84-14.6,5.99-22.53,6.87
			C56.64,78.07,53.31,78.23,51.6,78.36 M32.36,15.85c-0.15,0.26-0.26,0.43-0.34,0.61C24.9,31.19,17.79,45.93,10.65,60.65
			c-0.31,0.65-0.14,0.98,0.32,1.41c3.24,3.05,6.94,5.41,10.97,7.28c6.58,3.06,13.54,4.68,20.75,5.31c10.03,0.88,19.9,0.14,29.51-3
			c6.16-2.02,11.81-4.97,16.63-9.4c0.66-0.61,0.8-1.06,0.38-1.92c-7.04-14.5-14.04-29.02-21.05-43.53
			c-0.15-0.31-0.31-0.61-0.49-0.97C55.9,23.6,44.17,23.61,32.36,15.85"/>
		<path class="st0" d="M10.02,28.36v3.31h3.6c0.38,0,0.76-0.01,1.15,0c1.15,0.03,1.87,0.67,1.89,1.65c0.01,0.98-0.72,1.66-1.85,1.68
			C13.25,35.02,11.69,35,10.07,35v3.3c1.32,0.15,3.1-0.41,3.24,1.75c0.07,1.15-0.71,1.51-3.3,1.66c0,0.98,0.01,1.97,0,2.96
			c-0.01,1.23-0.65,1.98-1.65,1.98c-1.01,0.01-1.67-0.74-1.67-1.96c-0.01-10.34-0.01-20.68,0-31.02c0-1.38,0.6-1.98,1.95-2
			c0.94-0.01,1.87-0.02,2.81,0c1.15,0.02,1.88,0.66,1.89,1.64c0.02,0.98-0.71,1.65-1.84,1.69c-0.45,0.01-0.89,0-1.41,0v3.34
			c1.49,0,2.97-0.01,4.45,0c1.38,0.01,2.17,0.64,2.13,1.71c-0.03,1.03-0.79,1.61-2.12,1.62c-1.46,0.01-2.91,0-4.45,0v3.29
			c1.28,0.19,3.28-0.41,3.18,1.83C13.18,28.75,11.37,28.25,10.02,28.36"/>
		<path class="st0" d="M86.57,21.67c-1.53,0-3.05,0.01-4.58,0c-1.23-0.01-1.97-0.65-1.98-1.66c0-1.01,0.74-1.66,1.96-1.67
			c3.12-0.01,6.25-0.01,9.37,0c1.23,0,1.98,0.64,1.98,1.65c0,1.01-0.75,1.66-1.97,1.67C89.76,21.68,88.17,21.67,86.57,21.67"/>
		<path class="st0" d="M88.37,15c-1.08,0-2.15,0.02-3.23-0.01c-1.07-0.03-1.78-0.69-1.8-1.63c-0.02-0.98,0.7-1.68,1.83-1.69
			c2.12-0.02,4.23-0.02,6.35,0c1.07,0.01,1.78,0.68,1.8,1.62c0.02,0.97-0.71,1.67-1.83,1.69C90.45,15.02,89.41,15,88.37,15"/>
		<path class="st0" d="M35.6,42.58c1.87,1.18,3.23,2.67,3.92,4.53c1.63-0.08,3.16-0.16,4.8-0.24c-0.12-0.68-0.28-1.51-0.42-2.34
			c-0.45-2.75,1.31-5.39,3.97-5.97c2.82-0.61,5.55,1.03,6.28,3.79c0.14,0.53,0.25,1.06,0.38,1.61c0.68-0.16,1.3-0.26,1.87-0.46
			c0.24-0.08,0.52-0.36,0.58-0.6c1.69-6.54,9.7-8.1,14.18-5.91c4.41,2.16,7.13,5.78,7.97,10.55c0.97,5.57-1.99,10.95-7.16,13.73
			c-2.04,1.1-4.23,1.74-6.53,1.94c-0.65,0.06-1.02,0.31-1.34,0.9c-1.85,3.31-4.85,5.15-8.35,6.29c-3.34,1.08-6.79,1.34-10.28,1.26
			c-4.88-0.12-9.72-0.56-14.26-2.51c-1.57-0.68-3.11-1.56-4.45-2.63c-3.21-2.54-4.25-5.91-2.82-9.75c0.88-2.37,2.27-4.55,3.57-7.08
			c-0.45-0.4-1.2-1.03-1.88-1.72c-1.65-1.67-2.01-3.84-1-5.94c0.86-1.78,1.75-3.54,2.66-5.3c1.36-2.61,4.28-3.6,6.8-2.32
			c2.46,1.26,3.39,4.15,2.17,6.77C36.06,41.63,35.84,42.06,35.6,42.58 M55.2,47.23c0.24,0.96,0.54,1.69,0.58,2.43
			c0.12,1.91,1.11,2.9,2.96,3.19c0.54,0.08,1.06,0.32,1.58,0.51c1.07,0.39,1.56,1.25,1.26,2.16c-0.31,0.93-1.21,1.34-2.29,0.99
			c-1.49-0.47-2.95-1.01-4.44-1.46c-0.9-0.27-1.37-0.81-1.58-1.73c-0.73-3.28-1.5-6.55-2.27-9.83c-0.3-1.28-1.24-1.95-2.31-1.71
			c-1.17,0.25-1.73,1.22-1.44,2.55c0.78,3.52,1.55,7.04,2.38,10.55c0.09,0.36,0.46,0.76,0.8,0.95c1.62,0.87,3.28,1.66,4.92,2.5
			c1.2,0.61,1.6,1.46,1.14,2.39c-0.47,0.95-1.39,1.18-2.58,0.6c-1.99-0.98-3.96-2-5.96-2.96c-0.75-0.36-1.17-0.9-1.35-1.71
			c-0.36-1.62-0.76-3.24-1.23-4.83c-0.13-0.42-0.54-0.91-0.94-1.08c-1.93-0.81-3.76-0.47-5.37,0.82c-2.55,2.05-3.89,4.74-4.06,8
			c-0.08,1.39-0.69,2.16-1.75,2.11c-1.06-0.05-1.65-0.84-1.58-2.25c0.19-3.73,1.59-6.94,4.28-9.54c0.59-0.57,0.63-1.04,0.34-1.72
			c-0.65-1.53-1.84-2.48-3.31-3.15c-1.37-0.63-1.64-1.39-0.98-2.75c0.39-0.81,0.82-1.61,1.2-2.42c0.47-1.03,0.19-1.98-0.68-2.4
			c-0.9-0.44-1.81-0.11-2.33,0.9c-0.86,1.66-1.67,3.35-2.52,5.02c-0.47,0.93-0.33,1.72,0.44,2.44c0.88,0.84,1.72,1.71,2.58,2.57
			c1.27,1.28,1.28,1.91,0.08,3.26c-1.65,1.86-3.02,3.88-3.79,6.28c-0.76,2.35-0.28,4.41,1.67,5.87c1.42,1.07,3.02,2.01,4.68,2.62
			c4.79,1.78,9.83,2.05,14.88,1.91c2.79-0.08,5.54-0.51,8.1-1.67c2.51-1.14,4.58-2.74,5.46-5.52c0.23-0.74,0.82-1.06,1.6-1.1
			c0.86-0.05,1.74-0.08,2.59-0.21c3.63-0.59,6.67-2.19,8.6-5.42c2.65-4.43,1.65-8.9-2.62-12.96c-1.1-1.05-2.46-1.65-3.97-1.91
			c-4.2-0.71-7.29,1.48-7.99,5.68c-0.17,1.01-0.81,1.42-1.81,1.52C57.2,46.78,56.24,47.03,55.2,47.23"/>
	</g>
</g>
</svg>
