<?xml version="1.0" encoding="UTF-8"?>
<svg id="Capa_1" data-name="Capa 1" xmlns="http://www.w3.org/2000/svg" viewBox="0 0 200 200">
  <defs>
    <style>
      .cls-1 {
        fill: #4b6b7a;
      }
    </style>
  </defs>
  <path class="cls-1" d="M196.52,193.3c-4.87,0-9.74-.1-14.6,.03-2.99,.08-4.15-1.02-4.13-4.11,.12-13.58,.07-27.16,.03-40.73,0-2.4,.44-4.06,3.16-4.88,25.3-7.64,24.76-37.91,8.96-48.94-1.72-1.2-1.82-1.97-.83-3.92,3.57-7.01,.23-13.25-7.62-14.18-6.15-.73-12.36-.91-18.55-1.32-2.22-.15-4.21,.31-4.24,3.01-.03,2.36,1.74,2.95,3.77,3.09,5.52,.37,11.04,.7,16.54,1.24,2.22,.22,5.35,.16,5.16,3.41-.17,3.02-2.99,3.1-5.42,3.1-18.63,0-37.25-.09-55.88,.04-6.61,.05-3.36-4.73-3.96-7.52-.8-3.71,1.72-3.45,4.27-3.22,7.51,.67,15.03,1.23,22.54,1.81,2.26,.18,4.74,.2,5.31-2.52,.54-2.6-1.73-3.23-3.73-3.78-.15-.04-.19-.5-.28-.78,1.26-1.74,2.63-.6,4.04-.28,4,.92,8.14,.75,10.34-3.03,2.23-3.84,5.45-4.38,9.15-4.75,1.99-.2,3.99-.51,5.94-.97,4.72-1.11,7.63-5.04,7.15-9.5-.49-4.59-4.06-8.24-8.93-7.64-13.98,1.73-28.72-.08-41.38,8.26-1.32,.87-2.33,1.19-3.09-.7-2.7-6.71-8.13-10.21-15.16-12,2.8-4.12,5.24-7.94,5.23-12.71-.01-6.03,.19-12.07-.08-18.09-.3-6.72-4.36-11.05-10.98-11.47-5.85-.37-11.75-.34-17.6,.03-5.37,.33-10.13,3.84-10.34,8.69-.5,11.34-3.44,23.19,4.63,33.39-12.07,5.39-14.67,8.09-16.04,16.61-.82,5.12-5.7,7.44-9.71,4.13-3.97-3.28-8.29-3.89-13.1-3.9-6.77-.02-13.68,1.11-19.84-3.49-2.61-1.95-6.72,.32-6.61,3.63,.3,9.32-1.82,18.77,1.2,27.93,.44,1.34,.81,2.29-.78,2.67-11.09,2.64-16.88,10.57-20.72,20.5v12.07c.9,5.15,2.26,10.03,6.2,13.91,2.92,2.87,6.02,5.46,9.89,6.74,4.45,1.47,5.93,4.35,5.57,8.79-.23,2.82-.25,5.71,.21,8.53,.42,2.6,1.26,5.13,4.51,5.05s3.96-2.64,4.23-5.28c.3-2.84,.28-5.7,.14-8.54-.21-4.16,1.7-5.83,5.72-5.51,1,.08,2.01,0,3.02,0,40.43,0,80.87,0,121.3,0,1.51,0,3.02,.04,4.53,.05,2.89,.02,4.31,1.38,4.32,4.3,.04,12.4,.08,24.8-.02,37.2-.03,3.14-1.57,4.56-4.65,4.58-1.34,0-2.68,.06-4.03,.06-40.43,0-80.87,0-121.3,0-1.51,0-3.02-.04-4.53-.08-2.89-.08-4.23-1.53-4.29-4.39-.08-3.35,.08-6.71-.13-10.05-.18-2.8-.7-5.67-4.22-5.8-3.53-.13-4.26,2.74-4.63,5.5-.47,3.5-.19,7.03-.26,10.55-.06,2.92-1.43,4.24-4.33,4.26-3.69,.03-7.38-.06-11.07,.07-2.35,.08-4.78,.04-6.17,2.52v5.03c64.61-.01,129.21-.03,193.82-.04,1.34,0,2.7-.14,4.02,.02,2.5,.3,2.61-1.16,2.61-3.03,0-2.99-1.83-3.63-4.29-3.63Zm-43.49-126.49c-.74-.29-1.89-1.11-1.32-1.76,1.47-1.67,3.55-1.91,6.18-1.54-1.28,2.62-2.33,4.28-4.86,3.3Zm10-12.79c3.48,.06,6.97-.67,10.47-.94,1.72-.13,3.66,.04,3.73,2.25,.06,1.98-1.53,2.75-3.41,2.9-4.48,.36-8.77,2.48-13.41-.84-2.85-2.04-6.79,.33-10.23,.8-4.24,.58-5.77,2.99-5.81,7.25-.03,3.13-6.79,7.63-10.64,7.76-.5,.02-1.01,0-1.5-.05-4.44-.46-8.88-.92-14.87-1.55,15.03-8.99,28.53-17.9,45.68-17.59ZM87.12,11.12c.64-2.66,2.33-4.46,5.25-4.57,2.84-.1,5.69-.02,8.53-.02,0-.02,0-.04,0-.07,2.34,0,4.69-.05,7.03,.01,4.06,.1,5.91,2.27,6.3,6.26,.36,3.64-.96,4.83-4.6,5.28-6.58,.82-12.92,1.41-18.9-2.33-1.83-1.14-4.31-1.67-3.61-4.57Zm-.14,9.41c7.89,5.36,15.94,4.92,24.09,3.4,2.38-.45,3.09,.45,3.17,2.91,.27,8.28-5.41,15.03-13.16,15.26-7.93,.24-13.99-5.89-14.1-14.26-.03-2.13,0-4.26,0-7.3Zm16.43,29.23c.05,2.21-1.95,3.11-3.81,3.02-1.68-.08-3.21-1.25-3.29-3.14-.13-2.85,2.24-.79,2.99-1.63,1.6,.66,4.05-1,4.12,1.75Zm-15.73-.91c1.9-.1,2.09,.65,2.45,2.18,1.17,5.01,4.49,7.72,9.63,7.96,4.86,.23,7.99-2.3,9.89-8.16,.64-1.98,1.21-2.75,3.46-2.1,2.26,.65,4.56,1.07,6.56,2.38,6.38,4.18,6.33,8.34-.29,11.77-2.76,1.43-5.2,3.82-9.45,3.41-9.99-1.95-20.81-2.96-31.74-2.78-2.07,.04-2.43-1.09-2.39-2.88,.13-5.59,6.16-11.48,11.88-11.77Zm-25.05,34.69c.81-3.1,1.3-6.23,1.05-9.42-.22-2.78,.94-4.09,3.74-3.95,.5,.02,1-.07,1.5-.07,4.18,0,8.36,0,12.55,0,9.07-.43,18.02,.73,26.95,2.1,3.02,.46,4.23,1.85,4.14,4.99-.35,13.45,2.24,12.97-12.12,10.17-6.97-1.36-11.96-5.64-17.42-9.4-4.85-3.34-8.8-3.34-12.36-.18-1.99,1.77-2.85,3.98-3.02,6.63-.1,1.56,1.68,3.89-1.09,4.55-1.69,.4-4.02,.89-5.26-.59-1.45-1.74,.9-3.18,1.34-4.84Zm44.65,13.89c-.06,1.77-1.24,2.08-2.68,2.09-1.53,.01-1.99-.78-1.77-2.18,.22-1.38,.63-2.7,2.3-2.61,1.56,.08,2.2,1.19,2.15,2.71Zm-10.3-2.24c-.47,1.74-1.53,2.48-3.34,2.05-2.95-.69-5.66-1.85-8.17-3.59-3.28-2.28-6.71-4.33-10.02-6.56-1.14-.77-1.97-1.93-1.39-3.41,.47-1.19,1.51-1.72,2.81-1.68,1.48-.05,2.41,1.01,3.5,1.73,4.93,3.29,9.03,7.99,15.43,8.74,1.57,.18,1.52,1.48,1.19,2.72Zm-51.47-29.81c8.61,0,10.89,1.18,11.9,6.11,1.59,7.8-1.41,13.95-8.44,16.77-.08-5.02-2.32-8.16-7.54-8.72-3.44-.37-2.63-3.36-3.05-5.46-1.76-8.7-1.72-8.71,7.13-8.7Zm-18.97-2.58c2.73,1.04,3.74,2.44,4.08,4.62,.49,3.14,1.45,6.21,1.77,9.36,.53,5.16,2.76,8.5,8.22,9.1,1.01,.11,2.09,.32,1.97,1.71-.11,1.33-1.18,1.35-2.2,1.52-9.22,1.57-13.83-2.22-13.84-11.43,0-4.78,0-9.56,0-14.88Zm73.49,75.16c-23.14,0-46.29,.05-69.43-.01-13.04-.04-21.08-6.04-23.62-17.34-2.7-12.03,6.58-24.82,18.92-25.15,16.09-.44,32.19-.16,48.29-.23,1.79,0,3.24,.65,4.6,1.7,7.44,5.76,16.38,7.4,25.29,8.9,4.67,.79,8.34-2,9.3-7.05,.56-2.93,1.7-3.64,4.57-3.62,18.11,.14,36.22,0,54.33,.1,12.91,.07,22.44,9.3,22.45,21.47,0,11.57-9.58,21.03-22.27,21.15-24.15,.24-48.3,.07-72.45,.07Z"/>
</svg>