<?xml version="1.0" encoding="UTF-8"?>
<svg id="Capa_1" data-name="Capa 1" xmlns="http://www.w3.org/2000/svg" viewBox="0 0 189.66 200">
  <defs>
    <style>
      .cls-1 {
        fill: #4c6c7a;
        stroke: #4b6b7a;
        stroke-miterlimit: 10;
      }
    </style>
  </defs>
  <path class="cls-1" d="M186.22,53.5c-3.26-12.68-8.73-24.24-18.03-33.69-10.45-10.62-22.87-14.34-37.41-10.55-7.63,1.99-14.57,5.56-21.45,9.3-3.41,1.85-6.75,3.86-10.46,5.06-2.36,.77-2.82,.55-3.73-1.72-2.15-5.41-2.76-11.1-2.84-16.85-.02-1.57-.68-2.48-2.07-3.1-2.24-.99-4.61-1.52-6.95-2.17h-4.79c-1.6,.62-3.31,.9-4.88,1.68-3.01,1.5-4.54,3.59-4.37,7.17,.54,11.5,3.35,22.41,8.22,32.78,3.3,7.03,7.64,13.51,11.38,20.31,2.29,4.18,4.45,8.43,6.67,12.65,1.26,.25,1.55,.88,1.21,2.66,.24,.75,.45,1.52,.74,2.26,1.45,3.67,2.58,7.42,3.34,11.29,.2,1.03-.09,1.17-.99,1.16-3.14-.04-6.29-.06-9.43,0-1.01,.02-1.23-.29-1.22-1.25,.06-4.69,.08-9.38,.07-14.06-.02-6.07-4.44-10.47-10.48-10.49-4.49-.01-8.98-.01-13.47,0-6.29,.01-10.62,4.28-10.73,10.55-.08,4.69-.22,9.37-.25,14.06,0,1.01-.31,1.24-1.27,1.24-4.54,0-9.08,.07-13.62,.12-6.27,.06-10.55,4.41-10.55,10.71,0,4.44,0,8.88,0,13.32,0,6.18,4.37,10.55,10.53,10.56,4.64,0,9.28,0,13.92,0,.67,0,1.46-.07,1.21,.94-.22,.87,.9,2.28-1.05,2.53-2.57,.33-5.12,.76-7.67,1.23-12.55,2.3-22.62,8.53-29.81,19.16-4.79,7.08-8.61,14.66-11.48,22.72-2.2,6.17-3.73,12.48-4.46,19.01-.23,2.01,.54,3.36,1.98,4.51,2.33,1.86,5.04,2.74,7.95,3.16,5.14,.74,10.11-.22,15.08-1.42,1.75-.42,2.53-1.36,2.89-3.1,1.85-8.83,5.67-16.7,12.26-22.96,7.77-7.39,16.73-10.69,27.52-7.62,6.04,1.72,11.92,3.87,17.85,5.9,15.12,5.2,30.49,7.07,46.34,4.06,9.08-1.72,17.55-4.7,24.87-10.55,10.14-8.1,17.09-18.54,22.28-30.26,5.51-12.44,8.68-25.5,9.97-39.04,1.33-13.91,.68-27.69-2.81-41.25ZM39.83,121.55c-3.83,0-5.95-2.08-5.95-5.87,0-4.39-.02-8.78,0-13.17,.02-3.54,2.15-5.65,5.7-5.68,5.44-.04,10.87-.06,16.31-.08,2.44-.01,3.26-.73,3.32-3.17,.15-5.58,.24-11.17,.34-16.75,.07-3.9,2.03-5.88,5.91-5.89,4.39-.01,8.78-.02,13.17,0,3.45,.02,5.57,2.16,5.57,5.61,0,5.64-.03,11.27-.05,16.91,0,2.49,.8,3.28,3.32,3.27,2.79,0,5.59,0,8.38,0,2.84,0,5.69-.02,8.53,0,3.34,.03,5.52,2.2,5.53,5.54,.02,4.49,0,8.98,0,13.47-.01,3.51-2.19,5.66-5.72,5.66-5.49,0-10.97,0-16.46-.01-2.83,0-3.52,.7-3.52,3.53,0,5.59,.01,11.17,0,16.76-.01,3.52-2.15,5.66-5.68,5.67-4.44,.02-8.88,.02-13.32,0-3.46-.01-5.6-2.1-5.62-5.57-.04-5.69-.02-11.37-.02-17.06,0-2.32-.82-3.17-3.13-3.17-5.54,0-11.07,0-16.61,0Zm144.95-40.92c-.03,.08-.05,.16-.07,.24,.03,2.31,.24,4.63-.22,6.93-.96,19.77-5.7,38.47-16.1,55.48-5.65,9.24-12.89,16.96-22.73,21.89-6.09,3.05-12.71,4.28-19.38,5.21-14.16,1.96-27.76-.52-41.08-5.24-5.25-1.86-10.5-3.71-15.85-5.25-12.74-3.67-23.45,.05-32.72,8.89-6.78,6.47-10.89,14.51-13.18,23.53-.26,1.01-.67,1.49-1.69,1.69-3.93,.78-7.85,1.39-11.86,.64-.05,0-.1,0-.15-.02-4.39-.82-4.98-1.66-4.21-6.03,1.81-10.25,5.51-19.81,10.55-28.89,2.72-4.9,5.76-9.55,9.81-13.47,5.98-5.79,13.33-8.73,21.35-10.24,2.05-.39,4.14-.61,6.19-1.05,1.05-.22,1.14,.16,1.12,1.03-.05,2.04-.03,4.09,0,6.13,.11,5.8,4.47,10.16,10.29,10.24,4.54,.06,9.08,.02,13.61,.03h0c.26-.14,.68-.24,.74-.44,.35-1.18,1.07-1.87,2.32-1.98,1.07-.09,2.08,.07,2.98,.7,.6-.28,1.09-.7,1.5-1.21-.08-1.07-.26-2.23,1.48-1.8,1.3-1.75,1.74-3.76,1.75-5.89,.01-4.69,.03-9.38-.03-14.07-.01-1.06,.29-1.33,1.33-1.31,4.54,.06,9.08,.05,13.62,.02,6.46-.05,10.76-4.39,10.77-10.82,0-4.39,.03-8.78,0-13.17-.03-5.27-2.96-9.11-7.96-10.39-.69-.18-.97-.41-1.08-1.12-1.54-9.47-5.34-18.11-9.86-26.45-4.39-8.09-9.26-15.93-13.46-24.12-5.12-9.99-7.89-20.71-8.28-31.99-.04-1.2,.44-1.82,1.41-2.31,3.66-1.85,7.33-1.4,11.02-.11,.75,.26,.61,.81,.63,1.32,.18,4.34,.72,8.63,1.89,12.83,.43,1.54,.94,3.04,1.62,4.49,1.77,3.79,4.44,5.09,8.51,4.07,3.61-.9,6.83-2.71,10.07-4.46,6.44-3.47,12.84-7.01,19.83-9.3,14.31-4.69,26.45-1.38,36.57,9.7,7.5,8.21,12.03,17.96,15.03,28.54,1.94,6.84,2.88,13.83,3.58,20.88h0"/>
  <path class="cls-1" d="M95.51,74.37c.26,.95,.61,1.86,1.21,2.66-.27-.95-.18-2.06-1.21-2.66Z"/>
  <path class="cls-1" d="M184.9,75.53c.04-.54-.05-1.08-.45-1.52h0c.05,2.21-.24,4.44,.33,6.62,.43-1.69,0-3.41,.11-5.11Z"/>
  <path class="cls-1" d="M78.47,152.39c2.18,0,4.23-.43,6.04-1.72-2.03,.52-3.97,1.32-6.04,1.72Z"/>
  <path class="cls-1" d="M184.5,87.81c.31-2.3-.12-4.63,.22-6.93-.45,2.3-.21,4.62-.22,6.93Z"/>
  <path class="cls-1" d="M87.5,147.66c-.73,.41-1.13,1.08-1.48,1.8,.62-.5,1.17-1.05,1.48-1.8Z"/>
</svg>