<?xml version="1.0" encoding="utf-8"?>
<!-- Generator: Adobe Illustrator 27.0.0, SVG Export Plug-In . SVG Version: 6.00 Build 0)  -->
<svg version="1.1" id="Capa_1" xmlns="http://www.w3.org/2000/svg" xmlns:xlink="http://www.w3.org/1999/xlink" x="0px" y="0px"
	 viewBox="0 0 100 100" style="enable-background:new 0 0 100 100;" xml:space="preserve">
<style type="text/css">
	.st0{fill:#FFFFFF;}
	.st1{fill-rule:evenodd;clip-rule:evenodd;fill:#FFFFFF;}
</style>
<g>
	<g>
		<path class="st0" d="M32.78,51.4c-2.19-0.37-4.31-0.73-6.42-1.11c-0.45-0.08-0.67,0.08-0.86,0.5c-0.79,1.79-2,3.24-3.9,3.91
			c-2.96,1.04-6.17-0.55-7.46-3.72c-0.36-0.88-0.83-1.14-1.72-1.25C6.25,48.99,1.11,43.93,0.25,37.75
			c-0.48-3.42-0.33-6.79,1.13-9.99c1.77-3.89,4.93-5.77,9.09-6.26c4-0.47,7.37,0.88,10.4,3.36c3.18,2.6,6.71,2.78,10.31,1.17
			c2.58-1.15,5.04-2.59,7.54-3.92c2.84-1.51,5.81-2.46,9.07-2.35c2.16,0.07,4.32,0,6.48,0.09c2.41,0.11,4.6,1.02,6.71,2.11
			c2.49,1.29,4.91,2.74,7.44,3.92c3.32,1.55,6.68,1.72,9.88-0.41c1.08-0.72,2.09-1.55,3.19-2.24c4.22-2.66,10.13-2.43,14.1,0.59
			c2.3,1.75,3.48,4.22,4,6.99c0.68,3.67,0.63,7.31-1.01,10.76c-2.24,4.72-6.01,7.4-11.14,8.17c-0.82,0.12-1.24,0.4-1.57,1.2
			c-1.37,3.32-4.66,4.86-7.69,3.67c-1.75-0.69-2.89-2.03-3.63-3.7c-0.24-0.54-0.49-0.71-1.05-0.6c-2.06,0.37-4.13,0.72-6.09,1.06
			c-0.3,1.93-0.51,3.84-0.89,5.71c-0.57,2.82-2.2,4.99-4.42,6.75c-0.39,0.31-0.78,0.64-1.18,0.94c-1.01,0.77-1.47,1.78-1.48,3.06
			c-0.01,3.72-0.07,7.45-0.11,11.17c-0.01,0.62-0.14,1.14-0.91,1.14c-0.8-0.01-0.97-0.55-0.96-1.2c0.06-3.96,0.1-7.93,0.19-11.89
			c0.04-1.67,0.9-2.96,2.23-3.85c4.06-2.7,5.45-6.63,5.43-11.29c-0.01-2.45-0.04-4.92,0.18-7.35c0.19-2.04,0.93-3.96,3.02-4.88
			c0.85-0.37,1.79-0.6,2.71-0.76c1.64-0.29,2.67-1.13,3-2.81c0.31-1.63,1.58-2.49,2.87-3.18c3.46-1.83,7.19-2.81,11.08-3.14
			c0.83-0.07,1.7,0.12,2.53,0.32c0.94,0.23,1.64,0.87,1.98,1.77c0.71,1.88,0.96,3.85,0.55,5.83c-0.54,2.64-2.4,4.27-4.57,5.6
			c-0.7,0.43-1.45,0.79-2.13,1.16c0.1,1.14,0.2,2.25,0.31,3.45c2.55-0.23,4.84-1.17,6.79-2.81c5.18-4.36,5.63-12.23,2.93-17.29
			c-1.64-3.08-4.42-4.29-7.74-4.52c-2.73-0.19-5.19,0.5-7.38,2.2c-1.78,1.37-3.58,2.7-5.89,3.12c-3.37,0.61-6.45-0.19-9.4-1.73
			c-2.38-1.25-4.72-2.57-7.12-3.78c-1.97-1-4.07-1.56-6.32-1.51c-1.45,0.03-2.91,0.08-4.35-0.01c-3.58-0.23-6.72,1.01-9.76,2.69
			c-2.84,1.57-5.55,3.4-8.77,4.17c-3.67,0.88-7.04,0.32-10.04-2.06c-2.37-1.89-4.91-3.22-8.08-3.11c-5.04,0.18-8.16,2.62-9.38,7.53
			c-0.89,3.56-0.67,7.05,0.98,10.36c2.02,4.05,5.4,6.2,9.85,6.8c0.11-1.17,0.21-2.31,0.32-3.42c-1.09-0.67-2.22-1.3-3.29-2.04
			c-3.9-2.68-4.26-6.46-2.91-10.53c0.48-1.43,1.75-2.01,3.2-2.14c2.8-0.25,5.48,0.46,8.07,1.34c1.97,0.67,3.83,1.67,5.67,2.65
			c0.84,0.44,1.39,1.27,1.56,2.27c0.28,1.69,1.35,2.52,2.98,2.82c0.89,0.17,1.8,0.37,2.64,0.72c2.19,0.91,2.92,2.89,3.12,5
			c0.22,2.29,0.07,4.61,0.2,6.91c0.1,1.79,0.24,3.6,0.63,5.35c0.55,2.47,2.09,4.36,4.13,5.79c2.07,1.44,3.01,3.28,2.92,5.86
			c-0.11,3.4,0.07,6.8,0.13,10.2c0,0.12,0.01,0.24,0,0.36c-0.04,0.59-0.23,1.04-0.92,1.06c-0.7,0.02-0.94-0.41-0.95-1.02
			c-0.04-2.48-0.08-4.96-0.11-7.44c-0.01-1.27-0.03-2.55,0-3.82c0.03-1.32-0.49-2.32-1.51-3.13c-1.64-1.3-3.28-2.61-4.33-4.5
			c-1.41-2.53-1.79-5.29-1.92-8.11C32.78,51.93,32.78,51.73,32.78,51.4z M86,42.57c1.54-0.57,3.02-1.57,4.24-2.94
			c1.39-1.55,1.45-3.39,1.18-5.34c-0.28-2.02-0.86-2.62-2.89-2.65c-0.24,0-0.48-0.01-0.71,0.02c-3.3,0.43-6.51,1.2-9.49,2.72
			c-1.23,0.63-2.25,1.39-2.58,2.93c-0.35,1.64-1.52,2.7-3.15,3.18c-0.51,0.15-1.03,0.27-1.55,0.37c-2.77,0.53-4.2,2.56-3.75,5.41
			c1.71-0.32,3.41-0.65,5.12-0.97c0.38-0.07,0.78-0.09,1.12-0.26c0.24-0.12,0.43-0.42,0.57-0.67c0.5-0.96,0.83-2.05,1.47-2.9
			c1.67-2.21,4.57-3.27,7.14-1.77C83.89,40.39,84.82,41.51,86,42.57z M32.79,46.31c-0.14-3.75-1.23-5.2-4.3-5.57
			c-2.49-0.3-4.03-1.77-4.6-4.26c-0.1-0.42-0.41-0.89-0.76-1.14c-0.76-0.55-1.57-1.1-2.44-1.41c-1.88-0.68-3.78-1.35-5.73-1.77
			c-1.53-0.33-3.15-0.36-4.72-0.34c-0.44,0-1.14,0.56-1.27,1c-0.7,2.25-1.02,4.53,0.6,6.57c1.22,1.53,2.8,2.58,4.61,3.25
			c0.5-0.6,0.95-1.18,1.43-1.73c1.44-1.66,3.8-2.3,5.88-1.58c2.31,0.81,3.57,2.58,4.34,4.81c0.11,0.32,0.33,0.8,0.57,0.86
			C28.5,45.48,30.61,45.87,32.79,46.31z M32.84,48.22c-2.47-0.49-4.88-1.02-7.32-1.44c-0.83-0.14-1.15-0.52-1.29-1.29
			c-0.22-1.27-0.75-2.42-1.68-3.34c-1.63-1.62-3.57-1.7-5.31-0.24c-2.71,2.27-2.84,7.49-0.25,9.98c1.79,1.72,3.92,1.74,5.59-0.11
			c0.7-0.78,1.11-1.84,1.59-2.81c0.25-0.5,0.5-0.87,1.12-0.77c2.18,0.37,4.36,0.73,6.54,1.12C32.88,49.52,32.96,49.45,32.84,48.22z
			 M67.18,49.43c0.34-0.02,0.52-0.01,0.69-0.04c2.18-0.37,4.37-0.7,6.54-1.12c0.82-0.16,1.22,0.14,1.46,0.87
			c0.18,0.53,0.36,1.07,0.64,1.55c1.49,2.54,4.32,3.53,6.67,1.05c2.24-2.38,2.23-7.09-0.02-9.44c-1.61-1.68-3.77-1.89-5.39-0.48
			c-1.08,0.94-1.73,2.17-2,3.56c-0.16,0.83-0.44,1.27-1.36,1.43c-2.44,0.41-4.85,0.95-7.34,1.45
			C67.11,48.66,67.14,49.02,67.18,49.43z"/>
		<path class="st0" d="M54.27,71.85c-1.25-0.11-1.76-0.43-1.94-1.57c-0.33-2.09-0.6-4.2-0.7-6.32c-0.14-2.84-0.09-5.68-0.14-8.52
			c-0.01-0.72,0.22-1.28,1.02-1.24c3.42,0.2,5.37-2.21,5.82-5.33c0.21-1.46,0.2-2.95,0.45-4.4c0.49-2.87,2.35-4.91,4.44-6.75
			c1.13-0.99,2.34-1.9,3.58-2.75c0.3-0.21,0.9-0.17,1.27-0.01c0.19,0.08,0.24,0.67,0.2,1.01c-0.02,0.2-0.33,0.38-0.52,0.55
			c-1.79,1.58-3.67,3.07-5.34,4.77c-1.43,1.45-1.98,3.33-1.99,5.43c-0.01,2.61-0.52,5.12-2.36,7.16c-1.23,1.36-2.77,2.07-4.7,2.19
			c0.02,4.62-0.06,9.17,0.66,13.67c1.44,0.18,1.89,0.48,2.01,1.82c0.23,2.56,0.3,5.12,0.43,7.69c0.03,0.65-0.34,1.03-0.96,1
			c-0.63-0.03-0.88-0.47-0.89-1.1c-0.04-1.89-0.1-3.78-0.17-5.68C54.42,72.95,54.33,72.42,54.27,71.85z"/>
		<path class="st0" d="M45.63,71.79c-0.09,1.82-0.18,3.58-0.25,5.34c-0.03,0.71-0.01,1.42-0.01,2.13c0,0.61-0.33,0.98-0.9,1
			c-0.55,0.01-0.97-0.3-0.94-0.93c0.14-2.68,0.25-5.37,0.46-8.04c0.06-0.78,0.52-1.43,1.49-1.49c0.2-0.01,0.5-0.38,0.54-0.62
			c0.16-0.84,0.28-1.7,0.31-2.55c0.14-3.48,0.25-6.96,0.36-10.49c-0.54-0.09-0.94-0.13-1.33-0.23c-3.24-0.81-4.8-3.15-5.48-6.19
			c-0.25-1.11-0.34-2.28-0.34-3.43c-0.01-2.53-1.24-4.47-2.97-6.11c-1.39-1.32-2.93-2.49-4.44-3.67c-0.51-0.4-0.72-0.82-0.41-1.35
			c0.33-0.56,0.87-0.6,1.38-0.24c2.36,1.68,4.67,3.42,6.41,5.79c1.31,1.78,1.85,3.79,1.91,5.97c0.04,1.76,0.27,3.47,1.18,5.03
			c0.99,1.68,2.47,2.48,4.39,2.51c1.3,0.02,1.52,0.18,1.48,1.5c-0.13,4.25-0.28,8.51-0.47,12.76c-0.03,0.7-0.23,1.39-0.42,2.07
			C47.34,71.42,46.75,71.92,45.63,71.79z"/>
		<path class="st0" d="M50,34.82c-4.57-0.29-9.15-0.51-13.7-0.91c-1.37-0.12-2.72-0.68-4.02-1.2c-0.34-0.13-0.61-0.85-0.61-1.31
			c-0.01-0.75,0.93-1.11,1.42-0.54c0.79,0.92,1.86,0.95,2.88,1.12c5.96,0.98,11.97,0.81,17.97,0.69c3.68-0.08,7.36-0.52,11.03-0.88
			c0.63-0.06,1.25-0.53,1.82-0.88c0.49-0.3,0.93-0.4,1.37-0.01c0.42,0.38,0.34,1.41-0.25,1.72c-0.93,0.48-1.93,0.99-2.94,1.11
			c-3.23,0.36-6.47,0.6-9.71,0.79c-1.74,0.1-3.49,0.02-5.23,0.02C50,34.62,50,34.72,50,34.82z"/>
	</g>
</g>
</svg>
