<?xml version="1.0" encoding="UTF-8"?>
<svg id="Capa_1" data-name="Capa 1" xmlns="http://www.w3.org/2000/svg" viewBox="0 0 207.48 200">
  <defs>
    <style>
      .cls-1 {
        fill: #4b6b7a;
      }
    </style>
  </defs>
  <path class="cls-1" d="M172.74,119.57c-13.54-4.52-26.21-2.27-38.13,5.97-.22-5.05-2.04-9.39-3.32-13.89-1.9-6.68-1.62-13.35,1.47-19.67,2.72-5.55,6.71-10.45,8.25-16.65,3.56,1.74,6.91,3.28,10.54,3.61,3.7,.34,6.82,1.52,9.25,4.38,.21,.25,.53,.42,.81,.61,7.1,4.75,14.71,6.41,23.02,3.84,2.43-.75,3.39-2.19,2.86-4.1-.51-1.85-2.26-2.53-4.63-1.82-.32,.1-.64,.21-.96,.3-9.05,2.49-19.62-2.58-23.32-11.2-3.21-7.47,.35-15.17,8.1-17.56,8.19-2.52,18.05,1.26,22.71,8.72,2.04,3.27,2.83,6.8,2.15,10.63-.43,2.41,.41,3.99,2.29,4.4,1.77,.38,3.32-1.01,3.78-3.34,.5-2.55,.62-5.13-.09-7.62-.41-1.41,.07-2.22,.85-3.23,9.27-11.94,11.75-25.02,6.13-39.22C197.96,7.19,180.46-2.36,162.88,.62c-7.74,1.31-14.31,4.81-20.22,9.82-3.3,2.8-3.36,2.74-6.88,.39-.22-.15-.46-.28-.69-.42C115.55-2.02,88.42-1.15,69.68,12.55c-.84,.61-1.38,.73-2.22,.03-1.75-1.47-3.57-2.87-5.42-4.23C49.63-.77,36.32-2.51,22.09,3.57c-2.5,1.07-2.98,2.21-2.25,4.77,1.35,1.48,2.85,1.66,4.71,.87,12.52-5.31,24.15-3.67,34.72,4.82,5.96,4.79,12.33,8.83,19.42,11.71,2.43,.99,3.39,.75,5.09-1.22,.11-2.95-.16-3.33-2.89-4.49-2.19-.94-4.4-1.84-6.57-3.23,1.9-1.47,3.78-2.64,5.85-3.51,8.2-4.26,16.98-5.72,26.12-5.37,7.47,.28,14.62,1.86,21.27,5.36h0c2.07,.81,3.89,2.04,5.81,3.41-6.58,3.64-13.41,6.01-20.69,7.11-5.82,.88-11.64,.97-17.46,.06-1.88-.29-3.04,.72-3.75,2.36,0,0,0,0,0,0,0,0,0,0,0,0,.18,2.6,.77,3.37,3.29,3.74,13.54,1.95,26.38-.41,38.63-6.34,5.42-2.62,10.31-6.05,14.98-9.85,18.18-14.8,44.62-7.02,51.47,15.21,3.26,10.59,1.05,20.31-5.6,29.29-1.88-2.46-3.84-4.65-6.21-6.44-1.09-.82,.05-1.12,.42-1.47,4.91-4.7,7.16-10.48,6.29-17.15-.95-7.21-4.97-12.71-10.92-16.74-9.9-6.71-22.88-5.88-32.17,2.17-5.47,4.74-11.17,9.07-17.77,12.14-3.65,1.7-5.88,4.8-7.45,8.41t0,0s0,0,0,0c-1.19,5.46-.83,11.01-.63,16.5,.33,9.29-2.47,17.19-8.6,24.2-5.4,6.18-8.21,13.63-8.76,21.87-.17,2.51,.46,3.36,2.93,3.98,2.13-.21,3.05-1.55,3.18-3.52,.51-7.61,3.52-14.14,8.46-19.85,6.12-7.08,9.01-15.32,8.93-24.66-.04-4.59-.01-9.17,0-13.76,.01-3.14,1.4-5.55,3.98-7.29,.67-.45,1.27-.74,1.23,.5-.26,10.17,.68,20.38-.64,30.52-.76,5.82-2.92,11.18-6.18,16.03-4.21,6.27-6.48,13.1-6.34,20.67,.08,4.34,1.03,8.53,2.54,12.59,.69,1.86,1.4,3.75,1.45,5.86-4.8-1.54-8.71-.68-11.48,3.66-.32,.49-.76,.79-1.36,.62-.77-.21-.75-.89-.75-1.48-.02-2.63-.08-5.26,0-7.89,.07-2.22-.82-3.61-3.03-4.07h0c-2.54,.8-3.13,1.56-3.15,4.15-.02,2.68,0,5.36,0,8.04,0,1.43,.42,2.76,1.01,4.05,4.11,4.85,8.58,4.71,12.73-.4h0c.73-1.24,1.93-1.55,3.11-1.1,1.43,.54,2.33,1.78,2.83,3.23,.08,.23-.14,.64-.34,.87-2.29,2.65-3.92,5.73-5.64,8.75-.96,2.71-2.09,5.37-2.67,8.2-.16,.78-.62,1.04-1.34,1.25-11.48,3.29-22.74,2.65-33.77-1.9-1.32-.54-2.17-1.53-2.47-2.98-.81-3.88-1.66-7.75-2.46-11.63-.3-1.47,.14-2.82,.96-4.02,1.76-2.58,3.92-2.58,5.77-.06,1.98,2.71,4.92,3.81,7.97,2.98,2.84-.77,5.18-3.53,5.18-6.75,0-8.36,.41-16.73-.23-25.08-.63-8.32-3.78-15.64-9.14-21.97-3.86-4.56-6.74-9.54-7.71-15.51-.45-2.74-.34-5.51-.38-8.28-.07-4.32,.21-8.64-.16-12.95-.44-5.08-2.89-9.11-7.36-11.37-6.92-3.5-12.96-8.07-18.93-12.96C41.48,7.01,21.95,11.39,14.43,27.1c-3.75,7.83-2.08,16.99,4.2,22.99,.49,.46,.99,.91,1.55,1.43-2.38,1.79-4.48,3.76-6.14,6.16-.66,.95-1.02,.42-1.46-.17-3.23-4.34-5.32-9.17-6.11-14.53-1.37-9.38,1.1-17.73,6.94-25.11,1.24-1.56,1.26-3.02,.23-4.62,0,0,0,0,0,0-2.37-1.35-3.47-1.14-5.17,.94-2.38,2.93-4.18,6.18-5.7,9.64C1.46,26.83,1.12,30.08-.01,33.11v10.13c.79,.49,.42,1.35,.56,2.02,1.37,6.73,4.29,12.7,8.69,17.96,.76,.91,1.32,1.69,1.02,3.19-1.75,8.76,2.68,16.93,10.9,20.57,9.3,4.12,20.99,1.66,28.62-6.06,.73-.74,1.41-1.23,2.54-1.35,4.44-.46,8.73-1.58,12.71-3.64,1.17-.6,1.43-.2,1.74,.75,1.19,3.66,2.84,7.12,5.01,10.29,5.97,8.72,6.9,17.97,3.27,27.82-2.45,6.63-3.41,13.53-1.94,20.46,3.98,18.72,8.22,37.38,12.3,56.07,.44,2,1.42,3.42,3.18,4.39,10.07,5.6,20.11,5.51,30.16-.05,1.76-.97,2.81-2.34,3.21-4.37,.71-3.56,1.6-7.08,2.46-10.83,13.49,20.4,38.75,24.52,56.97,13.02,18.28-11.54,24.66-35.23,14.47-54.24-5.12-9.54-12.84-16.25-23.11-19.68Zm-29.48-67.26c.4-2.43,.07-4.98,.07-7.47,0-3.57,0-7.15,0-10.72,0-.74-.04-1.39,.79-1.87,4.51-2.63,8.21-6.31,12.26-9.54,7.11-5.68,16.86-6.13,24.21-.97,4.9,3.45,8.21,8.02,8.14,14.29-.05,5.01-2.5,8.79-6.66,11.54-.97,.64-1.77,.27-2.64,.01-6.12-1.78-12.1-1.53-17.84,1.34-4.94,2.47-8.28,6.35-9.69,11.75-.31,1.2-.74,1.6-1.88,.87-.56-.36-1.2-.59-1.8-.89-3.44-1.71-5.67-4-4.96-8.33Zm-.59,15.78c.15-.99,.29-1.98,.48-3.24,2.57,1.42,4.99,2.81,7.72,3.52,.89,.23,.85,1.09,1.03,1.79,.22,.84,.49,1.66,.81,2.73-3.6-.47-6.7-1.89-9.71-3.56-.55-.3-.4-.77-.33-1.23Zm-92.94,1.67c-3.31,10.14-16.71,16.03-26.34,11.49-4.64-2.19-7.2-5.91-7.35-10.97,.04-4.84,1.97-8.7,5.34-11.75,5.96-5.38,12.83-7.57,20.66-4.77,6.84,2.45,9.93,9.12,7.69,16Zm-21.72-22.04c-1.25,.41-2.15,.19-3.16-.48-5.66-3.73-7.79-10.82-5.06-17.04,5.24-11.98,20.16-15.84,30.72-7.87,4.35,3.28,8.15,7.29,12.93,10.02,.75,.43,.6,1.12,.6,1.78,0,3.58,0,7.16,0,10.73,0,3.51-.05,7.02,.03,10.53,.02,1.12-.32,1.88-1.17,2.59-1.71,1.44-3.56,2.63-5.58,3.58-.78,.37-1.06,.24-1.23-.54-2.52-11.46-15.89-17.34-28.07-13.32Zm36.3,21.66c-2.87,1.55-5.8,2.92-8.89,3.38-.18-3.52,1.88-4.98,4.85-5.82,1.37-.39,2.59-1.33,3.95-2.05,.18,1.19,.33,2.24,.51,3.28,.08,.49,.12,.93-.41,1.21Zm5.88-10.76c.11-6.95,.02-13.9,.03-20.86,0-.45-.25-1.03,.19-1.32,.58-.4,.99,.21,1.39,.5,2.39,1.75,3.63,4.11,3.63,7.08,.01,4.59,.04,9.18,0,13.77-.08,9.27,2.74,17.49,8.84,24.49,6.08,6.98,8.88,15.07,8.73,24.29-.1,6.14-.01,12.28-.03,18.43,0,.76,.28,1.75-.72,2.11-1.05,.38-1.33-.61-1.79-1.23-2.62-3.54-6.06-4.49-11.14-3,.21-2.54,1.04-4.67,1.8-6.81,3.84-10.91,2.96-21.37-3.4-31.09-5.26-8.05-7.69-16.78-7.54-26.34Zm15.25,103.73c-.78-2.2-1.1-4.49-1.64-7.05,11.41,4.17,22.76,4.79,34.47,1.71-.08,3.37,.09,6.57,.8,9.72,.2,.89-.58,.95-1.09,1.14-.68,.26-1.42,.39-2.13,.57-9.64,3.25-19.11,2.47-28.39-1.37-1.99-.82-1.75-2.96-2.02-4.72Zm30.72,26.91c-.13,.61-.43,1.12-1.03,1.42-2.22,1.11-4.44,2.22-6.98,2.41-5.63,1.27-10.91,.32-15.95-2.38-.54-.29-.8-.73-.91-1.26-.62-2.95-1.21-5.9-1.81-8.86h0c-.53-2.12-1.06-4.24-1.69-6.73,10.68,3.51,21.1,3.59,31.73-.01-1.16,5.36-2.25,10.39-3.35,15.41Zm50.93,3.58c-15.94,3.85-33.55-5.07-39.85-20.2-.07-.18-.06-.4-.08-.6h0c-4.19-9.64-3.78-19.23,.65-28.61,6.1-12.93,19.44-20.76,33.67-19.94,3.82,.22,7.57,.96,11.09,2.58,0,0,0,0,0,0,11.92,5.09,19.34,13.97,21.41,26.76,3.05,18.84-8.35,35.52-26.89,40Z"/>
  <path class="cls-1" d="M125.74,40.02c.07-.06,.13-.12,.2-.18,.2-.16,.28-.46,.49-.64-.2,.11-.37,.23-.56,.35-.05,.16-.09,.31-.13,.47Z"/>
  <path class="cls-1" d="M91.14,26.12s0,.05,0,.07c.12,0,.23,.03,.34,.03-.1-.07-.2-.13-.3-.19-.01,.03-.03,.06-.04,.09Z"/>
  <path class="cls-1" d="M84.1,24.58c.01-.08,.03-.16,.04-.24-.12,.05-.23,.11-.35,.19,0,0,0,0,0,0h0c.11,.01,.21,.03,.31,.05Z"/>
  <path class="cls-1" d="M80.18,13.85c.05-.02,.1-.05,.15-.07-.08-.13-.14-.28-.16-.48-.02,.21-.02,.39,0,.55Z"/>
  <path class="cls-1" d="M127.08,13.63c.06,.03,.11,.05,.17,.08,.06,.03,.13,.06,.19,.09,.07-.15,.12-.31,.14-.51,0,0,0,0,0,0-.17,.11-.33,.23-.5,.34Z"/>
  <path class="cls-1" d="M163.33,150.74c-.03-2.77-.05-5.54,.02-8.3,.03-1.07-.31-1.4-1.37-1.35-1.68,.08-3.38,.1-5.06,0-1.21-.08-1.44,.4-1.42,1.49,.07,2.83,.05,5.67,.02,8.5-.03,2.45-1.13,3.52-3.61,3.55-1.35,.02-2.7,0-4.35,0-1.62,.2-4.19-.86-5.28,.42-.95,1.11-.28,3.6-.33,5.48,0,.13,.02,.27,0,.4-.18,1.21,.26,1.67,1.55,1.62,2.7-.1,5.4-.05,8.1-.02,2.87,.02,3.91,1.06,3.93,3.87,.02,2.63,.12,5.27-.04,7.89-.1,1.61,.48,1.94,1.92,1.81,1.41-.12,2.84-.11,4.25,0,1.27,.09,1.76-.24,1.7-1.62-.12-2.49-.04-4.99-.03-7.49,0-3.62,.89-4.49,4.58-4.49,2.56,0,5.13-.04,7.69,.02,1.02,.02,1.46-.24,1.4-1.34-.09-1.61-.1-3.24,0-4.86,.08-1.28-.24-1.77-1.63-1.71-2.69,.11-5.4,.04-8.1,.02-2.85-.02-3.89-1.04-3.92-3.89Z"/>
</svg>