<?xml version="1.0" encoding="utf-8"?>
<!-- Generator: Adobe Illustrator 27.0.0, SVG Export Plug-In . SVG Version: 6.00 Build 0)  -->
<svg version="1.1" id="Capa_1" xmlns="http://www.w3.org/2000/svg" xmlns:xlink="http://www.w3.org/1999/xlink" x="0px" y="0px"
	 viewBox="0 0 100 100" style="enable-background:new 0 0 100 100;" xml:space="preserve">
<style type="text/css">
	.st0{fill:#FFFFFF;}
	.st1{fill-rule:evenodd;clip-rule:evenodd;fill:#FFFFFF;}
</style>
<g>
	<g>
		<g>
			<g>
				<path class="st0" d="M81.23,81.46c-21.35,0-42.59,0-63.93,0c0,1.57-0.02,3.07,0.03,4.57c0.01,0.2,0.37,0.44,0.61,0.57
					c2.7,1.4,3.54,4.86,1.75,7.32c-1.23,1.7-3.37,2.43-5.42,1.85c-1.85-0.52-3.32-2.25-3.49-4.1c-0.21-2.29,0.76-4.17,2.71-5.09
					c0.54-0.25,0.71-0.55,0.71-1.13c-0.03-3.94-0.01-7.88-0.02-11.82c0-0.15-0.02-0.31-0.04-0.55c-0.29,0-0.54,0-0.8,0
					c-3.36,0-6.72,0-10.08,0C1.32,73.08,0,71.76,0,69.8c0-7.09,0-14.18,0-21.27c0-2.04,1.32-3.37,3.36-3.38c0.98,0,1.96,0,2.94,0
					c2.07,0.01,3.37,1.3,3.38,3.35c0,0.26,0,0.53,0,0.92c0.33,0,0.64,0,0.94,0c2.45,0.02,4.91-0.17,7.31,0.57
					c4.91,1.51,8.3,4.66,10.21,9.42c0.17,0.42,0.33,0.62,0.83,0.62c9.23-0.01,18.46,0.01,27.69,0.01c0.1,0,0.21-0.01,0.47-0.03
					c0-0.88,0-1.77,0-2.65c0-1.56-0.02-3.12-0.01-4.68c0.01-1.98,1.3-3.26,3.29-3.26c9.15,0,18.3,0,27.46,0c0.29,0,0.58,0,0.93,0
					c0.03-0.51,0.05-0.98,0.09-1.44c0.15-1.57,1.43-2.79,3-2.82c1.67-0.03,3.33-0.03,5,0c1.79,0.03,3.11,1.42,3.11,3.22
					c0,7.64,0,15.29,0,22.93c0,1.22-0.57,1.78-1.8,1.77c-4.41-0.01-8.83-0.02-13.24-0.03c-0.21,0-0.41,0.02-0.66,0.04
					c0,1.18,0,2.31,0,3.44c0,3.04,0.01,6.08-0.01,9.13c0,0.47,0.09,0.73,0.55,0.97c2.13,1.12,3.1,3.41,2.48,5.69
					c-0.62,2.27-2.57,3.68-5.04,3.62c-2.19-0.05-4.11-1.72-4.6-4c-0.47-2.21,0.76-4.58,2.94-5.48c0.53-0.22,0.65-0.48,0.63-0.99
					C81.21,84.19,81.23,82.89,81.23,81.46z M3.15,70.02c31.29,0,62.46,0,93.68,0c0-7.27,0-14.47,0-21.7c-1.66,0-3.26,0-4.92,0
					c0,0.3,0,0.56,0,0.82c0,3.25,0.02,6.51-0.01,9.76c-0.02,1.94-1.23,3.52-3.11,4.01c-0.72,0.19-1.51,0.19-2.27,0.19
					c-12.25,0.01-24.5,0.01-36.74,0.01c-13.84,0-27.67-0.01-41.51-0.02c-1.1,0-1.69-0.61-1.69-1.73c0-4.13,0-8.25,0-12.38
					c0-0.21-0.02-0.41-0.03-0.66c-1.16,0-2.27,0-3.4,0C3.15,55.58,3.15,62.76,3.15,70.02z M81.19,73.13c-21.31,0-42.58,0-63.83,0
					c0,1.78,0,3.48,0,5.17c21.32,0,42.57,0,63.83,0C81.19,76.53,81.19,74.85,81.19,73.13z M9.71,59.97c5.13,0,10.15,0,15.21,0
					c-0.02-0.13-0.01-0.22-0.04-0.28c-0.11-0.24-0.21-0.49-0.34-0.72c-1.29-2.26-3.08-4-5.4-5.2c-2.96-1.52-6.14-1.32-9.3-1.24
					c-0.04,0-0.08,0.06-0.13,0.11C9.71,55.06,9.71,57.49,9.71,59.97z M83.05,60.05c1.53,0,2.95,0.02,4.38-0.01
					c0.82-0.02,1.37-0.44,1.39-1.22c0.06-2.08,0.02-4.15,0.02-6.27c-1.97,0-3.87,0-5.79,0C83.05,55.07,83.05,57.52,83.05,60.05z
					 M67.39,59.99c1.59,0,3.12,0,4.65,0c0-2.51,0-4.96,0-7.42c-1.58,0-3.11,0-4.65,0C67.39,55.09,67.39,57.53,67.39,59.99z
					 M75.25,60c1.53,0,3.07,0,4.65,0c0-2.5,0-4.97,0-7.46c-1.58,0-3.1,0-4.65,0C75.25,55.04,75.25,57.49,75.25,60z M60.24,52.53
					c0,2.56,0,5.03,0,7.46c1.37,0,2.68,0,3.99,0c0-2.51,0-4.96,0-7.46C62.88,52.53,61.58,52.53,60.24,52.53z M84.42,91.05
					c0.01-0.98-0.85-1.87-1.85-1.91c-0.96-0.04-1.86,0.86-1.88,1.87c-0.01,0.99,0.87,1.87,1.88,1.86
					C83.51,92.86,84.41,91.98,84.42,91.05z M17.52,91.01c-0.01-1.01-0.89-1.89-1.86-1.87c-0.97,0.02-1.87,0.96-1.84,1.91
					c0.02,0.99,0.93,1.84,1.93,1.81C16.72,92.83,17.53,91.99,17.52,91.01z"/>
			</g>
		</g>
		<g>
			<g>
				<path class="st0" d="M53.49,12.62c1.72,0,3.33-0.01,4.94,0c1.88,0.01,3.3,1.22,3.49,3.09c0.09,0.86,0.08,1.75-0.03,2.6
					c-0.2,1.62-1.63,2.87-3.26,2.89c-1.68,0.03-3.37,0.01-5.14,0.01c0,1.59,0,3.09,0,4.58c0,2.51-1.4,3.92-3.92,3.93
					c-0.58,0-1.17-0.01-1.74-0.09c-1.71-0.24-2.9-1.58-2.93-3.3c-0.03-1.66-0.01-3.33-0.01-5.06c-0.26-0.02-0.49-0.05-0.71-0.05
					c-1.43,0-2.86,0.01-4.28-0.01c-2.07-0.02-3.63-1.69-3.52-3.75c0.02-0.37,0.03-0.74,0.04-1.11c0.06-2.3,1.51-3.73,3.81-3.73
					c1.53,0,3.06,0,4.71,0c0-0.53,0-1,0-1.46c-0.01-1.11-0.04-2.22-0.04-3.33c0-2.03,1.09-3.4,3.09-3.66
					c1.35-0.18,2.76-0.28,3.98,0.57c0.99,0.69,1.53,1.65,1.53,2.88C53.49,9.25,53.49,10.89,53.49,12.62z M55.02,15.69
					c-0.9,0-1.8,0-2.7,0c-0.03,0-0.05,0-0.08,0c-1.3-0.02-1.81-0.51-1.82-1.83c-0.01-1.69-0.01-3.39,0-5.08
					c0-1.78,0.06-1.5-1.53-1.56c-0.75-0.03-0.96,0.25-0.95,0.96c0.03,1.9,0.01,3.81,0.01,5.71c0,1.16-0.65,1.8-1.81,1.8
					c-1.66,0-3.33,0.06-4.99-0.02c-1.98-0.1-1.72-0.02-1.64,1.83c0.02,0.48,0.23,0.65,0.69,0.65c0.69-0.01,1.37,0.01,2.06,0.01
					c1.35,0,2.69-0.05,4.04,0.01c1.22,0.06,1.65,0.56,1.66,1.74c0,1.9,0.03,3.81-0.01,5.71c-0.02,0.78,0.25,1.08,1.01,0.98
					c0.16-0.02,0.32-0.02,0.48,0c0.79,0.12,1.01-0.25,1-0.99c-0.03-1.9-0.02-3.81-0.01-5.71c0.01-1.22,0.52-1.74,1.73-1.75
					c1.72-0.02,3.44-0.02,5.16-0.01c1.77,0.01,1.56,0.06,1.59-1.58c0.01-0.65-0.2-0.91-0.87-0.89
					C57.03,15.72,56.02,15.69,55.02,15.69z"/>
			</g>
		</g>
	</g>
</g>
</svg>
