<?xml version="1.0" encoding="utf-8"?>
<!-- Generator: Adobe Illustrator 27.0.0, SVG Export Plug-In . SVG Version: 6.00 Build 0)  -->
<svg version="1.1" id="Capa_1" xmlns="http://www.w3.org/2000/svg" xmlns:xlink="http://www.w3.org/1999/xlink" x="0px" y="0px"
	 viewBox="0 0 100 100" style="enable-background:new 0 0 100 100;" xml:space="preserve">
<style type="text/css">
	.st0{fill:#FFFFFF;}
	.st1{fill-rule:evenodd;clip-rule:evenodd;fill:#FFFFFF;}
</style>
<path class="st1" d="M84.11,10.02c-0.11,2.27-0.2,4.28-0.31,6.3C83.21,27.14,82.62,37.97,82,48.79c-0.04,0.73,0.18,1.13,0.71,1.56
	c5.56,4.44,11.1,8.91,16.64,13.37c0.25,0.2,0.49,0.43,0.65,0.82c-5.33-1.63-10.66-3.25-16.14-4.92c-4.95,9.55-9.9,19.12-14.9,28.75
	c-3.44-2.04-6.84-4.08-10.28-6.05c-0.49-0.28-1.18-0.43-1.73-0.34c-9.1,1.41-18.19,2.85-27.28,4.3c-6.76,1.07-13.53,2.14-20.29,3.22
	c-0.61,0.1-1.2,0.28-2.11,0.5c7.65-8.02,15.1-15.82,22.61-23.69C19.89,54.6,9.95,42.95,0,31.31c0.05-0.06,0.1-0.11,0.16-0.17
	C14.14,41.87,28.12,52.6,42.17,63.39c0.7-0.55,1.44-1.05,2.05-1.66c0.27-0.27,0.4-0.76,0.44-1.17c0.45-4.47,0.85-8.95,1.31-13.42
	c0.04-0.43,0.27-0.94,0.58-1.23c12.32-11.82,24.66-23.62,37-35.42C83.65,10.39,83.77,10.31,84.11,10.02 M61.19,60.14
	c7-15.65,13.94-31.19,20.89-46.73c-0.32,0.05-0.52,0.2-0.69,0.36c-11.35,10.86-22.7,21.72-34.03,32.59
	c-0.28,0.27-0.49,0.74-0.54,1.13c-0.31,2.78-0.56,5.57-0.83,8.36c-0.15,1.52-0.28,3.04-0.45,4.8c0.54-0.38,0.89-0.62,1.23-0.88
	c1.88-1.49,3.78-2.95,5.62-4.48c0.67-0.55,1.13-0.65,1.89-0.08C56.51,56.9,58.83,58.47,61.19,60.14 M83.01,14.08
	c-0.09,0-0.18-0.01-0.27-0.02C75.81,29.58,68.88,45.1,61.92,60.67c2.12,1.5,4.16,2.93,6.27,4.43c1.95-2.48,3.8-4.91,5.73-7.27
	c2.04-2.49,3.65-5.39,6.63-7.01c0.29-0.16,0.47-0.72,0.5-1.12c0.22-3.35,0.41-6.7,0.59-10.05c0.35-6.29,0.7-12.59,1.04-18.88
	C82.79,18.54,82.9,16.31,83.01,14.08 M54.85,72.61c-4.36-2-8.4-3.87-12.45-5.71c-0.35-0.16-0.79-0.18-1.19-0.18
	c-3.21-0.01-6.42-0.04-9.62,0.02c-0.51,0.01-1.15,0.28-1.51,0.65c-6.34,6.58-12.65,13.2-18.96,19.81c-0.18,0.18-0.32,0.41-0.66,0.84
	C25.35,82.87,39.97,77.79,54.85,72.61 M65.61,77.46c-3.16-1.42-6.1-2.77-9.08-4.06c-0.38-0.16-0.94-0.11-1.35,0.03
	c-13.29,4.6-26.56,9.22-39.84,13.84c-0.23,0.08-0.44,0.21-0.67,0.31c2.59-0.25,5.14-0.63,7.68-1.03c11.56-1.83,23.11-3.76,34.7-5.44
	C60.26,80.65,62.85,79.23,65.61,77.46 M41.41,63.9C29.69,54.91,18.02,45.95,6.35,36.99c-0.03,0.31,0.08,0.48,0.21,0.64
	c7.87,9.22,15.74,18.45,23.64,27.65c0.26,0.3,0.79,0.52,1.21,0.53c1.92,0.06,3.85-0.12,5.75,0.07
	C39.02,66.06,40.18,65.11,41.41,63.9 M77.79,54.83c-0.1-0.02-0.21-0.06-0.31-0.08c-0.12,0.13-0.25,0.25-0.36,0.39
	c-4.28,5.44-8.55,10.9-12.85,16.33c-0.41,0.52-0.19,0.83,0.06,1.26c1.26,2.26,2.93,4.31,3.27,7.04c0.24,1.94,0.78,3.84,1.24,6.06
	c0.21-0.56,0.31-0.79,0.38-1.03c2.66-8.84,5.33-17.67,7.95-26.52C77.51,57.17,77.6,55.98,77.79,54.83 M56.72,72.5
	c-1.24-5.66-2.43-11.04-3.65-16.6c-4.22,3.34-8.25,6.53-12.13,9.59c1.35,0.54,2.71,1.03,4.01,1.62
	C48.81,68.85,52.64,70.63,56.72,72.5 M95.81,62.34c0.05-0.08,0.1-0.15,0.14-0.23c-4.64-3.73-9.28-7.46-13.92-11.19
	c-0.41,0.28-0.73,0.54-1.09,0.72c-1.88,0.89-2.61,2.33-2.5,4.41c0.04,0.77,0.19,1.09,0.91,1.3c3.45,1.02,6.9,2.09,10.34,3.14
	C91.74,61.1,93.77,61.72,95.81,62.34 M78.22,57.9c-2.45,8.13-4.85,16.13-7.26,24.14c0.08,0.03,0.16,0.06,0.24,0.09
	c3.91-7.56,7.83-15.11,11.8-22.78C81.36,58.85,79.83,58.39,78.22,57.9 M67.64,65.79c-4.24-3-8.32-5.89-12.39-8.78
	c-0.05,0.06-0.1,0.12-0.15,0.18c2.75,4.61,5.49,9.23,8.32,13.97C64.85,69.34,66.2,67.62,67.64,65.79 M65.1,76.26
	c0.07-0.07,0.14-0.13,0.21-0.2c-3.53-5.93-7.07-11.86-10.6-17.79c0.83,4.78,1.85,9.48,2.89,14.16c0.06,0.25,0.26,0.56,0.49,0.66
	C60.42,74.17,62.76,75.22,65.1,76.26 M59.68,81.85c2.67,1.58,5.47,3.24,8.47,5.01c-0.63-3.03-1.21-5.82-1.8-8.67
	C64.09,79.43,61.92,80.62,59.68,81.85"/>
</svg>
