<?xml version="1.0" encoding="UTF-8"?>
<svg id="Capa_1" data-name="Capa 1" xmlns="http://www.w3.org/2000/svg" viewBox="0 0 135.18 200">
  <defs>
    <style>
      .cls-1 {
        fill: #4b6b7a;
      }
    </style>
  </defs>
  <path class="cls-1" d="M123.65,70.15c-18.53-.02-37.06,0-55.58,0-18.84,0-37.68-.03-56.52,.02-7,.02-10.76,3.71-10.77,10.6-.04,22.58-.04,45.15,0,67.73,.01,7.07,3.53,10.72,10.57,10.73,37.68,.05,75.36,.05,113.04,0,7.32,0,10.77-3.62,10.78-11,.03-22.27,.02-44.53,0-66.8,0-7.79-3.58-11.28-11.51-11.29ZM49.05,152.84c2.28-6.11,9.51-8.22,15.06-3.96,2.84,2.18,4.61,2.46,7.56,.12,5.3-4.2,11.42-2.68,15.88,3.84H49.05Zm79.79-5.44c.03,4.33-1.55,5.78-5.75,5.68-8.56-.2-17.13-.09-25.69-.03-1.82,.01-3-.22-3.95-2.19-4.09-8.44-10.3-11.7-19.29-9.81-3.33,.7-3.15-.68-3.14-2.97,.05-14.01,.03-28.03,.03-42.04,0-.93,0-1.87,0-2.8,0-2.3-.14-4.66-3.24-4.56-2.77,.08-2.93,2.28-2.93,4.41,0,4.52,0,9.03,0,13.55,0,10.43-.09,20.87,.06,31.3,.04,2.78-.24,3.75-3.47,3.06-8.52-1.83-15.05,1.62-18.93,9.72-.89,1.86-1.88,2.38-3.84,2.36-8.87-.11-17.75-.09-26.63-.02-3.19,.02-4.98-.99-4.93-4.55,.15-11.21,.15-22.41,.2-33.62,0-4.05,0-8.11,0-12.16-.06-6.85,.06-13.7-.24-20.54-.19-4.28,1.37-5.74,5.66-5.7,19.15,.17,38.31,.07,57.46,.07,17.6,0,35.19,.13,52.79-.09,4.59-.06,5.88,1.57,5.85,6-.18,21.64-.17,43.29,0,64.93Z"/>
  <path class="cls-1" d="M29.01,104.48s-.02-.04-.04-.06c0,0,0,.02,0,.03-.01,.02-.03,.02-.04,.04,.03,0,.05,0,.08,0h0Z"/>
  <path class="cls-1" d="M56.08,58.52c1.19-1.69,2.32-1.43,3.93-.75,5.26,2.21,10.59,2.18,15.88,.04,1.34-.54,2.44-1.15,3.6,.47,4.51,6.28,10.88,6.68,18.17,5.49-3.31-3.67-7.94-4.69-11.34-7.55-2.24-1.89-2.91-3.07-.62-5.82,9.52-11.44,9.79-28.35,1.06-40.29-9.73-13.3-27.37-13.5-37.31-.41-8.67,11.41-8.75,28.19-.2,39.64,3.35,4.49,3.26,5.01-1.56,8.3-2.99,2.04-6.69,3.02-9.47,6.19,7.12,.94,13.47,.95,17.87-5.3Zm-1.82-44.7c7.48-10.04,20.19-9.97,27.54,.23,3.38,4.69,4.87,10.01,4.85,16.67-.05,4.87-1.56,10.18-5.01,14.83-7.39,9.97-19.76,10.02-27.23,.17-6.78-8.93-6.84-22.91-.14-31.89Z"/>
  <path class="cls-1" d="M61.69,165.32c-2.4-.06-3.25,.59-3.19,3.11,.17,6.69-.15,13.4,.12,20.08,.2,4.99-2.75,4.95-6.32,5.01-3.73,.07-6.39-.28-6.14-5.14,.31-6.06,.11-12.14,.06-18.21-.02-2.29,1-4.95-3.34-4.92-4.14,.03-2.94,2.6-3.01,4.64-.11,3.11-.03,6.23-.03,9.34,0,3.58-.07,7.16,.02,10.74,.14,6.11,3.82,9.72,9.99,9.88,1.71,.04,3.43,.05,5.14,0,5.85-.17,9.77-3.74,9.93-9.54,.2-7.31-.05-14.64,.11-21.95,.06-2.65-1.09-3-3.34-3.05Z"/>
  <path class="cls-1" d="M92.8,165.25c-4.02,.12-3.09,2.54-3.1,4.69-.05,6.23-.21,12.46,.05,18.68,.19,4.6-2.33,5.01-5.89,4.89-3.36-.12-6.71,.41-6.54-4.76,.22-6.84-.03-13.7,.1-20.55,.04-2.29-.74-2.98-2.94-2.85-1.95,.12-3.64-.16-3.57,2.79,.17,7.47-.09,14.95,.12,22.42,.14,4.97,3.66,8.62,8.28,9.28,8.84,1.26,14.45-.92,16.29-6.41,.38-1.15,.45-2.44,.47-3.66,.06-3.42,.02-6.85,.02-10.28,0-3.27,0-6.54,0-9.81,0-2.25,.73-4.54-3.27-4.42Z"/>
  <path class="cls-1" d="M27.54,114.9s8.9,9.77,16.01,10.24c4.02,.27,8.08,.21,12.1,0,2.59-.13,3.08,.92,3.06,3.23-.02,2.24-.36,3.42-3.01,3.29-4.18-.21-8.4,.18-12.57-.12-10.11-.73-17.43-5.82-22.07-14.8,0,0,.09-.54,.39-1.32,1.15-3.33,2.79-3.41,6.1-.56"/>
  <path class="cls-1" d="M113.31,113.34c-2.48-1.51-3.92,.23-5.16,2.26-4.07,6.68-10.1,9.77-17.88,9.61-3.1-.06-6.21,.04-9.31-.03-2.11-.04-3.83-.28-3.81,2.95,.02,2.99,.98,3.82,3.75,3.52,1.84-.2,3.72-.04,5.58-.04,2.02,0,4.04,.12,6.05-.03,9.12-.64,16.21-4.76,21.04-12.58,1.17-1.9,2.31-4.1-.26-5.66Z"/>
  <path class="cls-1" d="M28.98,104.42c-.38-.62-.72-1.28-1.18-1.84-1.72-2.07-1.03-3.63,1.01-4.87,2.05-1.25,3.58-.43,4.63,1.44,4.69,8.35,12.11,11.05,21.21,10.41,2.21-.16,4.15-.39,4.14,3.13-.01,3.31-1.58,3.17-3.95,3.28-5.84,.27-11.43-.57-16.76-2.98l-.93-.7s-7.21-6.29-8.13-7.81"/>
  <path class="cls-1" d="M37.58,112.11s0,0,0,0"/>
  <path class="cls-1" d="M84.99,109.54c-1.71,0-3.42,.16-5.11,0-2.58-.24-2.68,1.28-2.64,3.18,.04,1.74-.28,3.53,2.47,3.21,1.38-.16,2.79-.03,4.19-.03,10.53-.02,18.75-4.43,23.41-12.49,1.16-2,2.19-4.08-.25-5.69-2.57-1.7-3.89,.25-5.1,2.22-3.88,6.32-9.51,9.57-16.96,9.58Z"/>
  <path class="cls-1" d="M80.59,100.29c8.25-.36,16.54-5.46,20.6-12.62,1.15-2.02,2.11-4.05-.49-5.62-2.38-1.43-3.7,.12-4.81,2.03-3.56,6.12-8.98,9.52-15.95,9.87-3.43,.17-2.51,2.17-2.7,4.03-.29,2.89,1.68,2.33,3.34,2.31Z"/>
  <path class="cls-1" d="M55.61,93.91c-6.78-.36-12.04-3.79-15.53-9.7-1.11-1.88-2.31-3.55-4.74-2.21-2.64,1.46-1.9,3.53-.66,5.54,4.6,7.53,11.25,11.8,20.07,12.7,1.55-.3,4.01,1.25,3.93-2.17-.05-2.15,.42-3.98-3.05-4.17Z"/>
</svg>