<?xml version="1.0" encoding="utf-8"?>
<!-- Generator: Adobe Illustrator 27.0.0, SVG Export Plug-In . SVG Version: 6.00 Build 0)  -->
<svg version="1.1" id="Capa_1" xmlns="http://www.w3.org/2000/svg" xmlns:xlink="http://www.w3.org/1999/xlink" x="0px" y="0px"
	 viewBox="0 0 100 100" style="enable-background:new 0 0 100 100;" xml:space="preserve">
<style type="text/css">
	.st0{fill:#196480;}
	.st1{fill-rule:evenodd;clip-rule:evenodd;fill:#196480;}
</style>
<g>
	<g>
		<g>
			<g>
				<path class="st0" d="M16.2,73.98c2.47-3.57,4.49-6.47,6.33-9.12c-1.99-2.7-4.33-5.14-5.8-8.02c-3.5-6.86-3.09-13.82,1.03-20.33
					c1.18-1.86,0.85-2.78-0.54-4.13c-1.94-1.9-3.66-4.02-5.68-6.28c-4.47,4.89-6.79,10-7.91,15.68c-1.13,5.75-0.51,11.36,1.4,16.89
					c0.3,0.87-0.11,1.98-0.18,2.99c-0.69-0.78-1.72-1.44-2.02-2.35C-1.11,47.55,0.47,36.59,7.87,26.6c1.02-1.38,1.46-2.45,0.84-4.21
					c-0.46-1.3-0.44-3.06,0.07-4.33c0.77-1.92,0.18-3-1.12-4.27c-3.41-3.35-3.35-5.93,0.05-9.34C8.25,3.92,8.77,3.39,9.3,2.86
					c3.8-3.79,6.12-3.84,9.87-0.02c1.11,1.13,1.98,1.58,3.63,0.9c3.17-1.31,6-0.35,8.38,2.04c5.4,5.4,10.8,10.78,16.18,16.2
					c1.03,1.04,1.95,1.55,3.63,1.42c1.62-0.13,3.33,0.92,5.51,1.61c0.2-0.24,0.83-0.96,1.45-1.68c7.47-8.75,20.51-10.74,30.25-4.62
					c0.35,0.22,0.82,0.39,1,0.71c0.36,0.63,0.55,1.35,0.82,2.03c-0.68,0.01-1.38,0.15-2.02-0.01c-0.53-0.13-0.97-0.61-1.47-0.9
					c-9.11-5.41-20.69-3.24-27.29,5.07c-0.92,1.16-1.38,1.97-0.15,3.37c1.61,1.84,1.25,4.47-0.44,6.32
					c-0.22,0.24-0.44,0.52-0.71,0.7c-3.73,2.44-3.43,5.71-2.13,9.37c3.47,9.82,13.07,15.6,23.57,14.03
					c9.56-1.43,17.35-10.42,17.51-20.41c0.07-4.51-1.3-8.63-3.8-12.41c-0.42-0.63-0.22-1.66-0.31-2.51
					c0.79,0.43,1.86,0.65,2.34,1.31c9.73,13.39,1.46,33.49-14.89,36.27c-12.79,2.18-23.86-4.93-27.25-17.5
					c-0.17-0.63-0.36-1.25-0.65-2.22c-0.71,0.59-1.28,1-1.78,1.49c-3.3,3.27-6.56,6.58-9.87,9.84c-2.51,2.46-4.87,2.48-7.41,0.1
					c-1.21-1.13-2.51-2.23-3.47-3.56c-0.74-1.01-1.61-2.51-1.36-3.53c0.52-2.13-0.54-3.18-1.78-4.45c-1.79-1.83-3.45-3.78-5.3-5.84
					c-2.64,2.66-3.74,5.43-4.19,8.35c-1.07,7,1.03,12.98,6.6,17.48c0.92,0.74,2.58,1.04,3.78,0.84c2.99-0.5,5.72-0.11,8.45,1.15
					c1.37,0.63,2.94,1.11,4.42,1.14c6.14,0.13,12.28,0.02,18.42,0.06c4.85,0.03,8.17,2.5,9.25,6.75c0.96,3.79-0.84,6.22-4.76,6.26
					c-6.3,0.06-12.61,0.12-18.91-0.04c-2.45-0.06-2.42,1.23-2.43,2.95c-0.01,1.73,0.01,2.99,2.44,2.95
					c8.21-0.14,16.43-0.1,24.64-0.03c5.37,0.04,9.74,3.92,10.3,8.94c0.53,4.8-1.58,7.2-6.45,7.2C51.17,100.01,29.44,100,7.7,100
					c-0.08,0-0.17,0-0.25,0c-3.7-0.06-5.12-1.45-5.16-5.1c-0.01-1-0.03-1.99,0.01-2.99c0.14-3.62,2.24-6.54,5.74-7.6
					c4.07-1.23,4.57-5.35,6.73-8.12c0.12-0.16-0.68-1.13-1.15-1.64c-2.18-2.37-4.46-4.66-6.55-7.12c-0.4-0.47-0.1-1.54-0.12-2.33
					c0.67,0.3,1.5,0.43,1.97,0.92C11.31,68.53,13.59,71.11,16.2,73.98z M40.31,97.69c10.7,0,21.4,0.02,32.1-0.01
					c4.24-0.01,5.83-2.51,4.09-6.41c-1.65-3.69-4.71-5.14-8.61-5.14c-12.69,0.01-25.38,0-38.08,0c-6.06,0-12.11,0-18.17,0
					c-2.66,0-4.88,0.88-6.25,3.32c-2.64,4.7-0.68,8.23,4.55,8.23C20.07,97.7,30.19,97.7,40.31,97.69z M46.99,25.09
					C40.99,19.1,35,13.03,28.9,7.07c-2.21-2.15-4.97-1.96-7.3,0.3c-3.03,2.94-6.01,5.94-8.97,8.96c-2.64,2.71-2.64,5.32,0.01,8.03
					c3.13,3.2,6.33,6.32,9.47,9.5c2.72,2.75,5.41,5.54,7.93,8.13C35.81,36.24,41.3,30.77,46.99,25.09z M36.83,53
					c1.05-0.79,1.95-1.32,2.67-2.04c4.9-4.84,9.75-9.72,14.62-14.59C58.7,31.8,58.7,31.8,54,27.2c-2.09-2.05-2.84-2.06-4.94,0.03
					c-5.05,5.03-10.09,10.08-15.14,15.13c-4.1,4.1-4.11,4.11,0.11,8.26C34.83,51.41,35.74,52.08,36.83,53z M13.31,83.33
					c0.53,0.25,0.73,0.44,0.94,0.44c7.96,0.02,15.91,0.07,23.87-0.04c0.53-0.01,1.45-1.18,1.5-1.85c0.18-2.56,0.12-5.14,0.06-7.7
					c-0.09-4.18-2.75-7.73-6.65-8.96c-3.91-1.24-7.99,0.16-10.47,3.71c-1.47,2.1-2.8,4.3-4.19,6.47C16.7,78,15.03,80.63,13.31,83.33
					z M40.66,67.57c0.49,2.09,1.17,3.83,1.24,5.59c0.08,1.99,0.87,2.55,2.71,2.53c5.79-0.06,11.59,0.05,17.38-0.08
					c1.26-0.03,3.29-0.52,3.56-1.29c0.4-1.14-0.07-3.05-0.89-4.03c-1.02-1.22-2.74-2.53-4.22-2.6
					C53.94,67.41,47.41,67.57,40.66,67.57z M19.03,6.2c-1.83-1.44-2.98-4.61-5.36-3.42c-2.4,1.21-4.76,3.61-5.83,6.05
					c-0.99,2.27,2.09,3.42,3.33,4.88C13.86,11.15,16.3,8.81,19.03,6.2z"/>
			</g>
		</g>
		<g>
			<g>
				<path class="st0" d="M64.08,45.35c-0.65-1.02-1.14-2.2-1.97-3.04c-2.17-2.19-2.36-5.23-0.06-7.18c1.21-1.03,1.66-2.04,1.58-3.62
					c-0.17-3.36,1.59-4.89,4.97-5.08c1.22-0.07,2.64-0.71,3.53-1.55c2.29-2.15,4.98-2.15,7.26,0.01c0.89,0.84,2.32,1.48,3.54,1.55
					c3.39,0.18,4.88,1.68,5,5.1c0.04,1.15,0.61,2.53,1.41,3.35c2.33,2.37,2.37,5.05,0.13,7.41c-0.84,0.89-1.47,2.32-1.53,3.54
					c-0.16,3.36-1.67,4.85-5.11,4.99c-1.15,0.05-2.53,0.63-3.35,1.43c-2.39,2.33-5.03,2.35-7.41,0.05c-0.83-0.8-2.18-1.44-3.32-1.48
					C65.22,50.68,63.54,49.16,64.08,45.35z M84.92,32.57c0.58-3.2,0.08-3.78-2.67-3.65c-1.89,0.09-3.4-0.45-4.54-2
					c-1.11-1.51-2.54-1.79-3.69-0.24c-1.43,1.92-3.19,2.38-5.42,2.19c-1.83-0.15-2.87,0.86-2.58,2.74c0.32,2.1-0.25,3.74-1.93,5.02
					c-1.74,1.33-1.54,2.48-0.08,4.09c1.05,1.16,1.87,2.91,1.99,4.46c0.2,2.56,0.54,3.31,3.11,3.18c1.97-0.1,3.53,0.39,4.75,2.05
					c1.22,1.66,2.65,1.6,3.85-0.04c1.22-1.66,2.81-2.19,4.78-1.98c2.27,0.24,3.25-0.83,3-3.08c-0.22-1.98,0.4-3.54,2.04-4.75
					c1.65-1.22,1.5-2.42,0.07-3.9C86.48,35.51,85.79,33.95,84.92,32.57z"/>
			</g>
		</g>
	</g>
</g>
</svg>
