<?xml version="1.0" encoding="utf-8"?>
<!-- Generator: Adobe Illustrator 27.0.0, SVG Export Plug-In . SVG Version: 6.00 Build 0)  -->
<svg version="1.1" id="Capa_1" xmlns="http://www.w3.org/2000/svg" xmlns:xlink="http://www.w3.org/1999/xlink" x="0px" y="0px"
	 viewBox="0 0 429 100" style="enable-background:new 0 0 429 100;" xml:space="preserve">
<style type="text/css">
	.st0{clip-path:url(#SVGID_00000016061695192311052870000001395226110348435624_);}
	.st1{fill:#D6D6D6;}
	.st2{fill:#196480;}
</style>
<g>
	<defs>
		
			<rect id="SVGID_1_" x="-1666.49" y="-970.55" transform="matrix(-1 -1.224647e-16 1.224647e-16 -1 -1732.9827 102.5166)" width="1600" height="2043.62"/>
	</defs>
	<clipPath id="SVGID_00000041264542325605316280000008282391440262674579_">
		<use xlink:href="#SVGID_1_"  style="overflow:visible;"/>
	</clipPath>
	<g style="clip-path:url(#SVGID_00000041264542325605316280000008282391440262674579_);">
		<g>
			<g>
				<path class="st1" d="M-2503.15,309.18c33.32,0.19,69.67-0.43,102.93-2c35.62-1.68,73.49-4.69,109.06-8.19
					c104.34-10.77,208.41-29.24,310.96-50.99c28.91-6.16,59.31-13.02,88.18-18.67c122.05-24.62,247.1-36.23,371.51-27.68
					c175.66,9.65,350.47,32.31,526.31,39.14c38.02,1.47,77.74,2.66,115.76,1c211.06-8.21,412.48-78.46,618.85-116.6
					c134.92-24.25,274.09-37.16,410.31-16.23c68.15,10.02,133.99,31.22,198.39,55c128.36,47.11,261.14,92.66,398.7,93.93
					c-103.43,0.06-204.88-24.49-302.3-57.59c-97.57-32.1-192.88-73.8-295.29-88.08c-135.89-20.6-274.57-7.62-409.16,16.48
					C-461.2,165.78-658.79,233.61-865.49,243.1c-21.01,0.95-43.37,1.42-64.4,1.05c-193.16-3.64-385.07-29.58-577.86-39.76
					c-94.16-6.11-188.83-2.84-282.23,10.69c-68.04,9.3-135.08,23.99-202.22,38.3c-109.2,22.81-219.59,41.12-330.83,50.28
					C-2382.67,308.16-2444.02,311.18-2503.15,309.18L-2503.15,309.18z"/>
			</g>
			<g>
				<path class="st1" d="M-2515.13,282.21c302.85,6.04,596.58-93.37,899.12-92.78c43.1,0.29,86.24,2.05,129.29,3.59
					c189.47,7.01,378.8,19.55,568.41,22.3c155.48,0.39,308.67-30.4,460.33-61.64c134.97-28.21,270.8-54.65,408.67-63.43
					c107.51-7.93,216.87-2.69,321.01,26.8c28.74,8.4,57.91,18.07,86.2,27.86c129.5,45.33,261.16,94.78,400.23,93.97
					c0,0,0,2.25,0,2.25c-139.33,1.34-271.61-47.99-401.26-93.21c-24.27-8.3-49.02-16.81-73.67-24.09
					c-174.46-53.12-360.19-33.97-537.58-6.73c-220.72,35.97-438.73,99.96-663.93,99.76c-224.01-3.14-447.95-18.87-671.88-24
					c-172.63-3.45-343.39,27.48-513.25,54.49c-136.13,21.6-273.57,40.26-411.74,37.09
					C-2515.18,284.45-2515.13,282.21-2515.13,282.21L-2515.13,282.21z"/>
			</g>
			<g>
				<path class="st1" d="M-2526.52,256.59c312.65,8,618.65-82.27,931.22-76.65c209.35,2.66,441,3.32,649.51,7.74
					c23.18,0.45,54.74,0.24,77.9-0.5c269.02-8.98,529.94-86.1,797.86-106.33c118.45-10.58,239.74-11.43,355.34,19.86
					c25.91,6.98,55.23,16.49,80.7,25.15c130.35,44.74,262.06,96.58,401.92,95.32c0,0,0.01,2.25,0.01,2.25
					c-140.12,1.8-272.47-49.92-402.94-94.56c-25.66-8.6-54.2-18.08-80.51-25.08C169.23,72.62,48.35,73.58-69.78,83.85
					c-267.94,19.79-529.12,95.38-798.07,104.82c-23.11,0.76-54.85,1.03-77.98,0.59c-171.97-3.5-372.34-3.99-545.59-5.2
					c-51.93-0.14-103.92-1.6-155.85-0.94c-225.53,3.32-447.19,51.09-671.52,69.35c-69.09,5.58-138.48,8.3-207.8,6.36
					C-2526.59,258.83-2526.52,256.59-2526.52,256.59L-2526.52,256.59z"/>
			</g>
			<g>
				<path class="st1" d="M-2537.13,231.49c244.05,7.29,485.57-37.44,728.26-55.42c24.68-1.73,53.45-3.6,78.23-4.61
					c34.62-1.64,69.98-2.18,104.47-2.42c195.68,0.11,391.68-10.17,587.34-9.46c45.07,0.23,92.06,1.32,137.05,1.37
					c26.6-0.61,58.19-1.21,84.77-2.88c77.48-3.86,156.81-12.89,233.74-22.92c128.98-17.27,258.6-39.43,387.85-54.43
					c12.47-1.39,38.97-4.51,51.94-5.61C-74.29,68.58-4.51,62.4,64.97,60.52c69.66-1.66,139.79,2.43,208.05,17.14
					c102.18,22.61,198.06,66.65,298.64,94.55c66.77,19.2,135.83,31.52,205.45,31.24c0,0,0.01,2.24,0.01,2.24
					c-69.84,0.49-139.24-11.6-206.24-30.73c-100.72-27.78-196.48-71.55-298.52-94.18C204.34,66.14,134.49,62.07,65.04,63.74
					c-69.36,1.78-139.11,7.83-208.23,14.24c-14.06,1.2-37.58,3.93-51.91,5.47c-129.24,14.61-258.96,36.25-387.95,53.28
					c-72.6,9.45-147.76,17.77-220.83,22.08c-8.23,0.43-30.6,1.6-39.12,2.04c-17.53,0.78-41.1,1.07-58.74,1.61
					c-40.56,0.02-83.38-0.88-124.02-1.13c-200.16-0.99-400.23,10.77-600.39,10.86c-34.47,0.29-69.85,0.89-104.32,2.57
					c-24.63,1.03-53.51,2.95-78.13,4.71c-173.45,12.79-346.1,39.35-519.71,50.31c-69.51,4.4-139.23,6.26-208.88,3.95
					C-2537.2,233.73-2537.13,231.49-2537.13,231.49L-2537.13,231.49z"/>
			</g>
			<g>
				<path class="st1" d="M-2546.78,208c280.27,8.88,557.99-40.22,837.65-49.13c52.2-1.41,105.18-1.37,157.37-3.24
					c51.92-1.71,105.35-4.39,157.22-7.24c119.98-6.68,247.25-15.16,366.95-15.6c52.25-0.42,105.18,1.5,157.38-0.06
					c245.07-5.78,486.93-50.28,730.58-73.12c145.04-12,294.45-29.7,438.05,2.71c2.15,0.44,4.26,1.03,6.39,1.54
					c0,0,12.76,3.16,12.76,3.16s6.38,1.58,6.38,1.58s3.19,0.79,3.19,0.79c1.06,0.27,2.11,0.61,3.16,0.9c0,0,25.23,7.39,25.23,7.39
					c140.64,45.23,280.11,109.68,429.94,109.33c-141.68,2.16-273.77-54.8-405.8-98.7C221.56,33.29,75.97,44.97-87.05,58.59
					c-191.7,15.5-382.1,46.26-573.56,63.81c-104.52,9.77-209.56,14.4-314.52,12.04c-15.22-0.29-37.38-0.49-52.45-0.38
					c-146.67,0.27-298.89,12.51-445.46,20.17c-34.3,1.71-70.57,3.44-104.87,4.43c-59.9,1.73-123.57,2.15-183.53,5.19
					c-191.79,9.73-383.68,34.63-575.49,43.28c-42.53,1.94-88.55,3.1-131.16,2.8c0,0-13.12-0.02-13.12-0.02
					c-4.37-0.03-8.75,0.05-13.12-0.12c0,0-52.46-1.45-52.46-1.45S-2546.78,208-2546.78,208L-2546.78,208z"/>
			</g>
			<g>
				<path class="st1" d="M-2555.19,183.38c175.7,6.67,351.17-9.98,525.93-26.29c131.05-11.09,263.71-10.25,395.15-13.34
					c42.7-1.11,88.86-3.79,131.54-6.76c148.89-10.4,297.6-28.08,446.95-31.35c14.9-0.28,31.18-0.36,46.14-0.56
					c20.2,0.21,64.92,0.71,85.66,0.94c34.5,0.3,70.97-0.35,105.38-1.47c69.42-2.11,141.16-7.09,210.39-13.1
					c174.57-15.1,349.74-38.86,524.47-53.19C47.12,27.53,181.27,14,310.61,42.76c0,0,3.24,0.65,3.24,0.65
					c1.07,0.24,2.14,0.52,3.21,0.77c0,0,6.41,1.57,6.41,1.57s12.83,3.15,12.83,3.15s6.41,1.58,6.41,1.58
					c116.23,32.72,226.16,86.6,345.53,107.76c34.52,6.19,69.56,9.6,104.64,9.71c0,0,0,2.24,0,2.24
					c-35.22-0.01-70.41-3.32-105.08-9.43C568.23,140,458.06,86.21,341.89,53.57c-3.69-0.88-15.22-3.77-19.15-4.71
					c0,0-6.38-1.57-6.38-1.57c-1.69-0.44-4.63-1.09-6.42-1.42C180.91,17.23,47.11,30.82-83.34,41.23
					c-183.54,14.84-367.38,39.06-550.84,54.03c-60.49,4.73-123.6,8.87-184.21,10.72c-34.42,1.16-70.94,1.85-105.44,1.59
					c-20.72-0.21-65.27-0.66-85.65-0.85c-14.93,0.21-31.2,0.31-46.1,0.61c-158.11,3.92-315.38,23.85-473.09,34.44
					c-42.75,2.79-88.87,4.94-131.72,5.86c-131.38,2.44-263.95,2.75-394.84,15.12c-131.16,12.42-262.75,23.9-394.59,24.6
					c-35.16,0.19-70.33-0.34-105.46-1.73C-2555.28,185.62-2555.19,183.38-2555.19,183.38L-2555.19,183.38z"/>
			</g>
			<g>
				<path class="st1" d="M-2562.27,160.62c176.5,6.88,352.62-8.7,528.52-21.2c105.74-6.22,211.71-5.68,317.56-8.05
					c34.36-0.81,71.53-1.99,105.73-4.1c149.72-8.78,298.36-31.26,447.86-42.72c43.17-3.39,88.9-5.91,132.2-6.7
					c39.19-0.95,79.96-0.02,119.12,0.14c65.71-0.18,132.75-1.86,198.39-5.35c69.69-3.48,141.73-8.68,211.21-14.6
					c156.69-13.4,317.42-30.63,474.42-43.84C78.08,4.92,184.98-2.38,289.84,15.54c105.05,17.09,201.55,64.7,302.26,96.85
					c66.89,21.94,136.45,37.36,207.08,37.82c0,0-0.02,2.24-0.02,2.24c-70.87-0.26-140.82-15.46-207.95-37.34
					c-67.19-21.74-132.44-48.95-199.49-70.97c-66.87-22.39-137.09-33.46-207.49-35.8C82.82,4.77-30.82,18.14-132.48,26.38
					c-122.58,10.9-246.55,23.4-369.06,33.42c-60.48,5.01-124.21,9.53-184.84,12.98c-61.21,3.19-123.96,5.77-185.19,6.4
					c-47.99,0.85-97.6-0.54-145.57,0.04c-47.79,0.77-97.68,3.38-145.31,7.31c-149.48,11.81-298.07,34.87-447.82,43.87
					c-70.18,4.29-141.45,5.03-211.71,6.15c-70.55,1-141.13,2.12-211.57,6.24c-105.61,7.12-211.16,16.35-317.01,19.96
					c-70.56,2.52-141.23,2.94-211.8,0.13C-2562.36,162.87-2562.27,160.62-2562.27,160.62L-2562.27,160.62z"/>
			</g>
			<g>
				<path class="st1" d="M-2567.8,138.9c177.15,6.4,353.97-7.94,530.74-17.4c70.81-2.94,141.69-3.28,212.54-4.05
					c63.96-0.62,128.52-1.65,192.42-5.46c49.98-3.41,102.28-8.44,151.97-14.47c148.89-17.65,299-42.95,449.09-46.7
					c52.57-1.53,106.76,0.41,159.41-0.38c61.47-0.4,124.42-2.47,185.86-5.21c79.2-3.78,159.59-8.99,238.57-15.31
					C-270.58,16.66-94.55-3.78,82.15-16.22c70.76-4,142.19-3.53,212.3,8.02C400.12,8.06,496.89,56.59,597.1,90.94
					c66.69,23.31,136.22,40.25,207.12,41.48c0,0-0.04,2.24-0.04,2.24c-71.15-1.03-141.08-17.76-208.01-41.01
					C495.78,59.4,399.48,11.26,293.93-5.04C188.86-22.41,81.9-14.37-23.57-4.9C-150.02,6.39-322.69,22.55-447.06,31.84
					c-70.2,5.32-141.72,10.1-212.11,13.55c-70.3,3.51-142.11,5.88-212.45,6.53c-61.48,0.79-124.49-1.31-185.92,1.37
					c-149.88,6.86-299.74,32.95-448.64,50.18c-40.55,4.74-84.99,8.8-125.72,11.65c-63.93,3.9-128.59,5.03-192.59,5.74
					c-106.27,0.7-212.47,2.23-318.5,10.01c-141.42,8.61-283.2,15.58-424.9,10.26C-2567.89,141.14-2567.8,138.9-2567.8,138.9
					L-2567.8,138.9z"/>
			</g>
			<g>
				<path class="st1" d="M-2571.62,119.29c168.81,4.27,337.4-6.78,505.93-14.83c121.21-4.88,251.78-2.09,372.99-6.85
					c61.83-2.33,124.34-8.38,185.67-16.12c162.86-20.88,324.77-53.52,489.34-57.85c34.45-0.62,72.16-0.32,106.61-0.26
					c333.44,0.54,664.98-36.78,996.72-65.29c88.67-5.37,178.68-2.65,265.25,18.84c86.46,21.51,166.78,61.52,249.95,92.24
					c66.21,25.3,136.57,43.4,206.94,46.71c-107.62-2.53-208.49-44.09-306.75-84.13C435.34,5.1,368.52-20.19,298.1-30.81
					C228-42.32,156.63-42.6,85.85-38.44C-20.48-31.46-126.33-18.22-232.53-9.35C-471.38,12-711.14,27.17-951.05,24.85
					c-15.33-0.24-37.7-0.05-53.28,0c-16.51-0.11-39.92,1.22-56.57,1.73c-15.93,1.13-33.94,2.06-49.83,3.4
					c-29.41,2.52-63.49,5.91-92.75,9.59c-145.39,18.03-289.6,46.94-435.85,57.79c-130.39,8.84-268.99,5.03-399.62,8.99
					C-2216.18,113-2394.84,126.58-2571.62,119.29L-2571.62,119.29z"/>
			</g>
			<g>
				<path class="st1" d="M-2573.44,99.07c297.65,4.2,597.04-8.58,894.47-21.52c57.76-2.98,115.02-11.95,171.86-22.42
					c56.77-10.44,113.69-22.67,170.72-31.86c83.56-13.38,167.99-21.69,252.53-25.05c88.06-3.64,179.01-0.51,267.14-2.59
					c88.5-1.42,178.5-4.9,266.93-9.81c141.75-7.9,284.64-20.18,425.88-35.33C15.32-64.61,163.1-86.15,302.26-61.71
					C444.45-39.62,566.98,43.38,704.8,79.73c34.36,9.06,69.57,15.05,105.07,17.03c0,0-0.12,2.24-0.12,2.24
					c-71.52-3.55-140.9-24.33-206.98-50.87C536.63,21.78,472.39-9.47,404.99-32.51C269.33-79.67,123.41-73.71-17.37-58.2
					C-318.13-23.67-620.72-2.35-923.56-1.95c-137.74-2-276.49,4.89-412.44,27.61c-109.75,18.14-218.14,46.68-329.45,54.29
					c-157.96,7.83-322.68,14.17-480.57,18.64c-142.45,3.73-284.98,5.35-427.46,2.72C-2573.48,101.31-2573.44,99.07-2573.44,99.07
					L-2573.44,99.07z"/>
			</g>
			<g>
				<path class="st1" d="M-2573.03,80.95c298.81-2.56,610.01-26.23,908.83-35.06c53.39-2.91,106.37-10.58,159.03-19.69
					c48.19-8.29,96.55-17.98,144.82-26.07c16.62-2.69,36.29-5.66,52.94-7.97c199.18-29.11,400.76-15.37,601.12-24.81
					c70.45-2.74,143.34-6.76,213.66-11.93c141.52-10.18,284.9-25.36,425.64-44.09c160.22-22.26,321.85-33.66,476.6,23.71
					C526.68-21.94,633.76,47.72,757.34,71.54c17.47,3.39,35.11,5.88,52.85,7.37c0,0-0.18,2.24-0.18,2.24
					c-17.82-1.44-35.56-3.88-53.12-7.24C633.11,50.55,525.54-19.14,408.54-61.98C254.49-119.13,93-107.56-66.58-85.73
					C-207.47-67.2-350.87-52.64-492.49-42.82c-70.35,4.94-143.25,8.98-213.73,11.62c-195.86,9.26-392.88-3.68-587.6,23.94
					c-21.22,2.74-44.98,6.4-66.11,9.87c-48.24,8.22-96.52,18.03-144.74,26.47c-52.69,9.29-105.88,16.99-159.36,20
					c-61.58,2.55-125.56,4.36-187.15,7.22c-155.9,6.83-352.41,17.8-507.82,22.77c-71.32,2.32-142.66,3.84-214.02,4.14
					C-2573.02,83.19-2573.03,80.95-2573.03,80.95L-2573.03,80.95z"/>
			</g>
			<g>
				<path class="st1" d="M-2569.48,62.55c267.47-8.8,533.33-46.18,800.85-54.26c44.49-1.76,89.39-0.84,133.72-3.04
					c115.97-5.48,229.78-29.88,345.22-41.21c71.05-7.08,142.4-10.63,213.76-12.03c78.38-1.61,162.3,0.06,240.81-2.21
					c61.68-1.38,125.53-4.16,187.11-7.9c142.31-8.45,284.66-22.81,425.96-41.55c105.25-12.97,212.5-35.3,318.51-40.84
					c89.15-4.89,179.6,2.51,265.18,28.88c51.33,15.63,100.1,38.55,148.05,62.29C604.83-1.8,701.36,49.92,808.77,61.01
					c0,0-0.24,2.23-0.24,2.23C737.16,55.86,669,30.95,604.47,0.56c-80.65-37.65-158.29-82.98-243.75-109.13
					c-119.73-37.23-247.34-35.2-370.51-18.76C-79.44-117.77-152-105.77-221.7-97.09c-141.41,18.32-283.85,32.11-426.21,40.5
					c-61.61,3.67-125.47,6.36-187.16,7.85c-151.09,3.18-303.95-1.45-454.38,15.1c-124.14,12.63-246.93,40.12-372.07,43.13
					c-61.85,0.78-125.38,2.18-187.18,5.37c-169.2,8.7-337.95,26.32-506.9,38.58c-71.18,5.14-142.46,9.25-213.81,11.35
					C-2569.41,64.79-2569.48,62.55-2569.48,62.55L-2569.48,62.55z"/>
			</g>
			<g>
				<path class="st1" d="M-2562.91,43.66c258.09-14.21,513.12-64.27,771.59-73.88c16.09-0.44,40.36-0.95,56.83-1.34
					c0,0,3.34,0.01,3.34,0.01s6.69,0.02,6.69,0.02c19.01,0.04,47.7,0.14,66.84,0.29c35.61-0.08,71.2-1.57,106.72-4.11
					c80.03-5.33,159.52-16.54,239.44-23.19c150.65-12.84,303.24-7.56,454.29-10.34c69.94-1.73,143.94-5.18,213.56-10.27
					c150.94-10.71,301.75-28.86,451.23-52.3c60.02-9.01,124.6-21.71,184.65-30.48c143.53-20.93,286-16.74,420.94,41.48
					C543.42-64.63,661.98,25.3,805.77,43.1c0,0-0.29,2.23-0.29,2.23C698.05,32.27,602.28-21.39,508.15-71.1
					c-43.36-22.61-87.3-44.58-133.41-60.99c-88.06-31.58-182.62-41.94-275.76-37.1c-69.97,2.96-142.63,15.45-211.73,27.61
					c-105.48,17.7-211.43,32.61-317.73,44.46c-65.91,7.44-133.57,13.57-199.66,18.55c-74.21,5.37-152.45,9.24-226.97,11.16
					c-151.01,2.86-303.58-2.02-454.13,11.25c-97.64,8.58-194.79,23.19-292.85,26.9c-41.56,1.88-85.4,0.88-127.01,0.99
					c-27.31,0.45-59.46,1.2-86.77,2.68c-178.04,8.22-354.66,34.86-531.73,53.84c-70.89,7.62-141.95,14.02-213.18,17.64
					C-2562.79,45.9-2562.91,43.66-2562.91,43.66L-2562.91,43.66z"/>
			</g>
			<g>
				<path class="st1" d="M-2553.62,24.33c283.69-20.59,562.36-96.59,847.99-92.47c26.72,0.49,53.31,1.71,79.99,1.74
					c97.84,0.64,195.37-7.81,292.91-14.42c177.11-11.12,356.14,0.29,533.43-7.5c52.75-2.26,107.03-5.63,159.71-9.96
					c70.47-5.74,142.06-13.34,212.17-22.47c101.34-13.04,202.42-29.36,302.88-48.1c176.09-36.66,340.67-56.05,512.64,13.25
					C495.41-112.21,589.79-41.87,698.5-1.68c33.28,12.33,67.71,21.63,102.82,26.84c0,0-0.33,2.22-0.33,2.22
					c-35.3-5.13-69.93-14.37-103.38-26.65C588.7-39.11,494.22-109.34,386.91-152.66c-170.86-68.94-335.84-49.52-510.93-13.38
					c-100.56,18.47-201.73,34.43-303.16,47.2c-65.71,8.4-132.99,15.32-198.99,21.03c-38.94,3.12-80.79,6.17-119.78,8.29
					c-175.63,11.2-357.71,0.92-533.38,8.37c-106.6,4.79-212.83,17.09-319.63,17.81c-35.57,0.59-71.2-0.78-106.73-1.54
					c-213.83-2.88-424.59,39.18-635.57,68.38c-70.48,9.77-141.19,18.16-212.21,23.06C-2553.46,26.56-2553.62,24.33-2553.62,24.33
					L-2553.62,24.33z"/>
			</g>
			<g>
				<path class="st1" d="M-2541.82,5.55c212.11-19.43,418.66-75.97,630.28-99.22c70.53-7.79,141.62-11.62,212.57-8.8
					c211.42,13.03,426.26,4.29,637.97,1.15c50.81-0.79,108.69-0.59,159.54-1.41c283.48-5.75,566.05-43.9,842.88-104.31
					c155.52-34.65,323.79-31.01,469.19,39.19c64.42,29.94,124.33,68.3,186.65,102.11C659.14-31.54,726.11-3.58,795.41,8.48
					C689.04-7.49,595.6-63.93,503.67-116.29c-206.75-124-383.66-131.08-613.53-76.17c-14.38,3.1-37.31,7.6-52.14,10.6
					c-156.6,30.7-314.85,53.51-473.85,67.22c-68.27,5.96-143.67,10.24-212.41,12.4c-18.51,0.39-61.88,1.53-79.78,1.41
					c-111.61-0.13-233.64,2.12-345.65,4.69c-74.1,1.47-152.02,2.72-226.03,2.36c-38.56-0.29-81.1-0.97-119.67-2.4
					c-26.39-0.81-53.35-2.41-79.7-3.46C-1984.01-110.22-2260.31-16.48-2541.82,5.55L-2541.82,5.55z"/>
			</g>
		</g>
	</g>
</g>
<g id="XMLID_00000132803955554861545120000008732343751389520548_">
	<g>
		<g id="XMLID_00000031209046369984841270000013018628217017917595_">
			<g id="XMLID_00000021832262888867320510000015235789290602149800_">
				<path id="XMLID_00000136394731488808625160000010280235082713615769_" class="st2" d="M18.51,0v2.04H2.43V17.1h16.08v2.04H2.43
					V34.2h16.08v2.04H0.39V0H18.51z"/>
				<path id="XMLID_00000094593370128506751400000004881471519101334716_" class="st2" d="M38.13,14l-5.73,9.92l-0.07,0.12
					l0.07,0.11l6.98,12.1h-2.35l-5.81-10.03l-5.8,10.03h-2.37l7-12.1l0.07-0.11l-0.07-0.12L24.31,14h2.36l4.55,7.86L35.75,14H38.13z
					"/>
				<path id="XMLID_00000035505366893114278070000001659608488952244668_" class="st2" d="M44.48,14h2.04v3.13
					c0.38-0.52,0.81-1.01,1.29-1.5c2.43-2.41,5.36-3.62,8.79-3.62c3.44,0,6.38,1.21,8.8,3.63c2.42,2.42,3.63,5.36,3.63,8.8
					c0,3.43-1.21,6.36-3.63,8.79c-2.42,2.43-5.36,3.64-8.8,3.64c-3.43,0-6.36-1.21-8.79-3.64c-0.48-0.48-0.91-0.98-1.29-1.49v13
					h-2.04V14z M46.52,22.32v4.26c0.39,1.95,1.33,3.66,2.8,5.15c2.01,2,4.44,3,7.28,3c2.83,0,5.26-1,7.27-3
					c2.01-2.01,3.01-4.44,3.01-7.28c0-2.83-1-5.26-3.01-7.27c-2.01-2-4.44-3.01-7.27-3.01c-2.84,0-5.27,1.01-7.28,3.01
					C47.85,18.65,46.91,20.37,46.52,22.32z"/>
				<path id="XMLID_00000096748615179479992190000014005738951259466135_" class="st2" d="M78.93,32.08
					c1.92,1.75,4.21,2.62,6.85,2.62c2.83,0,5.26-1,7.27-3.01c0.25-0.25,0.5-0.52,0.72-0.79l2.15,0.77
					c-0.39,0.54-0.84,1.06-1.33,1.56c-2.43,2.43-5.37,3.64-8.81,3.64c-3.43,0-6.36-1.21-8.79-3.64c-2.43-2.43-3.64-5.37-3.64-8.81
					c0-3.42,1.21-6.36,3.64-8.79c2.43-2.43,5.36-3.64,8.79-3.64c2.94,0,5.52,0.88,7.72,2.65c0.36,0.3,0.73,0.63,1.09,0.99
					c0.13,0.14,0.26,0.27,0.38,0.41l-1.54,1.54L78.93,32.08z M91.94,16.2c-1.76-1.36-3.82-2.04-6.16-2.04c-2.82,0-5.25,1-7.25,3
					c-2.01,2-3.01,4.43-3.01,7.26c0,2.34,0.68,4.4,2.03,6.16L91.94,16.2z"/>
				<path id="XMLID_00000013871088264533622450000007181764855956741295_" class="st2" d="M101.36,14h2.04v4.06
					c0.42-0.6,0.91-1.18,1.47-1.74c1.79-1.79,3.63-2.74,5.53-2.83v2.22c-1.28,0.06-2.61,0.78-3.99,2.15
					c-1.93,1.92-2.94,4.23-3.01,6.91v11.48h-2.04V14z"/>
				<path id="XMLID_00000031194195104844614740000014467289473469493924_" class="st2" d="M118.29,6.71c0.4,0.39,0.6,0.87,0.6,1.42
					c0,0.58-0.2,1.06-0.6,1.45c-0.4,0.39-0.88,0.59-1.44,0.59c-0.55,0-1.03-0.2-1.43-0.59c-0.4-0.39-0.6-0.87-0.6-1.45
					c0-0.55,0.2-1.03,0.6-1.42c0.4-0.39,0.88-0.59,1.43-0.59C117.41,6.12,117.89,6.32,118.29,6.71z M117.87,14v22.25h-2.03V14
					H117.87z"/>
				<path id="XMLID_00000067233623217591384950000010113404249370880954_" class="st2" d="M129.35,32.08
					c1.92,1.75,4.21,2.62,6.85,2.62c2.83,0,5.26-1,7.27-3.01c0.25-0.25,0.5-0.52,0.72-0.79l2.15,0.77
					c-0.39,0.54-0.84,1.06-1.33,1.56c-2.43,2.43-5.37,3.64-8.81,3.64c-3.43,0-6.36-1.21-8.79-3.64c-2.43-2.43-3.64-5.37-3.64-8.81
					c0-3.42,1.21-6.36,3.64-8.79c2.43-2.43,5.36-3.64,8.79-3.64c2.94,0,5.52,0.88,7.72,2.65c0.36,0.3,0.73,0.63,1.09,0.99
					c0.13,0.14,0.26,0.27,0.38,0.41l-1.54,1.54L129.35,32.08z M142.36,16.2c-1.76-1.36-3.82-2.04-6.16-2.04c-2.82,0-5.25,1-7.25,3
					c-2.01,2-3.01,4.43-3.01,7.26c0,2.34,0.68,4.4,2.03,6.16L142.36,16.2z"/>
				<path id="XMLID_00000137119736198798093750000016626216780556157879_" class="st2" d="M153.82,18.96v17.28h-2.04V14h2.04v1.43
					c1.85-1.84,4.02-2.76,6.48-2.76c2.62,0,4.77,0.82,6.41,2.46c1.65,1.65,2.49,3.72,2.54,6.24v14.88h-2.04v-14.7
					c0-1.89-0.68-3.5-2.05-4.84c-1.36-1.34-2.98-2-4.86-2s-3.48,0.65-4.85,1.96C154.71,17.41,154.17,18.17,153.82,18.96z"/>
				<path id="XMLID_00000150800439481012064820000014763995798032179845_" class="st2" d="M195.12,30.9l2.15,0.77
					c-0.39,0.54-0.84,1.06-1.33,1.56c-2.43,2.43-5.37,3.64-8.81,3.64c-3.43,0-6.36-1.21-8.79-3.64c-2.43-2.43-3.64-5.37-3.64-8.81
					c0-3.42,1.21-6.36,3.64-8.79c2.43-2.43,5.36-3.64,8.79-3.64c3.44,0,6.38,1.21,8.81,3.64c0.49,0.5,0.94,1.01,1.33,1.54
					l-2.15,0.79c-0.22-0.27-0.47-0.54-0.72-0.81c-2.01-1.99-4.44-2.99-7.27-2.99c-2.82,0-5.25,1-7.25,3c-2.01,2-3.01,4.43-3.01,7.26
					c0,2.84,1,5.27,3.01,7.27c2,2.01,4.43,3.01,7.25,3.01c2.83,0,5.26-1,7.27-3.01C194.65,31.44,194.9,31.17,195.12,30.9z"/>
				<path id="XMLID_00000083074036259928070960000012723890672694322621_" class="st2" d="M205.62,6.71c0.4,0.39,0.6,0.87,0.6,1.42
					c0,0.58-0.2,1.06-0.6,1.45c-0.4,0.39-0.88,0.59-1.44,0.59c-0.55,0-1.03-0.2-1.43-0.59c-0.4-0.39-0.6-0.87-0.6-1.45
					c0-0.55,0.2-1.03,0.6-1.42c0.4-0.39,0.88-0.59,1.43-0.59C204.74,6.12,205.22,6.32,205.62,6.71z M205.2,14v22.25h-2.03V14H205.2z
					"/>
				<path id="XMLID_00000061435516776283495550000003532789178718950534_" class="st2" d="M236.46,36.25h-2.03v-4.53
					c-0.39,0.52-0.82,1.03-1.29,1.51c-2.43,2.43-5.37,3.64-8.81,3.64c-3.43,0-6.36-1.21-8.79-3.64s-3.64-5.36-3.64-8.79
					c0-3.44,1.21-6.38,3.64-8.81s5.36-3.64,8.79-3.64c3.44,0,6.38,1.21,8.81,3.64c0.47,0.49,0.9,0.99,1.29,1.52V14h2.03V36.25z
					 M234.43,26.46v-4.04c-0.38-1.99-1.32-3.74-2.83-5.26c-2.01-2-4.44-3.01-7.27-3.01c-2.84,0-5.27,1.01-7.27,3.01
					c-2.01,2.01-3.01,4.44-3.01,7.27c0,2.84,1,5.27,3.01,7.26c2,2,4.43,3,7.27,3c2.83,0,5.26-1,7.27-3.01
					C233.1,30.18,234.05,28.44,234.43,26.46z"/>
			</g>
			<g id="XMLID_00000037679426692809812760000001234089760513438592_">
				<path id="XMLID_00000019679468912065589470000009392435488264817316_" class="st2" d="M265.74,0c1.85,0,3.44,0.66,4.77,1.97
					s1.98,2.9,1.98,4.76c0,1.87-0.96,3.61-2.87,5.24c1.69,0.34,3.28,1.34,4.78,2.98c2.41,2.43,3.62,5.38,3.62,8.81
					s-1.21,6.4-3.62,8.91c-2.25,2.32-4.94,3.5-8.06,3.55v0.02h-7.03V0H265.74z M261.34,2.04v9.26h4.92c1.13-0.1,2.1-0.53,2.89-1.27
					c0.92-0.84,1.38-1.94,1.38-3.3s-0.46-2.48-1.38-3.36s-2.05-1.32-3.41-1.32H261.34z M261.34,13.48V34.2h4.99v0.03
					c2.52-0.17,4.7-1.2,6.52-3.1c2.01-2.07,3.01-4.53,3.01-7.37c0-2.83-1-5.26-3.01-7.27c-2-2-4.43-3.01-7.27-3.01H261.34z"/>
				<path id="XMLID_00000043419729197757463530000004838712585321751472_" class="st2" d="M307.46,36.25h-2.03v-4.53
					c-0.39,0.52-0.82,1.03-1.29,1.51c-2.43,2.43-5.37,3.64-8.81,3.64c-3.43,0-6.36-1.21-8.79-3.64s-3.64-5.36-3.64-8.79
					c0-3.44,1.21-6.38,3.64-8.81s5.36-3.64,8.79-3.64c3.44,0,6.38,1.21,8.81,3.64c0.47,0.49,0.9,0.99,1.29,1.52V14h2.03V36.25z
					 M305.43,26.46v-4.04c-0.38-1.99-1.32-3.74-2.83-5.26c-2.01-2-4.44-3.01-7.27-3.01c-2.84,0-5.27,1.01-7.27,3.01
					c-2.01,2.01-3.01,4.44-3.01,7.27c0,2.84,1,5.27,3.01,7.26c2,2,4.43,3,7.27,3c2.83,0,5.26-1,7.27-3.01
					C304.1,30.18,305.05,28.44,305.43,26.46z"/>
				<path id="XMLID_00000092447281357172789370000007205279357176071859_" class="st2" d="M314.26,14h2.04v0.52
					c1.27-1.22,2.78-1.83,4.56-1.83c1.82,0,3.38,0.64,4.67,1.92c0.34,0.35,0.65,0.73,0.9,1.14c0.26-0.4,0.57-0.77,0.93-1.14
					c1.28-1.28,2.84-1.92,4.67-1.92c1.83,0,3.38,0.64,4.67,1.92c1.22,1.24,1.86,2.73,1.92,4.47v17.17h-2.03V19.07h0.02
					c-0.06-1.18-0.51-2.18-1.33-3.01c-0.91-0.89-1.99-1.33-3.24-1.33s-2.33,0.44-3.22,1.33c-0.9,0.89-1.35,2-1.35,3.33v16.85h-2.04
					V19.07h0.03c-0.06-1.18-0.51-2.18-1.34-3.01c-0.9-0.89-1.98-1.33-3.23-1.33c-1.26,0-2.33,0.44-3.22,1.33
					c-0.78,0.77-1.23,1.71-1.33,2.83v17.35h-2.04V14z"/>
				<path id="XMLID_00000168819469797149821670000012582175575211341697_" class="st2" d="M345.41,0h2.04v17.13
					c0.38-0.52,0.81-1.01,1.29-1.5c2.43-2.43,5.36-3.64,8.79-3.64c3.44,0,6.38,1.21,8.8,3.64c2.42,2.43,3.63,5.37,3.63,8.81
					c0,3.43-1.21,6.36-3.63,8.79c-2.42,2.43-5.36,3.64-8.8,3.64c-3.43,0-6.36-1.21-8.79-3.64c-0.48-0.48-0.91-0.98-1.29-1.49v4.51
					h-2.04V0z M347.45,22.32v4.26c0.39,1.93,1.33,3.63,2.8,5.12c2.01,2.01,4.44,3.01,7.28,3.01c2.83,0,5.26-1,7.27-3
					c2.01-1.99,3.01-4.42,3.01-7.26c0-2.83-1-5.26-3.01-7.27c-2.01-2-4.44-3.01-7.27-3.01c-2.84,0-5.27,1.01-7.28,3.01
					C348.78,18.65,347.84,20.37,347.45,22.32z"/>
				<path id="XMLID_00000146499807599679353830000000161068129568129464_" class="st2" d="M387.28,11.99c3.44,0,6.37,1.21,8.8,3.64
					c2.42,2.43,3.63,5.37,3.63,8.81c0,3.43-1.21,6.36-3.63,8.79c-2.43,2.43-5.36,3.64-8.8,3.64c-3.43,0-6.36-1.21-8.79-3.64
					c-2.43-2.43-3.64-5.36-3.64-8.79c0-3.44,1.21-6.38,3.64-8.81C380.92,13.2,383.85,11.99,387.28,11.99z M380,17.17
					c-2,2.01-3,4.44-3,7.27c0,2.84,1,5.27,3,7.26c2.01,2,4.44,3,7.28,3c2.83,0,5.26-1,7.27-3c2-1.99,3.01-4.42,3.01-7.26
					c0-2.83-1.01-5.26-3.01-7.27c-2.01-2-4.44-3.01-7.27-3.01C384.44,14.16,382.01,15.17,380,17.17z"/>
				<path id="XMLID_00000099651667984924504450000012493899168909144969_" class="st2" d="M416.23,11.99c3.44,0,6.37,1.21,8.8,3.64
					c2.42,2.43,3.63,5.37,3.63,8.81c0,3.43-1.21,6.36-3.63,8.79c-2.43,2.43-5.36,3.64-8.8,3.64c-3.43,0-6.36-1.21-8.79-3.64
					c-2.43-2.43-3.64-5.36-3.64-8.79c0-3.44,1.21-6.38,3.64-8.81C409.87,13.2,412.79,11.99,416.23,11.99z M408.95,17.17
					c-2,2.01-3,4.44-3,7.27c0,2.84,1,5.27,3,7.26c2.01,2,4.44,3,7.28,3c2.83,0,5.26-1,7.27-3c2-1.99,3.01-4.42,3.01-7.26
					c0-2.83-1.01-5.26-3.01-7.27c-2.01-2-4.44-3.01-7.27-3.01C413.38,14.16,410.96,15.17,408.95,17.17z"/>
			</g>
		</g>
		<g id="XMLID_00000065784793585842424360000012041240790070803613_">
			<path id="XMLID_00000111188191571522512120000009296756768598938265_" class="st2" d="M16.78,73.49c0,0-3.58-3.47-15.31,10.63
				C1.47,84.13,14.62,79.12,16.78,73.49z"/>
			<path id="XMLID_00000124872875799055476990000011224973730709335685_" class="st2" d="M17.69,73.49c0,0-3.68,3.65,6.53,19.73
				C24.22,93.22,23.23,76.31,17.69,73.49z"/>
			<path id="XMLID_00000083056275407511054690000011960194903997137552_" class="st2" d="M17.69,73.49c0,0,5.9,8.13,14.35,14.32
				C32.04,87.82,13.08,78.94,17.69,73.49z"/>
			<path id="XMLID_00000005255393242281571910000007266669240812794282_" class="st2" d="M108.61,78.16c0,0-4.01,8.44-4.51,19.77
				l-0.63,1.98C103.46,99.91,100.96,81.46,108.61,78.16z"/>
			<path id="XMLID_00000014634065337907175870000000730579066781459374_" class="st2" d="M109.53,78.16c0,0,6.2,3.56,7.51,7.65
				c1.32,4.09,5.67,13.05,6.33,14.1c0.66,1.05-7.84-7.51-9.06-9.1S108.61,82.51,109.53,78.16z"/>
			<path id="XMLID_00000042005443821577901470000013616294364934477239_" class="st2" d="M30.64,61.82l-0.01-7
				c0,0,75.46,1.83,87.45-0.08l7.35-0.98l0.01,7.98c0,0-3.87-0.94-5.03-0.94C119.25,60.8,41.48,59.54,30.64,61.82z"/>
			<path id="XMLID_00000044138492905371346250000006112748868495700400_" class="st2" d="M128.15,61.74c0,0-1.94-1.38-0.01-7.98
				c0,0,35.21,0.37,41.02-0.96c0,0,1.17,6.05,0.01,7.38c-1.16,1.33,1.16-0.95-7.74-0.75C152.53,59.63,132.79,59.84,128.15,61.74z"/>
			<path id="XMLID_00000160881583178301377420000006732255652976045215_" class="st2" d="M171.49,59.81c0,0-1.66-2.28-0.01-7
				c0,0,48.76,0.8,54.94-1.71l0.01,6.56C226.43,57.66,174.97,57.53,171.49,59.81z"/>
			<path id="XMLID_00000010299521647233040890000003636239946908538271_" class="st2" d="M27.16,61.83c0,0,6.19-6.68,1.93-7.98
				S5.75,54.03,2,53.87s0.01,6.08,0.01,6.08S26.38,57.66,27.16,61.83z"/>
			<path id="XMLID_00000014636095190531212750000013334311906797355674_" class="st2" d="M58.45,59.45c0,0,5.98-0.31,12.81,19.15
				C71.27,78.61,55.93,64.72,58.45,59.45z"/>
			<path id="XMLID_00000145031320667026565880000011362318296475017618_" class="st2" d="M59.63,58.27c0,0,14.31,5.01,18.7,4.75
				l3.2,1.05c0,0-9.57,0.75-13.71,0C63.69,63.31,59.63,58.27,59.63,58.27z"/>
			<path id="XMLID_00000036225687849459655850000002279224137154382766_" class="st2" d="M17.69,73.49c0,0,2-11.51,4.82-13.23
				C22.51,60.27,18.22,60.09,17.69,73.49z"/>
			<path id="XMLID_00000076572794392349177080000000778203894538591909_" class="st2" d="M187.63,58.38c0,0,3.56,9.68,15.29,13.76
				c0,0,9.49,4.61,10.02,5.4c0.53,0.79-9.62-10.95-11.07-11.67S194.09,59.65,187.63,58.38z"/>
			<path id="XMLID_00000060716221239968877090000004760077218858856087_" class="st2" d="M187.63,58.38c0,0,15.46,4.27,25.33,3.08
				l2.88,0.21c0,0-2.64,0.06-5.14,0.98C208.19,63.57,194.48,66.63,187.63,58.38z"/>
			<path id="XMLID_00000080192904119132844070000008500121416767628206_" class="st2" d="M189.75,59.75c0,0,7.39,12.27,9.5,13.72
				c2.11,1.45,1.71,3.03,1.71,3.03s-4.61-3.69-6.85-5.54S189.14,60.65,189.75,59.75z"/>
			<path id="XMLID_00000025436952363448728940000000819640539553986696_" class="st2" d="M168.8,65.8c0,0,19.04-6.28,19.77-7.31
				c0.73-1.02-0.92,2.32-0.92,2.32S170.52,65.91,168.8,65.8z"/>
			<path id="XMLID_00000047775067274853107480000012191902731188430740_" class="st2" d="M168.14,64.55c0,0-4.84,2.44-14.81-4.8
				l-5.8-4.78c0,0,5.46,1.1,7.7,1.76S167.48,61.16,168.14,64.55z"/>
			<path id="XMLID_00000096037652989576213200000011414989293818215074_" class="st2" d="M168.14,65.8c0,0-4.75,0.82-9.36,8.99
				c0,0-4.05,7.12-5.58,7.78c-1.53,0.66,7.96-5.4,9.93-7.65C165.11,72.68,169.14,66.77,168.14,65.8z"/>
			<path id="XMLID_00000144320194270241761310000017293413829867809959_" class="st2" d="M168.14,65.8c0,0-3.16,10.57-2.9,11.62
				c0.26,1.05-0.26,6.46-0.92,6.99c-0.66,0.53-1.02-8.04-0.66-9.31C164.02,73.84,166.78,66.04,168.14,65.8z"/>
			<path id="XMLID_00000108271892222379836130000007358683219537447339_" class="st2" d="M104.12,58.47c0,0-0.66,15.21,4.48,19.03
				c0,0-4.84-11.71-3.01-20.29"/>
			<path id="XMLID_00000121964927691511226580000005409792937461112204_" class="st2" d="M109.53,76.71c0,0,3.16-4.93,9.49-6.68
				c6.33-1.76,8.96-3.86,8.96-3.86s-5.27,5.21-5.93,5.57C121.39,72.1,115.33,77.63,109.53,76.71z"/>
			<path id="XMLID_00000118397405389143903820000009322395807435555505_" class="st2" d="M109.53,76.71c0,0,6,4.09,13.88,2.77
				c0,0,6.82-1.71,9.85-1.32c0,0-11.27-3.56-13.28-3.16C117.96,75.39,110.45,75.92,109.53,76.71z"/>
		</g>
		<g id="XMLID_00000077297842977385481390000000500317159879930246_">
			<path id="XMLID_00000026861986373954471570000001798933566962363305_" class="st2" d="M245.43,56.74
				c-1.34-0.44-2.39-1.04-3.16-1.81c-0.77-0.77-1.16-1.71-1.16-2.81c0-1.07,0.39-2,1.16-2.77c0.76-0.77,1.71-1.16,2.8-1.16
				c1.08,0,2.03,0.38,2.8,1.15c0.43,0.42,0.73,0.88,0.89,1.4l-0.94,0.38c-0.14-0.39-0.38-0.74-0.7-1.05
				c-0.56-0.57-1.25-0.85-2.05-0.85c-0.8,0-1.49,0.29-2.06,0.85c-0.57,0.57-0.85,1.26-0.85,2.06c0,0.81,0.28,1.49,0.85,2.06
				c0.54,0.53,1.27,1,2.2,1.44c1.49,0.48,2.76,1.23,3.78,2.25c1.07,1.07,1.62,2.37,1.62,3.91s-0.55,2.84-1.62,3.92
				c-1.08,1.08-2.39,1.63-3.92,1.63c-1.52,0-2.83-0.55-3.92-1.64c-0.86-0.86-1.38-1.87-1.56-3.02l1-0.35
				c0.11,1.01,0.54,1.89,1.3,2.65c0.88,0.88,1.94,1.32,3.18,1.32c1.25,0,2.31-0.44,3.19-1.32s1.32-1.94,1.32-3.19
				s-0.44-2.3-1.32-3.19C247.49,57.82,246.55,57.2,245.43,56.74z"/>
			<path id="XMLID_00000095328862740593361250000003409185173919304865_" class="st2" d="M265.33,67.1h-1.05v-2.34
				c-0.2,0.28-0.42,0.54-0.67,0.78c-1.26,1.26-2.77,1.88-4.54,1.88s-3.28-0.62-4.54-1.88c-1.26-1.26-1.88-2.76-1.88-4.53
				c0-1.78,0.62-3.3,1.88-4.55c1.26-1.25,2.77-1.88,4.54-1.88s3.28,0.63,4.54,1.88c0.25,0.26,0.46,0.52,0.67,0.78v-1.62h1.05V67.1z
				 M264.28,62.05v-2.08c-0.19-1.03-0.68-1.93-1.46-2.72c-1.03-1.03-2.29-1.55-3.75-1.55c-1.47,0-2.72,0.52-3.76,1.55
				c-1.03,1.04-1.56,2.29-1.56,3.76c0,1.46,0.53,2.72,1.56,3.75c1.04,1.03,2.29,1.55,3.76,1.55c1.46,0,2.72-0.52,3.75-1.56
				C263.6,63.97,264.09,63.07,264.28,62.05z"/>
			<path id="XMLID_00000138556988354271270260000000855419044061009333_" class="st2" d="M269.89,58.18v8.92h-1.05V55.62h1.05v0.74
				c0.97-0.96,2.07-1.43,3.35-1.43c1.35,0,2.46,0.42,3.31,1.27c0.85,0.86,1.28,1.92,1.31,3.22v7.67h-1.05v-7.59
				c0-0.97-0.35-1.8-1.06-2.49c-0.71-0.69-1.53-1.03-2.5-1.03s-1.8,0.33-2.5,1.01C270.36,57.38,270.08,57.78,269.89,58.18z"/>
			<path id="XMLID_00000094586643989679897440000005928824399254038703_" class="st2" d="M293.74,67.1h-1.05v-2.34
				c-0.2,0.28-0.42,0.54-0.67,0.78c-1.26,1.26-2.77,1.88-4.54,1.88s-3.28-0.62-4.54-1.88c-1.26-1.26-1.88-2.76-1.88-4.53
				c0-1.78,0.62-3.3,1.88-4.55c1.26-1.25,2.77-1.88,4.54-1.88s3.28,0.63,4.54,1.88c0.25,0.26,0.46,0.52,0.67,0.78v-1.62h1.05V67.1z
				 M292.69,62.05v-2.08c-0.19-1.03-0.68-1.93-1.46-2.72c-1.03-1.03-2.29-1.55-3.75-1.55c-1.47,0-2.72,0.52-3.76,1.55
				c-1.03,1.04-1.56,2.29-1.56,3.76c0,1.46,0.53,2.72,1.56,3.75c1.04,1.03,2.29,1.55,3.76,1.55c1.46,0,2.72-0.52,3.75-1.56
				C292.02,63.97,292.5,63.07,292.69,62.05z"/>
			<path id="XMLID_00000062155156225421489230000000149451466795210167_" class="st2" d="M297.24,55.62h1.05v2.09
				c0.23-0.31,0.47-0.61,0.76-0.9c0.92-0.92,1.88-1.42,2.86-1.46v1.15c-0.67,0.03-1.35,0.4-2.06,1.11c-1,0.99-1.51,2.18-1.56,3.56
				v5.93h-1.05V55.62z"/>
			<path id="XMLID_00000072256859151279595720000010760094101701434505_" class="st2" d="M324.91,67.1h-1.05v-2.34
				c-0.2,0.28-0.42,0.54-0.67,0.78c-1.26,1.26-2.77,1.88-4.54,1.88s-3.28-0.62-4.54-1.88s-1.88-2.76-1.88-4.53
				c0-1.78,0.62-3.3,1.88-4.55c1.26-1.25,2.77-1.88,4.54-1.88s3.28,0.63,4.54,1.88c0.25,0.26,0.46,0.52,0.67,0.78V48.4h1.05V67.1z
				 M323.85,62.05v-2.08c-0.19-1.03-0.68-1.93-1.46-2.72c-1.03-1.03-2.29-1.55-3.75-1.55c-1.47,0-2.72,0.52-3.76,1.55
				c-1.03,1.04-1.56,2.29-1.56,3.76c0,1.46,0.53,2.72,1.56,3.75c1.04,1.03,2.29,1.55,3.76,1.55c1.46,0,2.72-0.52,3.75-1.56
				C323.18,63.97,323.66,63.07,323.85,62.05z"/>
			<path id="XMLID_00000121255829084946905260000015458894160690696631_" class="st2" d="M330.61,64.95
				c0.99,0.9,2.17,1.35,3.53,1.35c1.46,0,2.72-0.52,3.75-1.56c0.13-0.13,0.26-0.27,0.38-0.41l1.11,0.4
				c-0.2,0.28-0.43,0.55-0.69,0.81c-1.26,1.26-2.77,1.88-4.54,1.88s-3.28-0.62-4.54-1.88s-1.88-2.77-1.88-4.54s0.62-3.28,1.88-4.54
				c1.26-1.25,2.77-1.88,4.54-1.88c1.51,0,2.84,0.46,3.98,1.36c0.18,0.16,0.38,0.33,0.56,0.52c0.08,0.08,0.14,0.14,0.2,0.21
				l-0.79,0.79L330.61,64.95z M337.31,56.76c-0.91-0.71-1.98-1.05-3.18-1.05c-1.46,0-2.7,0.52-3.75,1.55
				c-1.03,1.03-1.56,2.28-1.56,3.75c0,1.2,0.35,2.26,1.05,3.18L337.31,56.76z"/>
			<path id="XMLID_00000106129336426024223340000015391439798463588003_" class="st2" d="M354.91,65.18l4.42-9.55h1.21l-5.64,11.79
				l-5.64-11.79h1.22L354.91,65.18z"/>
			<path id="XMLID_00000049218681745451437980000017352145932637198724_" class="st2" d="M364.83,64.95
				c0.99,0.9,2.17,1.35,3.53,1.35c1.46,0,2.72-0.52,3.75-1.56c0.13-0.13,0.26-0.27,0.38-0.41l1.11,0.4
				c-0.2,0.28-0.43,0.55-0.69,0.81c-1.26,1.26-2.77,1.88-4.54,1.88c-1.77,0-3.28-0.62-4.54-1.88c-1.26-1.26-1.88-2.77-1.88-4.54
				s0.62-3.28,1.88-4.54c1.26-1.25,2.77-1.88,4.54-1.88c1.51,0,2.84,0.46,3.98,1.36c0.18,0.16,0.38,0.33,0.56,0.52
				c0.08,0.08,0.14,0.14,0.2,0.21l-0.79,0.79L364.83,64.95z M371.53,56.76c-0.91-0.71-1.98-1.05-3.18-1.05
				c-1.46,0-2.7,0.52-3.75,1.55c-1.03,1.03-1.56,2.28-1.56,3.75c0,1.2,0.35,2.26,1.05,3.18L371.53,56.76z"/>
			<path id="XMLID_00000031917798080416998940000012455421875800844429_" class="st2" d="M376.39,55.62h1.05v2.09
				c0.23-0.31,0.47-0.61,0.76-0.9c0.92-0.92,1.88-1.42,2.86-1.46v1.15c-0.67,0.03-1.35,0.4-2.06,1.11c-1,0.99-1.51,2.18-1.56,3.56
				v5.93h-1.05V55.62z"/>
			<path id="XMLID_00000127040511666793296000000006711777950707219589_" class="st2" d="M395.71,67.1h-1.05v-2.34
				c-0.2,0.28-0.42,0.54-0.67,0.78c-1.26,1.26-2.77,1.88-4.54,1.88s-3.28-0.62-4.54-1.88s-1.88-2.76-1.88-4.53
				c0-1.78,0.62-3.3,1.88-4.55c1.26-1.25,2.77-1.88,4.54-1.88s3.28,0.63,4.54,1.88c0.25,0.26,0.46,0.52,0.67,0.78V48.4h1.05V67.1z
				 M394.66,62.05v-2.08c-0.19-1.03-0.68-1.93-1.46-2.72c-1.03-1.03-2.29-1.55-3.75-1.55c-1.47,0-2.72,0.52-3.76,1.55
				c-1.03,1.04-1.56,2.29-1.56,3.76c0,1.46,0.53,2.72,1.56,3.75c1.04,1.03,2.29,1.55,3.76,1.55c1.46,0,2.72-0.52,3.75-1.56
				C393.98,63.97,394.46,63.07,394.66,62.05z"/>
			<path id="XMLID_00000168094336084330460950000001474955030944991918_" class="st2" d="M411.6,67.1h-1.05v-2.34
				c-0.2,0.28-0.42,0.54-0.67,0.78c-1.26,1.26-2.77,1.88-4.54,1.88s-3.28-0.62-4.54-1.88s-1.88-2.76-1.88-4.53
				c0-1.78,0.62-3.3,1.88-4.55c1.26-1.25,2.77-1.88,4.54-1.88s3.28,0.63,4.54,1.88c0.25,0.26,0.46,0.52,0.67,0.78v-1.62h1.05V67.1z
				 M410.55,62.05v-2.08c-0.19-1.03-0.68-1.93-1.46-2.72c-1.03-1.03-2.29-1.55-3.75-1.55c-1.47,0-2.72,0.52-3.76,1.55
				c-1.03,1.04-1.56,2.29-1.56,3.76c0,1.46,0.53,2.72,1.56,3.75c1.04,1.03,2.29,1.55,3.76,1.55c1.46,0,2.72-0.52,3.75-1.56
				C409.88,63.97,410.36,63.07,410.55,62.05z"/>
			<path id="XMLID_00000102519454312519980350000000292822939895583900_" class="st2" d="M427.49,67.1h-1.05v-2.34
				c-0.2,0.28-0.42,0.54-0.67,0.78c-1.26,1.26-2.77,1.88-4.54,1.88s-3.28-0.62-4.54-1.88s-1.88-2.76-1.88-4.53
				c0-1.78,0.62-3.3,1.88-4.55c1.26-1.25,2.77-1.88,4.54-1.88s3.28,0.63,4.54,1.88c0.25,0.26,0.46,0.52,0.67,0.78V48.4h1.05V67.1z
				 M426.44,62.05v-2.08c-0.19-1.03-0.68-1.93-1.46-2.72c-1.03-1.03-2.29-1.55-3.75-1.55c-1.47,0-2.72,0.52-3.76,1.55
				c-1.03,1.04-1.56,2.29-1.56,3.76c0,1.46,0.53,2.72,1.56,3.75c1.04,1.03,2.29,1.55,3.76,1.55c1.46,0,2.72-0.52,3.75-1.56
				C425.76,63.97,426.25,63.07,426.44,62.05z"/>
		</g>
	</g>
</g>
</svg>
