<?xml version="1.0" encoding="UTF-8"?>
<svg id="Capa_1" data-name="Capa 1" xmlns="http://www.w3.org/2000/svg" viewBox="0 0 155.55 200">
  <defs>
    <style>
      .cls-1 {
        fill: #fff;
      }
    </style>
  </defs>
  <path class="cls-1" d="M88.23,0c3.12,.75,6.39,1.14,9.34,2.34,4.85,1.98,9.69,3.74,14.8,5.09,9.09,2.39,14.99,10.94,15.06,20.4,.07,10.2,.04,20.4,0,30.6,0,1.26,.22,2.08,1.43,2.83,3.82,2.37,5.52,7.03,4.42,11.53-.98,4.02-4.94,7.45-9.14,7.92-.19,.02-.39,.07-.58,.05-2.38-.28-3.04,1.02-3.47,3.17-2.03,10.12-7.23,18.38-15.25,24.78-1.67,1.34-2.58,2.62-2.32,4.82,.25,2.11-.53,4.68,.43,6.27,.91,1.51,3.47,2.02,5.32,2.95,2.19,1.11,4.39,2.2,6.59,3.28,2.36,1.16,3.84,2.93,4.32,5.61,.11,.63,1.02,1.39,1.71,1.62,6.93,2.26,14.01,4.12,20.82,6.69,8.58,3.24,13.32,9.94,13.61,19.03,.4,12.46,.17,24.94,.04,37.41-.01,1.21-1.2,2.4-1.85,3.6h-2.33c-2.65-3.3-1.51-7.2-1.56-10.85-.13-9.41-.02-18.82-.05-28.23-.03-7.68-3.74-13.4-10.62-15.76-7.01-2.41-14.14-4.47-21.24-6.62-.47-.14-1.32,.08-1.64,.44-1.16,1.35-2.18,2.84-3.39,4.47,1.53,1.45,2.99,2.74,4.34,4.13,2.96,3.06,3.72,6.95,1.8,10.75-7.03,13.92-14.18,27.79-21.28,41.68h-2.33c-2.95-2.96-.97-5.65,.42-8.42,5.81-11.59,11.59-23.19,17.37-34.79,1.38-2.76,1.22-3.67-.93-5.85-1.51-1.52-3.03-3.03-4.53-4.55-1.98-2.01-2.07-3.17-.42-5.41,1.81-2.45,3.65-4.88,5.47-7.33,.53-.71,1.07-1.53-.05-2.1-3.64-1.88-7.32-3.68-11.07-5.56-.21,.59-.36,.94-.46,1.3-5.05,17.33-9.97,34.7-15.21,51.98-2.11,6.96-3.02,14.36-6.91,20.73h-2.33c-.97-2.24-2.1-4.43-2.87-6.74-1.19-3.55-2.15-7.19-3.2-10.79-1.53-5.28-3.08-10.56-4.58-15.85-.53-1.86,.26-3.48,1.81-3.96,1.65-.51,3.08,.29,3.78,2.14,.16,.42,.27,.86,.4,1.3,1.7,5.84,3.39,11.68,5.09,17.52,.17,.57,.41,1.11,.82,2.18,3.76-12.93,7.35-25.28,11.05-38.02-7.62,2.51-14.78,2.41-22.2,.05,.5,1.79,.99,3.13,1.23,4.51,.28,1.61-.46,2.81-2,3.35-1.5,.52-2.65-.11-3.42-1.43-.29-.5-.46-1.07-.62-1.63-1.97-6.77-3.92-13.55-5.89-20.32-.61-2.09-1.25-4.17-1.91-6.35-3.68,1.85-7.13,3.62-10.63,5.3-1.31,.63-1.37,1.33-.55,2.41,1.89,2.47,3.76,4.96,5.6,7.47,1.49,2.03,1.38,3.3-.41,5.13-1.49,1.53-3.02,3.03-4.53,4.55-2.35,2.37-2.48,3.13-.97,6.15,5.92,11.89,11.81,23.8,17.8,35.66,1.27,2.52,2.52,4.84-.16,7.19-.02,.02,.03,.12,.04,.18h-2.33c-1.06-1.77-2.14-3.54-3.17-5.33-.59-1.02-1.1-2.07-1.64-3.11-.5,2.98,.08,6.05-2.18,8.44H17.51c-.64-1.13-1.79-2.25-1.83-3.41-.18-6.16-.12-12.33-.07-18.5,.02-1.91,1.16-2.96,3.06-3.06,.97-.05,1.94-.02,2.91-.02,3.15,0,6.29,0,9.58,0,0-1.3-.08-2.34,.02-3.36,.18-1.83,1.39-2.93,3.06-2.84,1.79,.09,2.65,1.16,2.79,2.87,.09,1.07,.12,2.15,.17,3.17h7.65c-2.75-5.53-5.43-10.84-8.03-16.17-2.07-4.24-1.43-8.03,1.89-11.38,1.31-1.32,2.78-2.49,4.17-3.73-1.25-1.67-2.23-2.88-3.08-4.17-.64-.98-1.27-1.16-2.41-.79-5.46,1.76-10.97,3.39-16.44,5.11-2.21,.7-4.51,1.28-6.54,2.35-5.91,3.1-8.47,8.3-8.5,14.84-.04,9.41,.08,18.83-.06,28.24-.05,3.65,1.09,7.55-1.56,10.85H1.96C-.16,198.18,0,195.75,0,193.27c.05-10.78,.01-21.56,.02-32.35,.01-10.75,5.64-18.54,15.89-21.85,6.2-2,12.44-3.88,18.68-5.76,1.1-.33,1.73-.78,1.87-2.04,.27-2.47,1.83-4.07,3.98-5.15,3.69-1.86,7.37-3.75,11.09-5.55,.99-.48,1.46-1.02,1.41-2.18-.1-2.4,.61-5.06-.22-7.13-.77-1.93-3.1-3.25-4.75-4.82-6.9-6.54-11.2-14.5-12.91-23.84-.24-1.31-.71-1.69-1.99-1.72-7.94-.15-11.29-6.16-11.23-10.9,.04-3.65,1.72-6.5,4.68-8.49,1.19-.8,1.55-1.63,1.53-3-.07-5.71-.07-11.43-.02-17.15,.05-5.12,.83-10.06,3.63-14.52,.24-.39,0-1.3-.31-1.79-1.15-1.87-2.55-3.6-3.61-5.51-1-1.81-.33-3.52,1.58-4.29,9.76-3.93,19.42-8.12,29.35-11.57,5.18-1.8,10.82-2.25,16.26-3.32,.43-.08,.84-.25,1.26-.37,4.02,0,8.03,0,12.05,0ZM36.49,30.36c-1.4,2.34-2.18,4.94-2.26,7.66-.19,6.56-.21,13.12-.28,19.67,0,.49,.09,.99,.15,1.51,.59,.03,1.04,.08,1.48,.08,3.98,.05,4.88-.85,4.88-4.89,0-2.99-.04-5.98,.02-8.97,.05-2.1,1.25-3.35,3.02-3.33,1.71,.02,2.85,1.15,2.88,3.22,.05,3.89,.09,7.8-.14,11.68-.26,4.37-3.67,7.7-8.01,8.09-2.12,.19-4.27,.15-6.39,.4-2.19,.26-3.89,2.19-4.06,4.34-.17,2.1,1.13,4.15,3.23,4.78,.96,.29,2.02,.24,3.07,.34,.57-1.91,1.5-3.33,3.55-3.04,2.22,.31,2.5,2.11,2.66,3.94,.19,2.19,.26,4.42,.71,6.56,4.04,19.31,22.32,32.54,42.46,29.55,15.67-2.33,29.13-15.55,31.22-31.16,.28-2.12,.45-4.25,.7-6.38,.16-1.41,1.04-2.47,2.35-2.39,1.05,.06,2.09,.87,3.04,1.49,.35,.23,.43,.88,.77,1.63,1.34-.4,2.7-.59,3.85-1.19,1.78-.92,2.53-2.87,2.16-4.79-.39-2.04-1.84-3.5-3.9-3.76-1.28-.16-2.58-.15-3.88-.15-7.2-.03-10.82-3.54-10.73-10.74,.09-7.06-2.3-13.18-6.38-18.79-.72-.99-1.41-1.23-2.6-.89-7.58,2.18-15.25,3.87-23.14,4.6-11.39,1.06-22.48,.24-32.95-4.81-2.54-1.22-4.91-2.8-7.52-4.3Zm-1.58-10.46c3.13,4.39,7.33,7.44,12.12,9.68,11.12,5.2,22.84,5.18,34.59,3.31,6.6-1.05,13.09-2.9,19.59-4.52,1.67-.41,3.05-.27,3.97,1.11,2.45,3.71,5.05,7.36,7.07,11.3,2.34,4.56,2.91,9.62,2.78,14.75-.06,2.13,.92,3.46,2.68,3.68,1.19,.15,2.41,.03,3.82,.03,0-2.23,.01-4.3,0-6.36-.07-8.96,0-17.92-.27-26.87-.17-5.53-4.87-11.25-9.72-12.5,.45,2.76-.06,4.16-1.72,4.7-1.72,.57-2.75-.25-4.24-2.77-.84-1.42-1.91-2.81-3.18-3.84-5.63-4.55-12.37-5.67-19.32-5.71-10.66-.06-20.9,1.92-30.63,6.53-5.69,2.7-11.59,4.96-17.54,7.47Zm23.89,94.16c.14,3.02-.14,5.76,.47,8.28,1.37,5.65,3.16,11.2,4.87,16.77,.21,.69,.87,1.47,1.52,1.77,8.03,3.73,16.1,3.74,24.13,.01,.69-.32,1.35-1.19,1.58-1.94,1.7-5.5,3.47-10.99,4.82-16.58,.62-2.55,.33-5.33,.47-8.31-12.74,5.68-25.07,5.67-37.85,0Zm-21.68,66.89c-.32,1.78-1.15,2.94-2.91,3.02-2.02,.09-2.71-1.42-3.22-2.98h-9.41v12.63h24.94v-12.67h-9.4Z"/>
  <path class="cls-1" d="M132.12,176.59c1.71,0,3.18-.04,4.66,.01,1.82,.07,3.05,1.23,3.1,2.83,.05,1.65-1.25,2.92-3.14,3.01-.78,.04-1.55,0-2.33,.01-.69,0-1.39,0-2.28,0,0,1.53,.02,2.88,0,4.23-.05,2.25-1.18,3.57-3,3.56-1.74-.01-2.82-1.26-2.89-3.42-.04-1.35,0-2.71,0-4.37-1.53,0-2.92,.02-4.32,0-2.13-.04-3.4-1.11-3.43-2.87-.04-1.88,1.2-2.95,3.48-2.99,1.23-.03,2.46-.03,3.69-.05,.11,0,.23-.1,.59-.27,0-1.36-.05-2.84,.01-4.31,.08-2.03,1.17-3.16,2.92-3.15,1.72,0,2.86,1.21,2.95,3.18,.06,1.42,.01,2.85,.01,4.6Z"/>
</svg>