<?xml version="1.0" encoding="UTF-8"?>
<svg id="Capa_1" data-name="Capa 1" xmlns="http://www.w3.org/2000/svg" viewBox="0 0 195.28 200">
  <defs>
    <style>
      .cls-1 {
        fill: #fff;
        stroke: #fff;
        stroke-linecap: round;
        stroke-miterlimit: 10;
      }
    </style>
  </defs>
  <path class="cls-1" d="M58.6,101.35h-5.72c-.04,.8-.1,1.53-.1,2.25,0,13.95-.03,27.9,0,41.85,.03,17.44,11.68,31.21,28.84,34.09,1.67,.28,3.39,.34,5.08,.35,5.99,.04,11.98,.03,17.96,.02,1.32,0,2.68,.12,2.68,1.75,0,1.52-1.3,1.68-2.55,1.66-7.55-.11-15.13,.22-22.64-.4-17.11-1.41-31.82-16.72-32.55-33.88-.45-10.52-.18-21.08-.23-31.62,0-.8,0-1.61,0-2.49-1.37-.37-2.64-.62-3.84-1.06-13.53-4.88-21.44-14.39-23.27-28.72-.24-1.86-1.17-1.75-2.43-1.78-6.86-.15-11.62-3.81-12.88-9.94-.78-3.83,.06-7.35,2.59-10.31,.97-1.14,1.28-2.24,1.29-3.67,.05-6.53-.27-13.1,.38-19.57C13.5,17.05,33.1-.18,56.14,0c24.32,.19,43.98,19.49,44.56,43.81,.13,5.37,0,10.75,.11,16.13,.02,.98,.46,2.11,1.07,2.88,3.2,4.07,3.96,8.52,1.88,13.2-2.09,4.69-5.92,7.12-11.09,7.35-.41,.02-.82,.07-1.22,0-1.53-.21-2.09,.37-2.25,1.97-1.42,14.1-11.56,25.66-25.44,29.07-1.34,.33-1.86,.79-1.85,2.28,.08,9.72,0,19.44,.05,29.16,.07,13.99,10.92,24.81,24.9,24.88,5.78,.03,11.57,0,17.35,0,.48,0,1.07-.17,1.4,.05,.66,.42,1.19,1.06,1.77,1.62-.58,.55-1.17,1.57-1.75,1.57-7.89-.02-15.86,.53-23.64-.45-13.52-1.71-23.36-13.67-23.4-27.28-.04-14.01,0-28.02,0-42.03,0-.88,0-1.75,0-2.86Zm38.57-42.17c.06-.16,.2-.34,.2-.52-.1-6.39,.28-12.83-.42-19.16C94.91,21.26,80.36,6.62,62.01,3.77,44.04,.98,25.98,10.71,18.12,27.17c-4.88,10.23-4.04,21.05-3.82,31.84,0,.04,.09,.09,.24,.24,1.35-.28,2.78-.58,4.26-.9,.05-.54,.11-1,.12-1.47,.12-5.43,.13-5.4,5.46-6.4,16.57-3.13,28.61-12.27,36.14-27.35,1.12-2.25,1.79-2.45,3.9-.96,2.56,1.81,5.11,3.62,7.59,5.52,7.03,5.36,13.32,11.39,17.96,19.03,1.77,2.92,3.08,5.88,2.59,9.4-.1,.72-.01,1.46-.01,2.19,1.54,.35,2.86,.66,4.18,.95,.12,.03,.26-.04,.44-.06ZM63.28,25.48c-.43,.7-.72,1.14-.98,1.61-8.3,14.71-20.74,23.69-37.37,26.63-2.35,.42-2.79,1.25-2.72,3.36,.15,4.35,.04,4.35-4.31,4.93-4.34,.57-7.61,4.15-7.86,8.6-.23,4.17,2.79,8.25,6.98,9.1,1.78,.36,3.65,.3,5.48,.35,2.52,.07,2.84,.32,2.92,2.79,.16,5.22,1.61,10.08,4.32,14.5,1.33,2.16,3.03,4.08,4.56,6.11,.16-.1,.31-.19,.47-.29-.05-.37-.08-.75-.16-1.12-1.5-6.42-3-12.84-4.5-19.27-1.93-8.28,.48-13.77,7.92-17.89,1.09-.6,1.65-1.31,1.85-2.63,1.14-7.51,7.66-13.26,15.19-13.57,7.86-.32,14.89,4.86,16.48,12.44,.45,2.15,1.37,3.36,3.24,4.41,6.02,3.38,8.58,9.4,7.05,16.11-1.14,4.97-2.33,9.93-3.5,14.9-.49,2.08-.95,4.16-1.45,6.35,.38-.08,.55-.06,.63-.14,.39-.37,.79-.75,1.14-1.16,4.64-5.41,7.2-11.65,7.37-18.79,.05-1.97,.73-2.9,2.79-2.76,1.49,.1,3,.09,4.49-.06,4.95-.51,8.38-4.54,8.2-9.5-.17-4.64-3.97-8.34-8.77-8.54-3.47-.15-3.42-.19-3.53-3.66-.08-2.6,.47-5.21-.92-7.77-5.83-10.76-15.03-18.08-25-25.03Zm-1.19,86.25c3-1.24,5.65-2.35,8.3-3.44,1.44-.59,2.15-1.63,2.5-3.17,1.81-7.96,3.75-15.88,5.55-23.84,.34-1.5,.5-3.12,.33-4.64-.45-3.95-2.69-6.74-6.2-8.54-2.2-1.13-3.89-2.26-4.21-5.3-.65-6.31-6.29-10.82-12.61-10.79-6.26,.03-11.83,4.64-12.54,10.95-.28,2.5-1.3,3.81-3.36,4.73-.5,.22-.96,.51-1.43,.79-4.5,2.69-6.48,7.04-5.32,12.16,1.91,8.49,3.93,16.96,5.93,25.43,.12,.5,.34,1.14,.72,1.39,2.87,1.86,5.95,3.19,9.5,3.83v-9.91c-.39-.05-.65-.1-.92-.11-3.06-.11-3.23-.27-3.23-3.28,0-6.26,0-12.52,0-18.79,0-2.61,.35-3.01,2.89-3.02,5.24-.03,10.48-.03,15.72-.01,2.3,0,2.7,.44,2.7,2.79,0,5.99,.03,11.98,0,17.97-.03,3.94,.58,4.32-3.97,4.42-.11,0-.21,.15-.35,.25v10.14Zm.86-13.82v-18.33c-4.54,0-8.95-.04-13.35,.07-.41,.01-1.12,1.02-1.13,1.58-.1,4.08-.05,8.16-.06,12.23q0,4.44,4.33,4.45c3.38,0,6.76,0,10.2,0Z"/>
  <path class="cls-1" d="M163,92.57c0,5.4-.05,10.56,.08,15.71,.01,.47,1.06,1.08,1.73,1.33,9.31,3.45,18.62,6.9,27.97,10.23,1.86,.66,2.56,1.65,2.5,3.58-.9,30.13-13.66,53.84-38.4,71.04-2.56,1.78-5.32,3.31-8.1,4.72-.86,.44-2.35,.47-3.18,.02-25.34-13.7-40.62-34.71-45.41-63.16-.72-4.27-.73-8.66-1.09-12.99-.13-1.58,.48-2.47,2.04-3.04,14.89-5.4,29.75-10.89,44.65-16.27,.91-.33,2.15-.22,3.11,.1,3.47,1.15,6.88,2.47,10.53,3.8v-15.09c-.99,0-2.04,0-3.09,0q-4.14-.02-4.14-4.25c0-1.77-.13-3.55,.04-5.3,.16-1.67-.58-2.4-2.01-3.02-3.87-1.67-7.67-3.5-11.51-5.25-5.6-2.54-8.48-6.92-8.5-13.02-.06-18.17-.02-36.34,0-54.51,0-2.44,.44-2.86,2.87-2.86,18.78,0,37.57,0,56.35,0,2.48,0,2.88,.39,2.88,2.83,0,18.24,.04,36.48-.01,54.72-.02,5.86-2.77,10.12-8.09,12.64-4.12,1.95-8.25,3.88-12.41,5.73-1.1,.49-1.52,1.1-1.48,2.3,.08,2.52,0,5.04,.03,7.55,.02,1.71-.78,2.5-2.48,2.46-1.49-.04-2.99,0-4.85,0ZM188.81,7.85h-55.04v24.82c.29,.07,.43,.13,.55,.12,.61-.02,1.22-.06,1.83-.1,10.43-.62,19.34,2.75,26.85,10.03,6.66,6.45,14.75,8.88,23.91,8.18,1.53-.12,2.03-.65,2.02-2.24-.06-13.06-.03-26.12-.03-39.18,0-.47-.05-.94-.1-1.64Zm-55.02,28.48c-.08,.51-.16,.77-.16,1.03,0,8.44-.09,16.88,.03,25.32,.06,4.03,2.23,6.92,5.81,8.69,2.5,1.24,5.17,2.15,7.57,3.54,4.76,2.75,9.79,3.56,15.24,3.38,3.95-.13,7.63-.5,11.16-2.43,3.1-1.69,6.41-2.99,9.61-4.48,2.74-1.28,4.88-3.36,5.35-6.3,.57-3.56,.47-7.23,.66-10.92-.83,.04-1.17,.04-1.51,.07-10.69,.84-19.88-2.21-27.71-9.78-7.18-6.95-15.99-9.47-26.06-8.12Zm-31.41,90.66c.34,2.76,.58,5.54,1.04,8.28,4.44,26.75,18.6,46.7,42.06,60.17,1.2,.69,2.15,.71,3.37,0,26.95-15.74,41.4-39.08,42.98-70.32,.08-1.59-.49-2.21-1.93-2.73-13.75-4.97-27.45-10.03-41.2-14.99-.92-.33-2.16-.31-3.08,.02-13.17,4.74-26.3,9.55-39.44,14.36-3.61,1.32-3.6,1.34-3.78,5.21Zm53.35-45.29v7.29h11.03v-7.29h-11.03Z"/>
  <path class="cls-1" d="M38.92,121.47c0,1.63-.15,3.28,.04,4.89,.25,2.1-.82,2.58-2.6,3.03-6.11,1.54-12.31,2.9-18.19,5.08-4.8,1.78-9.2,4.63-13.77,7.02-.42,.22-.8,.74-1.2,.73-.89,0-1.78-.25-2.66-.4,.29-.8,.34-2.01,.9-2.34,4.65-2.67,9.2-5.66,14.15-7.6,5.97-2.34,12.29-3.81,18.5-5.52,1.25-.34,1.64-.77,1.6-2.04-.1-2.92-.02-5.85-.03-8.77,0-1.15,.32-2.1,1.65-2.1,1.33,0,1.67,.94,1.66,2.09,0,1.97,0,3.94,0,5.92-.02,0-.03,0-.05,0Z"/>
  <path class="cls-1" d="M76.07,125.52c6.48,1.99,12.5,3.84,18.51,5.69,.39,.12,.92,.19,1.1,.47,.45,.7,1.11,1.57,.99,2.25-.2,1.15-1.18,1.15-2.27,.79-4.57-1.5-9.15-2.97-13.77-4.31-2.01-.58-4.12-.82-6.18-1.19-1.18-.21-1.72-.75-1.69-2.06,.07-3.87,0-7.74-.02-11.62,0-1.14,.29-2.1,1.65-2.09,1.34,.01,1.67,.99,1.68,2.11,.02,3.46,0,6.91,0,9.94Z"/>
  <path class="cls-1" d="M55.99,59.27c3.55,.09,5.46,2.68,7.45,5.06,.27,.32-.03,1.56-.45,1.89-.42,.34-1.45,.31-1.98,.02-.8-.44-1.41-1.24-2.09-1.91-2.33-2.31-3.79-2.3-6.17,.08-.67,.67-1.27,1.48-2.07,1.93-.53,.3-1.55,.33-1.99,0-.42-.31-.69-1.37-.49-1.89,.91-2.41,5.29-5.22,7.78-5.18Z"/>
  <path class="cls-1" d="M161.07,33.4c1.01,0,2.09-.21,3.02,.07,.72,.22,1.26,1.05,1.88,1.61-.58,.54-1.12,1.5-1.75,1.55-2.14,.19-4.33,.19-6.47,0-.59-.06-1.1-1.06-1.64-1.63,.57-.53,1.07-1.35,1.74-1.52,1.01-.26,2.14-.07,3.22-.07h0Z"/>
  <path class="cls-1" d="M160.96,26.94c-1.01,0-2.1,.22-3.02-.07-.72-.23-1.23-1.09-1.84-1.67,.58-.52,1.13-1.43,1.75-1.49,2.15-.19,4.32-.17,6.47,0,.58,.05,1.59,1.01,1.52,1.4-.11,.67-.83,1.56-1.47,1.73-1.07,.28-2.28,.08-3.42,.08,0,0,0,.01,0,.02Z"/>
  <path class="cls-1" d="M161.03,13.86c1.08,0,2.21-.2,3.23,.07,.66,.17,1.15,1.02,1.71,1.56-.57,.55-1.1,1.53-1.71,1.58-2.14,.2-4.33,.19-6.47,0-.6-.05-1.12-1.03-1.68-1.58,.56-.54,1.04-1.38,1.7-1.56,1.01-.26,2.14-.07,3.23-.07h0Z"/>
  <path class="cls-1" d="M185.85,129.12c-2.75,25.84-14.89,45.87-37.09,59.67-1.25,.78-2.24,.59-3.38-.12-19.26-12-31.26-29.05-35.71-51.33-.54-2.72-.72-5.52-1.05-8.29-.16-1.33,.38-2.13,1.7-2.61,11.81-4.28,23.6-8.64,35.42-12.89,.87-.31,2.04-.28,2.92,.03,11.76,4.23,23.5,8.56,35.24,12.83,1.3,.47,2.16,1.15,1.95,2.71Zm-74.69,.48c.3,.3,.59,.6,.89,.9,.03,.34,.05,.68,.1,1.02,3.05,22.94,14.28,40.73,33.61,53.44,1.22,.8,2.05,.48,3.1-.21,19.28-12.69,30.31-30.54,33.39-53.37,.18-1.33-.09-2.03-1.5-2.54-10.75-3.86-21.45-7.83-32.19-11.73-.71-.26-1.66-.4-2.33-.15-11.06,3.99-22.09,8.04-33.13,12.08-.63,.23-1.28,.38-1.92,.57Z"/>
  <path class="cls-1" d="M147.2,157.58c2.08-2.97,4.02-5.74,5.95-8.51,1.63-2.34,3.27-4.69,4.87-7.05,.7-1.04,1.57-1.64,2.71-.84,1.07,.75,.77,1.72,.11,2.67-4,5.76-7.96,11.54-11.97,17.28-1.12,1.6-2.25,1.59-3.38-.02-4.02-5.74-7.99-11.51-11.99-17.27-.65-.94-.96-1.92,.12-2.68,1.16-.82,2.02-.16,2.72,.85,3.13,4.53,6.27,9.06,9.41,13.59,.41,.59,.86,1.17,1.45,1.97Z"/>
</svg>