<?xml version="1.0" encoding="utf-8"?>
<!-- Generator: Adobe Illustrator 27.0.0, SVG Export Plug-In . SVG Version: 6.00 Build 0)  -->
<svg version="1.1" id="Capa_1" xmlns="http://www.w3.org/2000/svg" xmlns:xlink="http://www.w3.org/1999/xlink" x="0px" y="0px"
	 viewBox="0 0 100 100" style="enable-background:new 0 0 100 100;" xml:space="preserve">
<style type="text/css">
	.st0{fill:#FFFFFF;}
	.st1{fill-rule:evenodd;clip-rule:evenodd;fill:#FFFFFF;}
</style>
<g>
	<g>
		<path class="st0" d="M30.3,50.79c-1.02,0-1.9,0-2.87,0c-0.02,0.4-0.05,0.76-0.05,1.13c0,6.99-0.01,13.98,0,20.97
			c0.02,8.74,5.85,15.64,14.46,17.08c0.84,0.14,1.7,0.17,2.55,0.17c3,0.02,6,0.02,9,0.01c0.66,0,1.34,0.06,1.34,0.88
			c0,0.76-0.65,0.84-1.28,0.83c-3.78-0.05-7.58,0.11-11.35-0.2c-8.57-0.71-15.95-8.38-16.31-16.98c-0.22-5.27-0.09-10.56-0.12-15.85
			c0-0.4,0-0.81,0-1.25c-0.69-0.19-1.32-0.31-1.92-0.53C16.97,54.62,13,49.85,12.09,42.67c-0.12-0.93-0.58-0.88-1.22-0.89
			c-3.44-0.07-5.82-1.91-6.45-4.98c-0.39-1.92,0.03-3.68,1.3-5.17c0.49-0.57,0.64-1.12,0.65-1.84c0.02-3.27-0.14-6.57,0.19-9.81
			C7.69,8.55,17.52-0.09,29.06,0C41.25,0.1,51.1,9.77,51.4,21.96c0.06,2.69,0,5.39,0.06,8.08c0.01,0.49,0.23,1.06,0.54,1.44
			c1.61,2.04,1.99,4.27,0.94,6.62c-1.05,2.35-2.97,3.57-5.56,3.68c-0.2,0.01-0.41,0.03-0.61,0c-0.77-0.11-1.05,0.18-1.13,0.99
			c-0.71,7.07-5.79,12.86-12.75,14.57c-0.67,0.16-0.93,0.4-0.93,1.14c0.04,4.87,0,9.74,0.02,14.61c0.03,7.01,5.47,12.44,12.48,12.47
			c2.9,0.01,5.8,0,8.7,0c0.24,0,0.53-0.08,0.7,0.02c0.33,0.21,0.59,0.53,0.89,0.81c-0.29,0.27-0.58,0.79-0.88,0.79
			c-3.95-0.01-7.95,0.27-11.85-0.23c-6.77-0.86-11.71-6.85-11.73-13.67c-0.02-7.02,0-14.04,0-21.06
			C30.3,51.79,30.3,51.35,30.3,50.79z M49.62,29.66c0.03-0.08,0.1-0.17,0.1-0.26c-0.05-3.2,0.14-6.43-0.21-9.6
			c-1.02-9.14-8.31-16.48-17.5-17.91c-9.01-1.4-18.06,3.48-22,11.73c-2.45,5.13-2.03,10.55-1.92,15.96c0,0.02,0.04,0.04,0.12,0.12
			c0.68-0.14,1.39-0.29,2.14-0.45c0.02-0.27,0.06-0.5,0.06-0.74c0.06-2.72,0.06-2.7,2.73-3.21c8.3-1.57,14.34-6.15,18.11-13.71
			c0.56-1.13,0.9-1.23,1.95-0.48c1.28,0.91,2.56,1.82,3.81,2.77c3.52,2.68,6.68,5.71,9,9.54c0.89,1.46,1.55,2.95,1.3,4.71
			c-0.05,0.36-0.01,0.73-0.01,1.1c0.77,0.18,1.43,0.33,2.09,0.47C49.47,29.7,49.54,29.67,49.62,29.66z M32.64,12.77
			c-0.21,0.35-0.36,0.57-0.49,0.81c-4.16,7.37-10.4,11.87-18.73,13.35c-1.18,0.21-1.4,0.62-1.36,1.68c0.07,2.18,0.02,2.18-2.16,2.47
			c-2.18,0.29-3.81,2.08-3.94,4.31c-0.12,2.09,1.4,4.13,3.5,4.56c0.89,0.18,1.83,0.15,2.74,0.17c1.26,0.03,1.43,0.16,1.46,1.4
			c0.08,2.61,0.8,5.05,2.17,7.27c0.66,1.08,1.52,2.04,2.29,3.06c0.08-0.05,0.16-0.1,0.23-0.15c-0.03-0.19-0.04-0.38-0.08-0.56
			c-0.75-3.22-1.51-6.44-2.26-9.66c-0.97-4.15,0.24-6.9,3.97-8.97c0.55-0.3,0.83-0.65,0.93-1.32c0.57-3.76,3.84-6.65,7.61-6.8
			c3.94-0.16,7.46,2.43,8.26,6.24c0.23,1.08,0.69,1.68,1.62,2.21c3.02,1.69,4.3,4.71,3.53,8.07c-0.57,2.49-1.17,4.98-1.75,7.47
			c-0.24,1.04-0.48,2.09-0.72,3.18c0.19-0.04,0.27-0.03,0.31-0.07c0.2-0.19,0.39-0.38,0.57-0.58c2.33-2.71,3.61-5.84,3.69-9.42
			c0.02-0.99,0.36-1.45,1.4-1.38c0.75,0.05,1.5,0.05,2.25-0.03c2.48-0.25,4.2-2.27,4.11-4.76C51.7,33,49.8,31.14,47.4,31.04
			c-1.74-0.07-1.71-0.1-1.77-1.83c-0.04-1.3,0.23-2.61-0.46-3.89C42.25,19.92,37.64,16.25,32.64,12.77z M32.04,56
			c1.5-0.62,2.83-1.18,4.16-1.72c0.72-0.3,1.08-0.81,1.26-1.59c0.91-3.99,1.88-7.96,2.78-11.95c0.17-0.75,0.25-1.56,0.16-2.32
			c-0.23-1.98-1.35-3.38-3.11-4.28c-1.1-0.57-1.95-1.13-2.11-2.65c-0.33-3.16-3.15-5.42-6.32-5.41c-3.14,0.02-5.93,2.32-6.28,5.49
			c-0.14,1.25-0.65,1.91-1.69,2.37c-0.25,0.11-0.48,0.26-0.72,0.4c-2.25,1.35-3.25,3.53-2.67,6.09c0.96,4.26,1.97,8.5,2.97,12.75
			c0.06,0.25,0.17,0.57,0.36,0.69c1.44,0.93,2.98,1.6,4.76,1.92c0-1.71,0-3.32,0-4.97c-0.2-0.02-0.33-0.05-0.46-0.05
			c-1.54-0.06-1.62-0.14-1.62-1.65c0-3.14,0-6.28,0-9.41c0-1.31,0.18-1.51,1.45-1.51c2.63-0.01,5.25-0.01,7.88-0.01
			c1.15,0,1.35,0.22,1.35,1.4c0,3,0.02,6,0,9.01c-0.01,1.98,0.29,2.16-1.99,2.22c-0.05,0-0.1,0.07-0.17,0.13
			C32.04,52.49,32.04,54.08,32.04,56z M32.47,49.07c0-3.13,0-6.11,0-9.19c-2.28,0-4.48-0.02-6.69,0.04
			c-0.2,0.01-0.56,0.51-0.57,0.79c-0.05,2.04-0.03,4.09-0.03,6.13c0,2.22,0,2.23,2.17,2.23C29.05,49.07,30.75,49.07,32.47,49.07z"/>
		<path class="st0" d="M82.62,46.4c0,2.71-0.02,5.29,0.04,7.87c0.01,0.23,0.53,0.54,0.87,0.67c4.66,1.73,9.33,3.46,14.02,5.13
			c0.93,0.33,1.28,0.83,1.25,1.79c-0.45,15.1-6.84,26.98-19.25,35.6c-1.28,0.89-2.66,1.66-4.06,2.36c-0.43,0.22-1.18,0.24-1.59,0.01
			c-12.7-6.87-20.36-17.39-22.76-31.66c-0.36-2.14-0.37-4.34-0.55-6.51c-0.07-0.79,0.24-1.24,1.02-1.52
			c7.46-2.71,14.91-5.46,22.38-8.15c0.46-0.17,1.08-0.11,1.56,0.05c1.74,0.57,3.45,1.24,5.28,1.91c0-2.55,0-4.96,0-7.56
			c-0.5,0-1.02,0-1.55,0c-2.07-0.01-2.07-0.01-2.07-2.13c0-0.89-0.07-1.78,0.02-2.66c0.08-0.84-0.29-1.2-1.01-1.51
			c-1.94-0.84-3.84-1.76-5.77-2.63c-2.8-1.27-4.25-3.47-4.26-6.53c-0.03-9.11-0.01-18.21,0-27.32c0-1.22,0.22-1.43,1.44-1.43
			c9.41,0,18.83,0,28.24,0c1.24,0,1.44,0.2,1.44,1.42c0,9.14,0.02,18.28-0.01,27.42c-0.01,2.94-1.39,5.07-4.05,6.33
			c-2.06,0.98-4.13,1.94-6.22,2.87c-0.55,0.25-0.76,0.55-0.74,1.15c0.04,1.26,0,2.52,0.02,3.79c0.01,0.86-0.39,1.25-1.25,1.23
			C84.31,46.38,83.56,46.4,82.62,46.4z M95.56,3.93c-9.24,0-18.39,0-27.58,0c0,4.2,0,8.33,0,12.44c0.15,0.03,0.21,0.06,0.28,0.06
			c0.31-0.01,0.61-0.03,0.92-0.05c5.23-0.31,9.69,1.38,13.46,5.03c3.34,3.23,7.39,4.45,11.98,4.1c0.77-0.06,1.02-0.33,1.01-1.12
			c-0.03-6.55-0.02-13.09-0.02-19.64C95.61,4.52,95.58,4.28,95.56,3.93z M67.98,18.21c-0.04,0.25-0.08,0.38-0.08,0.52
			c0,4.23-0.04,8.46,0.02,12.69c0.03,2.02,1.12,3.47,2.91,4.36c1.25,0.62,2.59,1.08,3.8,1.78c2.39,1.38,4.9,1.78,7.64,1.7
			c1.98-0.06,3.82-0.25,5.59-1.22c1.55-0.85,3.21-1.5,4.82-2.25c1.37-0.64,2.44-1.68,2.68-3.16c0.29-1.78,0.23-3.62,0.33-5.47
			c-0.42,0.02-0.59,0.02-0.76,0.04c-5.36,0.42-9.97-1.11-13.89-4.9C77.44,18.79,73.03,17.53,67.98,18.21z M52.24,63.64
			c0.17,1.38,0.29,2.78,0.52,4.15c2.23,13.4,9.32,23.41,21.08,30.16c0.6,0.35,1.08,0.36,1.69,0c13.51-7.89,20.75-19.59,21.54-35.24
			c0.04-0.8-0.25-1.11-0.97-1.37c-6.89-2.49-13.76-5.03-20.65-7.51c-0.46-0.17-1.08-0.16-1.54,0.01c-6.6,2.37-13.18,4.79-19.77,7.2
			C52.33,61.69,52.33,61.7,52.24,63.64z M78.98,40.95c0,1.29,0,2.47,0,3.65c1.9,0,3.72,0,5.53,0c0-1.26,0-2.43,0-3.65
			C82.64,40.95,80.85,40.95,78.98,40.95z"/>
		<path class="st0" d="M20.44,60.88c0,0.82-0.08,1.64,0.02,2.45c0.12,1.05-0.41,1.29-1.3,1.52c-3.06,0.77-6.17,1.45-9.12,2.55
			c-2.4,0.89-4.61,2.32-6.9,3.52c-0.21,0.11-0.4,0.37-0.6,0.37c-0.45,0-0.89-0.13-1.34-0.2c0.14-0.4,0.17-1.01,0.45-1.17
			c2.33-1.34,4.61-2.83,7.09-3.81c2.99-1.17,6.16-1.91,9.27-2.77c0.63-0.17,0.82-0.39,0.8-1.02c-0.05-1.46-0.01-2.93-0.02-4.4
			c0-0.58,0.16-1.05,0.83-1.05c0.67,0,0.84,0.47,0.83,1.05c0,0.99,0,1.98,0,2.96C20.45,60.88,20.44,60.88,20.44,60.88z"/>
		<path class="st0" d="M39.05,62.91c3.25,1,6.26,1.92,9.28,2.85c0.19,0.06,0.46,0.1,0.55,0.24c0.22,0.35,0.56,0.79,0.5,1.13
			c-0.1,0.57-0.59,0.57-1.14,0.4c-2.29-0.75-4.59-1.49-6.9-2.16c-1.01-0.29-2.06-0.41-3.1-0.6c-0.59-0.1-0.86-0.37-0.85-1.03
			c0.03-1.94,0-3.88-0.01-5.82c0-0.57,0.14-1.05,0.82-1.05c0.67,0.01,0.84,0.5,0.84,1.06C39.06,59.66,39.05,61.39,39.05,62.91z"/>
		<path class="st0" d="M28.99,29.7c1.78,0.04,2.74,1.35,3.73,2.53c0.14,0.16-0.01,0.78-0.22,0.95c-0.21,0.17-0.73,0.16-0.99,0.01
			c-0.4-0.22-0.71-0.62-1.05-0.96c-1.17-1.16-1.9-1.15-3.09,0.04c-0.34,0.34-0.64,0.74-1.04,0.97c-0.26,0.15-0.78,0.17-1,0
			c-0.21-0.16-0.34-0.68-0.24-0.95C25.55,31.09,27.74,29.68,28.99,29.7z"/>
		<path class="st0" d="M81.65,16.74c0.51,0,1.05-0.11,1.51,0.03c0.36,0.11,0.63,0.53,0.94,0.81c-0.29,0.27-0.56,0.75-0.88,0.78
			c-1.07,0.1-2.17,0.1-3.24,0c-0.3-0.03-0.55-0.53-0.82-0.82c0.29-0.26,0.54-0.68,0.87-0.76C80.54,16.65,81.11,16.75,81.65,16.74
			C81.65,16.74,81.65,16.74,81.65,16.74z"/>
		<path class="st0" d="M81.6,13.5c-0.51,0-1.05,0.11-1.51-0.04c-0.36-0.11-0.62-0.55-0.92-0.84c0.29-0.26,0.57-0.72,0.88-0.75
			c1.08-0.09,2.17-0.09,3.24,0c0.29,0.02,0.8,0.51,0.76,0.7c-0.06,0.33-0.42,0.78-0.74,0.87C82.77,13.59,82.17,13.49,81.6,13.5
			C81.6,13.49,81.6,13.5,81.6,13.5z"/>
		<path class="st0" d="M81.63,6.95c0.54,0,1.11-0.1,1.62,0.03c0.33,0.09,0.58,0.51,0.86,0.78c-0.29,0.28-0.55,0.76-0.86,0.79
			c-1.07,0.1-2.17,0.1-3.24,0c-0.3-0.03-0.56-0.52-0.84-0.79c0.28-0.27,0.52-0.69,0.85-0.78C80.52,6.85,81.09,6.95,81.63,6.95
			L81.63,6.95z"/>
		<path class="st0" d="M94.07,64.71c-1.38,12.95-7.46,22.99-18.59,29.9c-0.63,0.39-1.12,0.3-1.69-0.06
			C64.14,88.55,58.12,80,55.89,68.83c-0.27-1.36-0.36-2.77-0.53-4.15c-0.08-0.67,0.19-1.07,0.85-1.31
			c5.92-2.15,11.83-4.33,17.75-6.46c0.43-0.16,1.02-0.14,1.46,0.01c5.9,2.12,11.78,4.29,17.66,6.43
			C93.74,63.59,94.18,63.93,94.07,64.71z M56.64,64.96c0.15,0.15,0.3,0.3,0.44,0.45c0.02,0.17,0.03,0.34,0.05,0.51
			c1.53,11.5,7.16,20.41,16.84,26.78c0.61,0.4,1.03,0.24,1.56-0.1c9.66-6.36,15.19-15.3,16.73-26.75c0.09-0.67-0.04-1.02-0.75-1.28
			c-5.39-1.93-10.75-3.93-16.13-5.88c-0.36-0.13-0.83-0.2-1.17-0.08c-5.54,2-11.07,4.03-16.6,6.05
			C57.29,64.79,56.96,64.86,56.64,64.96z"/>
		<path class="st0" d="M74.7,78.98c1.04-1.49,2.02-2.87,2.98-4.26c0.82-1.17,1.64-2.35,2.44-3.53c0.35-0.52,0.79-0.82,1.36-0.42
			c0.54,0.38,0.39,0.86,0.06,1.34c-2,2.88-3.99,5.78-6,8.66c-0.56,0.8-1.13,0.8-1.69-0.01c-2.02-2.88-4.01-5.77-6.01-8.65
			c-0.33-0.47-0.48-0.96,0.06-1.34c0.58-0.41,1.01-0.08,1.36,0.42c1.57,2.27,3.14,4.54,4.72,6.81C74.18,78.28,74.4,78.57,74.7,78.98
			z"/>
	</g>
</g>
</svg>
