<?xml version="1.0" encoding="utf-8"?>
<!-- Generator: Adobe Illustrator 27.0.0, SVG Export Plug-In . SVG Version: 6.00 Build 0)  -->
<svg version="1.1" id="Capa_1" xmlns="http://www.w3.org/2000/svg" xmlns:xlink="http://www.w3.org/1999/xlink" x="0px" y="0px"
	 viewBox="0 0 100 100" style="enable-background:new 0 0 100 100;" xml:space="preserve">
<style type="text/css">
	.st0{fill:#FFFFFF;}
	.st1{fill-rule:evenodd;clip-rule:evenodd;fill:#FFFFFF;}
</style>
<path class="st0" d="M39.49,40.35c-2.01-3.12-2.4-4.08-2.84-6.88c-0.45-0.03-0.91-0.04-1.36-0.09c-2.98-0.32-5.22-3.22-4.81-6.2
	c0.18-1.28,0.71-2.37,1.6-3.3c0.11-0.11,0.2-0.32,0.2-0.48c0.01-1.81,0-3.62,0.01-5.43c0.02-3.77,1.11-7.52,3.35-10.56
	c3-4.06,6.95-6.56,11.85-7.24c5.07-0.71,10.31,0.86,14.18,4.21c3.26,2.82,5.17,6.41,5.83,10.64c0.13,0.85,0.19,1.72,0.2,2.58
	c0.03,1.94,0.01,3.87,0,5.81c0,0.18,0.07,0.35,0.2,0.47c1.56,1.63,2.06,3.55,1.37,5.69c-0.68,2.11-2.2,3.37-4.38,3.78
	c-0.5,0.1-1.02,0.08-1.56,0.12c-0.3,2.53-1.24,4.83-2.84,6.86c0.51,0.31,1.01,0.6,1.49,0.92c3.38,2.24,5.73,5.28,7.04,9.11
	c0.08,0.24,0.27,0.43,0.51,0.51c1.46,0.46,2.96,0.83,4.35,1.44c5.01,2.22,8,6.08,8.99,11.48c0.15,0.81,0.19,1.63,0.19,2.45
	c0.01,10.05,0.01,20.11,0.01,30.16c0,1.99-1.61,3.6-3.6,3.6c-19.65,0-39.3,0-58.94,0c-1.99,0-3.6-1.61-3.6-3.6
	c0-10.11,0-20.22,0-30.33c0-6.58,4.3-12.4,10.59-14.3c1.01-0.31,2.03-0.62,3.04-0.94c0.15-0.05,0.31-0.21,0.36-0.36
	c1.53-4.43,4.34-7.77,8.45-10.03C39.4,40.42,39.44,40.39,39.49,40.35z M30.21,53.41c-0.65,0.2-1.26,0.39-1.87,0.57
	c-5.38,1.65-9.05,6.62-9.05,12.24c0,6.27,0,12.54,0,18.81c0,3.78,0,7.57,0,11.35c0,1.18,1.11,1.7,2.61,0.79
	c7.66-4.65,17.03-4.83,24.44,0.22c0.45,0.31,0.54,0.25,0.84,0.22c-0.07-0.1-0.11-0.18-0.16-0.25c-1.48-2.17-2.95-4.34-4.43-6.51
	c-0.23-0.33-0.31-0.74-0.24-1.14c0.14-0.77,0.25-1.54,0.37-2.3c0.41-2.62,0.81-5.24,1.22-7.87c0.36-2.32,0.72-4.64,1.08-6.96
	c0.41-2.64,0.82-5.29,1.22-7.93c0.06-0.36,0.02-0.95-0.1-1.3c-0.23-0.67-0.5-1.33-0.75-1.99c-0.03-0.08-0.08-0.16-0.13-0.27
	c-0.71,0.49-1.38,0.96-2.06,1.42c-0.62,0.42-1.42,0.24-1.8-0.4c-0.97-1.64-1.82-3.36-3.1-4.83c-1.3-1.49-1.88-3.36-2.64-5.19
	c-0.08-0.2-0.3-0.3-0.5-0.23c-0.71,0.24-1.42,0.45-2.14,0.66c-0.17,0.05-0.28,0.19-0.3,0.36c-0.1,0.87-0.28,1.73-0.3,2.59
	c-0.05,2.06-0.02,4.11-0.02,6.17c0,0.05,0.01,0.11,0.02,0.16c0.04,0.01,0.07,0.02,0.11,0.03c1.75,0.5,3.21,1.71,3.74,3.45
	c0.19,0.63,0.38,1.26,0.56,1.88c0.68,2.32,1.37,4.64,2.04,6.97c0.25,0.89,0.36,1.81,0.09,2.72c-0.59,2.02-2.47,2.69-4.16,2.51
	c-0.62-0.06-1-0.64-0.94-1.26c0.05-0.6,0.54-1.03,1.18-1.06c0.23-0.01,0.46-0.02,0.68-0.06c0.69-0.11,1.03-0.52,1.02-1.22
	c-0.01-0.27-0.03-0.55-0.11-0.81c-0.87-3-1.73-5.99-2.63-8.98c-0.37-1.25-1.45-1.97-2.8-1.95c-1.37,0.02-2.41,0.74-2.78,1.98
	c-0.79,2.63-1.59,5.27-2.35,7.91c-0.18,0.63-0.3,1.3-0.35,1.96c-0.05,0.56,0.28,0.93,0.82,1.06c0.28,0.07,0.58,0.1,0.87,0.11
	c0.67,0.03,1.17,0.51,1.18,1.16c0.01,0.67-0.49,1.19-1.17,1.2c-0.28,0-0.57-0.03-0.85-0.05c-1.57-0.15-2.8-1.2-3.14-2.69
	c-0.21-0.96-0.05-1.9,0.22-2.82c0.84-2.9,1.7-5.8,2.58-8.69c0.37-1.22,1.14-2.16,2.27-2.78c0.48-0.26,1.02-0.43,1.53-0.64
	C30.13,59.02,29.9,56.24,30.21,53.41z M52.79,97.64c0.18,0,0.29,0,0.39,0c8.74,0,17.48,0,26.22,0c0.72,0,1.31-0.59,1.31-1.31
	c0-9.97,0-19.94-0.01-29.91c0-0.64-0.03-1.29-0.12-1.93c-0.45-3.33-2.01-6.06-4.58-8.21c-1.8-1.5-3.94-2.26-6.16-2.85
	c-0.03,0.02-0.04,0.03-0.06,0.05c0.28,2.21,0.14,4.43,0.16,6.65c0.02,2.23,0,4.46,0,6.67c2.77,0.69,4.37,3.15,4.11,5.67
	c-0.31,3.03-2.94,5.19-6,4.78c-2.33-0.31-4.24-2.26-4.56-4.59c-0.16-1.14,0.06-2.23,0.63-3.25c0.76-1.37,1.94-2.22,3.47-2.62
	c0,0,0,0,0,0c0-3.62,0.03-7.25-0.02-10.87c-0.01-1.03-0.21-2.06-0.31-3.09c-0.02-0.2-0.13-0.27-0.3-0.32
	c-0.71-0.21-1.42-0.43-2.13-0.66c-0.19-0.06-0.39,0.01-0.49,0.19c-0.83,1.48-1.68,2.94-2.52,4.41c-1.08,1.88-2.15,3.76-3.23,5.63
	c-0.43,0.74-1.14,0.88-1.84,0.4c-0.18-0.12-0.36-0.25-0.54-0.37c-0.49-0.34-0.98-0.68-1.5-1.03c-0.06,0.14-0.1,0.23-0.14,0.33
	c-0.28,0.73-0.56,1.46-0.82,2.2c-0.07,0.21-0.09,0.43-0.06,0.64c0.22,1.48,0.46,2.96,0.68,4.43c0.36,2.34,0.72,4.68,1.08,7.02
	c0.38,2.48,0.77,4.96,1.15,7.44c0.34,2.17,0.66,4.34,1.01,6.51c0.07,0.44-0.03,0.89-0.29,1.26c-0.83,1.2-1.65,2.42-2.48,3.63
	C54.2,95.58,53.52,96.58,52.79,97.64z M38.93,22.09C38.93,22.09,38.93,22.09,38.93,22.09c0,3.22-0.02,6.43,0.01,9.65
	c0.01,0.78,0.07,1.58,0.22,2.34c1.3,6.55,7.96,10.46,14.29,8.39c4.64-1.52,8.32-6.21,7.5-12.36c-0.37-2.74-0.93-5.65,0.06-8.23
	c0.1-0.25,0.04-0.52-0.12-0.7c-0.88-1-1.77-1.98-2.65-2.97c-0.36-0.4-0.71-0.79-1.07-1.2c-0.05,0.04-0.09,0.06-0.13,0.09
	c-1.04,0.73-2.08,1.46-3.23,2c-3.9,1.82-8.05,2.54-12.28,2.86C40.68,22.01,39.83,22.04,38.93,22.09z M65.35,22.37
	c0-0.11,0-0.21,0-0.32c0-1.42,0-2.84,0-4.27c0-2.77-0.68-5.37-2.06-7.8c-3.07-5.38-9.31-8.41-15.44-7.51
	c-3.64,0.53-6.71,2.21-9.2,4.97c-2.54,2.82-3.88,6.56-3.99,10.35c-0.04,1.49-0.01,2.99-0.02,4.49c0,0.04,0.02,0.08,0.03,0.09
	c0.64-0.05,1.25-0.09,1.91-0.14c0-0.45-0.02-0.89,0-1.34c0.04-0.75,0.5-1.15,1.25-1.18c1.66-0.07,3.32-0.11,4.97-0.25
	c2.62-0.22,5.19-0.72,7.68-1.57c2.05-0.7,3.98-1.62,5.6-3.1c0.69-0.62,1.75-0.57,2.37,0.12c1.46,1.63,2.9,3.27,4.38,4.88
	c0.41,0.44,0.62,0.91,0.57,1.5c-0.02,0.32,0,0.64,0,0.94C64.09,22.28,64.7,22.33,65.35,22.37z M48.57,65
	c-0.05,0.31-0.1,0.6-0.15,0.89c-0.42,2.75-0.84,5.5-1.27,8.25c-0.41,2.62-0.82,5.24-1.23,7.86c-0.39,2.51-0.78,5.03-1.16,7.54
	c-0.02,0.16,0.01,0.32,0.1,0.45c1.64,2.43,3.29,4.85,4.94,7.27c0.06,0.08,0.12,0.16,0.2,0.27c1.75-2.57,3.47-5.09,5.18-7.61
	c0.06-0.08,0.08-0.18,0.06-0.28c-0.11-0.75-0.23-1.51-0.35-2.26c-0.36-2.34-0.73-4.68-1.09-7.02c-0.34-2.2-0.68-4.4-1.02-6.6
	c-0.45-2.92-0.9-5.84-1.35-8.76c0,0,0,0-0.01,0H48.57z M55.84,44.06c-3.91,1.77-7.79,1.76-11.69,0c0,1.15,0.01,2.26-0.01,3.38
	c0,0.23,0.08,0.45,0.23,0.62c1.86,2.14,3.7,4.29,5.56,6.44c0.04,0,0.06,0.01,0.1,0.01c0.17-0.12-0.27,0.2,2.28-3.86
	c0.78-1.24,2.18-1.78,3.34-2.67c0.11-0.08,0.17-0.27,0.18-0.43c0.01-0.61,0.01-1.22,0.01-1.84C55.84,45.18,55.84,44.64,55.84,44.06z
	 M37.79,51.07l5.06,8.83l5.39-3.73c-0.1-0.13-0.12-0.16-0.23-0.26c-1.55-1.33-2.96-2.83-4.06-4.55c-0.92-1.44-1.27-1.88-2.28-1.51
	C40.41,50.3,39.12,50.65,37.79,51.07z M62.2,51.08c-0.2-0.08-0.19-0.1-0.51-0.11c-1.36-0.04-2.67-0.47-3.82-1.2
	c-0.42-0.27-0.5-0.13-0.63,0.03c-1.56,1.81-3.13,3.62-4.69,5.43c-0.26,0.3-0.52,0.61-0.79,0.93c1.81,1.25,3.59,2.48,5.39,3.73
	C58.84,56.95,60.51,54.02,62.2,51.08z M33.69,49.86c2.75-0.85,5.42-1.68,8.11-2.51c0-1.55,0-3.08,0-4.61c0-0.39-0.42-0.67-0.78-0.5
	c-2.01,0.97-3.71,2.32-5.13,4.04C35,47.35,34.28,48.51,33.69,49.86z M58.2,47.36c2.69,0.83,5.37,1.66,8.06,2.49
	c0-0.07,0-0.08,0-0.09c-1.55-3.39-4-5.91-7.35-7.54c-0.07-0.03-0.19-0.05-0.24-0.01c-0.26,0.2-0.53,0.36-0.49,0.8
	c0.06,0.66,0.02,1.33,0.02,2C58.2,45.79,58.2,46.56,58.2,47.36z M68.89,69.06c-1.52-0.1-2.94,1.16-3.06,2.72
	c-0.13,1.66,1.12,3.08,2.82,3.19c1.53,0.1,2.94-1.12,3.08-2.65C71.87,70.6,70.63,69.18,68.89,69.06z M63.33,24.67
	c0.08,3.7,0.06,2.7,0.13,6.41c1.55,0.1,2.77-0.45,3.48-1.96c0.39-0.82,0.37-1.82-0.05-2.63C66.13,25.01,64.89,24.47,63.33,24.67z
	 M37.2,24.75c-1.68-0.35-3,0.03-3.87,1.34c-0.72,1.09-0.69,2.58,0.09,3.64c0.85,1.15,2.05,1.5,3.5,1.29
	C37.07,27.56,37.04,28.22,37.2,24.75z M49.98,62.63c0.47,0,0.94,0.01,1.41-0.01c0.11-0.01,0.26-0.11,0.3-0.21
	c0.33-0.83,0.63-1.67,0.95-2.51c0.05-0.12,0-0.25-0.1-0.33c-0.8-0.54-1.58-1.1-2.38-1.63c-0.09-0.06-0.24-0.06-0.34,0
	c-0.8,0.54-1.59,1.08-2.37,1.64c-0.09,0.06-0.13,0.2-0.1,0.31c0.3,0.84,0.61,1.68,0.94,2.52c0.04,0.1,0.2,0.2,0.3,0.21
	C49.07,62.64,49.53,62.63,49.98,62.63z"/>
</svg>
