<?xml version="1.0" encoding="utf-8"?>
<!-- Generator: Adobe Illustrator 27.0.0, SVG Export Plug-In . SVG Version: 6.00 Build 0)  -->
<svg version="1.1" id="Capa_1" xmlns="http://www.w3.org/2000/svg" xmlns:xlink="http://www.w3.org/1999/xlink" x="0px" y="0px"
	 viewBox="0 0 100 100" style="enable-background:new 0 0 100 100;" xml:space="preserve">
<style type="text/css">
	.st0{fill:#196480;}
	.st1{fill-rule:evenodd;clip-rule:evenodd;fill:#196480;}
</style>
<g>
	<g>
		<path class="st0" d="M34.68,44.22c-1.14,2.03-1.05,3.45,1.11,5.09c4.63,3.52,6.24,9.75,4.44,15.13
			c-1.82,5.45-7.49,9.81-13.27,10.2C16.61,75.36,8.19,70.44,3.81,60.37c-5.59-12.86-5.05-25.75,1.76-38.03
			c4.48-8.08,11.48-12.47,21.07-11.89c6.17,0.37,11.9,4.76,13.68,10.54c1.79,5.82-0.15,11.67-5.48,15.57
			c-1.62,1.19-0.85,2.34-0.49,3.42c0.17,0.51,1.28,0.99,1.98,1.01c6.98,0.21,11.52,4.8,11.53,11.81c0.01,11.36,0,22.72,0,34.08
			c0,0.52,0.16,1.15-0.08,1.52c-0.35,0.54-1,1.22-1.51,1.21c-0.49,0-1.12-0.73-1.4-1.29c-0.24-0.47-0.07-1.16-0.07-1.75
			c0-11.06,0-22.13,0-33.19C44.79,46.99,41.05,43.6,34.68,44.22z M23,71.63c7.94,0.03,12.82-3.38,14.4-8.77
			c1.56-5.36-1.47-10.84-6.23-13.02c-1.49-0.68-1.22-1.77-0.68-2.96c1.28-2.84,1.34-5.74,0.03-8.55c-0.75-1.61-0.44-2.49,1.1-3.38
			c4.63-2.65,6.91-6.89,6.06-11.53c-0.91-4.97-4.09-8.06-8.86-9.45c-6.57-1.91-14.13,1.05-18.85,7.26C1.86,31.92,1,50.63,8.15,62.04
			C11.98,68.16,17.48,71.49,23,71.63z"/>
		<path class="st0" d="M65.68,44.25c-6.42-0.66-10.26,2.71-10.27,8.91c-0.01,11.07,0,22.14,0,33.22c0,0.66,0.17,1.41-0.08,1.97
			c-0.25,0.56-0.93,1.27-1.42,1.27c-0.51,0-1.18-0.69-1.48-1.24c-0.25-0.46-0.08-1.15-0.08-1.74c0-11.15,0.19-22.3-0.07-33.44
			c-0.17-7.45,5.76-12.79,12.11-12.17c0.36,0.04,0.73-0.04,1.09-0.06c1.08-2.04,1.16-3.49-1.04-5.14
			c-4.58-3.44-6.22-9.56-4.53-14.92c1.74-5.53,7.28-9.94,13.09-10.42c8.56-0.72,15.26,2.64,20.15,9.54
			c5.56,7.85,7.31,16.79,6.72,26.23c-0.48,7.74-2.65,14.92-7.82,20.94c-5.52,6.44-14.99,9.25-22.43,6.64
			c-5.42-1.9-9.09-5.6-10.1-11.29c-1.03-5.78,1.01-10.63,5.87-14.07C67.49,47,65.62,45.64,65.68,44.25z M77.09,71.63
			c6.15-0.19,12.1-3.8,15.55-10.73c6.37-12.79,5.93-25.64-1.31-37.96c-3.71-6.32-9.47-9.73-17.08-9.45
			c-5.37,0.2-10.17,3.92-11.53,9.02c-1.27,4.79,0.92,9.6,5.82,12.41c1.51,0.87,1.93,1.73,1.16,3.37c-1.33,2.81-1.31,5.73,0.01,8.54
			c0.77,1.63,0.35,2.5-1.2,3.34c-3.58,1.96-5.86,4.96-6.05,9.15C62.15,66.35,67.79,71.66,77.09,71.63z"/>
		<path class="st0" d="M90.57,33.39c-0.2,0.26-0.6,1.18-1.05,1.21c-0.61,0.04-1.41-0.48-1.86-1c-0.4-0.45-0.42-1.22-0.65-1.84
			c-1.82-4.95-4.89-8.62-10.1-10.29c-0.62-0.2-0.99-1.17-1.47-1.79c0.77-0.38,1.6-1.18,2.29-1.08C83.26,19.42,90.4,27.5,90.57,33.39
			z"/>
	</g>
</g>
</svg>
