<?xml version="1.0" encoding="UTF-8"?>
<svg id="Capa_1" data-name="Capa 1" xmlns="http://www.w3.org/2000/svg" viewBox="0 0 200 200">
  <defs>
    <style>
      .cls-1 {
        fill: #4b6b7a;
      }
    </style>
  </defs>
  <path class="cls-1" d="M95.97,86.45c-.03-15.7-6.84-23.25-22.51-25.29-3.63-.47-6.09-3.49-5.11-6.34,.57-1.67,2.15-2.45,3.39-3.52,13.57-11.63,14.09-29.83,1.35-42.34-4.25-4.17-9.66-6.08-14.88-8.44h-16.9c-13.15,1.59-22.38,9.04-28.99,19.98C5.87,31.17,1.06,42.48,.55,55.2v19.88c1.34,5.21,2.48,10.49,4.07,15.63,7.48,24.21,21.86,36.46,44.1,37.78,13.54,.8,26.25-6.68,31.3-18.48,4.34-10.13,2.51-24.77-8.73-32.94-.78-.57-1.39-1.4-1.97-2.2-1.3-1.81-1.13-3.74-.2-5.65,.95-1.96,2.81-1.44,4.37-1.39,4.62,.14,8.82,1.47,11.93,5.13,3.44,4.04,3.99,8.91,3.99,13.98-.03,36.12,0,72.24-.06,108.36,0,2.71,.23,4.2,3.65,4.18,3.58-.02,3-2.07,3-4.17,0-36.29,.04-72.57-.02-108.86Zm-20.7,15.17c-1.2,9.71-7.25,15.65-16.36,18.56-15.46,4.94-30.39-.55-40.21-14.72-8.32-12-11.16-25.57-11.35-40.44,.42-15.51,3.89-30.62,13.92-43.6C30.98,8.85,46.7,3.67,59.98,8.53c9.28,3.39,14.63,9.99,15.52,19.87,.8,8.87-3.46,15.31-10.74,19.72-3.95,2.39-5.39,4.86-3.2,9.26,2.44,4.91,1.9,10.01-.31,14.87-1.58,3.47-1.1,5.59,2.52,7.58,8.48,4.66,12.7,12.07,11.5,21.79Z"/>
  <path class="cls-1" d="M199.43,60.86c-.42-28.82-14.53-49.95-40.82-60.34h-16.9c-1.08,1.48-2.92,1.32-4.38,1.96-23.5,10.25-24.11,37.38-8.69,48.74,.66,.49,1.23,1.1,1.81,1.68,1.88,1.91,1.74,4.2,1.01,6.48-.77,2.38-2.87,1.74-4.6,1.77-11.34,.24-19.91,7.79-22.03,19.03-1.16,6.14-.04,12.21-.06,18.31-.09,32.29-.04,64.58-.06,96.87,0,2.23-.29,4.08,3.13,4.1,3.52,.02,3.06-1.97,3.06-4.12-.02-13.58,0-27.16,0-40.74,0-22.85-.04-45.71,.02-68.56,.03-11.18,5.46-17.38,15.43-18.11,2.47-.18,4.48-.35,5.48,2.68,.89,2.68,.15,4.31-2,5.91-10.11,7.55-13.52,17.67-10.52,29.75,3.04,12.25,11.73,18.81,23.57,21.43,17.37,3.84,35.22-4.39,45.77-20.75,9.08-14.09,11.03-29.76,10.79-46.1Zm-16.57,42.89c-9.38,16.36-28.07,22.6-44.38,15.14-8.24-3.77-13.07-10.15-13.52-19.2-.43-8.5,3.51-15.1,10.85-19.25,3.98-2.25,4.97-4.66,3.12-8.84-2.17-4.9-1.98-10.01,.18-14.94,1.51-3.44,.77-5.73-2.5-7.9-10.33-6.84-13.87-15.47-10.79-25.18,3.26-10.25,13.46-17.26,24.86-16.87,12.38,.42,22.38,5.49,29.34,15.87,8.57,12.8,13.18,26.92,13.44,40.71-.01,15.57-3.75,28.49-10.61,40.45Z"/>
  <path class="cls-1" d="M157.58,17.15c-2.8-.92-5.63-.56-6.46,1.7-.86,2.36,1.94,3.71,4.14,4.53,9.37,3.51,14.77,10.66,18.13,19.69,.4,1.08,.55,2.29,1.13,3.24,.88,1.45,2.3,2.69,4.06,2.05,1.67-.61,2.34-2.21,2-4.07-.29-9.26-12.78-23.8-23-27.15Z"/>
</svg>