<?xml version="1.0" encoding="UTF-8"?>
<svg id="Capa_1" data-name="Capa 1" xmlns="http://www.w3.org/2000/svg" viewBox="0 0 200.29 200">
  <defs>
    <style>
      .cls-1 {
        fill: #fff;
      }
    </style>
  </defs>
  <path class="cls-1" d="M199.28,31.85C193.88,9.73,173.2-3.5,150.78,.81c-18.2,3.5-32.44,20.76-32.54,39.29-.03,6.06,1,11.86,3.46,17.4,.26,.59,.52,1.04-.37,1.51-5.69,2.99-8.72,8.01-10.09,14.07-1.48,6.55-1.66,13.26-1.94,19.94-.1,2.44-.02,4.89-.02,7.5-3.66-1.28-5.85-4.17-5.9-7.67-.08-5.92-.02-11.84-.01-17.76-1.12-.64-2.38-.16-3.58-.47-2.3-.59-3.14,.13-3.17,2.52-.05,4.73-.13,9.47,.02,14.2,.27,8.47,4.6,13.98,12.4,16.03,.96,.24,1.95,.09,2.91,.29,1.36,.28,2.26,1.03,2.21,2.53-.06,1.54-1.03,2.1-2.46,2.19-2,.13-3.86-.47-5.74-.95-4.08-1.18-7.18-3.79-9.99-6.85-1.51-1.65-1.57-1.65-3.11,.02-2.81,3.05-5.9,5.67-9.99,6.83-1.83,.44-3.62,1.06-5.54,.94-1.76-.11-2.6-.81-2.63-2.22-.03-1.35,.86-2.29,2.45-2.52,.96-.14,1.95-.05,2.9-.28,5.42-1.29,9.1-4.6,11.08-9.76,.99-2.58,1.16-5.32,1.16-8.07,0-22.51,0-45.02,0-67.53,0-.78-.01-1.56,.04-2.34,.06-.83,.44-1.27,1.3-1.41,2.17-.37,2.9,.17,2.9,2.37,.02,10.6,0,21.21,.01,31.81,0,.98,.06,1.95,.01,2.93-.09,1.98,1.7,3.44,3.71,2.12,.52-.02,1.05-.12,1.55-.05,1.25,.17,1.51-.39,1.51-1.55-.04-14.25-.04-28.5,0-42.75,0-1.13-.34-1.41-1.43-1.4-4.88,.05-9.76,.09-14.64-.02-1.53-.03-1.79,.45-1.78,1.85,.05,13.34,.03,26.68,.03,40.02,0,12.82-.02,25.64,.01,38.46,0,3.42-1.41,5.98-4.2,7.86-.98,.66-1.52,.81-1.57-.76-.13-4.48-.3-8.97-.63-13.45-.35-4.78-.44-9.63-1.95-14.24-2.33-7.16-6.5-12.63-14.4-13.95-9.25-1.56-17.45,1.17-24.73,6.87-7.85,6.14-13.3,14.2-17.67,22.98C9.33,109.53,4.14,133.36,1.11,157.78c-.12,.97,.14,1.48,1.16,1.5,.52,.01,1.03,.1,1.55,.15,.26-.01,.55-.11,.77-.03,2.19,.77,2.5-.48,2.68-2.24,1.35-13.13,3.97-26.03,7.56-38.71,3.62-12.82,8.2-25.26,15.49-36.54,3.41-5.28,7.38-10.08,12.54-13.76,6.15-4.39,12.9-6.26,20.42-4.49,.37,.09,.71,.3,1.06,.46h0c4.84,2.16,6.9,6.44,7.71,11.19,1.35,7.94,1.72,15.99,1.72,24.29-1.94-.68-3.73-1.32-5.53-1.95-3.81-.76-7.56-1.8-11.45-2.13-6.05-.52-12.06-.62-17.95,1.28-1.3,.42-1.44,.86-.86,1.99,.62,1.2,.73,2.96,1.67,3.62,.98,.68,2.48-.5,3.79-.74,2.82-.52,5.66-.56,8.76-.5-1.24,2.41-2.34,4.67-3.57,6.86-.5,.9-.39,1.27,.51,1.78,4.04,2.29,4.02,2.32,6.14-1.73,.84-1.61,1.77-3.18,2.48-4.85,.55-1.29,1.37-1.54,2.59-1.24,1.2,.3,2.4,.56,3.6,.84h0s0,0,0,0h0c1.92,.51,3.83,1.03,5.94,1.6-2.14,3.35-2.54,6.69-.59,10.11,.37,.65-.23,.78-.57,.97-1.45,.82-2.92,1.6-4.39,2.4-3.1,2.26-6.17,4.57-8.79,7.4-.97,1.05-2.24,.98-3.4,1.2-5.92,1.14-11.86,2.17-17.79,3.22-.89,.16-1.49,.37-1.08,1.49,.26,.72,.45,1.52,.44,2.28-.04,2.38,1.24,2.24,2.99,1.87,3.8-.81,7.63-1.44,11.76-2.21-.97,1.32-1.78,2.39-2.56,3.48-7.92,11.12-13.88,23.21-18.15,36.17-.46,1.38-.16,1.84,1.19,2.22,3.94,1.13,3.94,1.2,5.22-2.62,1.96-5.84,4.42-11.47,7.38-17.25,1.32,2.37,2.52,4.56,3.74,6.74,1.39,2.49,2.82,4.96,4.15,7.48,.44,.84,.78,.9,1.6,.48,4.24-2.2,4.25-2.17,1.89-6.4-2.46-4.42-4.9-8.84-7.38-13.25-.4-.72-.6-1.28-.1-2.11,5.49-8.98,11.67-17.37,20.15-23.8,.82-.62,1.73-1.11,2.6-1.67h0s0,0,0,0c1.32-1.06,2.88-1.67,4.38-2.41,1.07-.53,1.33-.24,1.34,.87,.07,8.25,.22,16.5-.05,24.75-.25,7.72-.62,15.43-2.15,23.03-.95,4.71-2.23,9.32-4.88,13.4-2.46,3.78-5.68,6.53-10.35,7.14-1.11,.45-2.29,.53-3.46,.42-8.62-.85-16.91,1.04-25.21,2.92-3.42,.77-6.86,1.48-10.39,1.38-4.31-.12-7.37-2.09-9.03-6.17-1.57-3.85-1.95-7.92-2.21-11.99-.19-2.98-.24-5.99,.17-8.96,.2-1.41-.26-1.87-1.63-1.79-.96,.06-1.95,.1-2.88-.31-1.06-.14-1.48,.31-1.52,1.4-.18,6.5-.4,13.01,1.11,19.4,1.4,5.92,4.04,10.96,10.17,13.29,1.01,.38,2.05,.67,3.07,1.01h7.42c2.82-.39,5.68-.43,8.45-1.16,7.67-2.03,15.44-2.91,23.38-2.62,4.63,.17,8.83-1.4,12.57-4.13,4.56-3.32,7.17-8.03,9.06-13.15,3.97-10.73,4.43-22.02,4.84-33.27,.29-8.06,.08-16.14,.04-24.21,0-1.52,.41-2.42,2.05-2.73,3.84-.73,7.28-2.44,10.38-4.76,1.06-.8,1.86-.82,2.94-.02,3.06,2.28,6.42,4.02,10.19,4.73,1.8,.34,2.3,1.28,2.27,2.97-.07,4.82,.03,9.63-.03,14.45-.12,9.77,.24,19.52,1.61,29.2,.91,6.4,2.36,12.67,5.44,18.45,4.41,8.27,11.17,12.59,20.66,12.53,3.38-.02,6.76-.21,10.14,.21,6.65,.81,13.05,2.98,19.74,3.51h8.2c6.56-.59,10.29-4.62,12.6-10.37,.76-1.88,1.23-3.84,1.57-5.83,1.51-8.95,.87-17.9-.13-26.82-1.41-12.56-3.72-24.96-7.08-37.16-3.03-11-6.56-21.81-11.87-31.96-.72-1.38-1.32-2.84-2.14-4.17-.81-1.32-.38-1.89,1.01-2.07,.32-.04,.64-.14,.95-.22,12.4-3.14,21.44-10.51,27.39-21.76,2.37-4.48,3.63-9.27,3.86-14.34v-8.59c-.33-1.62-.62-3.26-1.01-4.87Zm-26.35,82.95c4.06,13.24,6.84,26.76,8.51,40.49,.97,8,1.83,16.04,.9,24.13-.24,2.13-.57,4.24-1.16,6.3-1.92,6.66-5.99,9.2-12.89,8.31-6.13-.79-12.06-2.5-18.14-3.52-3.8-.64-7.59-1.01-11.45-.75-2.13,.14-4.29,.39-6.39-.35-4.27-.56-7.38-2.94-9.79-6.35-3.45-4.88-4.88-10.53-5.81-16.3-2.45-15.15-1.93-30.42-1.82-45.67,0-1.1,.26-1.4,1.34-.88,1.5,.73,3.07,1.33,4.38,2.41,5.44,3.14,9.64,7.66,13.61,12.4,3.3,3.94,6.15,8.2,8.87,12.56,.69,1.1,.64,1.89,.03,2.97-2.91,5.13-5.71,10.32-8.64,15.44-.65,1.14-.65,1.68,.61,2.34,3.77,2,3.73,2.05,5.81-1.71,2.07-3.73,4.15-7.46,6.37-11.45,2.98,5.66,5.36,11.27,7.35,17.05,.44,1.28,.59,3.17,1.47,3.64,.87,.46,2.49-.62,3.81-.86,1.46-.27,1.6-.89,1.16-2.22-4.51-13.71-10.91-26.45-19.53-38.06-.33-.45-.82-.82-.89-1.55,4.05,.76,8.07,1.48,12.06,2.28,1.42,.28,2.15,.23,2.38-1.59,.5-3.94,.64-3.9-3.29-4.61-5.61-1.01-11.22-2.08-16.83-3.09-.62-.11-1.1-.35-1.52-.78-2.72-2.81-5.78-5.22-8.95-7.5h0c-.23-.11-.46-.22-.68-.34-1.35-.75-3.06-1.21-3.94-2.33-.91-1.15,.7-2.53,.85-3.94,.25-2.45-.36-4.58-1.7-6.7,1.94-.82,3.89-1.34,5.87-1.76q5.25-1.34,7.78,3.51c.78,1.49,1.63,2.95,2.34,4.48,.44,.96,.88,.98,1.77,.53,4.11-2.05,4.12-2.02,2-6.07-.68-1.31-1.35-2.62-2.1-4.07,3.8-.2,7.36-.12,10.77,1.06,1.54,.53,2.23,.2,2.54-1.34,.11-.56,.37-1.12,.68-1.6,1.12-1.76,.26-2.35-1.4-2.79-6.67-1.78-13.38-1.63-20.11-.61-2.87,.44-5.7,1.14-8.55,1.73-1.76,.63-3.51,1.25-5.47,1.95,0-1.86-.08-3.58,.01-5.29,.36-6.81,.45-13.66,1.98-20.34,.85-3.72,2.66-6.97,6.37-9.42,0,3.5,0,6.65,0,9.79q0,2.46,2.54,2.46c.98,0,1.95,.05,2.93,0,5.81-.34,11.4,.09,16.77,2.84,3.46,1.77,7.46,2.15,11.36,2.34,1.11,.05,1.78,.37,2.29,1.36,.79,1.55,1.7,3.04,2.56,4.56,4.81,8.5,8.13,17.62,10.98,26.92Zm-5.52-39.64c-9.41,2.35-18.28,.68-26.59-4.23,0,0,0,0,0,0,0,0,0,0,0,0-1.8-.11-3.62,.19-5.41-.18h0s0,0,0,0h0c-5.99,.62-6.07,.62-5.96-5.3,.07-3.48-.55-6.59-2.08-9.85-9.19-19.59,1.68-42.7,22.61-48.52,.12-.03,.26,0,.38,.01,13.58-3.32,25.44,.02,34.75,10.27,18.19,20.01,8.5,51.26-17.72,57.8Z"/>
  <path class="cls-1" d="M100.3,62.97q-2.99,.45-2.99,3.01,0,2.94,2.98,3.19,3.05-.17,3.05-3.16,0-2.84-3.03-3.04Z"/>
  <path class="cls-1" d="M57.08,188.8c-.18,.2-.35,.41-.54,.61,.43-.2,.81-.46,1.16-.76-.2,.05-.41,.1-.62,.15Z"/>
  <polygon class="cls-1" points="135.4 70.75 135.41 70.75 135.41 70.75 135.4 70.75 135.4 70.75"/>
  <path class="cls-1" d="M68.3,97.2s-.05-.01-.07-.02c0,.15,.02,.31,.02,.46,.11-.12,.19-.25,.27-.38-.07-.02-.14-.04-.22-.07Z"/>
  <path class="cls-1" d="M64.52,64.76c.16,.08,.31,.16,.46,.25-.17-.32-.38-.62-.64-.89,0,0,0,0,0,0,.06,.21,.11,.43,.17,.65Z"/>
  <path class="cls-1" d="M64.16,103.33c-.02-.17-.08-.34-.2-.51h0c-.05,.14-.1,.28-.14,.42,.12,.03,.23,.06,.35,.08Z"/>
  <path class="cls-1" d="M135.41,70.75s0,0,0,0c1.79,.33,3.61,.02,5.41,.18-1.79-.53-3.6-.22-5.41-.18Z"/>
  <polygon class="cls-1" points="135.4 70.75 135.4 70.75 135.4 70.75 135.4 70.75"/>
  <polygon class="cls-1" points="135.4 70.75 135.4 70.75 135.41 70.75 135.41 70.75 135.4 70.75"/>
  <path class="cls-1" d="M175.44,32.17c-2.01,.08-4.04-.03-6.05,.04-1.04,.04-1.35-.34-1.32-1.35,.06-2.02-.02-4.04,.03-6.05,.02-.92-.1-1.41-1.24-1.4-5.08,.06-10.15,.05-15.23,0-.95,0-1.23,.31-1.21,1.23,.05,2.08-.03,4.17,.04,6.25,.04,1.05-.34,1.34-1.35,1.31-2.02-.06-4.04,.02-6.05-.03-.93-.02-1.41,.12-1.4,1.24,.06,5.08,.05,10.15,0,15.23,0,.97,.33,1.22,1.24,1.2,2.02-.05,4.04,.06,6.05-.04,1.25-.06,1.56,.39,1.5,1.56-.09,1.95,.01,3.9-.04,5.86-.02,.93,.12,1.41,1.25,1.39,5.08-.06,10.15-.05,15.23,0,.97,0,1.22-.33,1.2-1.24-.05-2.08,.03-4.17-.04-6.25-.03-1.05,.35-1.35,1.35-1.32,2.02,.06,4.04-.04,6.05,.04,1.14,.05,1.43-.35,1.4-1.44-.07-2.47-.02-4.95-.02-7.42,0-2.47-.06-4.95,.03-7.42,.04-1.14-.35-1.45-1.44-1.41Zm-4.42,10.38c-.04,1.02-.33,1.35-1.34,1.32-2.01-.06-4.03,.04-6.05-.04-1.22-.05-1.59,.42-1.55,1.59,.07,1.95-.03,3.9,.04,5.85,.03,1.03-.17,1.47-1.36,1.5-4.33,.1-4.33,.15-4.33-4.17v-.2q0-4.55-4.59-4.55h-.2c-4.31,0-4.27,0-4.12-4.37,.03-1.02,.32-1.35,1.34-1.32,2.01,.06,4.03-.04,6.05,.04,1.23,.05,1.58-.43,1.54-1.59-.07-2.01,.01-4.03-.03-6.05-.02-.87,.18-1.23,1.17-1.29,4.52-.26,4.52-.3,4.52,4.17q0,4.73,4.79,4.73c4.31,0,4.27,0,4.12,4.38Z"/>
</svg>