<?xml version="1.0" encoding="utf-8"?>
<!-- Generator: Adobe Illustrator 27.0.0, SVG Export Plug-In . SVG Version: 6.00 Build 0)  -->
<svg version="1.1" id="Capa_1" xmlns="http://www.w3.org/2000/svg" xmlns:xlink="http://www.w3.org/1999/xlink" x="0px" y="0px"
	 viewBox="0 0 100 100" style="enable-background:new 0 0 100 100;" xml:space="preserve">
<style type="text/css">
	.st0{fill:#FFFFFF;}
	.st1{fill-rule:evenodd;clip-rule:evenodd;fill:#FFFFFF;}
</style>
<g>
	<g>
		<path class="st0" d="M42.96,30.73c0.23-1.28,0.65-2.56,0.67-3.85c0.07-6.01,0.1-12.02,0-18.03c-0.03-2.02,0.77-3.17,2.53-3.98
			c5.61-2.6,10.2,0.24,10.2,6.39c0,5.37-0.08,10.74,0.06,16.1c0.03,1.29,0.78,2.56,1.38,4.39c1.49-3.58,2.43-6.43,3.82-9.04
			c2.23-4.18,5.22-5.42,9.32-3.1c3.56,2.01,7.11,4.62,9.61,7.79C92.47,42.56,98.61,60,99.94,79.22c0.8,11.67-6.22,16.57-15.31,16.85
			c-5.75,0.18-11.83-0.78-17.27-2.66C59.56,90.72,56.78,83.45,56.2,76c-0.74-9.48-0.29-19.05-0.5-28.57
			c-0.03-1.3-0.59-2.81-1.39-3.83c-1.17-1.49-2.79-2.63-3.95-3.68c-5.52,2.34-6.24,6.47-5.97,11.78c0.39,7.57,0.36,15.27-0.61,22.77
			C41.62,91.03,33.44,93.73,21.43,94.9c-4.04,0.4-8.4-0.21-12.32-1.34c-5.96-1.72-9.27-6.7-9.1-12.93
			C0.57,60.06,7.15,41.57,20.02,25.5c2.27-2.84,5.47-5.17,8.67-6.98c4.18-2.37,7.41-1.22,9.66,3.02c1.53,2.9,2.54,6.07,3.79,9.12
			C42.41,30.68,42.68,30.71,42.96,30.73z M60.02,48.99c-0.2,0.84-0.49,1.45-0.48,2.04c0.16,7.93-0.23,15.92,0.68,23.77
			c1.28,11.03,4.96,14.62,15.08,16.68c2.19,0.44,4.47,0.69,6.71,0.67c10.32-0.09,14.48-4.39,13.74-14.01
			C94.5,61.97,89.41,47.11,80.2,33.81c-2.51-3.63-6.04-6.6-9.31-9.64c-0.9-0.83-2.6-1.27-3.85-1.15
			c-2.09,0.21-6.37,11.54-4.75,12.73c3.76,2.77,5.71,9.34,12.44,6.44c0.36-0.15,0.96-0.17,1.25,0.03c0.57,0.39,1.28,0.92,1.4,1.51
			c0.12,0.6-0.2,1.54-0.66,1.97c-2.33,2.15-8.55,1.86-10.8-0.37c-1.71-1.7-3.45-3.38-5.17-5.07c-0.28,0.19-0.56,0.39-0.84,0.58
			c0.95,1.57,1.67,3.34,2.89,4.66c2.1,2.28,4.56,4.23,6.77,6.42c0.8,0.79,1.83,1.84,1.89,2.83c0.25,4.43,2.85,6.89,6.52,8.64
			c0.58,0.27,1.34,0.56,1.57,1.06c0.44,0.94,0.55,2.02,0.8,3.05c-0.95,0.17-1.96,0.63-2.83,0.43c-1.1-0.25-2.08-1.04-3.45-1.77
			c0.6,2.78,1.04,5.09,1.6,7.36c0.39,1.57,0.73,3.35-1.33,3.48c-0.88,0.06-2.41-1.53-2.71-2.62c-1.14-4.12-2.28-8.31-2.7-12.54
			C68.33,55.83,64.41,52.51,60.02,48.99z M24.76,66.93c-0.78,0.33-1.15,0.61-1.52,0.61c-1.22,0.02-2.44-0.06-3.66-0.1
			c0.55-1.19,0.86-2.59,1.7-3.52c0.9-0.99,2.39-1.43,3.44-2.32c0.74-0.63,1.58-1.57,1.68-2.44c0.49-4.48,2.83-7.64,6.39-10.19
			c1.99-1.43,3.81-3.13,5.55-4.88c0.65-0.65,1.36-1.88,1.17-2.64c-1.47-5.98-3.06-11.93-4.81-17.83c-0.59-2.01-2.34-2.66-4.08-1.41
			c-2.75,1.98-5.78,3.86-7.83,6.46C10.97,43.56,4.98,60.7,4.13,79.62c-0.27,6.09,3.03,10.15,9.1,10.78
			c4.08,0.42,8.3,0.11,12.41-0.36c8.18-0.93,12.75-6.06,13.59-13.91c0.89-8.28,0.9-16.65,1.26-24.98c0.03-0.78-0.2-1.57-0.38-2.79
			c-1.67,1.4-2.89,2.61-4.28,3.57c-3.39,2.34-4.97,5.54-5.59,9.58c-0.69,4.53-1.82,9.01-3.02,13.45c-0.24,0.9-1.63,1.5-2.48,2.24
			c-0.51-1.02-1.5-2.08-1.42-3.05C23.49,71.84,24.19,69.58,24.76,66.93z M56.41,39.2c0.28-0.1,0.57-0.19,0.85-0.29
			c-0.54-1.29-0.76-2.93-1.69-3.82c-2.77-2.65-3.75-5.66-3.49-9.48c0.31-4.59,0.08-9.23,0.07-13.84c0-1.68,0.45-3.67-2.28-3.6
			c-2.46,0.06-2.13,1.86-2.12,3.47c0.01,4.94-0.22,9.89,0.08,14.81c0.2,3.4-0.86,5.93-3.16,8.32c-0.95,0.99-1.2,2.66-1.77,4.02
			c0.29,0.12,0.57,0.25,0.86,0.37c2.05-1.48,4.14-4.18,6.15-4.12C52.11,35.1,54.24,37.7,56.41,39.2z"/>
		<path class="st0" d="M37.63,35.28c2.07,3.29,0.5,5.33-1.99,7.11c-0.78,0.56-1.45,1.26-2.18,1.88c-2.98,2.56-7.82,3.02-11.03,0.85
			c-0.62-0.42-1.09-1.61-1-2.37c0.06-0.53,1.42-1.5,1.79-1.34c6.51,2.81,9.56-2.53,13.56-5.62C37.02,35.59,37.31,35.46,37.63,35.28z
			"/>
	</g>
</g>
</svg>
