<?xml version="1.0" encoding="UTF-8"?>
<svg id="Capa_1" data-name="Capa 1" xmlns="http://www.w3.org/2000/svg" viewBox="0 0 171.72 200">
  <defs>
    <style>
      .cls-1 {
        fill: #fff;
      }
    </style>
  </defs>
  <path class="cls-1" d="M161,50.11c-1.41-2.33-2.32-4.64-2.5-7.3-.32-4.54-1.49-8.89-3.2-13.08C147.29,10.01,128.8-.87,105.03,.08c-11.35,.46-16.8,6.08-16.8,17.32,0,27.63,0,55.27,0,82.9h.03c0,3.51,0,7.02,0,10.53,0,24.13-.03,48.25-.02,72.38,0,12.07,7.85,18.52,19.75,16.27,1.58-.3,3.16-.59,4.69-1.06,14.06-4.27,26.35-10.57,29.89-26.64,.26-1.18,1.2-1.56,1.95-2.2,14.81-12.72,22.74-28.62,21.83-48.37-.2-4.34,.5-8.31,1.79-12.36,6.56-20.65,4.04-40.26-7.14-58.75Zm1.64,54.39c-1.9-2.58-3.63-4.9-5.33-7.24-1.41-1.94-3.29-2.79-5.22-1.19-1.89,1.56-1.49,3.58,.09,5.38,8.51,9.69,8.96,21.02,6.87,32.97-.61,3.52-2.2,3.86-5.29,3.37-8.99-1.42-16.92,3.84-19.47,12.47-.74,2.52-.92,4.95,1.97,5.79,2.76,.8,3.68-1.5,4.41-3.72,1.96-6,6.35-8.8,12.22-8.2,2.12,.22,2.57,.89,1.6,2.72-6.39,12.06-15.76,20.85-28.39,26.15-1.99,.84-2.85-.06-3.66-1.74-3.48-7.21-2.93-14.11,1.45-20.74,1.33-2.01,1.6-4.05-.64-5.26-2.03-1.1-3.95-.28-5.11,1.91-.54,1.03-1.28,1.96-1.79,3.01-3.85,7.83-3.67,15.14,.67,25.47-1.88,.35-3.71,.83-5.56,.98-2.45,.2-3.38,1.56-3.18,3.77,.21,2.25,1.81,2.69,3.79,2.59,6.05-.32,11.73-2.06,17.31-4.27,1.06-.42,2.11-.84,4.45-1.77-2.01,3.34-3.77,5.26-5.82,6.91-6.65,5.34-14.45,8.13-22.71,9.44-6.58,1.04-10.18-2.46-10.24-9.14-.01-1.76,.19-3.53-.03-5.26-.6-4.86,2.13-7.6,5.95-9.64,1.27-.68,2.75-.94,4.06-1.54,1.76-.81,2.91-2.18,2.23-4.19-.65-1.91-2.14-2.48-4.19-2.09-2.72,.53-5.02,2.1-8,3.22,0-15.28-.04-30.15,.03-45.02,.02-3.13,2.53-4.75,4.67-6.5,1.08-.88,1.66-.3,2.48,.59,5.77,6.21,5.82,16.43-.2,22.67-1.88,1.95-3.13,3.83-.94,5.9,2.09,1.97,4.6,.57,5.6-1.28,2.71-5.04,5.67-4.2,10.26-2.31,8.68,3.58,20.77-.9,26.07-8.56,1.26-1.82,1.64-3.65-.2-5.03-1.73-1.29-3.42-.77-4.98,.95-4.74,5.23-10.29,8.64-17.76,6.84-5.43-1.31-6.82-3.07-6.93-8.51-.11-5.26-2.29-9.84-5.04-14.23,1.91-1.24,3.83-.91,5.69-.92,2.34-.02,4.15-.76,4.08-3.43-.06-2.5-1.93-2.95-4-3.03-6.59-.24-12.69,1.31-18.56,5.25V53.87c3.12,1.19,6.35,1.86,9.7,1.5,2.23-.24,4.18-1.08,3.97-3.69-.2-2.49-1.97-3.16-4.39-3.05-7.21,.35-9.59-1.96-9.59-8.99,0-8.19,.06-16.39,0-24.58-.04-4.53,2.32-7,6.49-8,4.93-1.18,9.85-.78,14.81-.03,2.09,.31,2.05,1.32,1.32,2.6-1.32,2.35-3.46,3.88-5.68,5.34-5.9,3.87-8.28,9.5-6.56,15.27,1.77,5.93,7.64,10.12,14.23,10.33,2.48,.08,4.68-.5,4.87-3.14,.17-2.39-1.72-3.48-4.11-3.51-2.24-.03-4.33-.63-6.16-1.97-3.65-2.69-3.85-7.63-.03-10.42,4.15-3.04,8.47-5.74,10.18-11,.58-1.79,1.94-.79,2.89-.46,14.03,4.9,26.12,22.17,24.76,36.94-1.04,11.27-8.5,18.5-18.37,23.28-2.2,1.07-4.58,1.88-6.97,2.42-2.43,.54-4.42,1.43-3.88,4.19,.57,2.93,3.11,2.8,5.28,2.22,11.78-3.11,21.31-9.26,27.12-20.36,.38-.73,.43-1.77,1.89-2.21,8.17,15.18,10.28,31.01,5.48,47.96Z"/>
  <path class="cls-1" d="M64.9,.02c-1.02-.02-2.05-.03-3.07-.02C36.12,.19,17,16.87,13.21,42.35c-.36,2.4-.58,4.76-2,7.01C-1.27,69.19-3.11,90.2,4.59,112.18c.68,1.93,1.14,3.83,.93,5.96-1.85,19.51,4.84,35.78,19.06,49,2.73,2.54,4.79,5.08,5.73,8.82,1,3.97,3.37,7.37,6.3,10.34,7.36,7.48,16.72,11,26.64,13.12,12.34,2.64,20.12-3.96,20.12-16.63,0-27.49,0-54.99,0-82.48,0-27.05-.04-54.11,.01-81.16,.03-13.68-4.9-18.86-18.48-19.13Zm-4.94,191.76c-8.67-2.5-16.54-6.16-22.27-14.96,6.09,2.56,11.34,4.64,16.92,5.56,1.86,.31,3.77,.43,5.66,.52,1.87,.09,3.15-.79,3.24-2.74,.09-1.84-.93-3.06-2.71-3.45-1.98-.44-4-.7-6.25-1.08,4.81-9.52,4.75-18.69-.54-27.75-1.33-2.28-3.06-4.01-5.57-2.6-2.8,1.56-1.49,3.81-.17,5.97,3.94,6.45,4.22,13.15,1,20.01-.9,1.92-1.96,2.49-4.05,1.59-12.27-5.27-21.48-13.78-27.81-25.52-1.42-2.64-.63-3.19,2-3.25,5.98-.14,9.92,2.54,11.64,8.43,.69,2.36,1.71,4.35,4.46,3.43,2.55-.85,2.62-2.94,1.94-5.42-2.36-8.56-10.39-14.27-19.24-12.71-4.19,.74-5.12-.81-5.71-4.37-1.93-11.7-1.14-22.71,7.07-32.15,1.41-1.62,1.86-3.58,.21-5.07-1.8-1.64-3.75-1.15-5.24,.84-1.71,2.28-3.46,4.54-5.53,7.26-4.77-17.16-2.59-32.92,5.87-48.43,5.71,11.99,14.77,19.41,27.19,22.72,.98,.26,1.96,.57,2.96,.66,1.91,.17,3.53-.17,3.73-2.59,.17-2.07-.59-3.24-2.72-3.74-7.4-1.72-13.91-5.03-19.19-10.66-8.38-8.94-9.56-19.85-3.27-32.78,4.33-8.9,11.25-15.13,20.21-19.17,1.45-.65,2.85-1.62,3.73,.84,1.51,4.19,4.73,6.9,8.4,9.18,2.95,1.84,5.03,4.35,4.04,7.96-.95,3.46-3.92,4.88-7.26,5.49-.85,.15-1.76,.03-2.62,.15-1.84,.27-3,1.55-2.98,3.25,.02,1.9,1.26,3.07,3.34,3.35,5.73,.75,13.12-3.48,15.35-8.9,2.36-5.73,.22-12.28-5.28-16.11q-5.55-3.87-7.06-8.04c4.99-1.29,10.04-1.54,15.09-.87,5.67,.75,8.18,3.74,8.19,9.37,.02,8.05,.03,16.09,0,24.14-.02,6.11-2.88,8.93-8.89,8.57-2.56-.15-4.95-.22-5.1,3.08-.15,3.34,2.47,3.38,4.87,3.61,3.1,.3,5.98-.75,9.03-1.56v54.35c-5.99-4.04-12.06-5.62-18.64-5.48-2.35,.05-4.19,.57-4.21,3.25-.03,2.75,1.9,3.24,4.2,3.23,1.72,0,3.5-.25,5.49,.77-3.25,5.54-5.57,11.26-5.01,17.95,.25,3.04-7.63,6.24-12.25,5.36-4.73-.9-8.85-2.95-11.95-6.71-1.57-1.91-3.38-3.2-5.54-1.37-2.28,1.91-.9,3.89,.57,5.71,7.06,8.76,19.09,11.43,29.18,6.19,2.05-1.07,2.99-.96,4.13,.98,.79,1.36,1.97,2.53,3.11,3.64,1.51,1.47,3.3,2.15,4.96,.33,1.52-1.66,1.32-3.43-.35-4.98-2.07-1.92-3.49-4.23-4.36-6.92-1.97-6.11-.37-11.45,3.32-16.42,.87-1.17,1.65-1.51,2.85-.5,2.36,1.98,4.64,3.92,4.62,7.45-.05,14.61-.02,29.23-.02,44.19-2.83-1.34-5.23-2.95-8.12-3.44-2.02-.34-3.57,.06-4.16,2.08-.57,1.97,.37,3.41,2.26,4.16,1.08,.43,2.24,.67,3.27,1.19,4.32,2.15,6.97,5.06,6.85,10.52-.31,13.54-3.7,16.19-16.88,12.39Z"/>
  <path class="cls-1" d="M149.72,82.16c-4.82,.12-9.18,1.47-12.86,4.68-1.06,.92-1.74,2.05-3.67,1.36-4.86-1.72-10.04-1.59-15.13-1.95-5.05-.36-8.8-3.51-10.31-8.64-1.16-3.94,.7-8.65,4.65-11.38,2.3-1.59,4.89-2.57,7.7-2.8,2.17-.18,3.16-1.46,3.1-3.46-.07-2.23-1.64-2.79-3.62-2.87-8.91-.36-17.94,7.78-18.68,16.89-.71,8.82,6.13,17.06,14.99,18.58,4.9,.84,9.95,0,14.74,1.64,4.37,1.5,7.79,6.28,7.36,10.29-.41,3.85-3.57,6.59-8.73,7.09-2.52,.25-4.48,.84-4.16,3.72,.3,2.75,2.63,2.67,4.72,2.67,11.58-.2,18.13-11.4,12.71-21.75-2.23-4.25-1.93-4.87,2.64-6.73,1.56-.63,3.11-.73,4.71-.72,2.5,.01,4.03-1.32,3.92-3.66-.1-2.24-1.9-3.03-4.08-2.97Z"/>
  <path class="cls-1" d="M134.67,40.01c-.74,2.94-2.55,5.19-4.93,7-1.81,1.37-3.03,3.03-1.38,5.15,1.77,2.28,3.78,1.46,5.66-.05,4.67-3.76,7.26-8.61,7.6-13.55,.04-8.13-4.58-14.32-12.18-16.99-2.19-.77-5.04-2.23-6.35,1.2-1.28,3.37,1.31,4,3.83,4.88,6.23,2.18,9.12,6.95,7.75,12.36Z"/>
  <path class="cls-1" d="M40.97,117.93c2.39,.16,5.16,.47,5.63-2.59,.49-3.19-2.08-3.45-4.61-3.77-6.07-.76-9.41-4.78-8.07-9.63,1.12-4.05,3.76-6.71,7.94-7.92,4.57-1.32,9.29-.67,13.91-1.45,9.31-1.57,15.72-9.71,14.84-19.45-.76-8.45-9.93-16.33-18.56-16-1.75,.07-3.24,.3-3.44,2.45-.22,2.28,.73,3.55,3.08,3.89,1.57,.23,3.17,.59,4.63,1.18,5.31,2.15,8.7,7.38,7.83,11.86-1.18,6.09-5.19,9.48-11.59,9.84-4.8,.27-9.67,.24-14.23,1.89-1.82,.66-2.36-.45-3.27-1.21-3.83-3.23-8.21-4.91-13.25-4.8-2.09,.05-3.87,.6-3.88,3.13,0,2.35,1.51,3.42,3.67,3.42,2.39,0,4.6,.45,6.72,1.55,2.43,1.26,3.53,2.52,1.33,5.2-1.87,2.28-2.46,5.24-2.23,8.11-.04,8,5.49,13.78,13.54,14.32Z"/>
  <path class="cls-1" d="M48.68,23.02c-.53-2.14-2.19-2.38-4.12-2.1-7.85,1.12-14.32,8.43-14.4,16.34,.03,6.08,2.66,10.87,7.31,14.66,1.81,1.48,3.84,2.64,5.73,.44,1.89-2.21,.57-4.01-1.39-5.47-.58-.43-1.18-.87-1.68-1.4-5.87-6.13-4.3-13.92,3.48-17.32,.93-.4,1.93-.64,2.88-.98,2-.72,2.66-2.27,2.18-4.18Z"/>
</svg>