<?xml version="1.0" encoding="UTF-8"?>
<svg id="Capa_1" data-name="Capa 1" xmlns="http://www.w3.org/2000/svg" viewBox="0 0 200 200">
  <defs>
    <style>
      .cls-1 {
        fill: #fff;
      }
    </style>
  </defs>
  <path class="cls-1" d="M.04,70.68c.92-2.21,.95-4.61,1.48-6.9C6.77,40.96,26.7,23.11,50.01,21.23c12.56-1.01,25.28-1.54,37.77,.41,26.01,4.06,44.07,18.69,54.3,42.86,2.74,6.46,4.21,13.21,3.49,20.29-.11,1.04,.24,1.28,1.13,1.16,2.35-.33,3.77,.86,4.85,2.79,.76,1.35,1.79,2.56,2.53,3.92,.67,1.25,1.47,1.57,2.92,1.48,1.52-.1,1.57-1.14,1.92-2.01,1.73-4.32,3.38-8.68,5.13-13,.42-1.03,.36-1.66-.44-2.54-2.77-3.05-3.14-7.37-1.12-10.83,2.03-3.47,5.94-5.2,10-4.43,3.8,.72,6.72,3.86,7.31,7.88,.4,2.73-.32,5.18-2.13,7.22-.73,.82-.8,1.44-.35,2.39,.96,2.05,1.83,4.14,2.7,6.23,.21,.51,.4,.94,1.07,.92,.53-.01,.76-.27,.99-.74,1.94-3.98,5.14-6,9.58-5.53,4.36,.46,6.94,3.15,8.17,7.25,.01,.05,.1,.08,.15,.11v4.29c-.64,.26-.59,.94-.83,1.43-1.73,3.43-4.52,5.38-8.35,5.45-3.74,.07-6.68-1.66-8.38-5.02-.62-1.23-1.36-1.57-2.56-1.4-2.48,.35-3.83-.8-4.67-3.08-.99-2.73-2.24-5.37-3.41-8.04-.19-.44-.3-.98-1.03-.97-.71,0-.85,.48-1.04,.96-1.91,4.88-3.77,9.78-5.75,14.63-.4,.97,.22,1.26,.65,1.77,2.34,2.72,3.12,5.81,1.94,9.23-1.17,3.39-3.57,5.51-7.13,6.18-3.74,.7-6.84-.55-9.11-3.51-2.34-3.05-2.65-6.48-.83-9.86,.7-1.31,.65-2.15-.22-3.23-.77-.96-1.43-2.01-2.03-3.08-.5-.88-1.2-.99-2.11-1.01-1.08-.03-1.1,.81-1.27,1.41-1.4,4.73-4.02,8.83-6.62,12.93-.84,1.33-.85,2.36,.02,3.69,2.87,4.4,5.65,8.85,8.42,13.32,3.21,5.17,1.75,10.63-3.59,13.51-2.97,1.6-5.96,3.16-8.95,4.7-1.05,.54-1.66,1.27-1.95,2.47-1.22,4.97-2.57,9.9-3.84,14.86-2.03,7.95-7.88,11.62-15.97,9.97-1.46-.3-2.95-.51-4.39-.88-1.75-.45-2.63-1.92-2.24-3.52,.36-1.48,1.75-2.37,3.45-2.11,1.8,.27,3.57,.67,5.37,.96,3.94,.64,6.9-1.27,7.91-5.12,1.33-5.07,2.7-10.14,3.92-15.24,.75-3.13,2.4-5.34,5.33-6.73,2.69-1.27,5.29-2.75,7.93-4.14,3.19-1.68,3.62-3.18,1.73-6.19-2.69-4.28-5.31-8.61-8.1-12.83-2.15-3.24-2.23-6.33-.13-9.6,2.91-4.53,5.66-9.13,6.92-14.48,1.92-8.15,.42-15.88-2.89-23.32-9.73-21.88-26.57-34.6-50.23-38.32-4.45-.7-8.96-.56-13.44-.48-7.41,.12-14.84-.4-22.23,.34C29.43,29.08,11.44,45.18,7.1,65.73c-3.22,15.22,0,29.09,9.39,41.48,3.17,4.19,6.51,8.26,9.83,12.35,3.59,4.43,4.73,9.34,3.51,14.94-3.61,16.65-7.12,33.33-10.67,49.99-.49,2.3-1.91,3.47-3.71,3.05-1.78-.42-2.54-2.02-2.03-4.38,3.56-16.6,7.1-33.2,10.7-49.79,.83-3.82,.1-7.15-2.39-10.19-3.33-4.07-6.62-8.18-9.85-12.33C5.44,102.57,1.62,93.21,.41,82.79c-.04-.31,.01-.66-.38-.8v-11.3Z"/>
  <path class="cls-1" d="M79.77,94.16c-3.15,10.12-10.46,14.59-20.46,15.55-1.14,.11-1.83,.29-2.12,1.64-.79,3.66-2.75,6.72-5.59,9.14-3.85,3.27-5.51,7.36-5.36,12.37,.14,4.54,.04,9.09,.02,13.64-.01,2.45-1.09,3.75-3,3.69-1.83-.06-2.83-1.31-2.85-3.68-.02-5-.02-10,0-15,.03-5.83,2.23-10.69,6.53-14.65,3.14-2.9,3.81-4.04,4.63-7.19-4.4-.25-8.44-2.02-12.99-1.97-7.78,.08-13.34-4.42-17.72-10.48-.99-1.37-.64-3.03,.62-3.98,1.34-1.01,2.98-.82,4.12,.64,1.57,2,3.23,3.9,5.33,5.37,2.28,1.6,4.76,2.59,7.58,2.76,1.07,.07,1.46-.2,1.45-1.35,0-2.79-.21-5.58,.21-8.36,1.07-7.06,7.05-12.44,14.18-12.65,2.28-.07,4.56-.06,6.83-.02,1.93,.04,3.22,1.29,3.18,2.95-.04,1.58-1.3,2.8-3.11,2.86-2.08,.07-4.16-.01-6.25,.03-5.15,.11-8.96,3.78-9.19,8.93-.1,2.33,.02,4.68-.05,7.01-.03,.91,.35,1.24,1.15,1.45,5.77,1.48,11.56,1.85,17.3-.04,6.18-2.03,9.65-6.7,9.99-13.2,.18-3.45,.9-4.13,4.4-4.13,8.91,0,17.83,.02,26.74-.01,5.18-.02,9.37-2.06,12.08-6.56,1.53-2.54,1.98-5.28,.34-8.22-3.99,5.09-9.22,7.16-15.45,6.97-2.3-.07-3.61-1.09-3.65-2.89-.04-1.9,1.26-3.05,3.71-2.93,5.08,.24,8.91-1.79,11.74-5.96,.46-.68,.71-1.31,.71-2.12,.02-8.23-6.91-15.43-15.16-15.71-1.04-.04-1.97-.34-2.52-1.22-3.07-4.85-8.02-6.32-13.22-7.26-2.7-.49-5.44-.44-8.16,.05-1.06,.19-1.69,.59-1.58,1.88,.14,1.74,.02,3.5,.04,5.26,.05,4.02,2.7,6.68,6.74,6.75,2.28,.04,4.56-.02,6.83,.02,1.81,.04,3.05,1.24,3.06,2.85,.01,1.52-1.15,2.9-2.82,2.92-3.24,.04-6.51,.36-9.73-.25-5.64-1.06-9.75-5.88-9.92-11.64-.06-2.01-.13-4.03,.02-6.04,.11-1.48-.53-2.04-1.81-2.43-4.32-1.33-8.6-.95-12.88,.12-3.96,.99-7.56,2.67-10.7,5.28,.24,.49,.64,.51,1,.64,6.28,2.37,10.16,7.92,10.26,14.66,.07,4.06,1.66,5.65,5.67,5.68,1.1,0,2.23-.07,3.31,.11,1.62,.27,2.53,1.32,2.44,3-.09,1.67-1.07,2.66-2.74,2.7-2.14,.06-4.31,.28-6.42-.22-4.98-1.18-8.06-5.3-8.11-10.73-.05-5.03-2.68-8.7-7.17-9.9-1.99-.53-3.96-.54-5.87,.46-5.81,3.02-10.06,7.29-11.24,14-.48,2.71,.45,4.73,2.88,6.2,4.18,2.53,8.53,3.3,13.24,1.77,2.3-.75,3.86-.15,4.46,1.67,.56,1.7-.34,3.11-2.57,3.85-6.46,2.14-12.54,1.26-18.25-2.39-.33-.21-.64-.44-.96-.66-.26-.18-.51-.37-.87-.63-1.17,2.3-1.37,4.63-1.12,7.03,.26,2.42-.67,3.86-2.57,4.02-1.91,.17-2.98-.98-3.24-3.47-.45-4.4,.19-8.54,2.88-12.19,.34-.47,.42-.91,.35-1.45-1-8.2,2.9-14.22,8.72-19.34,2.26-1.99,5.12-3.04,7.6-4.63,2.43-1.55,3.85-4.48,6.41-6.11,8.6-5.47,17.76-7.95,27.78-4.71,2.01,.65,3.71,.61,5.71,.3,9.72-1.5,18.62,.15,25.83,7.45,.43,.44,.86,.69,1.49,.78,10.42,1.52,18.5,10.67,18.74,21.21,.02,.84,.09,1.55,.71,2.29,3.85,4.55,4.31,9.65,1.74,14.88-3.4,6.93-9.31,10.34-16.88,10.66-6.3,.26-12.62,.1-18.93,.04-1.35-.01-1.76,.32-1.73,1.7,.09,4.22,.05,8.44,.03,12.66-.04,8.28-3.94,14.02-11.5,17.31-2.73,1.19-5.5,2.3-8.25,3.45-5.29,2.2-8.03,6.23-8.06,11.91-.01,2.79,.02,5.58,0,8.38-.02,2.23-1.19,3.54-3.03,3.48-1.76-.06-2.85-1.33-2.8-3.49,.1-4.02-.42-8.06,.31-12.05,1.15-6.27,4.8-10.67,10.57-13.28,3.07-1.39,6.24-2.55,9.32-3.92,4.93-2.19,7.54-5.98,7.59-11.41,.04-3.96,0-7.92,0-11.87Z"/>
  <path class="cls-1" d="M72.58,184.04c.95-5.17,1.96-10.65,2.97-16.12,.5-2.74,.98-5.48,1.53-8.21,.46-2.34,1.74-3.25,4.03-2.82,4.34,.81,8.66,1.66,12.99,2.54,2.26,.46,3.22,1.74,2.84,3.6-.35,1.71-1.79,2.48-3.94,2.08-3.06-.56-6.15-1.04-9.17-1.75-1.32-.31-1.53,.23-1.71,1.23-1.19,6.56-2.41,13.12-3.6,19.68-.31,1.72-.91,3.16-2.92,3.33-1.81,.15-3.1-1.27-3-3.55Z"/>
  <path class="cls-1" d="M157.8,99.89c1.88,.04,3.44,1.63,3.41,3.49-.02,1.83-1.67,3.45-3.5,3.45-1.95,0-3.53-1.67-3.46-3.64,.07-1.92,1.61-3.35,3.55-3.31Z"/>
  <path class="cls-1" d="M194.1,89.03c-.07,1.86-1.71,3.42-3.56,3.38-1.85-.04-3.44-1.67-3.43-3.52,.01-1.96,1.67-3.51,3.66-3.43,1.9,.08,3.39,1.68,3.32,3.56Z"/>
  <path class="cls-1" d="M174.06,70.48c-.02,1.89-1.62,3.42-3.54,3.4-1.96-.02-3.43-1.52-3.41-3.48,.02-1.94,1.56-3.45,3.48-3.43,1.88,.02,3.49,1.64,3.46,3.51Z"/>
</svg>