<?xml version="1.0" encoding="utf-8"?>
<!-- Generator: Adobe Illustrator 27.0.0, SVG Export Plug-In . SVG Version: 6.00 Build 0)  -->
<svg version="1.1" id="Capa_1" xmlns="http://www.w3.org/2000/svg" xmlns:xlink="http://www.w3.org/1999/xlink" x="0px" y="0px"
	 viewBox="0 0 100 100" style="enable-background:new 0 0 100 100;" xml:space="preserve">
<style type="text/css">
	.st0{fill:#196480;}
	.st1{fill-rule:evenodd;clip-rule:evenodd;fill:#196480;}
</style>
<g>
	<g>
		<path class="st0" d="M48.5,51.28c0,10.34,0.01,20.68-0.01,31.03c0,1.2-0.18,2.4-0.17,3.6c0.03,3.56-2.02,5.66-4.97,7.06
			c-6.26,2.96-16.93,2.37-21.47-6.71c-0.2-0.39-0.9-0.8-1.33-0.77C15.09,85.84,9.39,81.09,10.3,73.9c0.07-0.56-0.29-1.36-0.71-1.76
			c-4.42-4.1-6.12-9.04-4.92-14.99c0.13-0.62-0.11-1.54-0.53-2.02c-6.01-6.78-5.44-16.1,1.45-21.91c0.72-0.61,1.01-1.04,0.66-2.06
			c-2.16-6.29,1.83-12.19,8.44-12.71c0.57-0.04,1.35-0.65,1.6-1.2c2.17-4.69,6.2-6.99,11.34-6.42c0.53,0.06,1.33-0.21,1.62-0.61
			c2.61-3.54,5.97-5.59,10.39-4.52c4.58,1.11,7.08,4.54,8.15,8.98c0.4,1.67,0.54,3.45,0.55,5.18c0.05,10.46,0.02,20.92,0.02,31.39
			C48.42,51.28,48.46,51.28,48.5,51.28z M46.36,45.25c0.04-0.56,0.08-0.92,0.08-1.28c0.06-8.06,0.22-16.11,0.12-24.17
			c-0.03-2.29-0.48-4.69-1.28-6.83c-1.15-3.07-3.41-5.25-6.87-5.64c-3.6-0.4-6.09,1.49-7.88,4.36c-0.69,1.11-1.31,1.39-2.59,1.1
			c-4.45-1.01-8.63,1.25-10.02,5.5c-0.52,1.58-1.12,2.11-2.85,2.05c-4.38-0.15-7.71,3.38-7.66,7.78c0.06,4.2,3.58,7.55,7.87,7.43
			c0.83-0.02,1.65-0.31,2.48-0.34c0.33-0.01,0.88,0.28,0.96,0.55c0.08,0.28-0.19,0.9-0.45,1.01c-0.71,0.29-1.49,0.46-2.26,0.54
			c-3.35,0.35-6.08-0.97-8.31-3.33c-5.33,3.45-7.36,10.22-4.88,15.93c3.78,8.69,14.53,10.6,21.56,3.87c0.41-0.4,1.16-0.45,1.74-0.66
			c-0.14,0.61-0.09,1.41-0.46,1.8c-3.58,3.67-7.91,5.41-13.04,4.48c-2.08-0.38-4.08-1.21-6.21-1.87c-1.12,5.43,0.44,9.99,4.78,13.54
			c0.94,0.77,1.46,1.35,1.04,2.67c-0.31,0.99-0.25,2.16-0.11,3.21c0.58,4.39,5.35,7.49,8.07,6.61c0.41-3.05,0.73-5.87,1.23-8.66
			c0.09-0.51,0.88-0.9,1.35-1.34c0.09,0.63,0.29,1.26,0.24,1.88c-0.16,2.13-0.88,4.33-0.54,6.37c1.86,11.25,14.05,12.94,20.94,9.11
			c2.11-1.18,3.19-3.01,3.19-5.46c0.01-6.55,0.04-13.1,0.06-19.66c0-0.1-0.12-0.19-0.25-0.38c-0.6,0.05-1.25,0.12-1.91,0.17
			c-4.67,0.34-10.05-3.49-11.02-7.91c-0.09-0.41,0.25-0.92,0.39-1.39c0.42,0.24,0.91,0.4,1.22,0.73c0.27,0.28,0.31,0.77,0.48,1.15
			c1.84,3.98,5.82,6.19,9.75,5.55c1.08-0.18,1.38-0.61,1.35-1.65c-0.11-4.57-0.13-9.14-0.28-13.7c-0.02-0.54-0.57-1.32-1.07-1.54
			c-2.46-1.08-5.09-1.73-7.71-0.9c-2.19,0.69-4.22,1.87-6.36,2.76c-0.49,0.2-1.12,0.07-1.68,0.09c0.21-0.49,0.36-1.02,0.64-1.47
			c0.18-0.28,0.55-0.46,0.85-0.66C35.84,43.5,40.87,43.04,46.36,45.25z"/>
		<path class="st0" d="M84.15,18.44c6.81-0.4,12.52,6.13,9.28,13.94c2.76,2.08,4.96,4.67,5.92,8.09c1.53,5.46,0.32,10.31-3.38,14.59
			c-0.43,0.49-0.77,1.38-0.65,1.98c1.24,5.87-0.39,10.76-4.66,14.91c-0.54,0.52-1,1.52-0.92,2.23c0.77,7.1-4.99,11.64-10.19,11.32
			c-0.51-0.03-1.3,0.53-1.56,1.02c-4.65,9.05-16.08,9.59-22.38,5.89c-2.34-1.37-3.9-3.32-3.89-6.25c0.02-9.86-0.02-19.71-0.01-29.57
			c0.01-12.98,0.01-25.97,0.08-38.95c0.02-3.01,1.01-5.78,2.91-8.17c4.29-5.38,11.38-5.33,15.53,0.16c0.78,1.03,1.44,1.41,2.8,1.19
			c4.16-0.69,8.71,2.02,10.5,6.05C83.74,17.36,83.92,17.87,84.15,18.44z M92.32,33.97c-2.72,2.87-5.92,4.01-9.7,3.09
			c-0.52-0.13-0.9-0.84-1.35-1.28c0.55-0.14,1.15-0.49,1.66-0.39c3.23,0.6,6-0.11,8.05-2.76c1.94-2.51,2.24-5.3,0.8-8.12
			c-1.51-2.95-4-4.43-7.35-4.17c-1.26,0.1-1.76-0.29-2.13-1.51c-1.46-4.72-5.57-7.09-10.36-6.01c-1.14,0.26-1.72,0.06-2.32-0.95
			c-1.43-2.42-3.42-4.2-6.35-4.53c-4.22-0.47-8.39,2.59-9.17,7.63c-0.74,4.79-0.53,9.74-0.74,14.65c2.12-0.45,3.8-0.96,5.51-1.14
			c4.14-0.43,7.82,0.88,11.05,3.44c0.34,0.27,0.31,0.99,0.45,1.51c-0.48-0.02-0.98,0.04-1.44-0.09c-0.32-0.09-0.57-0.42-0.87-0.62
			c-4.01-2.68-8.27-3.3-12.85-1.61c-1.18,0.43-1.65,0.98-1.65,2.31c0.01,8.54-0.11,17.07-0.12,25.61
			c-0.01,9.08,0.07,18.15,0.1,27.23c0.01,1.86,0.97,3.16,2.4,4.2c2.17,1.59,4.69,2.05,7.29,2.28c6.33,0.55,11.94-3.05,13.92-8.89
			c0.99-2.92,0.77-5.77-0.21-8.65c-0.15-0.44,0.14-1.04,0.23-1.56c0.47,0.33,1.12,0.56,1.36,1.01c0.39,0.72,0.67,1.58,0.71,2.39
			c0.09,2.18,0.03,4.37,0.03,6.53c5.71,0.33,9.8-4.44,8.53-9.87c-0.28-1.22-0.05-1.8,0.92-2.52c4.31-3.19,6.15-8.61,4.73-13.85
			c-0.6,0.29-1.18,0.57-1.76,0.85c-5.77,2.73-12.31,1.68-16.84-2.75c-0.6-0.59-1.89-1.15-0.85-2.25c0.17-0.17,1.36,0.61,2.06,0.98
			c0.21,0.11,0.35,0.32,0.53,0.48c5.66,5,14.42,4.11,18.99-1.93C100.12,46.68,98.69,38.14,92.32,33.97z"/>
		<path class="st0" d="M35.76,79.21c-0.19,0.91-0.43,2.45-0.85,3.94c-0.12,0.42-0.78,0.68-1.19,1.01c-0.16-0.5-0.56-1.06-0.44-1.48
			c1.75-6.18,0.08-11.2-4.92-15.18c-0.37-0.3-0.46-0.96-0.68-1.45c0.57,0.02,1.3-0.18,1.69,0.09
			C33.64,69.17,35.68,73.37,35.76,79.21z"/>
		<path class="st0" d="M15.42,48.59c-1.05-0.23-2.12-0.39-3.13-0.74c-0.37-0.13-0.58-0.73-0.86-1.11c0.44-0.17,0.89-0.5,1.33-0.48
			c1.25,0.04,2.52,0.48,3.72,0.31c3.63-0.52,6.11-2.56,7.24-6.12c0.05-0.17,0.1-0.37,0.22-0.49c0.35-0.38,0.74-0.72,1.12-1.08
			c0.17,0.55,0.58,1.16,0.47,1.65C24.54,45.07,20.2,48.45,15.42,48.59z"/>
		<path class="st0" d="M27.36,30.61c-0.14-0.39-0.47-0.84-0.37-1.16c0.13-0.44,0.52-0.86,0.91-1.15c2.14-1.62,4.36-3.13,6.45-4.81
			c0.77-0.62,1.23-1.62,1.93-2.35c0.26-0.27,0.82-0.24,1.24-0.35c0.07,0.43,0.35,0.99,0.18,1.26c-2.32,3.65-5.54,6.25-9.47,8
			c-0.1,0.05-0.24,0.04-0.35,0.05C27.7,30.28,27.53,30.45,27.36,30.61z"/>
		<path class="st0" d="M61.84,61.08c0.24-5.63,2.22-9.69,6.24-12.65c0.44-0.33,1.22-0.2,1.84-0.29c-0.25,0.56-0.35,1.3-0.78,1.65
			c-4.75,3.81-6.39,8.62-4.94,14.54c0.14,0.59-0.24,1.31-0.38,1.96c-0.42-0.49-1.05-0.91-1.21-1.47C62.2,63.4,62,61.91,61.84,61.08z
			"/>
		<path class="st0" d="M68.43,76.19c0.17-6.48,4.64-11.4,10.04-11.47c0.61-0.01,1.23,0.52,1.84,0.8c-0.55,0.3-1.07,0.82-1.64,0.88
			c-4.69,0.47-7.92,3.8-8.42,8.78c-0.02,0.18,0.03,0.38-0.04,0.53c-0.25,0.57-0.53,1.13-0.79,1.7C69,76.89,68.58,76.37,68.43,76.19z
			"/>
		<path class="st0" d="M75.76,27.44c-5.01,0-9.27-3.26-10.38-7.78c-0.13-0.52,0.31-1.19,0.48-1.79c0.38,0.42,0.96,0.79,1.13,1.28
			c1.65,4.93,5.69,7.23,10.85,6.19c0.5-0.1,1.09,0.26,1.64,0.4c-0.41,0.42-0.75,1.04-1.24,1.21C77.34,27.28,76.36,27.34,75.76,27.44
			z"/>
		<path class="st0" d="M85.55,48.31c-4.38-0.83-8.01-2.56-11.07-5.39c-0.28-0.26-0.18-0.92-0.26-1.4c0.48,0.04,1.12-0.11,1.41,0.14
			c2.87,2.49,6.14,4.1,9.86,4.85c0.38,0.08,0.66,0.67,0.99,1.02C86.13,47.83,85.78,48.12,85.55,48.31z"/>
	</g>
</g>
</svg>
