<?xml version="1.0" encoding="utf-8"?>
<!-- Generator: Adobe Illustrator 27.0.0, SVG Export Plug-In . SVG Version: 6.00 Build 0)  -->
<svg version="1.1" id="Capa_1" xmlns="http://www.w3.org/2000/svg" xmlns:xlink="http://www.w3.org/1999/xlink" x="0px" y="0px"
	 viewBox="0 0 100 100" style="enable-background:new 0 0 100 100;" xml:space="preserve">
<style type="text/css">
	.st0{fill:#FFFFFF;}
	.st1{fill-rule:evenodd;clip-rule:evenodd;fill:#FFFFFF;}
</style>
<g>
	<g>
		<path class="st0" d="M60.9,83.87c2.59,0,5.11-0.13,7.62,0.03c4.13,0.26,8.15-2.58,8.89-7.57c0.39-2.62,0.85-5.22,1.22-7.84
			c0.09-0.63,0.35-0.75,0.91-0.74c1.95,0.02,3.89,0.02,5.84,0.01c3.75-0.03,5.96-3.63,4.33-7c-2.42-5-4.87-10-7.17-15.06
			c-0.39-0.87-0.17-2.09-0.02-3.11c1.06-7.24-0.01-14.2-3.04-20.79C74.68,11.35,66.79,4.36,55.68,1.26
			C41.76-2.61,26.59,2.62,17.73,14.23c-5.22,6.83-7.91,14.54-7.97,23.15c-0.01,1.39,0.88,2.12,2.11,1.76
			c0.85-0.24,1.1-0.86,1.11-1.69c0.08-4.12,0.68-8.16,2.21-12c4.48-11.28,12.46-18.71,24.4-21.41c14.49-3.27,29.7,4.15,36.27,17.47
			c2.98,6.04,4.25,12.39,3.6,19.11c-0.1,1.07-0.23,2.14-0.46,3.18c-0.27,1.18-0.05,2.23,0.48,3.29c2.4,4.83,4.77,9.68,7.12,14.54
			c0.24,0.49,0.39,1.08,0.36,1.62c-0.06,0.94-0.72,1.28-1.61,1.27c-2.55-0.01-5.1-0.01-7.66,0c-1.24,0-1.7,0.35-1.91,1.59
			c-0.54,3.31-1.07,6.61-1.54,9.93c-0.41,2.84-2.31,4.58-5.17,4.6c-2.95,0.01-5.91,0-8.86,0c-1.54,0-1.97,0.33-2.25,1.83
			c-0.83,4.44-1.67,8.89-2.43,13.34c-0.13,0.78-0.4,1.04-1.15,0.96c-0.53-0.05-1.08-0.03-1.61,0c-0.98,0.06-1.65,0.79-1.61,1.71
			c0.05,0.92,0.65,1.48,1.66,1.5c1.07,0.02,2.15,0.01,3.22,0c1.48,0,1.91-0.33,2.18-1.78c0.77-4.15,1.52-8.3,2.29-12.45
			C60.63,85.15,60.77,84.53,60.9,83.87z"/>
		<path class="st0" d="M19.28,96.77c-0.85-7.76-1.68-15.36-2.51-22.96c-0.74-6.7-1.48-13.4-2.23-20.09
			c-0.1-0.87-0.19-1.81-1.26-2.07c-1.19-0.3-2.21,0.68-2.08,2.02c0.26,2.6,0.57,5.2,0.86,7.8c0.51,4.6,1.02,9.2,1.53,13.8
			c0.51,4.57,1.02,9.13,1.53,13.69c0.35,3.1,0.67,6.2,1.05,9.29c0.16,1.3,0.71,1.74,2,1.74c9.5,0,19.01,0,28.51,0
			c1.29,0,1.96-0.57,1.94-1.64c-0.02-1.06-0.67-1.58-1.99-1.58c-8.7,0-17.39,0-26.09,0C20.14,96.77,19.75,96.77,19.28,96.77z"/>
		<path class="st0" d="M22.58,35.33c0.07,1,0.05,2.02,0.23,3c0.41,2.25,1.67,3.95,3.69,4.99c1.87,0.96,2.63,2.45,2.6,4.49
			c-0.02,1.2-0.07,2.44,0.21,3.59c0.57,2.4,2.89,3.79,5.41,3.43c2.3-0.33,4.01-2.31,4.04-4.68c0.01-1.11,0.02-2.22,0-3.32
			c-0.02-1.06-0.61-1.64-1.61-1.64c-1,0-1.58,0.58-1.6,1.65c-0.02,0.97,0.01,1.95-0.01,2.92c-0.02,1.21-0.63,1.89-1.64,1.87
			c-0.97-0.02-1.55-0.68-1.58-1.83c-0.03-1.27,0.11-2.57-0.09-3.82c-0.36-2.31-1.62-4.12-3.69-5.23c-1.9-1.02-2.76-2.55-2.67-4.67
			c0.04-1-0.04-2.03,0.13-3.01c0.44-2.53,2.58-4.18,5.01-3.98c2.55,0.21,4.39,2.09,4.52,4.68c0.05,1.11,0,2.22,0.02,3.32
			c0.02,1.06,0.6,1.65,1.6,1.66c1,0,1.63-0.58,1.61-1.63c-0.02-1.67,0.09-3.38-0.22-5.01c-0.76-4.06-4.56-6.66-8.81-6.23
			c-3.95,0.4-7.04,3.84-7.08,7.86c0,0.54,0,1.07,0,1.61C22.62,35.33,22.6,35.33,22.58,35.33z"/>
		<path class="st0" d="M62.58,71.14c-2.58,0-5.2-0.28-7.73,0.06c-5.85,0.78-10.15,5.06-11.22,10.81c-0.56,3.03-1.07,6.07-1.59,9.1
			c-0.24,1.42,0.3,2.36,1.38,2.44c0.93,0.07,1.65-0.45,1.82-1.49c0.48-2.87,0.96-5.75,1.35-8.63c0.75-5.49,4.87-9.18,10.41-9.23
			c4.06-0.03,8.12,0,12.19-0.01c1.25,0,1.88-0.62,1.81-1.74c-0.05-0.93-0.64-1.47-1.67-1.47c-2.25-0.01-4.5,0-6.75,0
			C62.58,71.03,62.58,71.09,62.58,71.14z"/>
		<path class="st0" d="M42.16,40.2c0.01,1.01,0.52,1.54,1.66,1.59c2.99,0.12,5.77,0.89,8.16,2.72c1.09,0.83,2.06,1.82,3.04,2.78
			c2.25,2.21,4.49,4.44,6.68,6.7c0.65,0.67,1.34,0.83,2.18,0.62c4.06-1.01,8.11-2.02,12.17-3.04c1.08-0.27,1.62-1.12,1.38-2.09
			c-0.2-0.85-1.16-1.29-2.31-1.01c-3.09,0.74-6.2,1.4-9.25,2.3c-1.68,0.49-2.79,0.22-3.97-1.11c-2.01-2.25-4.22-4.33-6.38-6.43
			c-3.21-3.12-7.12-4.56-11.55-4.67C42.76,38.52,42.15,39.12,42.16,40.2z"/>
		<path class="st0" d="M32.13,91.83c0.01,0.91,0.7,1.79,1.45,1.89c0.71,0.1,1.66-0.58,1.78-1.47c0.31-2.16,0.49-4.33,0.78-6.49
			c0.54-3.91,0.82-7.89,1.76-11.7c1.22-4.96,4.34-8.77,8.53-11.7c0.52-0.36,0.95-1.02,1.13-1.63c0.11-0.38-0.23-1.13-0.59-1.32
			c-0.45-0.24-1.23-0.29-1.66-0.05c-1.02,0.56-1.97,1.28-2.85,2.05c-4.92,4.27-7.8,9.62-8.56,16.12c-0.54,4.66-1.16,9.31-1.74,13.97
			C32.14,91.61,32.14,91.75,32.13,91.83z"/>
		<path class="st0" d="M53.21,55.64c-0.89,0.32-1.64,0.57-2.39,0.86c-1.04,0.4-1.56,1.21-1.34,2.07c0.22,0.87,1.05,1.39,2.17,1.1
			c1.81-0.46,3.61-1,5.37-1.63c1.21-0.43,1.5-1.78,0.58-2.72c-2.68-2.73-5.36-5.46-8.17-8.06c-1.56-1.45-3.57-2.09-5.73-2.07
			c-1.09,0.01-1.69,0.55-1.72,1.53c-0.03,1.04,0.53,1.62,1.67,1.69c1.67,0.11,3.09,0.69,4.28,1.94
			C49.62,52.11,51.38,53.81,53.21,55.64z"/>
		<path class="st0" d="M32.52,11.3c0.01,1.27,1.04,1.78,2.38,1.27c1.96-0.75,3.91-1.59,5.94-2.1c4.72-1.2,9.42-0.97,14.05,0.56
			c0.16,0.05,0.32,0.1,0.48,0.15c1.01,0.29,1.88-0.01,2.12-0.75c0.27-0.83-0.18-1.78-1.14-2.06c-1.86-0.54-3.72-1.14-5.63-1.42
			c-5.93-0.88-11.6,0.13-17,2.7C32.99,9.99,32.49,10.44,32.52,11.3z"/>
		<path class="st0" d="M27.81,13.62c-0.48,0.24-0.84,0.32-1.05,0.54c-1.12,1.15-2.27,2.28-3.29,3.52c-0.74,0.9-0.56,1.92,0.23,2.47
			c0.81,0.56,1.69,0.33,2.45-0.55c0.89-1.04,1.91-1.99,2.72-3.09c0.32-0.43,0.46-1.25,0.27-1.73
			C28.95,14.29,28.26,13.99,27.81,13.62z"/>
		<path class="st0" d="M10.12,44.44c0.08,0.8,0.15,1.6,0.24,2.4c0.11,0.96,0.84,1.6,1.76,1.56c0.91-0.04,1.56-0.78,1.5-1.77
			c-0.06-1-0.17-2-0.25-3c-0.1-1.26-0.73-1.93-1.76-1.87c-1.04,0.06-1.62,0.9-1.51,2.17c0.02,0.17,0.04,0.33,0.06,0.5
			C10.14,44.44,10.13,44.44,10.12,44.44z"/>
	</g>
</g>
</svg>
