<?xml version="1.0" encoding="UTF-8"?>
<svg id="Capa_1" data-name="Capa 1" xmlns="http://www.w3.org/2000/svg" viewBox="0 0 160.71 200">
  <defs>
    <style>
      .cls-1 {
        fill: #fff;
      }
    </style>
  </defs>
  <path class="cls-1" d="M102.13,167.46c5.17,0,10.21-.26,15.21,.06,8.25,.52,16.27-5.15,17.74-15.12,.77-5.23,1.7-10.43,2.43-15.66,.18-1.27,.7-1.5,1.81-1.48,3.89,.05,7.78,.04,11.66,.01,7.49-.06,11.89-7.25,8.64-13.98-4.84-9.99-9.73-19.96-14.31-30.07-.78-1.73-.35-4.17-.05-6.21,2.12-14.46-.02-28.34-6.08-41.52-9.57-20.82-25.31-34.78-47.5-40.95C63.9-5.21,33.62,5.24,15.92,28.42,5.5,42.06,.12,57.44,0,74.63c-.02,2.78,1.75,4.23,4.22,3.52,1.7-.49,2.19-1.73,2.22-3.37,.16-8.22,1.36-16.28,4.41-23.95C19.8,28.31,35.72,13.48,59.57,8.09c28.93-6.54,59.3,8.29,72.42,34.88,5.95,12.05,8.48,24.74,7.19,38.15-.2,2.13-.45,4.27-.92,6.35-.53,2.37-.1,4.44,.96,6.58,4.79,9.65,9.52,19.32,14.21,29.02,.47,.97,.78,2.16,.72,3.23-.11,1.87-1.44,2.55-3.22,2.54-5.09-.02-10.19-.01-15.28,0-2.47,0-3.4,.7-3.81,3.17-1.08,6.6-2.13,13.21-3.08,19.83-.81,5.67-4.61,9.15-10.32,9.18-5.9,.03-11.8,0-17.7,0-3.07,0-3.93,.67-4.48,3.66-1.65,8.87-3.33,17.74-4.86,26.63-.27,1.55-.8,2.07-2.3,1.91-1.06-.11-2.15-.07-3.21,0-1.96,.12-3.3,1.58-3.2,3.4,.09,1.84,1.3,2.96,3.32,3,2.14,.04,4.29,.01,6.44,0,2.95,0,3.82-.67,4.36-3.56,1.55-8.28,3.04-16.57,4.57-24.85,.23-1.24,.5-2.46,.77-3.78Z"/>
  <path class="cls-1" d="M19.01,193.21c-1.69-15.49-3.34-30.67-5.01-45.84-1.47-13.37-2.95-26.75-4.45-40.12-.19-1.73-.38-3.61-2.52-4.14-2.39-.59-4.42,1.35-4.15,4.04,.52,5.2,1.15,10.38,1.72,15.57,1.02,9.18,2.03,18.36,3.06,27.54,1.01,9.11,2.04,18.23,3.05,27.34,.69,6.19,1.34,12.38,2.1,18.56,.32,2.6,1.42,3.47,3.99,3.47,18.97,0,37.95,0,56.92,0,2.58,0,3.9-1.14,3.87-3.27-.03-2.11-1.34-3.16-3.98-3.16-17.36,0-34.73,0-52.09,0-.79,0-1.58,0-2.52,0Z"/>
  <path class="cls-1" d="M25.61,70.54c.14,2,.1,4.03,.45,5.99,.82,4.49,3.34,7.89,7.37,9.96,3.73,1.92,5.25,4.89,5.2,8.96-.03,2.4-.13,4.88,.41,7.17,1.13,4.8,5.77,7.56,10.8,6.84,4.6-.66,8.01-4.6,8.06-9.35,.02-2.21,.03-4.42,0-6.64-.04-2.11-1.22-3.27-3.22-3.27-2,0-3.15,1.17-3.2,3.29-.04,1.94,.02,3.89-.02,5.83-.05,2.42-1.27,3.77-3.28,3.73-1.94-.05-3.09-1.35-3.15-3.66-.07-2.54,.21-5.14-.18-7.62-.72-4.61-3.23-8.23-7.37-10.45-3.8-2.04-5.51-5.09-5.33-9.32,.08-2-.07-4.05,.27-6.01,.88-5.05,5.16-8.35,10-7.95,5.1,.42,8.77,4.17,9.02,9.34,.11,2.21,0,4.42,.04,6.63,.04,2.12,1.2,3.3,3.19,3.3,2,0,3.24-1.16,3.21-3.26-.05-3.34,.17-6.75-.44-10-1.53-8.1-9.11-13.3-17.58-12.44-7.88,.8-14.06,7.66-14.13,15.69,0,1.07,0,2.14,0,3.22-.04,0-.09,0-.13,0Z"/>
  <path class="cls-1" d="M105.46,142.04c-5.15,0-10.38-.56-15.44,.11-11.68,1.56-20.26,10.1-22.4,21.58-1.13,6.05-2.14,12.11-3.18,18.17-.49,2.83,.6,4.71,2.76,4.87,1.86,.14,3.29-.91,3.64-2.97,.96-5.74,1.91-11.48,2.7-17.24,1.51-10.96,9.72-18.33,20.79-18.42,8.11-.07,16.22,0,24.33-.02,2.5,0,3.74-1.23,3.62-3.48-.11-1.85-1.27-2.93-3.34-2.94-4.49-.03-8.98,0-13.47,0,0,.11,0,.22,0,.32Z"/>
  <path class="cls-1" d="M64.7,80.27c.02,2.01,1.03,3.07,3.32,3.17,5.96,.25,11.52,1.77,16.29,5.43,2.17,1.66,4.12,3.63,6.07,5.56,4.49,4.42,8.96,8.86,13.35,13.38,1.3,1.34,2.67,1.65,4.35,1.23,8.1-2.02,16.2-4.03,24.29-6.07,2.15-.54,3.23-2.24,2.76-4.18-.41-1.7-2.32-2.58-4.62-2.02-6.17,1.48-12.39,2.8-18.47,4.59-3.35,.99-5.56,.45-7.93-2.21-4-4.5-8.42-8.64-12.74-12.84-6.4-6.23-14.21-9.1-23.05-9.33-2.43-.06-3.64,1.14-3.62,3.3Z"/>
  <path class="cls-1" d="M44.68,183.34c.03,1.82,1.4,3.57,2.89,3.77,1.43,.2,3.31-1.17,3.56-2.93,.61-4.3,.97-8.64,1.56-12.95,1.07-7.81,1.65-15.75,3.52-23.37,2.44-9.9,8.66-17.51,17.03-23.36,1.03-.72,1.9-2.04,2.25-3.26,.22-.75-.47-2.27-1.17-2.64-.9-.48-2.45-.58-3.32-.1-2.03,1.12-3.93,2.56-5.7,4.09-9.82,8.52-15.58,19.21-17.09,32.18-1.08,9.3-2.32,18.59-3.48,27.89-.03,.27-.05,.53-.06,.69Z"/>
  <path class="cls-1" d="M86.76,111.08c-1.78,.64-3.28,1.15-4.76,1.71-2.08,.79-3.11,2.42-2.67,4.13,.44,1.74,2.1,2.77,4.34,2.21,3.62-.92,7.21-1.99,10.73-3.25,2.41-.86,2.99-3.54,1.15-5.42-5.35-5.46-10.71-10.91-16.31-16.1-3.12-2.89-7.13-4.17-11.45-4.14-2.17,.01-3.37,1.11-3.43,3.06-.07,2.08,1.05,3.23,3.33,3.37,3.34,.21,6.18,1.39,8.54,3.87,3.36,3.53,6.88,6.91,10.53,10.56Z"/>
  <path class="cls-1" d="M45.45,22.56c.01,2.53,2.07,3.55,4.75,2.53,3.92-1.49,7.81-3.17,11.86-4.2,9.42-2.39,18.81-1.93,28.06,1.12,.32,.1,.64,.2,.96,.29,2.01,.59,3.75-.03,4.23-1.5,.54-1.66-.35-3.55-2.27-4.11-3.71-1.08-7.43-2.28-11.24-2.84-11.84-1.75-23.15,.25-33.95,5.39-1.47,.7-2.46,1.59-2.41,3.31Z"/>
  <path class="cls-1" d="M36.05,27.2c-.95,.48-1.67,.64-2.1,1.08-2.24,2.29-4.54,4.55-6.57,7.02-1.48,1.81-1.12,3.84,.46,4.93,1.62,1.12,3.38,.67,4.89-1.09,1.79-2.08,3.81-3.97,5.44-6.17,.64-.86,.92-2.49,.55-3.45-.38-.98-1.76-1.58-2.67-2.32Z"/>
  <path class="cls-1" d="M.74,88.73c.16,1.6,.3,3.19,.48,4.79,.21,1.92,1.67,3.2,3.51,3.12,1.81-.08,3.11-1.56,2.99-3.53-.12-2-.34-3.99-.5-5.99-.21-2.52-1.45-3.85-3.51-3.73-2.08,.13-3.24,1.79-3.01,4.34,.03,.33,.07,.66,.11,1h-.06Z"/>
</svg>