<?xml version="1.0" encoding="utf-8"?>
<!-- Generator: Adobe Illustrator 27.0.0, SVG Export Plug-In . SVG Version: 6.00 Build 0)  -->
<svg version="1.1" id="Capa_1" xmlns="http://www.w3.org/2000/svg" xmlns:xlink="http://www.w3.org/1999/xlink" x="0px" y="0px"
	 viewBox="0 0 100 100" style="enable-background:new 0 0 100 100;" xml:space="preserve">
<style type="text/css">
	.st0{fill:#FFFFFF;}
	.st1{fill-rule:evenodd;clip-rule:evenodd;fill:#FFFFFF;}
</style>
<g>
	<g>
		<path class="st0" d="M30.38,40.02c-2.89,1.18-5.57,0.76-8.1-0.77c-2.48-1.51-3.53-3.86-2.91-6.42c0.58-2.4,2.48-3.95,5.34-4.13
			c0.9-0.06,1.21-0.42,1.55-1.15c1.59-3.38,3.92-5.96,7.76-6.75c1.94-0.4,3.86-0.2,5.72,0.51c0.32,0.12,0.63,0.25,0.99,0.4
			c0.12-0.96,0.16-1.86,0.35-2.74c0.92-4.27,5.67-5.91,9.08-3.16c0.13,0.11,0.26,0.22,0.27,0.22c1.26-0.79,2.46-1.51,3.62-2.29
			c0.24-0.16,0.39-0.54,0.47-0.85c1.9-7.05,8.06-12.29,15.1-12.83c8.76-0.68,16.93,5.2,19,13.73c1.58,6.54-0.29,12.19-4.7,17.08
			c-2.9,3.21-6.42,5.6-10.27,7.52c-1.51,0.75-2.5,1.78-3.21,3.31c-1.67,3.62-3.48,7.17-5.97,10.32c-3.67,4.66-8.25,7.81-14.24,8.49
			c-3.72,0.42-7.43,0.21-10.92-1.32c-5.3-2.31-8.15-6.55-8.91-12.14C30.12,44.78,30.38,42.44,30.38,40.02z M46.37,34.1
			c-0.07,0.41-0.11,0.64-0.15,0.88c-0.21,1.29-0.36,2.6-0.66,3.88c-0.23,0.97-1.07,1.38-2.01,1.16c-0.87-0.21-1.39-1.05-1.22-1.99
			c0.06-0.34,0.16-0.67,0.22-1.01c0.51-2.97,0.65-5.93-0.51-8.8c-1.97-4.88-7.85-5.83-11.15-1.72c-0.95,1.18-1.56,2.68-2.17,4.09
			c-0.57,1.32-0.9,1.62-2.32,1.53c-0.62-0.04-1.25-0.08-1.87-0.01c-1.68,0.2-2.5,2-1.54,3.33c1.63,2.26,5.42,2.56,7.23,0.47
			c0.76-0.87,1.28-1.96,1.82-3c0.37-0.7,0.55-1.49,0.88-2.21c0.39-0.85,1.23-1.19,2.07-0.9c0.89,0.31,1.32,1.14,1.06,2.07
			c-0.11,0.4-0.27,0.78-0.41,1.18c-1.29,3.65-2.24,7.37-2.13,11.26c0.2,6.95,3.94,11.72,10.46,12.72
			c6.79,1.04,12.53-0.79,17.08-6.06c2.54-2.95,4.39-6.32,5.93-9.85c1.22-2.81,3.02-4.78,5.83-6.12c3.81-1.82,7.21-4.32,9.78-7.75
			c3.51-4.68,4.35-9.8,1.88-15.16c-2.47-5.35-6.82-8.3-12.71-8.69C65.07,2.95,58.9,7.94,57.65,14.62c-0.19,1.03-0.59,1.78-1.71,2.09
			c-2.17,0.59-3.57,2.04-3.88,4.27c-0.31,2.24,0.54,4.06,2.5,5.31c1.07,0.69,1.37,1.68,0.8,2.53c-0.59,0.88-1.55,1.04-2.64,0.3
			c-3.03-2.05-4.55-4.83-4.03-8.57c0.2-1.41-0.58-2.52-1.83-2.67c-1.33-0.15-2.31,0.64-2.52,2.04c-0.76,5.1,1.75,10.38,6.2,13.03
			c2.26,1.35,4.72,1.93,7.35,1.87c1.1-0.02,1.85,0.73,1.83,1.7c-0.02,0.94-0.71,1.61-1.79,1.62c-1,0.01-2.02-0.01-3.01-0.14
			C51.74,37.6,48.96,36.27,46.37,34.1z"/>
		<path class="st0" d="M99.91,44.67c0,0.52-0.05,1.05,0.01,1.56c0.49,4.68-0.56,9-2.67,13.19c-1.8,3.58-3.28,7.32-4.78,11.04
			c-1.19,2.96-3.11,5.28-5.6,7.2c-3.24,2.5-6.46,5.02-9.65,7.58c-0.33,0.27-0.59,0.84-0.6,1.27c-0.05,3.89,0.01,7.77-0.07,11.66
			c-0.01,0.54-0.45,1.26-0.91,1.56c-0.38,0.25-1.2,0.18-1.61-0.08c-0.4-0.27-0.73-0.95-0.74-1.46c-0.06-4.41-0.07-8.81,0.01-13.22
			c0.01-0.58,0.47-1.31,0.94-1.69c3.64-2.94,7.34-5.81,11.02-8.7c1.72-1.35,3.03-2.99,3.89-5.03c2.32-5.52,4.72-11,7.06-16.5
			c0.21-0.49,0.33-1.06,0.34-1.59c0.03-4.44,0.02-8.88,0.03-13.32c0-1.55-0.95-2.33-2.51-2.05c-1.2,0.22-2.08,0.95-2.45,2.03
			c-0.55,1.59-0.95,3.24-1.28,4.89c-0.24,1.22-0.25,2.48-0.4,3.72c-0.13,1-0.85,1.62-1.73,1.56c-0.86-0.07-1.65-0.82-1.59-1.76
			c0.2-3.32,0.4-6.66,1.86-9.73c1.84-3.84,5.78-5.19,9.28-3.24c1.4,0.78,2.22,1.88,2.16,3.6C99.85,39.68,99.91,42.18,99.91,44.67z"
			/>
		<path class="st0" d="M3.29,45.8C2.44,49.96,4,54.67,6.27,59.3c1.69,3.44,3.08,7.04,4.58,10.57c0.78,1.84,2,3.32,3.54,4.54
			c3.62,2.86,7.24,5.71,10.9,8.52c0.97,0.74,1.39,1.56,1.36,2.81c-0.07,4.06-0.03,8.12-0.03,12.18c0,1.34-0.57,2.05-1.64,2.06
			c-1.08,0.01-1.68-0.7-1.68-2.02c0-3.78-0.02-7.56,0.01-11.34c0-0.65-0.17-1.06-0.7-1.47c-3.43-2.65-6.83-5.33-10.24-8.01
			c-2.08-1.64-3.66-3.64-4.7-6.1C5.27,65.35,2.8,59.71,0.4,54.04c-0.25-0.59-0.4-1.26-0.4-1.89c-0.03-5.06,0-10.13-0.03-15.2
			c-0.01-1.23,0.48-2.13,1.39-2.87c2.79-2.26,6.9-1.7,9.13,1.24c1.52,2.01,2,4.38,2.36,6.79c0.2,1.3,0.31,2.61,0.41,3.93
			c0.1,1.29-0.58,2.19-1.61,2.26c-0.97,0.06-1.59-0.6-1.77-1.88c-0.31-2.19-0.54-4.4-0.98-6.56c-0.19-0.94-0.71-1.88-1.29-2.68
			c-0.84-1.16-2.27-1.45-3.53-0.78c-0.36,0.19-0.74,0.75-0.75,1.15C3.26,39.94,3.29,42.33,3.29,45.8z"/>
		<path class="st0" d="M86.21,55.34c-1.95-1.33-3.79-1.54-5.61-0.64c-1.22,0.6-2.4,1.4-3.4,2.32c-2.33,2.17-4.55,4.47-6.8,6.74
			c-0.86,0.87-1.76,1.47-3,1.86c-5.15,1.61-8.57,5.1-10.13,10.27c-0.46,1.53-0.63,3.2-0.65,4.81c-0.07,5.79-0.03,11.59-0.03,17.38
			c0,1.26-0.7,1.98-1.8,1.9c-0.91-0.07-1.52-0.73-1.52-1.76c-0.01-6.45-0.09-12.91,0.03-19.36c0.14-7.2,5.69-14.14,13-16.55
			c0.56-0.19,1.13-0.52,1.56-0.94c2.47-2.38,4.86-4.85,7.36-7.21c1.94-1.83,4.2-3.15,6.94-3.39c3.22-0.28,5.78,1.07,7.87,3.38
			c0.64,0.7,0.42,1.57-0.21,2.26c-0.61,0.66-1.27,1.28-1.91,1.92c-4.03,4.02-8.05,8.04-12.08,12.05c-0.27,0.27-0.54,0.55-0.85,0.76
			c-0.73,0.49-1.46,0.41-2.08-0.18c-0.64-0.6-0.69-1.34-0.3-2.08c0.17-0.33,0.46-0.6,0.73-0.87c3.97-3.98,7.95-7.95,11.93-11.91
			C85.5,55.85,85.8,55.66,86.21,55.34z"/>
		<path class="st0" d="M13.78,55.22c3.63,3.65,7.17,7.22,10.72,10.78c0.78,0.79,1.59,1.55,2.35,2.36c0.8,0.84,0.84,1.9,0.12,2.58
			c-0.73,0.7-1.64,0.66-2.49-0.18c-4.77-4.75-9.54-9.5-14.29-14.27c-0.96-0.97-0.91-1.83,0.08-2.79c3.46-3.36,7.76-3.9,11.86-1.36
			c1.34,0.83,2.56,1.9,3.71,2.99c2.07,1.95,4.03,4.02,6.07,5.99c0.43,0.41,0.99,0.77,1.55,0.96c7.96,2.59,13.14,9.68,13.14,18.03
			c0,5.9,0,11.8,0,17.7c0,1.11-0.47,1.78-1.32,1.95c-1.14,0.22-2-0.57-2-1.89c-0.01-5.83,0-11.66-0.01-17.49
			c0-2.2-0.33-4.36-1.25-6.37c-2.07-4.56-5.45-7.59-10.36-8.84c-0.5-0.13-0.99-0.49-1.37-0.86c-2.43-2.38-4.82-4.8-7.24-7.19
			c-1.45-1.43-3.03-2.65-5.09-3.06C16.48,53.96,15.11,54.3,13.78,55.22z"/>
	</g>
</g>
</svg>
