<?xml version="1.0" encoding="UTF-8"?>
<svg id="Capa_1" data-name="Capa 1" xmlns="http://www.w3.org/2000/svg" viewBox="0 0 200 200">
  <defs>
    <style>
      .cls-1 {
        fill: #fff;
      }
    </style>
  </defs>
  <path class="cls-1" d="M60.79,79.97c-5.78,2.36-11.12,1.52-16.18-1.55-4.97-3.01-7.05-7.71-5.81-12.84,1.16-4.8,4.95-7.89,10.67-8.26,1.79-.12,2.41-.84,3.1-2.3,3.17-6.76,7.84-11.92,15.52-13.49,3.88-.8,7.71-.39,11.43,1.02,.63,.24,1.26,.51,1.98,.8,.24-1.92,.32-3.73,.7-5.47,1.85-8.53,11.34-11.81,18.15-6.32,.27,.21,.53,.43,.55,.45,2.52-1.57,4.92-3.01,7.24-4.57,.48-.32,.78-1.08,.94-1.69C112.88,11.67,125.19,1.19,139.26,.11c17.5-1.35,33.83,10.39,37.96,27.45,3.17,13.07-.57,24.35-9.4,34.14-5.79,6.42-12.84,11.2-20.51,15.02-3.02,1.5-5,3.55-6.42,6.62-3.33,7.23-6.96,14.32-11.93,20.63-7.33,9.31-16.48,15.6-28.46,16.97-7.43,.85-14.85,.41-21.83-2.63-10.59-4.62-16.28-13.08-17.8-24.27-.61-4.54-.1-9.23-.1-14.06Zm31.96-11.82c-.14,.82-.22,1.28-.29,1.75-.43,2.59-.73,5.21-1.33,7.75-.46,1.93-2.15,2.76-4.01,2.32-1.74-.41-2.78-2.1-2.44-3.98,.13-.68,.32-1.35,.44-2.03,1.03-5.94,1.3-11.85-1.02-17.58-3.94-9.75-15.68-11.65-22.29-3.45-1.9,2.36-3.11,5.35-4.34,8.18-1.14,2.63-1.81,3.24-4.63,3.06-1.24-.08-2.51-.16-3.74-.01-3.36,.39-5,4-3.08,6.66,3.25,4.51,10.82,5.11,14.45,.93,1.51-1.74,2.55-3.93,3.63-6,.73-1.4,1.11-2.98,1.76-4.43,.77-1.71,2.46-2.39,4.13-1.8,1.77,.63,2.63,2.27,2.12,4.14-.22,.8-.54,1.57-.82,2.35-2.57,7.29-4.47,14.73-4.25,22.51,.4,13.89,7.87,23.43,20.9,25.43,13.57,2.09,25.05-1.57,34.13-12.1,5.08-5.89,8.78-12.63,11.84-19.68,2.44-5.62,6.04-9.56,11.65-12.24,7.62-3.64,14.4-8.62,19.54-15.48,7.01-9.35,8.69-19.59,3.75-30.29-4.93-10.69-13.63-16.59-25.41-17.37-13.33-.89-25.67,9.08-28.16,22.43-.38,2.06-1.17,3.56-3.42,4.17-4.34,1.18-7.14,4.07-7.75,8.53-.62,4.47,1.08,8.12,4.99,10.62,2.14,1.37,2.73,3.36,1.6,5.06-1.17,1.77-3.1,2.07-5.29,.59-6.06-4.1-9.1-9.66-8.06-17.13,.39-2.82-1.16-5.04-3.65-5.33-2.66-.31-4.62,1.27-5.04,4.07-1.52,10.19,3.5,20.75,12.4,26.04,4.53,2.69,9.43,3.85,14.68,3.73,2.2-.05,3.7,1.46,3.66,3.39-.04,1.88-1.41,3.22-3.57,3.25-2,.02-4.03-.01-6.01-.27-6.34-.82-11.9-3.48-17.07-7.8Z"/>
  <path class="cls-1" d="M199.75,89.28c0,1.04-.09,2.09,.01,3.12,.98,9.35-1.12,17.98-5.33,26.37-3.59,7.16-6.56,14.63-9.56,22.07-2.38,5.92-6.21,10.55-11.2,14.4-6.47,4.99-12.91,10.04-19.28,15.15-.67,.53-1.18,1.68-1.19,2.54-.09,7.76,.02,15.53-.13,23.29-.02,1.09-.89,2.52-1.81,3.12-.76,.5-2.41,.37-3.21-.16-.81-.53-1.47-1.9-1.48-2.92-.11-8.8-.14-17.61,.02-26.41,.02-1.16,.94-2.62,1.89-3.38,7.28-5.87,14.67-11.6,22.03-17.38,3.44-2.7,6.06-5.97,7.78-10.06,4.64-11.02,9.43-21.98,14.12-32.98,.42-.98,.66-2.11,.67-3.18,.06-8.87,.04-17.75,.05-26.62,0-3.11-1.9-4.66-5.01-4.1-2.4,.44-4.15,1.9-4.9,4.06-1.1,3.18-1.9,6.48-2.56,9.78-.49,2.43-.49,4.96-.8,7.43-.25,2.01-1.7,3.24-3.46,3.11-1.71-.13-3.29-1.65-3.18-3.51,.4-6.63,.79-13.31,3.72-19.44,3.68-7.68,11.55-10.38,18.55-6.47,2.79,1.56,4.43,3.76,4.32,7.2-.16,4.99-.04,9.98-.04,14.97Z"/>
  <path class="cls-1" d="M6.66,91.53c-1.7,8.32,1.42,17.73,5.95,26.98,3.37,6.88,6.15,14.06,9.14,21.13,1.55,3.67,3.99,6.64,7.08,9.07,7.23,5.71,14.47,11.42,21.78,17.02,1.94,1.49,2.77,3.12,2.73,5.61-.15,8.11-.05,16.22-.06,24.33,0,2.69-1.14,4.1-3.28,4.12-2.16,.02-3.36-1.4-3.36-4.04,0-7.56-.03-15.11,.02-22.67,0-1.29-.34-2.12-1.4-2.95-6.86-5.29-13.66-10.65-20.46-16.02-4.15-3.27-7.32-7.28-9.4-12.2-4.79-11.33-9.72-22.61-14.52-33.93-.5-1.17-.8-2.52-.81-3.78C0,94.1,.07,83.98,0,73.85c-.02-2.45,.96-4.26,2.78-5.73,5.59-4.52,13.78-3.4,18.25,2.48,3.05,4.01,4,8.76,4.72,13.57,.39,2.6,.62,5.23,.82,7.85,.19,2.57-1.16,4.38-3.22,4.51-1.94,.12-3.17-1.2-3.53-3.76-.62-4.38-1.08-8.79-1.96-13.11-.39-1.89-1.43-3.76-2.58-5.35-1.68-2.32-4.54-2.9-7.06-1.56-.72,.38-1.47,1.5-1.5,2.3-.14,4.78-.07,9.57-.07,16.5Z"/>
  <path class="cls-1" d="M172.37,110.6c-3.9-2.66-7.57-3.07-11.21-1.28-2.44,1.2-4.8,2.79-6.79,4.64-4.66,4.35-9.1,8.94-13.59,13.47-1.71,1.73-3.52,2.93-5.99,3.71-10.29,3.21-17.13,10.19-20.24,20.52-.92,3.06-1.25,6.4-1.29,9.62-.15,11.58-.05,23.15-.06,34.73,0,2.52-1.41,3.96-3.6,3.8-1.82-.13-3.03-1.47-3.04-3.52-.01-12.89-.18-25.79,.06-38.68,.27-14.4,11.37-28.26,25.97-33.08,1.13-.37,2.26-1.05,3.11-1.87,4.94-4.76,9.71-9.7,14.7-14.41,3.88-3.66,8.39-6.29,13.87-6.77,6.44-.57,11.55,2.13,15.73,6.75,1.27,1.4,.83,3.14-.43,4.51-1.22,1.32-2.54,2.56-3.81,3.83-8.05,8.03-16.09,16.06-24.14,24.09-.54,.54-1.08,1.09-1.71,1.51-1.46,.99-2.91,.81-4.16-.37-1.27-1.19-1.38-2.68-.59-4.16,.35-.65,.92-1.2,1.45-1.74,7.94-7.94,15.88-15.88,23.84-23.81,.49-.49,1.09-.86,1.92-1.5Z"/>
  <path class="cls-1" d="M27.62,110.36c7.25,7.29,14.34,14.42,21.42,21.55,1.56,1.57,3.17,3.11,4.7,4.71,1.61,1.68,1.67,3.81,.25,5.16-1.47,1.39-3.28,1.32-4.98-.36-9.54-9.48-19.06-18.99-28.56-28.51-1.92-1.93-1.82-3.66,.15-5.57,6.91-6.71,15.52-7.8,23.7-2.72,2.68,1.66,5.11,3.81,7.41,5.98,4.13,3.9,8.05,8.03,12.14,11.98,.86,.83,1.97,1.55,3.1,1.91,15.9,5.18,26.26,19.34,26.26,36.03,0,11.79,0,23.58,0,35.37,0,2.23-.93,3.57-2.64,3.9-2.28,.44-4-1.14-4-3.78-.01-11.65,0-23.3-.01-34.95,0-4.4-.66-8.7-2.5-12.74-4.14-9.1-10.88-15.16-20.7-17.66-1-.26-1.98-.98-2.74-1.73-4.85-4.75-9.63-9.58-14.46-14.37-2.89-2.86-6.06-5.3-10.17-6.12-3-.59-5.73,.09-8.38,1.94Z"/>
</svg>