<svg id="Capa_1" data-name="Capa 1" xmlns="http://www.w3.org/2000/svg" viewBox="0 0 1674.35 1200"><defs><style>.cls-1{fill:#196480;}.cls-2{fill:#fff;}</style></defs><g id="SVGRepo_iconCarrier" data-name="SVGRepo iconCarrier"><path class="cls-1" d="M619.17,878.81v91.77H1078V878.81A91.85,91.85,0,0,1,1169.79,787h45.88A137.69,137.69,0,0,0,1078,649.38H619.17A137.69,137.69,0,0,0,481.52,787H527.4A91.85,91.85,0,0,1,619.17,878.81Zm596.5-45.89h-45.88a45.84,45.84,0,0,0-45.89,45.89v137.65H573.29V878.81a45.84,45.84,0,0,0-45.89-45.89H481.52a91.86,91.86,0,0,0-91.77,91.77c0,33.84,18.64,63.09,45.88,79v173.36A23,23,0,0,0,458.58,1200h91.77a23,23,0,0,0,22.94-22.94v-22.94H1123.9v22.94a23,23,0,0,0,22.95,22.94h91.77a23,23,0,0,0,22.94-22.94V1003.7c27.24-15.92,45.88-45.17,45.88-79A91.86,91.86,0,0,0,1215.67,832.92Z"/></g><g id="SVGRepo_iconCarrier-2" data-name="SVGRepo iconCarrier"><path class="cls-1" d="M1507.51,481.16c13.73,32.7,5.89,68.75-27.22,68.75h-345c-33.11,0-41-36-27.22-68.75h-98.18a68.77,68.77,0,0,1-68.67-68.92V68.91A68.66,68.66,0,0,1,1009.84,0h595.85a68.76,68.76,0,0,1,68.66,68.91V412.16a68.65,68.65,0,0,1-68.66,68.91h-98.18v.09Z"/><path class="cls-2" d="M1451.19,481.16c10.79,7.93,16.51,22.89,16.51,22.89H1147.83s5.72-15,16.51-22.89ZM987,68.91V412.16a22.94,22.94,0,0,0,22.81,23.14h595.85a22.83,22.83,0,0,0,22.8-23.14V68.91a22.93,22.93,0,0,0-22.8-23.13H1009.84A22.94,22.94,0,0,0,987,68.91Z"/><path class="cls-1" d="M1009.92,114.36a45.72,45.72,0,0,1,45.78-45.61h504.21a45.72,45.72,0,0,1,45.78,45.61V366.79a45.73,45.73,0,0,1-45.78,45.62H1055.7a45.73,45.73,0,0,1-45.78-45.62Z"/><path class="cls-2" d="M1032.81,114.36V366.79a22.8,22.8,0,0,0,22.81,22.73h504.21a22.79,22.79,0,0,0,22.8-22.73V114.36a22.79,22.79,0,0,0-22.8-22.72H1055.7A22.87,22.87,0,0,0,1032.81,114.36Z"/></g><g id="SVGRepo_iconCarrier-3" data-name="SVGRepo iconCarrier"><path class="cls-1" d="M344.69,446.1a44.61,44.61,0,0,0,0,89.22Zm.45,89.22a44.61,44.61,0,0,0,0-89.22ZM464.72,358.67a44.61,44.61,0,0,0,60-66Zm150-165a44.61,44.61,0,0,0,60-66Zm-450.13,99a44.62,44.62,0,0,0,60,66Zm-150-165a44.61,44.61,0,1,0,60,66Zm330.1,407.7h.45V446.1h-.45Zm0-223.05a177.65,177.65,0,0,1,120,46.4l60-66a266.87,266.87,0,0,0-180.06-69.61Zm0-223a399.87,399.87,0,0,1,270.07,104.4l60-66A489.09,489.09,0,0,0,344.69,0Zm-120,269.45a177.62,177.62,0,0,1,120-46.4V223.05a266.89,266.89,0,0,0-180.06,69.61Zm-150-165A399.84,399.84,0,0,1,344.69,89.22V0A489.11,489.11,0,0,0,14.59,127.62Z"/></g></svg>