<?xml version="1.0" encoding="UTF-8"?>
<svg id="Capa_1" data-name="Capa 1" xmlns="http://www.w3.org/2000/svg" viewBox="0 0 200 200">
  <defs>
    <style>
      .cls-1 {
        fill: #fff;
      }
    </style>
  </defs>
  <path class="cls-1" d="M61.6,90.45v-11.24c-4.85,0-9.6,.04-14.33,0-7.98-.08-12.3-4.47-12.3-12.54,0-17.94-.02-35.91,0-53.85C34.97,4.56,39.54-.01,47.7-.01H122.84c8.44,0,12.89,4.45,12.91,12.95,.02,18.04,.02,36.11,0,54.15,0,7.43-4.47,11.98-11.84,12.1-4.67,.08-9.32,.06-13.99,.1-.18,0-.36,.14-.78,.3v10.82h13.27c1.72,0,3.45-.04,5.17,.02,4.95,.14,8.04,3.01,8.14,7.94,.14,6.69,.12,13.39-.02,20.08-.1,4.51-3.29,7.51-7.82,7.59-4.63,.08-9.26,.02-14.01,.02,1.74,4.91,7.15,8.16,13.55,8.28,4.45,.08,8.94-.26,13.37,.16,2.12,.2,4.77,1.24,5.99,2.81,1.56,2.02,3.09,2.32,5.33,2.48,3.35,.22,5.09-.44,5.85-4.31,1.1-5.59,4.49-10.04,10.22-11.88,5.23-1.68,9.6,.32,13.03,4.29,6.39,7.37,6.61,20.24,.62,27.98-5.83,7.55-15.61,7.39-20.96-.64-1.98-2.95-2.99-6.55-4.71-10.44-1.66,0-4.07-.1-6.45,.06-.7,.06-1.56,.78-1.98,1.42-1.7,2.63-4.11,3.87-7.15,3.89-13.47,.06-26.97,.2-40.44,.04-4.01-.04-8-.94-12.14-1.46v18.66c3.59,0,7.11-.04,10.6,.02,3.03,.04,6.11-.06,9.08,.34,4.83,.64,7.94,3.61,9.86,8.04,.42,.98,1.28,2.02,2.22,2.48,5.17,2.53,7.9,7.49,6.75,12.62-1.16,5.13-5.45,8.62-10.68,8.7-5.23,.06-9.76-3.39-10.92-8.36-1.22-5.23,1.3-10.22,6.45-12.77,.36-.18,.74-.32,1.1-.46-1.06-3.37-3.17-5.21-6.55-5.23-13.69-.06-27.39-.06-41.06,0-3.31,.02-5.41,1.9-6.87,5.03,.78,.38,1.48,.7,2.14,1.06,4.57,2.44,6.91,7.66,5.63,12.64-1.26,4.91-5.83,8.24-11.12,8.12-5.11-.12-9.46-3.83-10.48-8.94-.96-4.87,1.66-9.74,6.21-12.08,1.18-.6,2.36-1.78,2.87-2.97,2.18-5.01,6.57-8.08,12.44-8.16,5.45-.08,10.9-.02,16.69-.02,0-6.77,.06-13.23-.08-19.68-.02-.64-1.16-1.44-1.96-1.84-7.45-3.71-14.63-7.88-18.36-15.67-1.64-3.41-3.49-4.49-7.07-4.21-3.93,.32-7.9,.14-11.86,.04-4.89-.1-7.96-3.13-8.04-8.02-.1-6.49-.14-12.97-.02-19.46,.1-5.11,3.15-8.04,8.28-8.1,6.03-.12,12.08-.06,18.32-.06ZM85.23,5.28s0,.02,0,0c-12.77,0-25.55-.02-38.3,.02-4.57,.02-6.67,2.16-6.67,6.73-.02,18.24-.02,36.49,0,54.73,0,5.27,2.12,7.39,7.35,7.39H123.01c5.33,0,7.43-2.02,7.43-7.29,.02-18.14,0-36.29-.02-54.43,0-5.19-1.96-7.11-7.19-7.13-12.66-.02-25.33-.02-38-.02Zm20.5,115.57q.18-3.83-2.44-6.29c-3.87-3.63-3.47-9.94,.82-12.97,3.97-2.81,9.36-1.76,11.96,2.32,2.77,4.33,1.38,9.58-3.51,12.04-1.76,.88-2.02,2.04-1.46,3.33,.36,.8,1.64,1.62,2.52,1.66,4.35,.16,8.72,0,13.07,.1,2.73,.06,3.81-1.1,3.77-3.81-.1-5.67-.02-11.36-.04-17.03,0-4.29-.38-4.65-4.71-4.65H62.16c-6.09,0-12.16,.04-18.24,0-2.1-.02-3.67,.52-3.67,2.95-.02,6.59-.1,13.17,.12,19.76,.04,.96,1.58,2.59,2.5,2.65,5.15,.26,10.3,.12,15.45,.12,.02-3.83,.02-3.85-2.67-5.97-2.91-2.3-3.97-6.05-2.67-9.54,1.24-3.35,4.41-5.55,7.96-5.49,3.53,.04,6.97,2.65,7.92,6.03s-.18,7.55-3.15,9.12c-2.89,1.52-2.63,3.33-1.56,5.75,13.89-.08,27.75-.08,41.6-.08Zm-17.86,5.25c0,5.41-.08,10.36,.08,15.31,.02,.74,1.14,1.96,1.88,2.06,5.41,.78,10.82,1.76,16.25,1.84,11.24,.14,22.5-.26,33.75-.4,1.9-.02,3.69-.34,3.71-2.59,.02-2.38-1.82-2.85-3.83-2.85-4.05,.02-8.1,.1-12.16-.02-8.56-.24-15.21-3.69-19.2-11.6-.38-.76-1.38-1.68-2.12-1.68-5.99-.12-11.96-.06-18.36-.06Zm-20.84-35.87h36.39v-10.76h-36.39v2.95c0,2.52,0,5.05,0,7.8Zm95.75,54.05c-.34,.44-.66,.88-1,1.34,1.32,2.55,2.32,5.35,4.03,7.62,2.93,3.87,7.43,3.97,10.82,.66,5.83-5.69,5.69-18.06-.24-23.55-2.67-2.46-6.03-2.81-8.86-.72-3.25,2.42-4.75,5.81-5.35,10.88,2.65-.94,4.69-1.48,6.55-2.36,2.4-1.12,4.51-1.12,6.39,.82,1.64,1.72,1.64,4.61,.14,6.41-1.7,2.02-4.17,2.16-6.59,.9-1.84-.94-3.93-1.34-5.89-2Zm-80.62-3.27v-14.65h-16.51c3.47,7.41,9.62,11.08,16.51,14.65Zm-27.23,53.53c3.03,.06,5.83-2.61,5.99-5.75,.14-3.05-2.53-5.93-5.61-6.07-3.31-.16-6.05,2.5-6.07,5.85-.02,3.23,2.53,5.91,5.69,5.97Zm66.55-5.91c0-3.21-2.57-5.85-5.75-5.89-3.09-.04-5.89,2.63-5.99,5.73-.1,3.13,2.81,6.09,5.99,6.09,3.07-.02,5.75-2.77,5.75-5.93ZM61.46,104.7c-.48,.02-.96,.02-1.44,.04-.8,1.28-2.3,2.61-2.18,3.81,.1,1.12,1.78,2.75,2.95,2.95,1.78,.3,3.47-1.08,3.11-3.09-.24-1.34-1.6-2.48-2.46-3.71Zm51.14,4.65c.04-.48,.06-.96,.1-1.44-1.2-.9-2.4-2.5-3.59-2.52-1.06,0-2.73,1.6-3.07,2.79-.54,1.94,.92,3.49,2.89,3.29,1.28-.12,2.46-1.38,3.67-2.14Z"/>
  <path class="cls-1" d="M77.54,10.17c8,0,16.01-.02,24.01,.02,4.87,.02,7.84,2.75,7.88,7.64,.1,14.59,.12,29.18,0,43.75-.04,4.83-3.11,7.62-7.98,7.62-15.91,.04-31.8,.04-47.71,0-5.01,0-7.96-2.95-7.98-7.9-.02-14.39-.02-28.76,0-43.15,.02-5.27,2.81-8,8.08-8.02,7.9,.04,15.79,.04,23.69,.04Zm.1,54.79h22.79c3.87,0,4.65-.72,4.65-4.63,.04-13.87,.04-27.77,0-41.64,0-3.45-.86-4.21-4.39-4.21-15.39-.02-30.8-.02-46.19,0-3.69,0-4.47,.76-4.47,4.41-.02,13.87-.02,27.77,0,41.64,0,3.55,.86,4.41,4.51,4.43,7.7,.02,15.39,0,23.09,0Z"/>
  <path class="cls-1" d="M126.91,58.85c-.06,3.43-2.89,6.21-6.25,6.13-3.43-.1-6.15-2.83-6.15-6.25s2.99-6.47,6.41-6.31c3.37,.14,6.03,3.01,5.99,6.43Zm-3.57-.16c-1.26-.86-1.98-1.72-2.67-1.72-.6,0-1.76,1.14-1.68,1.58,.16,.78,1,1.82,1.7,1.94,.58,.12,1.4-.9,2.65-1.8Z"/>
  <path class="cls-1" d="M120.6,22.48c-1.32,0-2.67,.24-3.89-.08-.84-.24-2.02-1.3-2-1.96,.02-.74,1.16-2.02,1.92-2.1,2.69-.26,5.43-.26,8.12,0,.76,.08,1.42,1.32,2.14,2.02-.78,.72-1.46,1.78-2.38,2.04-1.22,.36-2.61,.08-3.91,.08Z"/>
  <path class="cls-1" d="M120.82,29.59c1.32,0,2.71-.26,3.93,.08,.84,.24,1.82,1.24,1.98,2.06,.12,.54-1.06,1.9-1.72,1.96-2.81,.24-5.67,.26-8.48,.02-.72-.06-1.66-1.36-1.84-2.24-.1-.46,1.14-1.6,1.9-1.76,1.36-.3,2.81-.08,4.23-.08,0,0,0-.02,0-.04Z"/>
  <path class="cls-1" d="M120.9,40.75c1.3,0,2.69-.28,3.89,.1,.82,.24,1.88,1.36,1.9,2.12,.02,.66-1.22,1.88-1.98,1.94-2.69,.24-5.43,.22-8.12,0-.72-.06-1.96-1.22-1.9-1.72,.12-.86,.96-2.08,1.72-2.28,1.42-.36,2.99-.1,4.49-.1v-.06Z"/>
  <path class="cls-1" d="M80.28,34.22c.06-.78,.1-1.58,.16-2.36,.34-3.89,3.79-6.79,7.43-5.43,2.89,1.08,5.79,2.95,7.9,5.21,3.73,4.03,5.45,9.24,5.87,14.71,.28,3.53,.2,7.11,.04,10.64-.2,4.27-2.85,6.03-6.81,4.45-3.19-1.28-6.33-2.71-9.32-4.39-3.31-1.86-5.11-4.85-5.11-8.74,0-2.53-.12-5.07,.06-7.6,.16-2.34-1.38-3.27-3.03-3.29-1.68-.02-2.81,1.18-2.65,3.27,.2,2.42,.1,4.87,.04,7.31-.08,3.69-1.52,6.87-4.69,8.7-3.39,1.98-7.03,3.59-10.68,5.05-2.63,1.06-5.41-.34-5.63-2.93-.8-9.26-1.24-18.6,4.97-26.47,1.8-2.3,4.35-4.35,7.01-5.51,4.73-2.08,8.36,.46,9.02,5.63,.06,.48,.1,.96,.84,1.48v-4.13c0-1.52-.26-3.09,.06-4.55,.6-2.63-1.86-7.47,1.66-7.53,3.63-.04,1.3,4.75,1.74,7.35,.4,2.38,.06,4.85,.12,7.29,.02,.64,.22,1.28,.34,1.92,.22-.04,.44-.04,.68-.06Zm-22.97,25.11c4.29-2.22,8.08-3.87,11.48-6.09,1.3-.84,2.32-2.97,2.42-4.57,.3-5.35,.14-10.7,.1-16.07-.02-2.42-1.62-3.33-3.65-2.75-1.58,.46-3.41,1.34-4.27,2.61-2.16,3.21-4.33,6.61-5.57,10.24-1.74,5.05-1.18,10.42-.5,16.63Zm39.84-.32c.3-.3,.58-.58,.88-.88,.24-7.62,1.22-15.43-3.53-22.24-1.52-2.18-3.53-4.21-5.77-5.59-2.77-1.72-4.77-.4-4.83,2.81-.1,4.97-.18,9.94,.06,14.89,.08,1.68,.76,4.01,1.98,4.83,3.51,2.4,7.45,4.15,11.22,6.17Z"/>
</svg>