<?xml version="1.0" encoding="UTF-8"?>
<svg id="Capa_1" data-name="Capa 1" xmlns="http://www.w3.org/2000/svg" viewBox="0 0 200 200">
  <defs>
    <style>
      .cls-1 {
        fill: #196480;
      }
    </style>
  </defs>
  <path class="cls-1" d="M187.77,21.4c-3.38-6.4-7.4-12.28-13.13-16.87-11.57-9.25-28.74-5.02-32.21,11.01-1.74,8.03-1.58,16.14-1.42,24.26,.03,1.51-.35,1.96-1.78,2.07-5.77,.41-11.18,2.15-16.2,4.98-9.74,5.47-16.42,13.25-18.21,24.63-1.22,7.76-.16,15.39,1.25,23.01,1.33,7.2,2.53,14.42,1.82,21.79-.25,2.62-.73,5.19-2.08,7.5-2.36,4.05-7.25,4.02-9.57-.07-.56-.98-.98-2.07-1.27-3.16-1.39-5.22-1.15-10.51-.59-15.8,.79-7.34,2.73-14.51,3.24-21.89,.66-9.64-.58-18.85-7.04-26.53-7.09-8.44-16.26-13.21-27.22-14.38-1.86-.2-2.36-.68-2.3-2.62,.22-7.51,.38-15.06-1.15-22.48-1.58-7.69-5.25-13.75-13.26-16.22-6.99-2.15-13.26-.56-18.94,3.74-6.77,5.12-11.14,12.11-14.7,19.62C.1,51.2,3.28,76.66,21.65,100.33c3.5,4.51,7.98,7.96,13.38,10.02,11.02,4.21,21.95-1.9,24.13-13.43,1.03-5.43,.48-10.84-.25-16.24-.79-5.87-1.43-11.72-.68-17.66,.14-1.08,.46-1.38,1.48-1.19,1.58,.28,3.2,.4,4.77,.75,7.6,1.68,12.31,6.2,13.43,12.92,.39,2.33,.35,4.7,.06,7.03-.77,6.06-1.62,12.11-2.1,18.2-.86,10.91-.74,21.74,2.82,32.26,.5,1.47,.26,2.56-1.11,3.45-1.12,.73-2.17,1.59-3.16,2.49-8.83,7.98-10.82,19.4-5.04,28.92,2.83,4.66,6.8,8.14,11.61,10.58,1.84,.94,2.46,2.07,2.41,4.08-.14,4.63-.06,9.27-.04,13.9,.01,2.79,1.13,3.91,3.92,3.92,4.43,.02,8.87,0,13.3,0,4.37,0,8.73,.01,13.1,0,2.95,0,4.01-1.05,4.03-3.98,.02-4.7,.03-9.4,0-14.11-.01-1.45,.5-2.37,1.86-2.99,2.7-1.22,5.2-2.8,7.42-4.77,7.03-6.24,10.61-13.81,8.28-23.32-1.5-6.13-5.34-10.77-10.39-14.38-1.68-1.2-2.07-2.39-1.33-4.25,.57-1.42,.91-2.94,1.26-4.44,2.72-11.64,1.97-23.33,.66-35.05-.58-5.19-1.73-10.34-1.48-15.61,.26-5.52,2.68-9.72,7.52-12.5,3.46-1.99,7.25-2.69,11.14-3.14,1.18-.13,1.08,.55,1.18,1.31,.79,5.86,.14,11.66-.65,17.45-.75,5.53-1.3,11.07-.23,16.64,1.91,9.92,10.78,16,20.7,14.1,5.61-1.07,10.22-4.06,14.1-8.07,11.46-11.86,17.33-26.26,18.82-42.55,1.28-14.02-2.28-26.98-8.78-39.28ZM54.72,40.61c-.05,.7-.05,1.34-1.04,1.34-1.6,0-3.17,.59-5.02,.26,.99-2.4,1.57-4.73,1.81-7.14,.22-2.24-.76-3.8-2.63-4.03-2.03-.26-3.47,1.03-3.61,3.36-.12,1.98-.76,3.79-1.47,5.61-.4,1.02-.91,1.12-1.8,.62-2.55-1.42-4.75-3.26-6.75-5.37-.88-.92-1.87-1.55-3.21-1.21-2.34,.58-3.33,3.2-1.67,5.05,5.51,6.15,12,10.3,20.74,9.43,3.95-.39,3.95-.36,3.31,3.53-.53,3.19-.53,3.16-3.72,3.19-2.69,.03-5.37-.22-8.03-.57-6.07-.79-10.72-3.98-14.43-8.71-.79-1-1.5-2.07-2.27-3.08-1.22-1.59-3.16-1.94-4.59-.86-1.35,1.02-1.56,2.84-.48,4.5,2.07,3.17,4.51,6.03,7.41,8.45,1.05,.88,1.01,1.27-.13,1.98-3.15,1.98-5.84,4.51-8.24,7.34-1.62,1.92-1.61,3.61-.04,4.94,1.48,1.25,3.14,1.01,4.72-.8,2.31-2.65,5.01-4.81,7.85-6.88,2.71-1.98,5.32-2.02,8.36-.64-2.35,2.7-4.53,5.48-6.02,8.71-.77,1.67-.22,3.33,1.28,4.15,1.49,.82,3.16,.36,4.18-1.19,.37-.56,.65-1.17,.99-1.75,1.9-3.31,4.36-6.11,7.43-8.38,.54-.4,1.07-.79,1.78-.89,2.23-.32,2.65-.04,2.43,2.22-.77,7.7,.68,15.25,1.43,22.85,.35,3.5,.35,6.97-.59,10.39-1.68,6.14-7.62,9.56-13.78,7.91-5.22-1.39-9.17-4.68-12.52-8.73-10.61-12.82-15.62-27.68-14.69-44.2,.88-15.56,6.79-29.31,17.52-40.75,3.64-3.88,8.24-6.06,13.77-5.15,5.85,.97,9.62,5.07,10.8,11.98,1.27,7.44,1.43,14.95,.92,22.48Zm86.48,15.09c-3.29,.19-6.51,.93-9.57,2.2-10.75,4.45-15,13.12-13.84,24.19,1.09,10.48,2.9,20.89,2.56,31.48-.19,5.99-1.04,11.88-2.91,17.6-1.48,4.52-.49,7.52,3.38,10.35,3.89,2.85,7.1,6.27,8.33,11.03,1.86,7.24-1.15,12.82-6.53,17.41-1.84,1.57-3.94,2.77-6.13,3.82-3.35,1.61-5.04,4.28-5,8.03,.03,3.43-.07,6.85,.04,10.28,.04,1.46-.29,2.01-1.86,1.94-3.02-.13-6.04-.04-9.07-.04-3.09,0-6.18-.06-9.27,.03-1.35,.04-1.69-.43-1.67-1.72,.08-3.56,.02-7.12,.03-10.68,0-3.77-1.56-6.58-4.98-8.29-2.84-1.42-5.4-3.25-7.57-5.59-6.28-6.75-6.3-15.92-.03-22.68,1.33-1.43,2.84-2.65,4.42-3.8,3.4-2.47,4.59-5.75,3.26-9.71-3.55-10.56-3.57-21.37-2.47-32.26,.6-5.94,1.45-11.86,2.07-17.79,1.38-13.17-6.87-23.36-20.51-25.44-.53-.08-1.06-.15-1.59-.24q-3.14-.52-2.67-3.61c.68-4.5,.72-4.7,5.19-3.8,11.09,2.25,20.09,7.54,24.72,18.41,2.43,5.71,2.24,11.81,1.62,17.86-.74,7.21-2.65,14.25-3.21,21.49-.45,5.92-.54,11.83,1.46,17.53,1.54,4.39,4.12,7.85,8.96,8.97,4.99,1.16,9.58-.7,12.39-5.01,2.67-4.08,3.36-8.71,3.59-13.44,.35-7.3-.9-14.45-2.22-21.58-1-5.42-1.69-10.86-1.47-16.41,.35-8.91,4.06-15.98,11.25-21.25,5.43-3.98,11.47-6.31,18.16-7.01,1.33-.14,1.98,.22,2.06,1.64,.08,1.4,.22,2.82,.55,4.19,.33,1.39,.05,1.81-1.46,1.9Zm49.25,1.96c-.91,15.96-6.27,30.13-17.7,41.61-3.4,3.42-7.44,5.99-12.56,6.04-5.17,.05-9.33-3.06-10.78-8.03-1.37-4.71-.89-9.47-.26-14.19,.84-6.33,1.58-12.64,1.09-19.05-.06-.77-.66-1.94,.39-2.32,1.03-.37,2.24-.35,3.28,.38,3.3,2.31,5.91,5.25,7.92,8.73,.27,.46,.5,.95,.78,1.41,1.14,1.87,2.74,2.45,4.37,1.58,1.62-.86,2.08-2.6,1.16-4.5-1.48-3.04-3.49-5.71-5.91-8.39,2.53-.8,4.68-1.74,7.23-.07,3.35,2.19,6.46,4.57,9.05,7.62,1.15,1.35,2.51,2.06,4.24,1.11,1.86-1.02,2.17-3.16,.67-4.99-2.4-2.92-5.13-5.52-8.35-7.52-1.34-.84-1.23-1.29-.1-2.24,2.74-2.29,5.05-5.01,7.04-7.98,1.27-1.9,1.15-3.76-.3-4.84-1.53-1.13-3.48-.66-4.82,1.22-3.11,4.38-6.54,8.39-11.8,10.26-4.9,1.74-10,1.76-15.11,1.74-.86,0-.92-.57-.99-1.21-.17-1.4-.24-2.82-.59-4.18-.37-1.45,.23-1.61,1.4-1.47,4.46,.53,8.82,.37,12.99-1.6,3.77-1.78,6.95-4.32,9.72-7.37,1.45-1.59,1.37-3.41-.04-4.65-1.37-1.21-2.98-1.13-4.47,.36-2.05,2.05-4.2,3.94-6.73,5.4-1.11,.64-1.64,.42-2.07-.73-.65-1.76-1.27-3.51-1.38-5.43-.13-2.31-1.59-3.6-3.62-3.34-1.88,.24-2.85,1.79-2.62,4.04,.24,2.42,.82,4.74,1.82,7.14-1.85,.33-3.42-.25-5.03-.26-.81,0-.99-.43-1.03-1.14-.45-8.13-.63-16.27,1.32-24.23,1.87-7.61,6.84-11.15,14.19-10.51,3.92,.34,7.07,2.42,9.84,5.05,5.36,5.09,8.84,11.42,11.87,18.05,4.14,9.05,6.44,18.51,5.87,28.49Z"/>
  <path class="cls-1" d="M114.66,146.73c-4.06-2.79-8.61-3.93-13.44-4.04-5.05,.06-9.73,1.23-13.9,4.12-1.92,1.33-2.38,3-1.34,4.61,1.04,1.61,2.79,1.82,4.76,.63,6.83-4.13,13.68-4.15,20.52-.04,2,1.2,3.7,1.05,4.78-.51,1.13-1.64,.64-3.37-1.38-4.76Z"/>
</svg>