<!DOCTYPE svg PUBLIC "-//W3C//DTD SVG 1.1//EN" "http://www.w3.org/Graphics/SVG/1.1/DTD/svg11.dtd">
<!-- Uploaded to: SVG Repo, www.svgrepo.com, Transformed by: SVG Repo Mixer Tools -->
<svg fill="#196480" height="800px" width="800px" version="1.1" id="Layer_1" xmlns="http://www.w3.org/2000/svg" xmlns:xlink="http://www.w3.org/1999/xlink" viewBox="0 0 500.004 500.004" xml:space="preserve">
<g id="SVGRepo_bgCarrier" stroke-width="0"/>
<g id="SVGRepo_tracerCarrier" stroke-linecap="round" stroke-linejoin="round"/>
<g id="SVGRepo_iconCarrier"> <g> <g> <path d="M488.188,121.096H468.66c-2.156,0-3.816-1.672-3.816-3.824V78.044c0-6.46-5.348-11.636-11.808-11.636H46.868 c-6.46,0-11.712,5.176-11.712,11.636v39.228c0,2.152-1.756,3.824-3.916,3.824H11.664C5.2,121.096,0,126.432,0,132.896v226.48 c0,6.46,5.2,11.72,11.664,11.72h19.58c2.156,0,3.916,1.752,3.916,3.908v46.956c0,6.46,5.248,11.636,11.712,11.636H453.04 c6.46,0,11.808-5.176,11.808-11.636v-46.956c0-2.152,1.66-3.908,3.816-3.908h19.528c6.46,0,11.812-5.256,11.812-11.72v-226.48 C500,126.432,494.648,121.096,488.188,121.096z M433.596,398.44h-0.004c0,2.16-1.748,3.908-3.908,3.908H70.312 c-2.16,0-3.908-1.748-3.908-3.908V101.568c0-2.16,1.748-3.908,3.908-3.908h359.376c2.16,0,3.908,1.748,3.908,3.908V398.44z"/> </g> </g> <g> <g> <path d="M372.072,238.284H261.72v-11.72h110.352v0.004c6.472,0,11.72-5.248,11.72-11.72s-5.248-11.72-11.72-11.72H261.72v-11.72 h89.34c6.472,0,11.72-5.248,11.72-11.72c0-6.472-5.248-11.72-11.72-11.72h-89.34v-11.72h67.636c6.476,0,11.72-5.248,11.72-11.72 s-5.244-11.72-11.72-11.72H260.68c-1.804-3.908-5.92-7.044-10.732-7.044c-4.812,0-8.932,3.136-10.736,7.044h-68.676 c-6.472,0-11.72,5.248-11.72,11.72s5.248,11.72,11.72,11.72h67.744v11.72h-89.468c-6.472,0-11.72,5.248-11.72,11.72 c0,6.472,5.248,11.72,11.72,11.72h89.468v11.72H127.788c-6.476,0-11.72,5.248-11.72,11.72s5.244,11.72,11.72,11.72H238.28v11.72 H127.788c-6.476,0-11.72,5.248-11.72,11.72c0,6.472,5.244,11.72,11.72,11.72H238.28v22.796c0,6.468,5.248,11.72,11.72,11.72 s11.72-5.248,11.72-11.72v-22.8h110.352c6.472,0,11.72-5.248,11.72-11.72C383.792,243.532,378.544,238.284,372.072,238.284z"/> </g> </g> <g> <g> <path d="M218.224,273.44h-90.412c-6.472,0-11.72,5.248-11.72,11.72c0,6.472,5.248,11.72,11.72,11.72h90.412 c6.476,0,11.72-5.248,11.72-11.72C229.944,278.688,224.696,273.44,218.224,273.44z"/> </g> </g> <g> <g> <path d="M205.328,308.596h-64.62c-6.472,0-11.72,5.248-11.72,11.72c0,6.472,5.248,11.72,11.72,11.72h64.616 c6.472,0,11.72-5.248,11.72-11.72C217.044,313.844,211.8,308.596,205.328,308.596z"/> </g> </g> <g> <g> <path d="M190.4,343.756h-34.76c-6.476,0-11.72,5.248-11.72,11.72c0,6.472,5.244,11.72,11.72,11.72h34.76 c6.476,0,11.72-5.248,11.72-11.72C202.12,349.004,196.872,343.756,190.4,343.756z"/> </g> </g> <g> <g> <path d="M372.072,273.44h-90.416c-6.472,0-11.72,5.248-11.72,11.72c0,6.472,5.248,11.72,11.72,11.72h90.416 c6.472,0,11.72-5.248,11.72-11.72C383.792,278.688,378.544,273.44,372.072,273.44z"/> </g> </g> <g> <g> <path d="M359.16,308.596h-64.604c-6.472,0-11.72,5.248-11.72,11.72c0,6.472,5.248,11.72,11.72,11.72h64.604 c6.476,0,11.72-5.248,11.72-11.72C370.88,313.844,365.636,308.596,359.16,308.596z"/> </g> </g> <g> <g> <path d="M344.248,343.756h-34.76c-6.476,0-11.72,5.248-11.72,11.72c0,6.472,5.244,11.72,11.72,11.72h34.76 c6.472,0,11.72-5.248,11.72-11.72C355.968,349.004,350.72,343.756,344.248,343.756z"/> </g> </g> </g>
</svg>