<?xml version="1.0" encoding="utf-8"?>
<!-- Generator: Adobe Illustrator 27.0.0, SVG Export Plug-In . SVG Version: 6.00 Build 0)  -->
<svg version="1.1" id="Capa_1" xmlns="http://www.w3.org/2000/svg" xmlns:xlink="http://www.w3.org/1999/xlink" x="0px" y="0px"
	 viewBox="0 0 100 100" style="enable-background:new 0 0 100 100;" xml:space="preserve">
<style type="text/css">
	.st0{fill:#FFFFFF;}
	.st1{fill-rule:evenodd;clip-rule:evenodd;fill:#FFFFFF;}
</style>
<g>
	<g>
		<path class="st0" d="M63.59,95.74c-2.29,0-4.59-0.01-6.88-0.01l-5.88-0.01l-7.51,0.01c-4.92,0-9.83,0.01-14.75-0.01
			c-9.06-0.03-14.04-5.08-14.02-14.23c0.02-7.52,1.14-13.44,3.52-18.64c1.85-4.02,4.35-6.7,7.65-8.2c2.82-1.28,6.6-2.36,10.82,0.67
			c8.56,6.13,17.46,6.26,26.44,0.4c5.46-3.56,10.57-3.04,14.8,1.52c2.65,2.86,4.3,6.25,5.22,8.59c2,5.09,2.7,10.81,2.22,18.01
			c-0.47,7.01-5.56,11.77-12.67,11.85C69.56,95.73,66.58,95.74,63.59,95.74z M48.65,93.34l8.07,0.01c5.27,0.01,10.54,0.03,15.8-0.03
			c5.89-0.07,9.94-3.85,10.33-9.64c0.46-6.84-0.19-12.24-2.06-16.99c-1.21-3.08-2.85-5.79-4.75-7.84c-3.43-3.7-7.28-4.07-11.76-1.15
			c-9.89,6.45-19.68,6.3-29.12-0.46c-2.59-1.86-5.04-1.98-8.46-0.43c-2.79,1.27-4.85,3.5-6.47,7.03c-2.24,4.87-3.28,10.48-3.3,17.65
			c-0.02,7.84,3.9,11.82,11.65,11.85c4.91,0.02,9.83,0.01,14.74,0.01L48.65,93.34z"/>
	</g>
	<g>
		<path class="st0" d="M49.94,58.33c-0.02,0-0.04,0-0.07,0c-5.26-0.02-10.23-2.12-14-5.93c-3.75-3.79-5.8-8.74-5.76-13.95
			c0.08-10.83,9.1-19.59,20.14-19.59c0.04,0,0.08,0,0.12,0c10.86,0.06,19.33,8.77,19.29,19.82C69.62,49.71,60.96,58.33,49.94,58.33z
			 M50.24,21.23c-9.74,0-17.7,7.71-17.76,17.23c-0.03,4.57,1.77,8.93,5.07,12.26c3.33,3.36,7.7,5.22,12.32,5.23
			c0.02,0,0.04,0,0.06,0c9.7,0,17.31-7.58,17.34-17.29l0,0c0.03-9.72-7.4-17.38-16.93-17.44C50.32,21.23,50.28,21.23,50.24,21.23z"
			/>
	</g>
	<g>
		<path class="st0" d="M87.93,56.42c-0.91,0-1.82-0.03-2.71-0.06l-1.24-0.04c-0.73-0.02-1.72-0.28-2.34-0.95
			c-2.68-2.89-6.21-4.7-10.49-5.36l-1.28-0.2l4.15-17.3l1.22,0.39c4.66,1.5,9.7,0.59,15.87-2.87c1.5-0.84,2.73-0.72,3.51-0.46
			c1.26,0.41,2.34,1.48,3.04,3.01c2.37,5.14,2.94,11.13,1.71,17.8c-0.94,5.09-6.54,5.68-8.65,5.9
			C89.79,56.38,88.85,56.42,87.93,56.42z M72.77,47.89c4.22,0.89,7.87,2.9,10.61,5.86c0.06,0.06,0.35,0.18,0.66,0.18l1.26,0.04
			c1.72,0.06,3.49,0.12,5.17-0.06c4.17-0.44,6.13-1.63,6.57-3.97c1.14-6.18,0.63-11.69-1.53-16.37c-0.42-0.91-1.01-1.55-1.62-1.75
			c-0.48-0.16-1-0.06-1.61,0.28c-6.17,3.46-11.59,4.58-16.52,3.4L72.77,47.89z"/>
	</g>
	<g>
		<path class="st0" d="M13.12,56.54c-1.6,0-3.27-0.22-4.76-0.42c-6-0.8-8.61-3.99-8.34-10.08c0.2-4.43,0.7-8.2,1.53-11.51
			c0.61-2.45,1.62-3.95,3.07-4.6c1.49-0.66,3.27-0.39,5.6,0.84c5.27,2.79,10.12,3.51,14.42,2.14l1.21-0.39l4.23,17.26l-1.26,0.21
			c-3.81,0.64-7.5,2.96-10.93,5.37C16.61,56.26,14.91,56.54,13.12,56.54z M6.32,31.95c-0.28,0-0.52,0.05-0.73,0.14
			c-0.73,0.32-1.31,1.34-1.73,3c-0.79,3.16-1.27,6.77-1.46,11.04C2.17,51,3.9,53.13,8.54,53.74c2.74,0.36,6.32,0.84,7.98-0.33
			c3.3-2.32,6.85-4.57,10.65-5.51l-3.04-12.4c-4.61,1.09-9.65,0.2-15.03-2.64C7.96,32.26,7.03,31.95,6.32,31.95z"/>
	</g>
	<g>
		<path class="st0" d="M19.89,31.19c-3.72,0-7.16-1.38-9.71-3.88c-2.5-2.46-3.89-5.79-3.91-9.37c-0.02-3.65,1.4-7.1,4-9.7
			c2.56-2.56,5.92-3.97,9.47-3.97c0.02,0,0.03,0,0.04,0c7.47,0.02,13.35,5.91,13.4,13.4v0c0.04,7.63-5.61,13.44-13.14,13.52
			C20,31.19,19.94,31.19,19.89,31.19z M19.75,6.64c-2.92,0-5.68,1.16-7.79,3.27c-2.15,2.15-3.33,5-3.31,8.01
			c0.01,2.95,1.15,5.68,3.2,7.69c2.13,2.09,5.04,3.21,8.18,3.2c6.18-0.06,10.82-4.85,10.79-11.13l0,0
			C30.78,11.5,25.93,6.65,19.78,6.64C19.77,6.64,19.76,6.64,19.75,6.64z"/>
	</g>
	<g>
		<path class="st0" d="M80,31.18c-0.09,0-0.19,0-0.29,0c-7.24-0.13-13.14-6.11-13.15-13.34c0-3.51,1.48-6.99,4.08-9.57
			c2.6-2.58,6.06-4.05,9.62-4.01c3.59,0.03,6.93,1.45,9.42,4c2.55,2.61,3.92,6.1,3.87,9.83l0,0c-0.05,3.66-1.44,6.99-3.92,9.38
			C87.16,29.87,83.74,31.18,80,31.18z M80.16,6.64c-2.86,0-5.71,1.21-7.84,3.32c-2.15,2.13-3.38,5.01-3.38,7.88
			c0.01,5.94,4.86,10.86,10.81,10.96c3.21,0.04,6.15-1.03,8.24-3.05c2.01-1.95,3.15-4.69,3.19-7.7c0.05-3.09-1.09-5.98-3.19-8.13
			c-2.04-2.09-4.79-3.26-7.74-3.29C80.22,6.64,80.19,6.64,80.16,6.64z"/>
	</g>
</g>
</svg>
