<?xml version="1.0" encoding="utf-8"?>
<!-- Generator: Adobe Illustrator 27.0.0, SVG Export Plug-In . SVG Version: 6.00 Build 0)  -->
<svg version="1.1" id="Capa_1" xmlns="http://www.w3.org/2000/svg" xmlns:xlink="http://www.w3.org/1999/xlink" x="0px" y="0px"
	 viewBox="0 0 100 100" style="enable-background:new 0 0 100 100;" xml:space="preserve">
<style type="text/css">
	.st0{fill:#FFFFFF;}
	.st1{fill-rule:evenodd;clip-rule:evenodd;fill:#FFFFFF;}
</style>
<g>
	<path class="st0" d="M81.77,18.09c0.73,0.75,1.64,1.39,2.15,2.27c5.15,8.99,10.25,18.02,15.34,27.05c1.31,2.33,0.9,3.73-1.43,5.17
		c-1.67,1.03-3.34,2.05-5.01,3.06c-2.59,1.57-3.98,1.2-5.5-1.44c-0.23-0.4-0.47-0.79-0.71-1.19c-1.75,1.58-3.46,3.12-5.21,4.69
		c1.34,4.08-0.36,8.09-5.91,8.34c-0.52,3.38-2.61,5.11-6.07,5.3c-0.68,3.39-2.59,5.28-6.14,5.27c-0.37,0-0.83,0.39-1.08,0.72
		c-2.32,3.1-5.45,4.02-9.14,3.41c-1.17-0.19-2.35-0.41-3.48-0.74c-1.99-0.59-3.64-1.28-5.54,0.86c-1.84,2.08-5.79,0.91-7.55-1.69
		c-0.3-0.44-0.53-0.93-0.84-1.49c-3.37,0.55-5.82-0.71-7.16-3.96c-0.08-0.2-0.45-0.33-0.7-0.39c-4.53-0.95-5.67-2.03-6.5-6.22
		c-4.79-1.47-6.13-4.35-4.27-9.07c0.12-0.31,0.11-0.83-0.07-1.07c-1.08-1.4-2.22-2.74-3.34-4.09c-0.21,0.17-0.26,0.19-0.29,0.24
		c-2.96,4.35-3.18,4.39-7.66,1.62C4.34,53.9,3,53.14,1.71,52.29c-1.79-1.18-2.19-2.71-1.13-4.59c5.21-9.23,10.44-18.46,15.71-27.66
		c0.44-0.77,1.3-1.3,1.96-1.95c0.59,0,1.19,0,1.78,0c2.25,1.4,4.52,2.79,6.76,4.21c1.62,1.02,2.16,2.35,1.61,3.88
		c-0.21,0.6-0.52,1.17-0.79,1.75c2.71,2.45,6.03,2.98,9.41,3.32c0.3,0.03,0.77-0.11,0.91-0.33c1.89-2.9,5.01-3.13,7.97-3.6
		c7.19-1.14,14.28-0.69,21.34,1.16c1.62,0.43,3.45,0.06,5.36,0.06c-0.21-0.52-0.28-0.74-0.38-0.95c-1.44-2.88-1.13-4,1.59-5.69
		c2.06-1.28,4.12-2.55,6.18-3.82C80.58,18.09,81.18,18.09,81.77,18.09z M59.59,75.78c-3.05-1.48-5.82-2.82-8.58-4.16
		c-0.99-0.48-2.08-0.99-1.43-2.37c0.63-1.33,1.67-0.95,2.71-0.43c2.93,1.44,5.83,2.93,8.84,4.18c1.06,0.44,2.44,0.46,3.57,0.2
		c0.64-0.15,1.19-1.21,1.48-1.97c0.1-0.25-0.63-0.99-1.12-1.28c-1.97-1.2-4-2.32-6-3.48c-1.54-0.89-3.15-1.69-4.57-2.74
		c-0.47-0.35-0.46-1.36-0.66-2.07c0.71-0.18,1.4-0.45,2.12-0.5c0.35-0.02,0.73,0.35,1.09,0.56c3.55,2.04,7.08,4.1,10.64,6.12
		c1.55,0.88,3.56,0.35,4.37-1.03c1.11-1.87-0.26-2.43-1.54-3.19c-3.88-2.29-7.75-4.61-11.57-7c-0.54-0.34-0.92-1.13-1.1-1.78
		c-0.07-0.28,0.57-1.07,0.89-1.08c0.71-0.01,1.51,0.2,2.13,0.56c4.4,2.58,8.74,5.26,13.15,7.83c0.71,0.42,1.8,0.83,2.45,0.57
		c0.86-0.34,1.95-1.28,2.05-2.07c0.11-0.88-0.54-2.19-1.27-2.8c-7.99-6.67-16.53-12.55-25.81-17.32c-2.85-1.47-4.19-1.24-6.27,1.17
		c-2.63,3.05-5.68,5.37-9.86,5.81c-3.71,0.39-5.56-1.66-4.61-5.23c0.24-0.89,0.7-1.75,1.18-2.55c1.11-1.83,2.31-3.62,3.27-5.11
		c-3.18-1.18-6.25-2.32-9.44-3.51c-3.44,6.13-7.01,12.47-10.57,18.81c1.42,1.65,2.76,3.22,4.24,4.94c1.35-1.48,3.13-2.04,4.85-1.41
		c1.58,0.58,2.93,1.78,4.44,2.75c1.14-2.1,3.17-3.06,5.7-2.45c3.11,0.74,4.45,3.07,4.72,6.02c3.87,1.23,4.97,2.68,5.33,6.92
		c4.68,1.58,6.25,5.54,3.54,9.84C51.84,77.1,55.68,79.65,59.59,75.78z M74.16,31.01c-3.15,1.34-6.15,1.02-9.1,0.2
		c-6.67-1.87-13.39-1.72-20.12-0.59c-1.39,0.23-3.14,0.68-3.94,1.66c-2.49,3.08-4.63,6.44-6.82,9.75c-0.4,0.61-0.45,1.46-0.75,2.52
		c1.31-0.16,2.2-0.18,3.04-0.39c3.16-0.81,5.32-2.97,7.21-5.48c1.45-1.91,5.56-2.8,7.7-1.74c9.57,4.72,18.3,10.72,26.58,17.41
		c0.94,0.76,1.61,0.81,2.43,0.08c1.58-1.41,3.14-2.83,4.69-4.23C81.39,43.72,77.82,37.45,74.16,31.01z M74.44,25.1
		c5.4,9.57,10.68,18.93,16.01,28.37c2.22-1.35,4.29-2.6,6.47-3.93c-5.36-9.49-10.65-18.86-16-28.34
		C78.75,22.51,76.68,23.75,74.44,25.1z M9.56,53.47c5.38-9.52,10.66-18.89,15.99-28.32c-2.24-1.36-4.3-2.61-6.46-3.92
		c-5.37,9.5-10.67,18.85-16,28.27C5.32,50.87,7.34,52.1,9.56,53.47z M24.35,67.82c0.71,0.74,1.32,1.68,2.18,2.19
		c1.1,0.65,1.9-0.03,2.62-1.04c1.93-2.7,4-5.31,6.01-7.96c0.92-1.22,0.7-2.85-0.51-3.8c-1.29-1.01-2.38-0.84-3.46,0.62
		c-1.98,2.67-3.95,5.34-5.9,8.04C24.97,66.34,24.79,66.91,24.35,67.82z M41.53,65.36c-0.69-0.75-1.25-1.78-2.09-2.13
		c-0.65-0.27-1.99,0.04-2.44,0.58c-1.86,2.22-3.55,4.6-5.21,6.98c-0.84,1.2-0.41,2.7,0.86,3.55c1.27,0.84,2.29,0.57,3.19-0.67
		c1.49-2.07,3.08-4.07,4.58-6.13C40.82,66.98,41.05,66.3,41.53,65.36z M38.18,76.12c0.64,0.83,1.09,1.79,1.84,2.27
		c0.56,0.35,1.9,0.4,2.24,0.02c1.36-1.54,2.63-3.21,3.59-5.01c0.68-1.29-0.04-2.52-1.32-3.27c-1.33-0.79-2.22-0.17-2.98,0.93
		c-0.64,0.92-1.34,1.8-1.98,2.73C39.13,74.44,38.75,75.16,38.18,76.12z M26.45,59.14c-1.11-1.1-1.78-2.03-2.68-2.57
		c-1.03-0.62-1.89,0.04-2.52,0.96c-0.5,0.73-1.34,1.37-1.49,2.15c-0.2,1.04-0.16,2.33,0.31,3.22c0.3,0.57,2.02,1.12,2.35,0.83
		C23.82,62.5,24.93,60.95,26.45,59.14z"/>
</g>
</svg>
