<?xml version="1.0" encoding="utf-8"?>
<!-- Generator: Adobe Illustrator 27.0.0, SVG Export Plug-In . SVG Version: 6.00 Build 0)  -->
<svg version="1.1" id="Capa_1" xmlns="http://www.w3.org/2000/svg" xmlns:xlink="http://www.w3.org/1999/xlink" x="0px" y="0px"
	 viewBox="0 0 100 100" style="enable-background:new 0 0 100 100;" xml:space="preserve">
<style type="text/css">
	.st0{fill:#FFFFFF;}
	.st1{fill-rule:evenodd;clip-rule:evenodd;fill:#FFFFFF;}
</style>
<g>
	<g>
		<path class="st0" d="M25.5,45.32c0-1.91,0-3.67,0-5.63c-2.43,0-4.81,0.02-7.18,0c-4-0.04-6.16-2.24-6.16-6.28
			c0-8.99-0.01-17.99,0-26.98c0-4.14,2.29-6.43,6.38-6.43c12.55,0,25.1,0,37.64,0c4.23,0,6.46,2.23,6.47,6.49
			c0.01,9.04,0.01,18.09,0,27.13c0,3.72-2.24,6-5.93,6.06c-2.34,0.04-4.67,0.03-7.01,0.05c-0.09,0-0.18,0.07-0.39,0.15
			c0,1.7,0,3.46,0,5.42c2.21,0,4.43,0,6.65,0c0.86,0,1.73-0.02,2.59,0.01c2.48,0.07,4.03,1.51,4.08,3.98
			c0.07,3.35,0.06,6.71-0.01,10.06c-0.05,2.26-1.65,3.76-3.92,3.8c-2.32,0.04-4.64,0.01-7.02,0.01c0.87,2.46,3.58,4.09,6.79,4.15
			c2.23,0.04,4.48-0.13,6.7,0.08c1.06,0.1,2.39,0.62,3,1.41c0.78,1.01,1.55,1.16,2.67,1.24c1.68,0.11,2.55-0.22,2.93-2.16
			c0.55-2.8,2.25-5.03,5.12-5.95c2.62-0.84,4.81,0.16,6.53,2.15c3.2,3.69,3.31,10.14,0.31,14.02c-2.92,3.78-7.82,3.7-10.5-0.32
			c-0.99-1.48-1.5-3.28-2.36-5.23c-0.83,0-2.04-0.05-3.23,0.03c-0.35,0.03-0.78,0.39-0.99,0.71c-0.85,1.32-2.06,1.94-3.58,1.95
			c-6.75,0.03-13.51,0.1-20.26,0.02c-2.01-0.02-4.01-0.47-6.08-0.73c0,3.04,0,6.07,0,9.35c1.8,0,3.56-0.02,5.31,0.01
			c1.52,0.02,3.06-0.03,4.55,0.17c2.42,0.32,3.98,1.81,4.94,4.03c0.21,0.49,0.64,1.01,1.11,1.24c2.59,1.27,3.96,3.75,3.38,6.32
			c-0.58,2.57-2.73,4.32-5.35,4.36c-2.62,0.03-4.89-1.7-5.47-4.19c-0.61-2.62,0.65-5.12,3.23-6.4c0.18-0.09,0.37-0.16,0.55-0.23
			c-0.53-1.69-1.59-2.61-3.28-2.62c-6.86-0.03-13.72-0.03-20.57,0c-1.66,0.01-2.71,0.95-3.44,2.52c0.39,0.19,0.74,0.35,1.07,0.53
			c2.29,1.22,3.46,3.84,2.82,6.33c-0.63,2.46-2.92,4.13-5.57,4.07c-2.56-0.06-4.74-1.92-5.25-4.48c-0.48-2.44,0.83-4.88,3.11-6.05
			c0.59-0.3,1.18-0.89,1.44-1.49c1.09-2.51,3.29-4.05,6.23-4.09c2.73-0.04,5.46-0.01,8.36-0.01c0-3.39,0.03-6.63-0.04-9.86
			c-0.01-0.32-0.58-0.72-0.98-0.92c-3.73-1.86-7.33-3.95-9.2-7.85c-0.82-1.71-1.75-2.25-3.54-2.11c-1.97,0.16-3.96,0.07-5.94,0.02
			c-2.45-0.05-3.99-1.57-4.03-4.02c-0.05-3.25-0.07-6.5-0.01-9.75c0.05-2.56,1.58-4.03,4.15-4.06
			C19.34,45.29,22.37,45.32,25.5,45.32z M37.34,2.65C37.34,2.66,37.34,2.66,37.34,2.65c-6.4,0-12.8-0.01-19.19,0.01
			c-2.29,0.01-3.34,1.08-3.34,3.37c-0.01,9.14-0.01,18.28,0,27.42c0,2.64,1.06,3.7,3.68,3.7c12.59,0,25.19,0,37.78,0
			c2.67,0,3.72-1.01,3.72-3.65c0.01-9.09,0-18.18-0.01-27.27c0-2.6-0.98-3.56-3.6-3.57C50.04,2.65,43.69,2.65,37.34,2.65z
			 M47.61,60.55c0.09-1.92,0.09-1.92-1.22-3.15c-1.94-1.82-1.74-4.98,0.41-6.5c1.99-1.41,4.69-0.88,5.99,1.16
			c1.39,2.17,0.69,4.8-1.76,6.03c-0.88,0.44-1.01,1.02-0.73,1.67c0.18,0.4,0.82,0.81,1.26,0.83c2.18,0.08,4.37,0,6.55,0.05
			c1.37,0.03,1.91-0.55,1.89-1.91c-0.05-2.84-0.01-5.69-0.02-8.53c0-2.15-0.19-2.33-2.36-2.33c-10.61,0-21.22,0-31.84,0
			c-3.05,0-6.09,0.02-9.14,0c-1.05-0.01-1.84,0.26-1.84,1.48c-0.01,3.3-0.05,6.6,0.06,9.9c0.02,0.48,0.79,1.3,1.25,1.33
			c2.58,0.13,5.16,0.06,7.74,0.06c0.01-1.92,0.01-1.93-1.34-2.99c-1.46-1.15-1.99-3.03-1.34-4.78c0.62-1.68,2.21-2.78,3.99-2.75
			c1.77,0.02,3.49,1.33,3.97,3.02c0.48,1.69-0.09,3.78-1.58,4.57c-1.45,0.76-1.32,1.67-0.78,2.88
			C33.73,60.55,40.67,60.55,47.61,60.55z M38.66,63.18c0,2.71-0.04,5.19,0.04,7.67c0.01,0.37,0.57,0.98,0.94,1.03
			c2.71,0.39,5.42,0.88,8.14,0.92c5.63,0.07,11.27-0.13,16.91-0.2c0.95-0.01,1.85-0.17,1.86-1.3c0.01-1.19-0.91-1.43-1.92-1.43
			c-2.03,0.01-4.06,0.05-6.09-0.01c-4.29-0.12-7.62-1.85-9.62-5.81c-0.19-0.38-0.69-0.84-1.06-0.84
			C44.86,63.15,41.87,63.18,38.66,63.18z M28.22,45.21c6.22,0,12.24,0,18.23,0c0-1.86,0-3.61,0-5.39c-6.12,0-12.12,0-18.23,0
			c0,0.57,0,1.02,0,1.48C28.22,42.56,28.22,43.83,28.22,45.21z M76.19,72.29c-0.17,0.22-0.33,0.44-0.5,0.67
			c0.66,1.28,1.16,2.68,2.02,3.82c1.47,1.94,3.72,1.99,5.42,0.33c2.92-2.85,2.85-9.05-0.12-11.8c-1.34-1.23-3.02-1.41-4.44-0.36
			c-1.63,1.21-2.38,2.91-2.68,5.45c1.33-0.47,2.35-0.74,3.28-1.18c1.2-0.56,2.26-0.56,3.2,0.41c0.82,0.86,0.82,2.31,0.07,3.21
			c-0.85,1.01-2.09,1.08-3.3,0.45C78.22,72.82,77.17,72.62,76.19,72.29z M35.8,70.65c0-2.61,0-4.97,0-7.34c-2.77,0-5.44,0-8.27,0
			C29.27,67.02,32.35,68.86,35.8,70.65z M22.16,97.47c1.52,0.03,2.92-1.31,3-2.88c0.07-1.53-1.27-2.97-2.81-3.04
			c-1.66-0.08-3.03,1.25-3.04,2.93C19.3,96.1,20.58,97.44,22.16,97.47z M55.5,94.51c0-1.61-1.29-2.93-2.88-2.95
			c-1.55-0.02-2.95,1.32-3,2.87c-0.05,1.57,1.41,3.05,3,3.05C54.16,97.47,55.5,96.09,55.5,94.51z M25.43,52.46
			c-0.24,0.01-0.48,0.01-0.72,0.02c-0.4,0.64-1.15,1.31-1.09,1.91c0.05,0.56,0.89,1.38,1.48,1.48c0.89,0.15,1.74-0.54,1.56-1.55
			C26.54,53.65,25.86,53.08,25.43,52.46z M51.05,54.79c0.02-0.24,0.03-0.48,0.05-0.72c-0.6-0.45-1.2-1.25-1.8-1.26
			c-0.53,0-1.37,0.8-1.54,1.4c-0.27,0.97,0.46,1.75,1.45,1.65C49.85,55.8,50.44,55.17,51.05,54.79z"/>
		<path class="st0" d="M33.49,5.1c4.01,0,8.02-0.01,12.03,0.01c2.44,0.01,3.93,1.38,3.95,3.83c0.05,7.31,0.06,14.62,0,21.92
			c-0.02,2.42-1.56,3.82-4,3.82c-7.97,0.02-15.93,0.02-23.9,0c-2.51,0-3.99-1.48-4-3.96c-0.01-7.21-0.01-14.41,0-21.62
			c0.01-2.64,1.41-4.01,4.05-4.02C25.58,5.1,29.53,5.1,33.49,5.1z M33.54,32.55c3.81,0,7.61,0,11.42,0c1.94,0,2.33-0.36,2.33-2.32
			c0.02-6.95,0.02-13.91,0-20.86c0-1.73-0.43-2.11-2.2-2.11c-7.71-0.01-15.43-0.01-23.14,0c-1.85,0-2.24,0.38-2.24,2.21
			c-0.01,6.95-0.01,13.91,0,20.86c0,1.78,0.43,2.21,2.26,2.22C25.83,32.56,29.68,32.55,33.54,32.55z"/>
		<path class="st0" d="M58.22,29.49c-0.03,1.72-1.45,3.11-3.13,3.07c-1.72-0.05-3.08-1.42-3.08-3.13c0-1.76,1.5-3.24,3.21-3.16
			C56.91,26.34,58.24,27.78,58.22,29.49z M56.43,29.41c-0.63-0.43-0.99-0.86-1.34-0.86c-0.3,0-0.88,0.57-0.84,0.79
			c0.08,0.39,0.5,0.91,0.85,0.97C55.39,30.37,55.8,29.86,56.43,29.41z"/>
		<path class="st0" d="M55.06,11.27c-0.66,0-1.34,0.12-1.95-0.04c-0.42-0.12-1.01-0.65-1-0.98c0.01-0.37,0.58-1.01,0.96-1.05
			c1.35-0.13,2.72-0.13,4.07,0c0.38,0.04,0.71,0.66,1.07,1.01c-0.39,0.36-0.73,0.89-1.19,1.02C56.41,11.41,55.71,11.27,55.06,11.27z
			"/>
		<path class="st0" d="M55.17,14.83c0.66,0,1.36-0.13,1.97,0.04c0.42,0.12,0.91,0.62,0.99,1.03c0.06,0.27-0.53,0.95-0.86,0.98
			c-1.41,0.12-2.84,0.13-4.25,0.01c-0.36-0.03-0.83-0.68-0.92-1.12c-0.05-0.23,0.57-0.8,0.95-0.88c0.68-0.15,1.41-0.04,2.12-0.04
			C55.17,14.85,55.17,14.84,55.17,14.83z"/>
		<path class="st0" d="M55.21,20.42c0.65,0,1.35-0.14,1.95,0.05c0.41,0.12,0.94,0.68,0.95,1.06c0.01,0.33-0.61,0.94-0.99,0.97
			c-1.35,0.12-2.72,0.11-4.07,0c-0.36-0.03-0.98-0.61-0.95-0.86c0.06-0.43,0.48-1.04,0.86-1.14c0.71-0.18,1.5-0.05,2.25-0.05
			C55.21,20.43,55.21,20.43,55.21,20.42z"/>
		<path class="st0" d="M34.86,17.15c0.03-0.39,0.05-0.79,0.08-1.18c0.17-1.95,1.9-3.4,3.72-2.72c1.45,0.54,2.9,1.48,3.96,2.61
			c1.87,2.02,2.73,4.63,2.94,7.37c0.14,1.77,0.1,3.56,0.02,5.33c-0.1,2.14-1.43,3.02-3.41,2.23c-1.6-0.64-3.17-1.36-4.67-2.2
			c-1.66-0.93-2.56-2.43-2.56-4.38c0-1.27-0.06-2.54,0.03-3.81c0.08-1.17-0.69-1.64-1.52-1.65c-0.84-0.01-1.41,0.59-1.33,1.64
			c0.1,1.21,0.05,2.44,0.02,3.66c-0.04,1.85-0.76,3.44-2.35,4.36c-1.7,0.99-3.52,1.8-5.35,2.53c-1.32,0.53-2.71-0.17-2.82-1.47
			c-0.4-4.64-0.62-9.32,2.49-13.26c0.9-1.15,2.18-2.18,3.51-2.76c2.37-1.04,4.19,0.23,4.52,2.82c0.03,0.24,0.05,0.48,0.42,0.74
			c0-0.69,0-1.38,0-2.07c0-0.76-0.13-1.55,0.03-2.28c0.3-1.32-0.93-3.74,0.83-3.77c1.82-0.02,0.65,2.38,0.87,3.68
			c0.2,1.19,0.03,2.43,0.06,3.65c0.01,0.32,0.11,0.64,0.17,0.96C34.63,17.16,34.74,17.16,34.86,17.15z M23.35,29.73
			c2.15-1.11,4.05-1.94,5.75-3.05c0.65-0.42,1.16-1.49,1.21-2.29c0.15-2.68,0.07-5.36,0.05-8.05c-0.01-1.21-0.81-1.67-1.83-1.38
			c-0.79,0.23-1.71,0.67-2.14,1.31c-1.08,1.61-2.17,3.31-2.79,5.13C22.73,23.93,23.01,26.62,23.35,29.73z M43.31,29.57
			c0.15-0.15,0.29-0.29,0.44-0.44c0.12-3.82,0.61-7.73-1.77-11.14c-0.76-1.09-1.77-2.11-2.89-2.8c-1.39-0.86-2.39-0.2-2.42,1.41
			c-0.05,2.49-0.09,4.98,0.03,7.46c0.04,0.84,0.38,2.01,0.99,2.42C39.45,27.68,41.42,28.56,43.31,29.57z"/>
	</g>
</g>
</svg>
