<?xml version="1.0" encoding="utf-8"?>
<!-- Generator: Adobe Illustrator 27.0.0, SVG Export Plug-In . SVG Version: 6.00 Build 0)  -->
<svg version="1.1" id="Capa_1" xmlns="http://www.w3.org/2000/svg" xmlns:xlink="http://www.w3.org/1999/xlink" x="0px" y="0px"
	 viewBox="0 0 200 52" style="enable-background:new 0 0 200 52;" xml:space="preserve">
<style type="text/css">
	.st0{fill:#FFFFFF;}
	.st1{fill-rule:evenodd;clip-rule:evenodd;fill:#FFFFFF;}
</style>
<g>
	<g>
		<path class="st0" d="M77.45,9.62c-3.66,0-6.85,1.08-9.07,3.14V0h-8.29v36.4h8.29V23.35c0-4.85,2.86-7.11,6.85-7.11
			c3.66,0,5.78,1.96,5.78,6.22V36.4h8.29V21.3C89.29,13.25,84.2,9.62,77.45,9.62z"/>
		<path class="st0" d="M107.57,9.62c-9.07,0-15.71,5.64-15.71,13.58c0,7.95,6.64,13.59,15.71,13.59c9.08,0,15.66-5.64,15.66-13.59
			C123.23,15.26,116.65,9.62,107.57,9.62z M107.57,30.52c-4.14,0-7.32-2.74-7.32-7.31c0-4.56,3.18-7.3,7.32-7.3
			c4.15,0,7.28,2.74,7.28,7.3C114.84,27.77,111.71,30.52,107.57,30.52z"/>
		<path class="st0" d="M133.68,13.49v-3.48h-7.91V36.4h8.28V23.94c0-5.05,3.03-7.35,7.6-7.35c0.64,0,1.17,0.04,1.85,0.1V9.62
			C139.09,9.62,135.69,10.94,133.68,13.49z"/>
		<path class="st0" d="M156.59,9.62c-4.56,0-9.18,1.13-12.31,3.18l2.97,5.35c2.07-1.52,5.2-2.45,8.24-2.45
			c4.46,0,6.58,1.91,6.58,5.2h-6.58c-8.71,0-12.26,3.23-12.26,7.89c0,4.57,3.98,8,10.67,8c4.19,0,7.17-1.28,8.7-3.68v3.28h7.75
			V21.35C170.34,13.35,165.3,9.62,156.59,9.62z M162.06,28.07c-0.96,2.4-3.35,3.58-6.11,3.58c-2.91,0-4.67-1.28-4.67-3.19
			c0-1.76,1.22-3.09,5.09-3.09h5.68V28.07z"/>
		<path class="st0" d="M180.92,17.86c0-1.38,1.59-2.45,5.3-2.45c2.6,0,5.41,0.49,8.23,1.96l2.76-5.44c-2.7-1.46-7.06-2.3-10.99-2.3
			c-8.33,0-13.22,3.53-13.22,8.53c0,10.56,17.26,6.13,17.26,10.45c0,1.47-1.44,2.41-5.25,2.41c-3.51,0-7.39-1.03-9.93-2.56
			l-2.76,5.5c2.65,1.61,7.54,2.84,12.37,2.84c8.54,0,13.48-3.48,13.48-8.39C198.17,18,180.92,22.38,180.92,17.86z"/>
	</g>
	<g>
		<path class="st0" d="M59.62,43.34c0-0.85,0.75-1.53,2.42-1.53c0.82,0,1.73,0.23,2.51,0.7l0.33-0.71c-0.73-0.47-1.8-0.76-2.84-0.76
			c-2.33,0-3.38,1.08-3.38,2.33c0,3.14,5.64,1.7,5.64,4.03c0,0.84-0.75,1.5-2.46,1.5c-1.21,0-2.36-0.44-3.02-1.03l-0.38,0.69
			c0.68,0.66,2.02,1.1,3.4,1.1c2.35,0,3.42-1.06,3.42-2.31C65.26,44.27,59.62,45.67,59.62,43.34z"/>
		<path class="st0" d="M72.8,46.41c0-1.92-1.4-3.23-3.34-3.23c-1.93,0-3.36,1.35-3.36,3.23c0,1.89,1.47,3.24,3.61,3.24
			c1.09,0,2.04-0.36,2.66-1.04l-0.53-0.56c-0.52,0.56-1.27,0.85-2.1,0.85c-1.51,0-2.61-0.88-2.71-2.22h5.76
			C72.79,46.57,72.8,46.48,72.8,46.41z M67.03,46.03c0.12-1.25,1.1-2.12,2.43-2.12c1.36,0,2.33,0.87,2.45,2.12H67.03z"/>
		<path class="st0" d="M75.03,44.47v-1.25h-0.9v6.37h0.94v-3.24c0-1.5,0.88-2.35,2.31-2.35c0.07,0,0.15,0.01,0.23,0.01v-0.84
			C76.34,43.17,75.46,43.63,75.03,44.47z"/>
		<path class="st0" d="M84.38,43.22l-2.6,5.43l-2.58-5.43h-0.97l3.05,6.37h0.96l3.06-6.37H84.38z"/>
		<path class="st0" d="M86.63,40.61c-0.38,0-0.69,0.28-0.69,0.61c0,0.33,0.31,0.61,0.69,0.61c0.39,0,0.68-0.28,0.68-0.63
			C87.31,40.87,87.01,40.61,86.63,40.61z M86.15,43.22v6.37h0.94v-6.37H86.15z"/>
		<path class="st0" d="M91.95,48.89c-1.51,0-2.6-0.98-2.6-2.49c0-1.49,1.1-2.49,2.6-2.49c0.8,0,1.54,0.3,2,0.94l0.7-0.43
			c-0.55-0.84-1.54-1.26-2.7-1.26c-2.05,0-3.55,1.34-3.55,3.23c0,1.9,1.5,3.24,3.55,3.24c1.17,0,2.15-0.43,2.7-1.26l-0.7-0.43
			C93.49,48.6,92.75,48.89,91.95,48.89z"/>
		<path class="st0" d="M96.32,40.61c-0.38,0-0.68,0.28-0.68,0.61c0,0.33,0.3,0.61,0.68,0.61c0.39,0,0.68-0.28,0.68-0.63
			C97,40.87,96.7,40.61,96.32,40.61z M95.85,43.22v6.37h0.93v-6.37H95.85z"/>
		<path class="st0" d="M101.59,43.17c-2.01,0-3.51,1.35-3.51,3.23c0,1.89,1.5,3.24,3.51,3.24c2.01,0,3.5-1.36,3.5-3.24
			C105.09,44.52,103.61,43.17,101.59,43.17z M101.59,48.89c-1.47,0-2.57-1-2.57-2.49c0-1.49,1.11-2.49,2.57-2.49
			c1.47,0,2.55,0.99,2.55,2.49C104.15,47.89,103.06,48.89,101.59,48.89z"/>
		<path class="st0" d="M114.65,40.61v3.82c-0.58-0.83-1.52-1.26-2.62-1.26c-1.96,0-3.43,1.31-3.43,3.23c0,1.93,1.47,3.24,3.43,3.24
			c1.15,0,2.1-0.46,2.66-1.32v1.26h0.89v-8.98H114.65z M112.11,48.89c-1.47,0-2.56-1-2.56-2.49c0-1.49,1.1-2.49,2.56-2.49
			c1.46,0,2.55,0.99,2.55,2.49C114.66,47.89,113.57,48.89,112.11,48.89z"/>
		<path class="st0" d="M123.68,46.41c0-1.92-1.41-3.23-3.34-3.23c-1.94,0-3.37,1.35-3.37,3.23c0,1.89,1.47,3.24,3.62,3.24
			c1.09,0,2.04-0.36,2.66-1.04l-0.53-0.56c-0.53,0.56-1.28,0.85-2.11,0.85c-1.51,0-2.6-0.88-2.71-2.22h5.77
			C123.67,46.57,123.68,46.48,123.68,46.41z M117.89,46.03c0.12-1.25,1.11-2.12,2.44-2.12c1.35,0,2.33,0.87,2.45,2.12H117.89z"/>
		<path class="st0" d="M129.03,48.82v-3.15h4.75V44.9h-4.75v-3.02h5.32v-0.77h-6.29v8.47h6.49v-0.78H129.03z"/>
		<path class="st0" d="M144.46,43.17c-1.25,0-2.23,0.52-2.73,1.35c-0.42-0.89-1.31-1.35-2.44-1.35c-1.16,0-2.04,0.45-2.53,1.21
			v-1.16h-0.89v6.37h0.93v-3.34c0-1.45,0.91-2.3,2.3-2.3c1.26,0,1.99,0.69,1.99,2.03v3.61h0.93v-3.34c0-1.45,0.9-2.3,2.31-2.3
			c1.24,0,1.97,0.69,1.97,2.03v3.61h0.93v-3.7C147.23,44.07,146.13,43.17,144.46,43.17z"/>
		<path class="st0" d="M155.28,46.41c0-1.92-1.41-3.23-3.34-3.23c-1.94,0-3.37,1.35-3.37,3.23c0,1.89,1.47,3.24,3.62,3.24
			c1.09,0,2.04-0.36,2.66-1.04l-0.53-0.56c-0.53,0.56-1.27,0.85-2.11,0.85c-1.51,0-2.6-0.88-2.71-2.22h5.77
			C155.27,46.57,155.28,46.48,155.28,46.41z M149.5,46.03c0.12-1.25,1.11-2.12,2.44-2.12c1.35,0,2.33,0.87,2.45,2.12H149.5z"/>
		<path class="st0" d="M157.51,44.47v-1.25h-0.89v6.37h0.93v-3.24c0-1.5,0.88-2.35,2.32-2.35c0.06,0,0.14,0.01,0.22,0.01v-0.84
			C158.82,43.17,157.95,43.63,157.51,44.47z"/>
		<path class="st0" d="M166.45,43.22v1.22c-0.58-0.84-1.58-1.27-2.73-1.27c-1.96,0-3.46,1.25-3.46,3.08c0,1.83,1.5,3.1,3.46,3.1
			c1.13,0,2.11-0.42,2.69-1.23v0.81c0,1.57-0.8,2.31-2.54,2.31c-1.07,0-2.05-0.32-2.71-0.86l-0.47,0.65
			c0.72,0.63,1.94,0.98,3.2,0.98c2.28,0,3.45-0.99,3.45-3.18v-5.59H166.45z M163.82,48.59c-1.53,0-2.61-0.96-2.61-2.34
			c0-1.39,1.09-2.33,2.61-2.33c1.52,0,2.61,0.94,2.61,2.33C166.43,47.63,165.33,48.59,163.82,48.59z"/>
		<path class="st0" d="M175.43,46.41c0-1.92-1.4-3.23-3.34-3.23c-1.93,0-3.36,1.35-3.36,3.23c0,1.89,1.47,3.24,3.61,3.24
			c1.09,0,2.04-0.36,2.66-1.04l-0.53-0.56c-0.52,0.56-1.27,0.85-2.1,0.85c-1.51,0-2.61-0.88-2.71-2.22h5.76
			C175.42,46.57,175.43,46.48,175.43,46.41z M169.66,46.03c0.12-1.25,1.1-2.12,2.43-2.12c1.36,0,2.33,0.87,2.45,2.12H169.66z"/>
		<path class="st0" d="M180.29,43.17c-1.2,0-2.12,0.45-2.62,1.23v-1.18h-0.9v6.37h0.94v-3.34c0-1.45,0.93-2.3,2.4-2.3
			c1.32,0,2.07,0.69,2.07,2.03v3.61h0.93v-3.7C183.11,44.07,181.96,43.17,180.29,43.17z"/>
		<path class="st0" d="M188,48.89c-1.51,0-2.61-0.98-2.61-2.49c0-1.49,1.11-2.49,2.61-2.49c0.8,0,1.54,0.3,2,0.94l0.7-0.43
			c-0.56-0.84-1.54-1.26-2.7-1.26c-2.05,0-3.55,1.34-3.55,3.23c0,1.9,1.5,3.24,3.55,3.24c1.17,0,2.14-0.43,2.7-1.26l-0.7-0.43
			C189.53,48.6,188.79,48.89,188,48.89z"/>
		<path class="st0" d="M192.36,40.61c-0.39,0-0.69,0.28-0.69,0.61c0,0.33,0.3,0.61,0.69,0.61c0.39,0,0.68-0.28,0.68-0.63
			C193.04,40.87,192.74,40.61,192.36,40.61z M191.88,43.22v6.37h0.94v-6.37H191.88z"/>
		<path class="st0" d="M197.21,43.17c-1.09,0-2.1,0.31-2.8,0.86l0.42,0.64c0.57-0.46,1.41-0.76,2.29-0.76c1.29,0,1.95,0.6,1.95,1.69
			v0.38h-2.18c-1.98,0-2.66,0.83-2.66,1.81c0,1.1,0.96,1.85,2.51,1.85c1.14,0,1.95-0.4,2.37-1.05v0.99H200v-3.95
			C200,44,198.99,43.17,197.21,43.17z M199.07,47.68c-0.37,0.84-1.14,1.3-2.18,1.3c-1.11,0-1.74-0.46-1.74-1.2
			c0-0.65,0.43-1.14,1.76-1.14h2.16V47.68z"/>
	</g>
	<g>
		<path class="st0" d="M31.33,40.77c-0.05-2.6-1.29-3.97-3.91-4.46c-1.8-0.34-3.62-0.68-5.42-1.06c-1.87-0.39-3.16,0.16-4.12,1.81
			c-0.31,0.55-0.63,1.1-1.09,1.92c-2.06-2.1-3.97-4.05-6.01-6.13c0.69-0.39,1.08-0.63,1.48-0.85c1.96-1.09,2.61-2.37,2.21-4.52
			c-0.38-2.09-0.78-4.17-1.23-6.25c-0.37-1.74-1.9-3.14-3.64-3.22c-1.95-0.08-3.92-0.09-5.87,0c-2.21,0.1-4.02,2.32-3.7,4.41
			c2.14,14.39,12.85,25.24,26.44,27.4c2.68,0.42,4.69-1.02,4.83-3.71C31.38,44.32,31.36,42.55,31.33,40.77z M29.12,41.11
			c-0.07,0.66-0.02,1.33-0.02,1.99c0,0.72,0.01,1.43,0,2.13c-0.01,2.18-0.77,2.76-3.02,2.28c-4.01-0.85-7.76-2.3-11.1-4.67
			C7.9,37.83,3.72,31.06,2.37,22.57c-0.24-1.53,0.4-2.28,1.99-2.33c1.5-0.05,2.99-0.05,4.49-0.03c1.3,0.01,2.08,0.58,2.3,1.95
			c0.3,1.9,0.75,3.76,1.15,5.64c0.22,1.02-0.06,1.78-1.09,2.22c-0.57,0.24-1.11,0.54-1.64,0.86c-1.15,0.7-1.41,1.84-0.62,2.72
			c2.23,2.5,4.58,4.91,7.02,7.2c1.01,0.95,2.16,0.48,2.89-0.82c1.54-2.74,1.54-2.74,4.66-2.16c1.17,0.22,2.31,0.48,3.47,0.69
			C28.49,38.77,29.28,39.54,29.12,41.11z"/>
		<path class="st0" d="M25.3,2.26C16.25,2.68,9.51,6.59,5,14.22c-0.32,0.53-0.93,1.16-1.49,1.24c-0.92,0.13-1.26-0.96-0.66-2.04
			c2.99-5.4,7.34-9.33,13.15-11.62C30.72-4,47.06,4.85,50.17,20.28c2.17,10.77-3.22,21.91-13,26.86c-1.23,0.62-2.19,0.43-2.13-0.52
			c0.03-0.53,0.63-1.21,1.15-1.51c5.64-3.14,9.44-7.7,11.29-13.83c3.87-12.82-4.84-26.52-18.17-28.59
			C27.95,2.48,26.56,2.4,25.3,2.26z"/>
	</g>
	<g>
		<path class="st0" d="M25.91,22.71c0.59-0.52,1.03-0.99,1.33-1.42c0.3-0.42,0.5-0.83,0.59-1.21c0.1-0.38,0.15-0.77,0.15-1.15
			c0-0.76-0.21-1.41-0.62-1.97c-0.41-0.55-0.99-0.98-1.72-1.29c-0.73-0.31-1.58-0.46-2.53-0.46c-1.3,0-2.38,0.25-3.25,0.76
			c-0.87,0.51-1.53,1.17-1.96,1.99l3.06,1.51c0.18-0.36,0.44-0.64,0.76-0.82c0.32-0.19,0.66-0.28,1.02-0.28
			c0.39,0,0.68,0.08,0.88,0.25c0.19,0.16,0.29,0.39,0.29,0.69c0,0.14-0.02,0.28-0.07,0.43c-0.05,0.15-0.14,0.33-0.27,0.52
			c-0.13,0.19-0.34,0.42-0.61,0.68l-4.35,3.97v2.46h9.66v-3.1h-4.06L25.91,22.71z"/>
		<polygon class="st0" points="40.76,22.22 39.16,22.22 39.16,20.4 35.34,20.4 35.34,22.22 33.71,22.22 38.25,15.48 34.09,15.48 
			28.97,22.78 28.97,25.32 35.22,25.32 35.22,27.36 39.16,27.36 39.16,25.32 40.76,25.32 		"/>
	</g>
</g>
</svg>
