<?xml version="1.0" encoding="utf-8"?>
<!-- Generator: Adobe Illustrator 27.0.0, SVG Export Plug-In . SVG Version: 6.00 Build 0)  -->
<svg version="1.1" id="Capa_1" xmlns="http://www.w3.org/2000/svg" xmlns:xlink="http://www.w3.org/1999/xlink" x="0px" y="0px"
	 viewBox="0 0 100 100" style="enable-background:new 0 0 100 100;" xml:space="preserve">
<style type="text/css">
	.st0{fill:#FFFFFF;}
	.st1{fill-rule:evenodd;clip-rule:evenodd;fill:#FFFFFF;}
</style>
<g>
	<path class="st0" d="M99.83,30.64c-1.37-14.81-11.46-24.98-31-28.72c-5.47-1.05-11.67-1.6-18.63-1.6c-8.14,0-15.23,0.74-21.33,2.12
		C11.68,6.35,2.42,15.5,0.41,28.55C0.14,30.37,0,32.26,0,34.22v31.55c0,1.22,0.06,2.42,0.17,3.59c1.35,14.87,11.37,24.95,30.96,28.7
		c5.58,1.06,11.91,1.62,19.06,1.62c7.88,0,14.77-0.69,20.74-2.02c17.25-3.81,26.61-12.92,28.65-26.13c0.28-1.84,0.43-3.76,0.43-5.75
		V34.22C100,33,99.93,31.81,99.83,30.64 M80.25,57.69c-4.81,3.04-19.13,2.58-19.28,2.57l-0.01,0.01h0.03c0,0-0.78,13.35-0.47,17.78
		c0.06,0.7,0.47,2.77,0.47,2.77s-15.08,3.23-19.18-2.46c-3.23-4.47-2.76-17.76-2.74-18.08l-0.04-0.01v0.01
		c0,0-14.23-0.73-18.96-0.44c-0.74,0.05-2.96,0.44-2.96,0.44s-3.44-14.13,2.63-17.98c4.81-3.03,19.06-2.58,19.28-2.56l0-0.02
		c0,0,0.78-13.34,0.47-17.77c-0.04-0.72-0.47-2.78-0.47-2.78s15.09-3.24,19.19,2.47c3.23,4.48,2.75,17.77,2.74,18.08
		c0.01,0,14.24,0.72,18.97,0.44c0.73-0.06,2.96-0.44,2.96-0.44S86.33,53.85,80.25,57.69"/>
</g>
</svg>
