<?xml version="1.0" encoding="utf-8"?>
<!-- Generator: Adobe Illustrator 27.0.0, SVG Export Plug-In . SVG Version: 6.00 Build 0)  -->
<svg version="1.1" id="Capa_1" xmlns="http://www.w3.org/2000/svg" xmlns:xlink="http://www.w3.org/1999/xlink" x="0px" y="0px"
	 viewBox="0 0 100 100" style="enable-background:new 0 0 100 100;" xml:space="preserve">
<style type="text/css">
	.st0{fill:#FFFFFF;}
	.st1{fill-rule:evenodd;clip-rule:evenodd;fill:#FFFFFF;}
</style>
<g>
	<g>
		<path class="st0" d="M23.84,71.81c0,8.17,0,16.33,0,24.5c0,2.52-1.17,3.68-3.71,3.68c-2.67,0-5.34,0-8,0
			c-2.28,0-3.52-1.22-3.52-3.47c0-16.49,0-32.99,0-49.48c0-1.7,0.57-3.1,1.93-4.17c0.27-0.21,0.47-0.61,0.55-0.95
			c0.41-1.64,0.79-3.28,1.14-4.93c0.08-0.36,0.09-0.78-0.02-1.12c-2.08-6.25-2.37-12.69-1.91-19.19c0.24-3.42,0.72-6.81,2.05-9.99
			c0.7-1.68,1.68-3.29,2.77-4.76c0.98-1.32,2.49-1.96,4.2-1.91c1.63,0.05,2.88,1.27,2.99,2.9c0.02,0.32,0.01,0.65,0.01,0.98
			c0,12.72,0,25.44-0.01,38.16c0,0.7,0.23,1.26,0.55,1.89c0.49,0.98,0.92,2.12,0.93,3.2C23.88,55.35,23.84,63.58,23.84,71.81z
			 M11.79,81.1c0.11,0.05,0.17,0.1,0.22,0.1c0.98,0.01,1.95,0.02,2.93,0.03c1.22,0.02,1.91,0.6,1.89,1.6
			c-0.02,0.96-0.69,1.52-1.86,1.53c-1.06,0.01-2.12,0-3.17,0c0,2.15,0,4.15,0,6.18c2.98,0,5.89,0,8.85,0c0-13.01,0-25.97,0-38.92
			c-3,0-5.91,0-8.85,0c0,2.07,0,4.07,0,6.04c0.11,0.05,0.17,0.1,0.22,0.1c0.98,0.01,1.95,0.01,2.93,0.03
			c1.21,0.02,1.91,0.61,1.89,1.61c-0.02,0.96-0.7,1.52-1.86,1.53c-1.06,0.01-2.12,0-3.17,0c0,1.63,0,3.11,0,4.67
			c1.13,0,2.2-0.01,3.27,0c1.09,0.02,1.74,0.6,1.76,1.54c0.02,0.97-0.66,1.58-1.8,1.59c-1.06,0.01-2.13,0-3.22,0
			c0,1.61,0,3.11,0,4.68c1.12,0,2.16-0.01,3.19,0c1.15,0.01,1.82,0.6,1.82,1.57c0,0.96-0.68,1.55-1.82,1.56
			c-1.06,0.01-2.12,0-3.22,0C11.79,78.16,11.79,79.64,11.79,81.1z M19.12,42.13c0-13.02,0-25.98,0-38.93
			c-0.08-0.07-0.16-0.14-0.24-0.21c-0.62,0.47-1.41,0.84-1.82,1.45c-0.77,1.15-1.47,2.39-1.93,3.69c-1.39,3.9-1.82,7.97-1.88,12.09
			c-0.08,5.4,0.35,10.72,2.39,15.81c0.11,0.28,0.01,0.68-0.08,1c-0.46,1.67-0.96,3.34-1.47,5.11
			C15.91,42.13,17.47,42.13,19.12,42.13z M11.77,96.77c3.03,0,5.96,0,8.88,0c0-1.04,0-1.99,0-2.95c-3,0-5.92,0-8.88,0
			C11.77,94.83,11.77,95.76,11.77,96.77z M20.71,48.39c0-0.6,0.03-1.12-0.01-1.63c-0.07-1.05-0.49-1.44-1.55-1.45
			c-1.98-0.01-3.97,0.03-5.95-0.02c-0.86-0.02-1.3,0.41-1.41,1.16c-0.09,0.62-0.02,1.27-0.02,1.93
			C14.78,48.39,17.66,48.39,20.71,48.39z"/>
		<path class="st0" d="M57.58,58.44c0.7,0.05,1.35,0.12,1.99,0.12c0.61,0,1.23-0.07,1.99-0.12c0.24,1.2,0.49,2.43,0.72,3.65
			c1.59,8.57,3.18,17.13,4.75,25.7c1.05,5.7,6.28,9.72,11.75,9c5.87-0.78,10.03-5.97,9.48-11.85C87.7,79.09,82.81,74.77,77,75
			c-0.13,0.01-0.26,0.01-0.39,0.02c-2.47,0.24-2.47,0.24-3.28-2.05c-1.98-5.61-3.97-11.22-5.91-16.84
			c-0.11-0.33,0.02-0.85,0.22-1.17c0.51-0.82,1.12-1.58,1.79-2.5c0.26,0.74,0.51,1.42,0.75,2.1c1.91,5.42,3.84,10.84,5.72,16.28
			c0.26,0.77,0.56,1.04,1.41,1.03c6.89-0.1,12.85,4.89,13.9,11.57c1.14,7.21-2.9,13.88-9.66,15.96c-7.67,2.36-15.9-2.54-17.46-10.5
			c-1.51-7.66-2.87-15.34-4.3-23.01c-0.04-0.22-0.1-0.43-0.33-0.66c-0.34,1.78-0.68,3.56-1.01,5.34
			c-1.12,6.04-2.23,12.08-3.36,18.12c-1.25,6.64-7.09,11.36-13.95,11.29c-6.41-0.07-12.12-5.06-13.22-11.57
			c-1.51-8.89,5.07-16.65,14.06-16.53c0.79,0.01,0.99-0.33,1.2-0.93c2.03-5.8,4.07-11.59,6.11-17.38c0.12-0.34,0.25-0.67,0.4-1.05
			c0.71,0.95,1.41,1.82,2.03,2.75c0.14,0.21,0.08,0.62-0.01,0.9c-2.06,5.89-4.14,11.77-6.22,17.65c-0.43,1.21-0.96,1.51-2.23,1.33
			c-6.11-0.85-11.58,3.3-12.33,9.34c-0.76,6.15,3.43,11.57,9.55,12.32c5.05,0.62,10.18-2.92,11.37-8.1
			c0.98-4.27,1.67-8.62,2.47-12.93c1.06-5.66,2.1-11.32,3.15-16.97C57.46,58.71,57.51,58.62,57.58,58.44z"/>
		<path class="st0" d="M69.08,42.12c-0.81-0.92-1.61-1.75-2.32-2.67c-0.18-0.24-0.12-0.74-0.05-1.09
			c1.44-7.36,2.43-14.77,2.01-22.29c-0.16-2.81-0.64-5.6-0.98-8.4c-0.14,0-0.29,0-0.43-0.01c-1.83,9.72-3.67,19.44-5.5,29.15
			c-1.51,0-2.96,0-4.54,0c-1.83-9.68-3.67-19.44-5.51-29.19C51.69,7.61,51.6,7.6,51.51,7.6c-0.3,1.78-0.69,3.55-0.89,5.34
			c-0.89,7.94-0.03,15.78,1.46,23.57c0.33,1.74,0.56,3.25-1.08,4.45c-0.37,0.27-0.58,0.77-0.99,1.35c-0.38-1.87-0.75-3.53-1.07-5.21
			c-1.2-6.41-1.97-12.86-1.8-19.39c0.14-5.33,0.82-10.57,3.06-15.49c0.17-0.38,0.38-0.76,0.56-1.14c0.36-0.76,0.93-1.19,1.78-1.05
			c0.81,0.14,1.17,0.72,1.31,1.5c0.73,3.96,1.48,7.92,2.22,11.88c1.11,5.88,2.21,11.75,3.32,17.63c0.02,0.11,0.06,0.22,0.24,0.35
			c0.08-0.37,0.16-0.73,0.23-1.1c1.8-9.55,3.6-19.1,5.39-28.65c0.15-0.81,0.46-1.45,1.32-1.61c0.9-0.17,1.44,0.34,1.84,1.11
			c1.91,3.7,2.84,7.68,3.25,11.78c0.97,9.76-0.32,19.34-2.46,28.84C69.16,41.87,69.12,41.98,69.08,42.12z"/>
		<path class="st0" d="M59.54,39.83c4.32,0.01,7.81,3.51,7.8,7.84c-0.01,4.33-3.5,7.79-7.83,7.78c-4.31-0.01-7.76-3.51-7.74-7.86
			C51.79,43.3,55.27,39.82,59.54,39.83z M54.9,47.61c-0.02,2.55,2.04,4.68,4.58,4.74c2.43,0.06,4.7-2.09,4.74-4.5
			c0.05-2.67-2.05-4.87-4.65-4.88C57.02,42.97,54.92,45.05,54.9,47.61z"/>
		<path class="st0" d="M48.66,85.88c0.01,3.92-3.06,7.05-6.93,7.07c-3.92,0.02-7.07-3.12-7.06-7.05c0.01-3.88,3.13-7.03,6.99-7.02
			C45.55,78.89,48.65,81.98,48.66,85.88z M45.54,85.95c0.02-2.13-1.69-3.9-3.78-3.93c-2.14-0.03-3.95,1.73-3.96,3.86
			c-0.01,2.15,1.74,3.92,3.9,3.93C43.78,89.83,45.52,88.08,45.54,85.95z"/>
		<path class="st0" d="M84.41,85.96c-0.01,3.89-3.13,7.01-7.01,7c-3.87-0.01-6.97-3.13-6.97-7.03c0-3.94,3.13-7.06,7.05-7.04
			C81.34,78.9,84.42,82.05,84.41,85.96z M81.27,85.91c0-2.18-1.74-3.91-3.91-3.88c-2.1,0.02-3.81,1.78-3.8,3.9
			c0.01,2.13,1.73,3.87,3.82,3.89C79.54,89.83,81.28,88.09,81.27,85.91z"/>
	</g>
</g>
</svg>
