<?xml version="1.0" encoding="utf-8"?>
<!-- Generator: Adobe Illustrator 27.0.0, SVG Export Plug-In . SVG Version: 6.00 Build 0)  -->
<svg version="1.1" id="Capa_1" xmlns="http://www.w3.org/2000/svg" xmlns:xlink="http://www.w3.org/1999/xlink" x="0px" y="0px"
	 viewBox="0 0 100 100" style="enable-background:new 0 0 100 100;" xml:space="preserve">
<style type="text/css">
	.st0{fill:#FFFFFF;}
	.st1{fill-rule:evenodd;clip-rule:evenodd;fill:#FFFFFF;}
</style>
<g>
	<g>
		<path class="st0" d="M57.39,62.14c0.8,1.64,1.43,3.07,2.17,4.43c3.55,6.51,5.15,13.72,7.43,20.68c0.44,1.35,0.91,2.7,1.27,4.08
			c0.91,3.55-0.99,7.42-4.05,8.34c-3.7,1.12-7.12-0.75-8.39-4.62c-1.49-4.53-2.96-9.06-4.41-13.59c-0.86-2.69-2.31-5-4.28-7.01
			c-1.57-1.6-3.25-3.12-4.64-4.87c-1.62-2.03-3.05-4.23-4.41-6.45c-0.44-0.72-0.8-1.01-1.62-1.01c-7.63,0.03-15.27,0-22.9,0.02
			c-3.48,0.01-5.7,2.25-5.7,5.76c-0.02,9.26-0.01,18.51-0.01,27.77c0,0.81-0.03,1.62,0,2.43c0.05,1.34-0.6,1.91-1.91,1.88
			c-1.38-0.03-2.77,0-4.15-0.01c-1.15-0.01-1.75-0.56-1.75-1.76c0.01-10.83-0.09-21.67,0.06-32.5c0.08-6.29,5.79-11.47,12.36-11.5
			c7.4-0.04,14.79-0.01,22.19-0.01c0.52,0,1.04,0,1.78,0c0-0.59,0-1.09,0-1.6c0-5.25-0.03-10.5,0.02-15.75
			c0.05-5.26,3.95-9.34,9.29-9.82c4.74-0.42,9.29,3.05,10.3,7.9c0.17,0.83,0.19,1.71,0.19,2.56c0.02,5.39,0.02,10.78,0.04,16.18
			c0,0.09,0.05,0.18,0.13,0.44c0.49,0.02,1.04,0.08,1.59,0.08c9.64,0.01,19.28,0,28.92,0.01c7.81,0.01,13.11,5.31,13.11,13.13
			c0.01,7.4,0.01,14.79,0.01,22.19c0,2.81,0,5.62-0.01,8.43c-0.01,1.5-0.47,1.99-1.94,2.01c-1.38,0.01-2.76-0.04-4.15-0.07
			c-1.1-0.02-1.69-0.54-1.66-1.68c0.01-0.33,0-0.67,0-1c-0.04-9.64-0.08-19.27-0.13-28.91c-0.02-4.16-2.02-6.18-6.13-6.18
			c-8.92,0-17.85,0-26.77,0C58.7,62.14,58.19,62.14,57.39,62.14z M40.58,62.11c1.01,1.52,1.66,2.8,2.58,3.84
			c1.99,2.25,4.09,4.4,6.19,6.56c2.38,2.44,4.02,5.3,5.05,8.54c1.38,4.36,2.77,8.72,4.19,13.06c0.78,2.38,2.67,3.44,4.71,2.74
			c1.94-0.67,2.92-2.9,2.21-5.09c-1.86-5.76-3.58-11.57-5.66-17.24C58.52,70.9,56.64,67.5,55.01,64c-1.08-2.32-1.28-2.39-3.53-1.18
			c-1.35,0.73-2.86,0.92-4.11,0.11C45.31,61.6,43.17,62.37,40.58,62.11z M54.01,59.15c0.63,0,1.19,0,1.75,0
			c10.11,0,20.22-0.02,30.33,0.01c5.56,0.01,8.99,3.49,8.98,9.06c-0.01,9.06-0.06,18.12-0.08,27.18c0,0.55,0.06,1.11,0.09,1.62
			c1.47,0.29,2.09-0.09,2-1.58c-0.12-1.99-0.03-4-0.03-6c0.01-7.44,0.02-14.88,0.02-22.32c0-5.8-4.09-9.94-9.89-9.96
			c-10.59-0.02-21.18,0-31.76,0.01c-0.5,0-1.01,0.06-1.56,0.09C53.9,57.95,53.95,58.46,54.01,59.15z M4.92,97c0-0.69,0-1.2,0-1.72
			c0-8.97,0-17.94,0.01-26.91c0-0.76,0-1.54,0.14-2.28c0.81-4.31,4.1-6.92,8.83-6.93c9.45-0.03,18.89-0.01,28.34-0.02
			c0.44,0,0.88-0.05,1.41-0.09c-0.51-1.4-1.27-1.91-2.63-1.91c-9.35,0.06-18.7,0.01-28.05,0.04C6.9,57.21,2.94,61.23,2.93,67.27
			c-0.01,9.4,0,18.8,0,28.2c0,0.5,0.04,1,0.07,1.53C3.68,97,4.2,97,4.92,97z M42.22,48.46c0.44,1.45,0.76,3.36,1.59,5.02
			c1.04,2.07,2.47,3.95,3.79,5.88c0.78,1.14,1.82,1.41,2.66,0.74c1.04-0.82,0.9-1.77,0.2-2.77c-1.09-1.56-2.17-3.14-3.24-4.71
			c-1.12-1.65-1.57-3.47-1.26-5.44c0.28-1.79,0.64-3.56,0.94-5.35c0.35-2.07,0.71-4.13,0.98-6.21c0.14-1.07-0.48-1.74-1.53-1.88
			c-1.04-0.13-1.75,0.31-1.94,1.41c-0.14,0.8-0.29,1.59-0.42,2.39C43.43,41.04,42.86,44.51,42.22,48.46z M39.33,46.64
			c0.05-0.01,0.1-0.02,0.15-0.03c0.69-4.04,1.34-8.08,2.07-12.1c0.49-2.68,2.87-4.2,5.53-3.64c2.58,0.54,4.11,2.67,3.71,5.4
			c-0.55,3.72-1.34,7.41-1.79,11.14c-0.14,1.17,0.32,2.49,0.76,3.64c0.32,0.87,0.97,1.65,1.61,2.34c0.42,0.45,1.09,0.66,1.93,1.15
			c0-6.16,0.01-11.78,0-17.4c-0.01-4.01-2.97-7.06-6.86-7.11c-3.89-0.06-6.98,2.89-7.08,6.89C39.27,40.16,39.33,43.4,39.33,46.64z
			 M40.62,54.14c-0.45-1.76-0.88-3.4-1.23-4.79c0,1.4,0,3.06,0,4.79C39.82,54.14,40.18,54.14,40.62,54.14z"/>
		<path class="st0" d="M39.69,71.73c0.79,2.76-0.57,4.87-2.75,6.94c-4.08,3.87-7.91,8-11.84,12.02c-1.03,1.06-1.55,2.28-1.07,3.77
			c0.45,1.39,1.4,2.43,2.84,2.45c1.04,0.01,2.4-0.29,3.09-0.98c5.44-5.41,10.75-10.95,16.09-16.46c0.29-0.3,0.49-0.7,0.71-1.06
			c0.51-0.82,1.22-1.11,2.06-0.63c0.85,0.48,0.97,1.28,0.48,2.09c-0.42,0.69-0.86,1.38-1.41,1.96
			c-5.17,5.34-10.36,10.67-15.56,15.99c-2.74,2.8-6.77,2.9-9.46,0.29c-2.64-2.57-2.61-6.65,0.12-9.47
			c4.25-4.38,8.51-8.74,12.81-13.08c0.69-0.7,1.04-1.37,0.98-2.37c-0.1-1.66-0.02-3.34-0.04-5.01c-0.01-1.04,0.35-1.86,1.47-1.9
			c1.17-0.04,1.48,0.82,1.48,1.85C39.68,69.23,39.69,70.33,39.69,71.73z"/>
		<path class="st0" d="M57.18,14.51c-0.12,1.33-0.18,2.67-0.39,3.98c-0.61,3.88-2.68,6.03-6.53,6.77c-3.22,0.62-6.45,0.63-9.64-0.23
			c-2.94-0.79-4.82-2.65-5.43-5.65c-0.9-4.44-0.91-8.82,1.23-12.97c2.11-4.09,6.35-6.81,10.3-6.36c4.59,0.52,7.48,3.42,9.11,7.49
			c0.87,2.16,1.12,4.57,1.64,6.87C57.38,14.44,57.28,14.47,57.18,14.51z M45.9,22.84c0.01-0.06,0.01-0.13,0.02-0.19
			c0.76,0,1.53,0.05,2.29-0.01c3.92-0.29,5.65-2.02,5.91-5.94c0.09-1.33,0.11-2.67,0.02-4c-0.18-2.8-1.19-5.29-3.14-7.33
			C49.7,4,48.12,2.94,46.17,2.94c-3.46-0.01-5.6,2.11-7.12,4.91c-1.9,3.5-1.74,7.25-0.99,11c0.38,1.92,1.76,3.03,3.62,3.43
			C43.06,22.57,44.49,22.66,45.9,22.84z"/>
	</g>
</g>
</svg>
