<?xml version="1.0" encoding="utf-8"?>
<!-- Generator: Adobe Illustrator 27.0.0, SVG Export Plug-In . SVG Version: 6.00 Build 0)  -->
<svg version="1.1" id="Capa_1" xmlns="http://www.w3.org/2000/svg" xmlns:xlink="http://www.w3.org/1999/xlink" x="0px" y="0px"
	 viewBox="0 0 100 100" style="enable-background:new 0 0 100 100;" xml:space="preserve">
<style type="text/css">
	.st0{fill:#196480;}
	.st1{fill-rule:evenodd;clip-rule:evenodd;fill:#196480;}
</style>
<g>
	<g>
		<path class="st0" d="M8.96,75.74c-1.49,0-2.94-0.07-4.38,0.02c-2.55,0.15-4.6-1.99-4.58-4.61c0-0.36,0-0.71,0-1.07
			c0-12.43,0-24.86,0-37.29c0-2.45,1.46-4.33,3.64-4.69c0.33-0.05,0.67-0.05,1-0.05c18.28,0,36.55,0,54.83,0c0.26,0,0.53,0,0.87,0
			c0-0.66-0.02-1.26,0-1.85c0.09-2.03,1-3.56,2.91-4.34c1.81-0.74,3.47-0.36,4.89,0.96c0.92,0.86,1.37,1.97,1.39,3.23
			c0.01,0.64,0,1.28,0,2c0.34,0,0.6,0,0.86,0c2.32,0,4.64,0,6.96,0c1.44,0,2.6,0.55,3.48,1.68c6.04,7.74,12.07,15.48,18.11,23.22
			c0.7,0.89,1.04,1.91,1.04,3.04c0,5.02-0.03,10.04,0.01,15.06c0.02,2.35-1.7,4.9-4.75,4.72c-1.4-0.08-2.8-0.01-4.06-0.01
			c-0.46,1.31-0.76,2.56-1.31,3.68c-2.12,4.25-6.67,6.52-11.36,5.77c-4.5-0.72-8.08-4.31-8.83-8.89c-0.08-0.47-0.27-0.56-0.69-0.56
			c-12.68,0.01-25.35,0.01-38.03,0c-0.39,0-0.58,0.08-0.66,0.52c-0.95,5.33-5.32,9.07-10.59,9.08c-5.25,0.01-9.62-3.66-10.64-8.96
			C9.04,76.2,9.01,76.03,8.96,75.74z M97.63,59.38c0-0.29,0-0.49,0-0.69c0-0.96,0.01-1.92-0.01-2.88c-0.02-0.92-0.57-1.62-1.2-2.17
			c-0.3-0.26-0.91-0.23-1.38-0.23c-8.08-0.01-16.15-0.01-24.23-0.01c-2.79,0-4.57-1.76-4.58-4.55c-0.01-3.5-0.01-7.01,0-10.51
			c0.01-2.72,1.82-4.52,4.55-4.52c3.12,0,6.25,0,9.37,0c0.23,0,0.46-0.02,0.82-0.04c-0.66-0.86-1.27-1.59-1.82-2.37
			c-0.51-0.71-1.16-1.01-2.05-1.01c-23.94,0.02-47.88,0.01-71.83,0.01c-0.29,0-0.58,0-0.87,0c-0.97,0.02-1.66,0.52-1.92,1.45
			C2.4,32.24,2.36,32.63,2.36,33C2.35,41.55,2.35,50.1,2.35,58.64c0,0.24,0,0.48,0,0.74C34.15,59.38,65.85,59.38,97.63,59.38z
			 M2.4,66.37c0.16,0.02,0.27,0.04,0.38,0.04c3.17,0,6.34,0.01,9.51-0.01c0.26,0,0.55-0.15,0.77-0.31
			c3.94-3.03,9.25-3.04,13.24-0.02c0.26,0.2,0.64,0.33,0.96,0.34c15.17,0.02,30.35,0.02,45.52,0c0.28,0,0.62-0.12,0.84-0.29
			c4.07-3.08,9.24-3.08,13.34,0.01c0.18,0.14,0.43,0.28,0.65,0.28c3.19,0.02,6.38,0.02,9.57,0c0.15,0,0.42-0.22,0.42-0.34
			c0.03-1.4,0.02-2.8,0.02-4.23c-31.78,0-63.48,0-95.22,0C2.4,63.34,2.4,64.83,2.4,66.37z M94.4,51.05
			c-0.17-0.25-0.23-0.36-0.31-0.47c-3.65-4.68-7.29-9.36-10.96-14.02c-0.17-0.21-0.56-0.34-0.84-0.34
			c-3.79-0.02-7.58-0.02-11.38-0.01c-1.57,0-2.3,0.72-2.3,2.28c0,3.41,0,6.83,0,10.24c0,1.62,0.7,2.33,2.32,2.33
			c7.56,0,15.12,0,22.68,0C93.83,51.05,94.05,51.05,94.4,51.05z M70.93,68.83c-13.93,0-27.98,0-41.92,0
			c0.42,1.26,0.92,2.48,1.22,3.75c0.16,0.67,0.38,0.83,1.03,0.83c12.49-0.02,24.99-0.01,37.48-0.01c0.16,0,0.33,0.05,0.46-0.01
			c0.17-0.08,0.39-0.21,0.44-0.37C70.09,71.63,70.5,70.23,70.93,68.83z M28.07,74.61c0.01-4.65-3.71-8.4-8.34-8.41
			c-4.62-0.01-8.4,3.71-8.42,8.28c-0.02,4.7,3.7,8.47,8.35,8.48C24.31,82.96,28.06,79.25,28.07,74.61z M71.92,74.52
			c0,4.71,3.71,8.45,8.38,8.44c4.64-0.01,8.38-3.75,8.38-8.39c0-4.63-3.75-8.37-8.4-8.37C75.68,66.19,71.92,69.93,71.92,74.52z
			 M8.81,73.36c0.55-1.58,1.07-3.07,1.6-4.59c-2.52,0-5.06-0.01-7.6,0.02c-0.15,0-0.41,0.25-0.42,0.4c-0.04,0.71-0.05,1.43,0,2.14
			c0.07,1.07,0.74,1.96,1.64,2C5.65,73.41,7.3,73.36,8.81,73.36z M97.56,68.81c-2.71,0-5.37,0-7.96,0c0.52,1.5,1.04,2.98,1.6,4.58
			c1.31,0,2.78,0,4.25,0c1.16-0.01,1.94-0.58,2.09-1.73C97.65,70.74,97.56,69.8,97.56,68.81z M62.73,27.99c1.51,0,2.94,0,4.42,0
			c0-0.65,0.01-1.25,0-1.85c-0.02-1.25-0.91-2.2-2.09-2.25c-1.19-0.05-2.23,0.87-2.32,2.11C62.69,26.64,62.73,27.28,62.73,27.99z"/>
		<path class="st0" d="M75.25,19.46c-0.23,0.42-0.34,0.75-0.55,0.98c-0.54,0.59-1.11,1.16-1.7,1.71c-0.55,0.53-1.24,0.53-1.73,0.05
			c-0.46-0.46-0.47-1.15,0.02-1.68c0.58-0.62,1.18-1.22,1.8-1.8c0.37-0.35,0.85-0.5,1.29-0.21C74.72,18.74,74.95,19.12,75.25,19.46z
			"/>
		<path class="st0" d="M55.86,18.24c0.42,0.24,0.74,0.35,0.97,0.56c0.58,0.53,1.12,1.09,1.66,1.65c0.54,0.57,0.56,1.24,0.09,1.73
			c-0.49,0.51-1.19,0.49-1.78-0.07c-0.59-0.57-1.23-1.12-1.72-1.77c-0.23-0.31-0.3-0.91-0.18-1.28
			C55.03,18.73,55.52,18.52,55.86,18.24z"/>
		<path class="st0" d="M66.09,17.18c0,0.42,0.02,0.85,0,1.27c-0.03,0.63-0.5,1.1-1.11,1.13c-0.62,0.03-1.18-0.43-1.21-1.09
			c-0.04-0.91-0.04-1.83,0-2.74c0.02-0.63,0.53-1.08,1.14-1.09c0.63-0.01,1.14,0.45,1.18,1.12C66.11,16.24,66.09,16.71,66.09,17.18z
			"/>
		<path class="st0" d="M49.03,53.41c-2.81,0-5.62,0-8.43,0c-2.43,0-4.01-1.58-4.02-4.02c-0.01-3.84-0.01-7.67,0-11.51
			c0.01-2.48,1.57-4.05,4.06-4.05c5.6-0.01,11.19-0.01,16.79,0c2.47,0,4.06,1.6,4.06,4.07c0.01,3.84,0.01,7.67,0,11.51
			c-0.01,2.42-1.6,4.01-4.04,4.01C54.65,53.42,51.84,53.41,49.03,53.41C49.03,53.41,49.03,53.41,49.03,53.41z M48.97,51.05
			c2.81,0,5.62,0,8.43,0c1.15,0,1.71-0.54,1.71-1.66c0.01-3.84,0.01-7.67,0-11.51c0-1.15-0.54-1.67-1.69-1.67c-5.6,0-11.2,0-16.8,0
			c-1.13,0-1.68,0.54-1.68,1.69c-0.01,3.81-0.01,7.63,0,11.44c0,1.17,0.55,1.71,1.73,1.71C43.44,51.05,46.21,51.05,48.97,51.05z"/>
		<path class="st0" d="M31.8,44.94c0,6.84-5.49,12.28-12.38,12.27C12.69,57.2,7.25,51.69,7.25,44.87c0-6.76,5.5-12.25,12.27-12.24
			C26.34,32.64,31.81,38.12,31.8,44.94z M29.44,45c0.04-5.42-4.34-9.95-9.7-9.99c-5.57-0.05-10.07,4.29-10.13,9.77
			c-0.06,5.49,4.34,10.02,9.77,10.05C24.93,54.87,29.39,50.51,29.44,45z"/>
		<path class="st0" d="M24.42,74.59c-0.01,2.6-2.15,4.74-4.74,4.72c-2.63-0.01-4.76-2.16-4.74-4.79c0.02-2.58,2.19-4.71,4.78-4.69
			C22.32,69.85,24.44,71.99,24.42,74.59z M22.04,74.62c0.02-1.33-1.02-2.4-2.34-2.4c-1.28,0-2.35,1.04-2.38,2.31
			c-0.03,1.3,1.05,2.4,2.34,2.4C20.96,76.94,22.02,75.9,22.04,74.62z"/>
		<path class="st0" d="M80.26,79.31c-2.62-0.02-4.72-2.17-4.7-4.83c0.03-2.55,2.17-4.66,4.74-4.66c2.62,0.01,4.79,2.2,4.74,4.8
			C85,77.23,82.86,79.33,80.26,79.31z M80.28,76.93c1.3,0.01,2.39-1.07,2.38-2.37c0-1.26-1.07-2.33-2.34-2.34
			c-1.31-0.01-2.37,1.05-2.37,2.37C77.95,75.87,79,76.92,80.28,76.93z"/>
		<path class="st0" d="M16.4,48.02c-1.11,0-2.11,0-3.1,0c-1.04-0.01-1.45-0.41-1.45-1.46c0-1.14-0.01-2.27,0-3.41
			c0.01-0.88,0.44-1.32,1.31-1.33c1.04-0.01,2.09,0,3.24,0c0-0.98,0-1.91,0-2.83c0-1.42,0.31-1.72,1.73-1.72c1,0,2.01,0,3.01,0
			c1.13,0,1.51,0.4,1.5,1.54c0,0.98,0,1.95,0,3.01c1.07,0,2.07,0,3.07,0c1.09,0,1.49,0.4,1.49,1.49c0.01,1.09,0.01,2.19,0,3.28
			c-0.01,1.01-0.42,1.43-1.42,1.44c-1.02,0.01-2.04,0-3.15,0c0,0.99,0,1.9,0,2.8c0,1.45-0.29,1.75-1.76,1.76
			c-1.05,0-2.1,0.01-3.14,0c-0.89-0.01-1.31-0.43-1.33-1.32C16.39,50.22,16.4,49.17,16.4,48.02z M20.27,50.2
			c0-1.14-0.01-2.21,0-3.28c0.01-0.76,0.44-1.2,1.19-1.24c0.33-0.02,0.67-0.01,1-0.01c0.77,0,1.54,0,2.31,0c0-0.55,0-0.99,0-1.49
			c-1.04,0-2.04,0.01-3.04,0c-1.1-0.01-1.47-0.4-1.47-1.51c0-0.99,0-1.99,0-3.01c-0.54,0-0.97,0-1.48,0c0,0.99,0,1.94,0,2.89
			c0,1.27-0.36,1.63-1.63,1.63c-0.95,0-1.9,0-2.89,0c0,0.52,0,0.96,0,1.45c0.24,0.01,0.46,0.03,0.68,0.03c0.85,0,1.7-0.01,2.54,0.01
			c0.84,0.02,1.27,0.46,1.3,1.28c0.01,0.51,0,1.03,0,1.54c0,0.57,0,1.13,0,1.71C19.33,50.2,19.75,50.2,20.27,50.2z"/>
	</g>
</g>
</svg>
