<?xml version="1.0" encoding="utf-8"?>
<!-- Generator: Adobe Illustrator 27.0.0, SVG Export Plug-In . SVG Version: 6.00 Build 0)  -->
<svg version="1.1" id="Capa_1" xmlns="http://www.w3.org/2000/svg" xmlns:xlink="http://www.w3.org/1999/xlink" x="0px" y="0px"
	 viewBox="0 0 100 100" style="enable-background:new 0 0 100 100;" xml:space="preserve">
<style type="text/css">
	.st0{fill:#196480;}
	.st1{fill-rule:evenodd;clip-rule:evenodd;fill:#196480;}
</style>
<path class="st0" d="M39.5,40.37c-2.01-3.12-2.4-4.07-2.84-6.88c-0.45-0.03-0.91-0.04-1.36-0.09c-2.98-0.32-5.22-3.22-4.81-6.2
	c0.18-1.31,0.72-2.41,1.65-3.35c0.1-0.1,0.15-0.28,0.15-0.43c0.01-1.84,0-3.67,0.01-5.51c0.03-4.31,1.37-8.16,4.14-11.47
	c2.9-3.48,6.6-5.63,11.1-6.25c5.51-0.76,10.37,0.78,14.48,4.52c3.05,2.77,4.85,6.26,5.48,10.33c0.13,0.85,0.19,1.72,0.2,2.58
	c0.03,1.94,0.01,3.87,0,5.81c0,0.2,0.06,0.34,0.2,0.48c1.55,1.63,2.06,3.55,1.37,5.68c-0.68,2.11-2.2,3.37-4.38,3.78
	c-0.5,0.1-1.02,0.08-1.56,0.12c-0.3,2.53-1.24,4.83-2.84,6.85c0.51,0.31,1.01,0.6,1.49,0.91c3.38,2.24,5.73,5.28,7.04,9.11
	c0.09,0.28,0.23,0.42,0.51,0.51c1.46,0.46,2.95,0.83,4.34,1.44c4.99,2.21,7.98,6.05,8.98,11.42c0.15,0.82,0.2,1.67,0.2,2.51
	c0.01,10.05,0.01,20.1,0.01,30.15c0,2.08-1.52,3.6-3.6,3.6c-19.64,0-39.28,0-58.93,0c-2.08,0-3.6-1.52-3.6-3.6
	c0-10.11,0-20.21,0-30.32c0-6.51,4.39-12.42,10.62-14.31c1-0.3,2-0.61,3-0.93c0.14-0.05,0.3-0.19,0.35-0.32
	c1.52-4.45,4.34-7.8,8.46-10.07C39.41,40.43,39.44,40.4,39.5,40.37z M30.22,53.42c-0.65,0.2-1.26,0.39-1.87,0.57
	c-5.41,1.66-9.05,6.58-9.05,12.24c0,6.27,0,12.53,0,18.8c0,3.78,0,7.57,0,11.35c0,0.76,0.47,1.25,1.21,1.25c8.8,0,17.61,0,26.41,0
	c0.08,0,0.16-0.01,0.27-0.03c-0.07-0.1-0.11-0.18-0.16-0.25c-1.48-2.17-2.95-4.34-4.43-6.5c-0.25-0.36-0.31-0.72-0.24-1.15
	c0.14-0.76,0.25-1.53,0.36-2.3c0.41-2.62,0.81-5.24,1.22-7.87c0.36-2.32,0.72-4.64,1.08-6.96c0.41-2.64,0.82-5.29,1.22-7.93
	c0.05-0.32,0.1-0.67,0.01-0.96c-0.25-0.79-0.57-1.56-0.86-2.33c-0.03-0.08-0.08-0.16-0.13-0.27c-0.71,0.49-1.38,0.96-2.05,1.42
	c-0.66,0.46-1.38,0.3-1.79-0.39c-0.31-0.53-0.61-1.06-0.91-1.59c-1.62-2.83-3.24-5.65-4.85-8.48c-0.12-0.21-0.22-0.27-0.46-0.19
	c-0.71,0.24-1.43,0.46-2.16,0.67c-0.18,0.05-0.28,0.13-0.3,0.33c-0.1,0.88-0.28,1.75-0.3,2.63c-0.05,2.05-0.02,4.11-0.02,6.17
	c0,0.05,0.01,0.11,0.02,0.16c0.05,0.02,0.09,0.03,0.13,0.04c1.93,0.49,3.18,1.7,3.76,3.6c0.17,0.57,0.34,1.15,0.51,1.73
	c0.68,2.32,1.37,4.64,2.04,6.97c0.25,0.89,0.36,1.81,0.09,2.72c-0.59,2.02-2.46,2.69-4.16,2.51c-0.62-0.06-0.99-0.64-0.94-1.26
	c0.05-0.6,0.54-1.03,1.18-1.05c0.23-0.01,0.46-0.02,0.68-0.06c0.69-0.11,1.03-0.52,1.02-1.22c-0.01-0.27-0.03-0.55-0.11-0.81
	c-0.87-3-1.73-5.99-2.62-8.98c-0.37-1.25-1.45-1.97-2.8-1.95c-1.37,0.02-2.41,0.74-2.78,1.98c-0.79,2.63-1.59,5.26-2.35,7.91
	c-0.18,0.63-0.3,1.3-0.35,1.96c-0.05,0.56,0.28,0.93,0.82,1.06c0.28,0.07,0.58,0.1,0.87,0.11c0.67,0.03,1.17,0.51,1.18,1.16
	c0.01,0.67-0.49,1.19-1.17,1.2c-0.28,0-0.57-0.03-0.85-0.05c-1.57-0.15-2.8-1.2-3.13-2.69c-0.21-0.96-0.05-1.9,0.22-2.81
	c0.84-2.9,1.7-5.8,2.57-8.69c0.37-1.22,1.14-2.16,2.27-2.77c0.48-0.26,1.01-0.43,1.53-0.64C30.13,59.03,29.9,56.25,30.22,53.42z
	 M52.79,97.64c0.18,0,0.29,0,0.39,0c8.74,0,17.48,0,26.21,0c0.86,0,1.31-0.45,1.31-1.32c0-9.96,0-19.93-0.01-29.89
	c0-0.64-0.03-1.29-0.12-1.93c-0.45-3.33-2.01-6.05-4.58-8.21c-1.8-1.5-3.94-2.26-6.16-2.85c-0.01,0-0.04,0.02-0.06,0.03
	c0.29,2.22,0.14,4.45,0.16,6.67c0.02,2.23,0,4.45,0,6.67c2.76,0.69,4.37,3.15,4.11,5.67c-0.27,2.69-2.38,4.69-4.99,4.82
	c-2.69,0.13-4.98-1.65-5.51-4.3c-0.25-1.26-0.06-2.46,0.57-3.58c0.76-1.37,1.94-2.22,3.47-2.62c0-0.14,0-0.27,0-0.4
	c0-3.49,0.02-6.98-0.01-10.47c-0.01-1.03-0.21-2.06-0.31-3.09c-0.02-0.2-0.13-0.27-0.3-0.32c-0.71-0.21-1.42-0.42-2.12-0.66
	c-0.24-0.08-0.36-0.05-0.49,0.18c-0.83,1.48-1.68,2.94-2.52,4.41c-1.08,1.88-2.15,3.76-3.23,5.63c-0.43,0.74-1.14,0.88-1.84,0.4
	c-0.18-0.12-0.36-0.25-0.54-0.37c-0.49-0.34-0.98-0.68-1.5-1.03c-0.06,0.14-0.1,0.23-0.14,0.33c-0.28,0.73-0.57,1.46-0.83,2.21
	c-0.07,0.2-0.09,0.43-0.06,0.63c0.22,1.48,0.46,2.96,0.68,4.43c0.36,2.34,0.72,4.68,1.08,7.02c0.38,2.48,0.77,4.96,1.15,7.44
	c0.34,2.17,0.66,4.34,1.01,6.51c0.07,0.45,0.01,0.83-0.25,1.21c-0.85,1.22-1.68,2.45-2.51,3.68C54.2,95.58,53.52,96.58,52.79,97.64z
	 M38.93,22.11c0,0.14,0,0.27,0,0.4c0,3.08-0.02,6.17,0.01,9.25c0.01,0.78,0.07,1.58,0.22,2.34c1.3,6.55,7.96,10.46,14.28,8.38
	c4.2-1.38,7.61-5.34,7.61-10.64c0-3.4,0-6.8-0.01-10.2c0-0.16-0.08-0.34-0.18-0.46c-0.87-0.99-1.76-1.97-2.64-2.96
	c-0.36-0.4-0.71-0.79-1.07-1.2c-0.09,0.07-0.15,0.11-0.21,0.15c-1.04,0.82-2.18,1.5-3.39,2.04c-3.82,1.73-7.89,2.43-12.04,2.75
	C40.68,22.03,39.83,22.06,38.93,22.11z M65.35,22.39c0-0.11,0-0.21,0-0.32c0-1.42,0-2.84,0-4.26c0-2.65-0.62-5.14-1.89-7.48
	c-2.92-5.39-8.99-8.59-15.06-7.9c-3.85,0.44-7.09,2.11-9.69,4.97c-2.43,2.67-3.81,5.81-4.01,9.43c-0.1,1.82-0.04,3.65-0.06,5.48
	c0,0.04,0.02,0.08,0.03,0.09c0.64-0.05,1.25-0.09,1.91-0.14c0-0.45-0.02-0.89,0-1.34c0.04-0.75,0.5-1.15,1.25-1.18
	c1.66-0.07,3.32-0.11,4.97-0.25c2.62-0.22,5.19-0.72,7.68-1.57c2.06-0.71,4-1.63,5.63-3.12c0.98-0.9,1.45-0.85,2.34,0.15
	c1.45,1.63,2.9,3.27,4.38,4.88c0.41,0.44,0.62,0.91,0.57,1.5c-0.02,0.32,0,0.64,0,0.94C64.09,22.3,64.69,22.35,65.35,22.39z
	 M48.57,65.01c-0.05,0.31-0.1,0.6-0.15,0.89c-0.42,2.75-0.84,5.5-1.27,8.25c-0.41,2.62-0.82,5.24-1.23,7.86
	c-0.39,2.5-0.78,5-1.16,7.51c-0.02,0.15,0.01,0.36,0.1,0.48c1.64,2.43,3.29,4.85,4.93,7.27c0.06,0.08,0.12,0.16,0.2,0.27
	c1.75-2.57,3.46-5.08,5.17-7.61c0.06-0.09,0.07-0.23,0.06-0.34c-0.11-0.73-0.23-1.47-0.34-2.2c-0.36-2.34-0.73-4.68-1.09-7.02
	c-0.34-2.2-0.68-4.4-1.02-6.6c-0.34-2.19-0.67-4.38-1.01-6.57c-0.11-0.73-0.23-1.46-0.34-2.19C50.46,65.01,49.52,65.01,48.57,65.01z
	 M55.84,44.08c-3.91,1.76-7.79,1.76-11.69,0c0,1.15,0.01,2.27-0.01,3.38c0,0.25,0.07,0.43,0.23,0.62c1.65,1.9,3.29,3.81,4.93,5.71
	c0.22,0.26,0.46,0.52,0.68,0.77c0.05-0.04,0.07-0.05,0.09-0.07c1.88-2.18,3.76-4.35,5.63-6.53c0.08-0.1,0.13-0.25,0.13-0.38
	c0.01-0.61,0.01-1.22,0.01-1.84C55.84,45.2,55.84,44.65,55.84,44.08z M37.79,51.08c1.7,2.97,3.37,5.89,5.05,8.82
	c1.82-1.26,3.6-2.49,5.39-3.73c-0.05-0.07-0.08-0.11-0.12-0.15c-1.64-1.9-3.31-3.78-4.91-5.72c-0.47-0.57-0.85-0.7-1.54-0.45
	C40.42,50.32,39.12,50.67,37.79,51.08z M62.2,51.09c-0.08-0.03-0.13-0.06-0.18-0.07c-1.47-0.45-2.94-0.9-4.4-1.37
	c-0.21-0.07-0.27,0.04-0.37,0.16c-1.56,1.81-3.13,3.62-4.69,5.43c-0.26,0.3-0.52,0.61-0.79,0.93c1.81,1.25,3.59,2.48,5.39,3.73
	C58.84,56.96,60.51,54.03,62.2,51.09z M33.69,49.88c2.75-0.85,5.42-1.68,8.11-2.51c0-1.55,0-3.08,0-4.61c0-0.34-0.52-0.62-0.83-0.47
	c-1.99,0.97-3.67,2.31-5.08,4.01C35.01,47.36,34.28,48.53,33.69,49.88z M58.2,47.37c2.69,0.83,5.37,1.66,8.06,2.49
	c0-0.07,0-0.08,0-0.09c-1.55-3.39-4-5.9-7.35-7.54c-0.07-0.03-0.19-0.05-0.24-0.01c-0.26,0.2-0.53,0.36-0.49,0.8
	c0.06,0.66,0.02,1.33,0.02,2C58.2,45.8,58.2,46.58,58.2,47.37z M68.88,69.07c-1.52-0.1-2.94,1.16-3.06,2.71
	c-0.13,1.65,1.11,3.06,2.79,3.19c1.56,0.12,3.01-1.15,3.11-2.73C71.83,70.57,70.59,69.19,68.88,69.07z M63.44,24.67
	c0,2.14,0,4.27,0,6.42c1.41,0.1,2.55-0.35,3.29-1.57c0.69-1.14,0.66-2.32-0.07-3.43C65.9,24.96,64.79,24.53,63.44,24.67z
	 M36.56,24.67c-1.4-0.14-2.51,0.32-3.27,1.5c-0.71,1.11-0.66,2.51,0.12,3.57c0.78,1.06,1.86,1.45,3.15,1.34
	C36.56,28.93,36.56,26.81,36.56,24.67z M49.98,62.64c0.47,0,0.94,0.01,1.41-0.01c0.11-0.01,0.26-0.11,0.3-0.21
	c0.33-0.82,0.63-1.65,0.94-2.48c0.06-0.16,0.06-0.25-0.09-0.36c-0.79-0.54-1.58-1.09-2.38-1.63c-0.08-0.05-0.26-0.05-0.34,0
	c-0.8,0.53-1.59,1.08-2.37,1.64c-0.07,0.05-0.12,0.23-0.09,0.31c0.3,0.84,0.61,1.68,0.94,2.51c0.04,0.1,0.2,0.2,0.3,0.21
	C49.07,62.65,49.53,62.64,49.98,62.64z"/>
</svg>
