<?xml version="1.0" encoding="utf-8"?>
<!-- Generator: Adobe Illustrator 27.0.0, SVG Export Plug-In . SVG Version: 6.00 Build 0)  -->
<svg version="1.1" id="Capa_1" xmlns="http://www.w3.org/2000/svg" xmlns:xlink="http://www.w3.org/1999/xlink" x="0px" y="0px"
	 viewBox="0 0 100 100" style="enable-background:new 0 0 100 100;" xml:space="preserve">
<style type="text/css">
	.st0{fill:#196480;}
	.st1{fill-rule:evenodd;clip-rule:evenodd;fill:#196480;}
</style>
<path class="st0" d="M29.89,63.26c-2.24,0-4.38,0-6.51,0c-1.22,0-2.44,0.05-3.56-0.55c-1.62-0.87-2.66-2.19-2.72-4.04
	c-0.09-2.68-0.1-5.37,0-8.05c0.1-2.62,2.29-4.62,4.93-4.65c2.52-0.03,5.04-0.01,7.74-0.01c0-0.71-0.01-1.37,0-2.04
	c0.05-2.14,0.02-4.29,0.18-6.42c0.18-2.41,2.09-4.33,4.51-4.45c2.65-0.13,5.32-0.14,7.97,0c2.82,0.15,4.74,2.35,4.76,5.18
	c0.01,1.27-0.01,2.55-0.01,3.82c0,1.25,0,2.49,0,3.83c1.97,0,3.9,0,5.87,0c-0.46-2.99-1.35-5.81-2.7-8.42
	c-2.42-4.69-4.96-9.31-7.58-13.89c-2.46-4.3-4.04-8.91-4.95-13.74c-0.36-1.9-0.3-3.88-0.53-5.82c-0.19-1.58,0.68-2.4,1.89-3.06
	c2.07-1.14,4.26-1.12,6.48-0.63c0.73,0.16,1.43,0.49,2.13,0.77c0.62,0.24,0.88,0.69,0.9,1.38c0.07,2.76,0.31,5.51,1.28,8.13
	c0.6,1.63,0.84,1.81,2.43,1.1c2-0.89,3.93-1.94,5.87-2.96c3.19-1.68,6.41-3.27,9.93-4.14c8.02-1.98,14.47,0.64,19.72,6.74
	c4.43,5.13,6.88,11.19,8.26,17.75c1.21,5.77,1.48,11.61,0.94,17.47c-0.75,8.28-2.72,16.25-6.66,23.65
	c-2.88,5.41-6.59,10.1-11.84,13.44c-3,1.91-6.31,2.89-9.76,3.57c-3.85,0.76-7.74,0.99-11.64,0.68c-4.06-0.32-7.99-1.33-11.85-2.61
	c-3.15-1.04-6.29-2.13-9.48-3.06c-4.72-1.37-8.81,0.09-12.42,3.16c-3.86,3.29-5.97,7.61-7.05,12.49c-0.09,0.41-0.46,0.97-0.82,1.07
	c-3.17,0.91-6.38,1.54-9.66,0.54c-0.61-0.19-1.22-0.46-1.77-0.8c-1.61-0.98-1.82-1.84-1.41-4.27c0.84-4.91,2.41-9.58,4.7-14
	c1.7-3.28,3.58-6.45,6.27-9.04c3.22-3.09,7.11-4.87,11.45-5.72c1.35-0.26,2.72-0.46,4.08-0.65c0.41-0.06,0.66-0.16,0.61-0.64
	C29.86,64.02,29.89,63.67,29.89,63.26z M29.89,67.36c-1.48,0.26-2.81,0.47-4.13,0.73c-4.81,0.93-9,3.02-12,6.99
	c-4.35,5.77-7.2,12.23-8.4,19.38c-0.35,2.1-0.18,2.31,1.92,2.79c2.03,0.47,4.03,0.14,6.04-0.22c0.62-0.11,0.86-0.42,1.02-1.01
	c1.45-5.44,4.13-10.1,8.75-13.49c3.81-2.8,8.03-4.07,12.7-2.87c3.26,0.84,6.48,1.89,9.66,3.01c7.34,2.56,14.77,3.54,22.51,2.21
	c6.87-1.18,12.29-4.52,16.53-9.97c4.04-5.19,6.49-11.14,8.3-17.38c1.09-3.78,1.63-7.67,1.93-11.59c0.45-5.92,0.11-11.8-1.28-17.59
	c-1.55-6.47-4.17-12.4-9.05-17.12c-4.12-3.99-8.96-5.62-14.65-4.43c-3.56,0.74-6.79,2.31-9.99,3.97c-2.35,1.21-4.7,2.47-7.15,3.43
	c-2.34,0.92-3.81,0.1-4.76-2.23c-1.09-2.67-1.43-5.48-1.6-8.32C46.23,3.42,46.12,3.04,45.98,3c-1.83-0.55-3.67-0.99-5.52-0.03
	c-0.56,0.29-0.82,0.65-0.8,1.33c0.14,4.88,1.32,9.55,3.29,13.96c1.49,3.35,3.45,6.49,5.25,9.7c3.2,5.69,6.36,11.38,7.39,17.95
	c2.71,0.72,4.23,2.2,4.38,4.68c0.16,2.62,0.17,5.27,0.01,7.89c-0.16,2.52-1.94,4.37-4.32,4.68c-1.23,0.16-2.49,0.05-3.74,0.05
	c-1.56,0-3.12,0-4.73,0c0,2.69,0.01,5.26,0,7.84c-0.01,2.57-1.83,4.82-4.38,5.02c-2.59,0.21-5.2,0.12-7.8,0.12
	c-2.93-0.01-5.1-2.23-5.12-5.17C29.89,69.84,29.89,68.67,29.89,67.36z M32.36,66.71c0.01,0,0.02,0,0.02,0c0,1.3,0.09,2.61-0.02,3.9
	c-0.15,1.79,1.04,3.14,3.1,3.07c2-0.07,4.02-0.1,6.02-0.01c2.15,0.1,3.28-1.2,3.24-3.22c-0.05-2.71-0.02-5.43-0.01-8.14
	c0-1.25,0.35-1.59,1.59-1.59c2.74,0,5.48,0,8.22,0c1.9,0,2.98-0.99,3.01-2.85c0.04-2.25,0.04-4.5,0-6.75
	c-0.03-1.72-1.14-2.74-2.85-2.74c-2.77,0-5.53,0.01-8.3-0.01c-1.37-0.01-1.73-0.4-1.73-1.75c0.01-2.82,0.03-5.64,0.03-8.46
	c0-1.53-1.07-2.65-2.58-2.67c-2.39-0.03-4.77-0.02-7.16,0c-1.51,0.02-2.52,1.06-2.56,2.57c-0.08,2.9-0.13,5.8-0.2,8.7
	c-0.03,1.21-0.43,1.6-1.62,1.61c-2.74,0.02-5.48,0.02-8.22,0.05c-1.78,0.02-2.8,1.07-2.81,2.85c-0.01,2.2,0,4.39,0,6.59
	c0,1.88,1.03,2.9,2.92,2.9c2.71,0,5.43,0,8.14,0c1.35,0,1.75,0.38,1.77,1.72C32.37,63.89,32.36,65.3,32.36,66.71z"/>
</svg>
