<?xml version="1.0" encoding="utf-8"?>
<!-- Generator: Adobe Illustrator 27.0.0, SVG Export Plug-In . SVG Version: 6.00 Build 0)  -->
<svg version="1.1" id="Capa_1" xmlns="http://www.w3.org/2000/svg" xmlns:xlink="http://www.w3.org/1999/xlink" x="0px" y="0px"
	 viewBox="0 0 100 100" style="enable-background:new 0 0 100 100;" xml:space="preserve">
<style type="text/css">
	.st0{fill:#196480;}
	.st1{fill-rule:evenodd;clip-rule:evenodd;fill:#196480;}
</style>
<g>
	<g>
		<path class="st0" d="M4.35,49.88c0-13.62,0-27.24,0-40.86C4.35,3.73,8.07,0,13.36,0c24.45,0,48.9,0,73.35,0
			c5.2,0,8.94,3.75,8.94,8.98c0,27.35,0,54.7,0,82.04c0,5.22-3.74,8.97-8.95,8.97c-24.45,0-48.9,0-73.35,0
			c-5.27,0-8.99-3.74-8.99-9.04C4.35,77.27,4.35,63.57,4.35,49.88z M8.69,49.98c0,13.51,0,27.03,0,40.54c0,3.45,1.68,5.13,5.12,5.13
			c24.13,0,48.25,0,72.38,0c3.44,0,5.1-1.69,5.1-5.15c0-26.99,0-53.98,0-80.97c0-3.53-1.66-5.19-5.18-5.19c-24.09,0-48.18,0-72.27,0
			c-3.51,0-5.16,1.66-5.16,5.21C8.69,23.03,8.69,36.51,8.69,49.98z"/>
		<path class="st0" d="M51.95,60.72c3.93-1.17,7.67-2.05,11.23-3.4c6.23-2.38,12.52,0.79,13.72,8.1c0.29,1.78,0.26,3.7-0.06,5.48
			c-0.59,3.2-2.74,5.31-5.71,6.45c-1.98,0.75-4.05,1.36-6.13,1.73c-2.86,0.5-4.65,1.97-5.72,4.66c-0.62,1.55-1.51,3.08-2.6,4.33
			c-3.74,4.31-9.6,4.31-13.34,0c-1.09-1.26-1.98-2.78-2.6-4.33c-1.07-2.68-2.86-4.14-5.72-4.66c-2.25-0.41-4.5-1.09-6.62-1.96
			c-3.24-1.32-5.08-3.91-5.48-7.38c-0.37-3.17,0.17-6.22,1.94-8.94c2.45-3.77,6.79-5.12,11.25-3.69c3.94,1.26,7.92,2.4,11.99,3.47
			c-0.58-1.71-0.52-3.17,1.05-4.03c0.52-0.28,1.6-0.25,2.01,0.11C52.22,57.57,52.39,58.92,51.95,60.72z M72.86,68.24
			c-0.09-0.72-0.13-1.44-0.26-2.15c-0.59-3.24-3.07-6.35-7.64-4.65c-3.57,1.33-7.33,2.17-11.04,3.07c-1.66,0.4-3.46,0.75-5.11,0.52
			c-4.97-0.71-9.83-1.99-14.54-3.78c-2.43-0.92-4.84,0.21-5.98,2.32c-0.94,1.74-1.22,3.61-1.08,5.56c0.13,1.76,1.05,3.03,2.61,3.7
			c1.62,0.69,3.28,1.4,5,1.69c4.93,0.81,8.34,3.38,10.19,8.05c0.65,1.63,1.87,2.81,3.33,3.76c1.09,0.71,2.11,0.75,3.22,0.05
			c1.68-1.06,2.87-2.48,3.65-4.32c1.7-4.03,4.67-6.46,9.01-7.32c1.93-0.39,3.84-1.02,5.67-1.75C71.95,72.16,72.93,70.49,72.86,68.24
			z"/>
		<path class="st0" d="M47.9,24.98c2.06-1.83,2.92-1.76,4.05,0.18c0.49-0.52,0.91-1.28,1.53-1.53c0.62-0.25,1.47-0.1,2.18,0.06
			c5.63,1.24,11.24,1.41,16.85-0.15c1.51-0.42,2.75,0.13,3.11,1.33c0.4,1.37-0.34,2.5-1.97,2.94c-6.54,1.76-13.09,1.65-19.62-0.03
			c-0.66-0.17-1.23-0.67-1.81-1.01c-0.16,0.91-1.13,2.09-1.84,2.15c-1.31,0.11-1.98-0.47-2.68-2.42c-0.67,1.25-1.91,1.35-3.07,1.6
			c-6.11,1.35-12.19,1.33-18.25-0.29c-1.29-0.35-2.01-1.17-2.01-2.24c0-1.04,0.72-1.92,1.81-2.13c0.34-0.07,0.72-0.04,1.05,0.05
			c5.86,1.6,11.71,1.52,17.58,0.03C46.23,23.16,46.87,23.49,47.9,24.98z"/>
		<path class="st0" d="M52.15,16.75c-1.84,1.51-2.84,1.61-3.84,0.46c-1.53,2.38-4.08,2.62-6.5,2.97c-3.78,0.56-7.49-0.1-11.15-1.09
			c-1.42-0.38-2.19-1.52-1.88-2.72c0.35-1.32,1.5-1.96,2.99-1.54c2.91,0.83,5.87,1.36,8.89,1.02c1.41-0.16,2.81-0.58,4.16-1.06
			c1.12-0.4,2.03-0.25,2.9,0.53c0.25-1.52,1.2-2.51,2.22-2.5c1.46,0.02,2.18,1.05,2.28,3.23c1.08-1.64,2.35-1.39,3.88-0.84
			c3.3,1.19,6.7,0.83,10.06,0.14c0.85-0.17,1.68-0.44,2.52-0.63c1.21-0.29,2.27,0.31,2.64,1.47c0.35,1.09-0.14,2.32-1.26,2.65
			c-5.13,1.54-10.31,2.29-15.55,0.49C53.3,18.91,52.22,18.34,52.15,16.75z"/>
		<path class="st0" d="M47.99,32.99c0.39,2.17,0.08,2.78-2.08,3.55c-8.73,3.09-17.46,3.31-26.18-0.03c-1.43-0.55-2.1-1.54-1.83-2.68
			c0.34-1.45,1.68-2.09,3.24-1.49c2.95,1.14,5.99,1.86,9.15,2.08c4.83,0.35,9.54-0.25,14.05-2.01c1.49-0.58,2.61-0.5,3.69,0.61
			L47.99,32.99z"/>
		<path class="st0" d="M67.53,38.7c-5.51-0.12-9.66-0.56-13.6-2.19c-0.91-0.38-1.67-0.88-1.76-1.98c-0.15-1.62,1.29-2.91,2.79-2.31
			c7.86,3.16,15.72,2.19,23.6,0.17c0.31-0.08,0.63-0.18,0.95-0.23c1.32-0.19,2.37,0.48,2.63,1.68c0.24,1.11-0.4,2.26-1.61,2.59
			c-1.7,0.48-3.41,0.96-5.15,1.23C72.34,38.15,69.29,38.48,67.53,38.7z"/>
		<path class="st0" d="M38.25,49.54c-3.58-0.1-7.1-0.99-10.48-2.44c-1.14-0.49-1.59-1.73-1.16-2.82c0.42-1.08,1.57-1.58,2.78-1.23
			c2.18,0.63,4.32,1.46,6.55,1.82c2.96,0.49,5.91,0.37,8.5-1.55c1.02-0.76,2.36-0.46,3.06,0.55c0.68,0.97,0.46,2.28-0.58,3.07
			C44.39,48.85,41.46,49.47,38.25,49.54z"/>
		<path class="st0" d="M61.79,49.54c-3.16-0.07-5.94-0.67-8.42-2.36c-0.92-0.63-1.43-1.43-1.19-2.57c0.2-0.9,0.8-1.5,1.69-1.61
			c0.53-0.06,1.22,0.01,1.62,0.31c2.59,1.92,5.54,2.03,8.5,1.58c2.08-0.32,4.08-1.16,6.15-1.63c0.74-0.17,1.71-0.19,2.33,0.16
			c1.49,0.84,1.23,3.02-0.43,3.74C68.72,48.61,65.23,49.44,61.79,49.54z"/>
		<path class="st0" d="M52.17,21.03c0,1.17-1.02,2.46-1.94,2.43c-1.66-0.04-2.27-0.88-2.39-2.78c-0.07-1.18,0.99-2.42,1.93-2.43
			C51.41,18.24,52.04,19.23,52.17,21.03z"/>
		<path class="st0" d="M48.03,33.03c-0.12-0.97-0.58-1.97,0.21-2.87c0.6-0.69,1.21-1.21,2.31-0.96c1.11,0.25,1.32,1.12,1.54,1.87
			c0.23,0.78,0.27,1.65-0.44,2.42c-0.75,0.82-1.55,1.06-2.49,0.61c-0.46-0.22-0.78-0.73-1.16-1.11L48.03,33.03z"/>
		<path class="st0" d="M47.83,42.39c0.01-1.18,1.03-2.37,1.98-2.39c1.63-0.04,2.32,1.17,2.35,2.82c0.02,1.1-1.01,2.4-1.87,2.39
			C48.64,45.18,47.99,44.44,47.83,42.39z"/>
		<path class="st0" d="M52.17,10.21c-0.01,1.11-1.02,2.41-1.89,2.38c-1.68-0.05-2.33-0.77-2.45-2.82c-0.07-1.17,1.02-2.36,1.98-2.38
			C51.46,7.34,52.13,8.61,52.17,10.21z"/>
		<path class="st0" d="M47.83,36.99c0-1.19,1-2.41,1.95-2.42c1.64-0.02,2.31,1.01,2.38,2.78c0.05,1.17-1.03,2.46-1.94,2.42
			C48.53,39.7,47.99,38.85,47.83,36.99z"/>
		<path class="st0" d="M52.17,48.25c-0.01,1.1-1.02,2.41-1.88,2.39c-1.68-0.05-2.33-0.74-2.45-2.82c-0.07-1.18,1.02-2.37,1.97-2.39
			C51.47,45.41,52.11,46.61,52.17,48.25z"/>
		<path class="st0" d="M52.17,53.61c0,1.18-1.01,2.48-1.92,2.46c-1.49-0.02-2.43-1.09-2.43-2.75c0-1.18,0.98-2.44,1.92-2.46
			C51.36,50.84,52.01,51.73,52.17,53.61z"/>
		<path class="st0" d="M35.88,72.39c-2.44,0-4.57-2.13-4.57-4.57c0-2.04,1.59-3.64,3.64-3.66c2.41-0.03,4.58,2.16,4.56,4.59
			C39.49,70.84,37.95,72.39,35.88,72.39z"/>
		<path class="st0" d="M64.08,72.39c-2.05-0.01-3.6-1.6-3.59-3.67c0.02-2.37,2.28-4.61,4.62-4.56c2.03,0.05,3.6,1.67,3.58,3.71
			C68.66,70.3,66.52,72.4,64.08,72.39z"/>
	</g>
</g>
</svg>
