<?xml version="1.0" encoding="utf-8"?>
<!-- Generator: Adobe Illustrator 27.0.0, SVG Export Plug-In . SVG Version: 6.00 Build 0)  -->
<svg version="1.1" id="Capa_1" xmlns="http://www.w3.org/2000/svg" xmlns:xlink="http://www.w3.org/1999/xlink" x="0px" y="0px"
	 viewBox="0 0 100 100" style="enable-background:new 0 0 100 100;" xml:space="preserve">
<style type="text/css">
	.st0{fill:#196480;}
	.st1{fill-rule:evenodd;clip-rule:evenodd;fill:#196480;}
</style>
<g>
	<g>
		<path class="st0" d="M78.95,60.88c-3.67,5.29-7.34,10.57-11.06,15.94c0.47,0.19,0.9,0.36,1.32,0.55c3.39,1.56,5.21,4.23,5.36,7.94
			c0.08,1.89,0.09,3.82-0.15,5.69c-0.54,4.26-3.56,6.68-7.43,7.37c-2.37,0.42-4.83,0.41-7.25,0.49c-2.14,0.07-4.29,0-6.43,0.04
			c-0.38,0.01-0.75,0.26-1.12,0.4c-0.62,0.23-1.25,0.67-1.87,0.67c-8.2,0.04-16.39,0.05-24.59,0.01c-2.74-0.01-5.37-0.6-7.64-2.22
			c-2.74-1.94-4.07-4.7-4.47-7.97c-0.47-3.87,0.04-7.65,1.02-11.37c0.2-0.76,0.98-1.37,1.53-2.11c-0.03-0.48-0.12-1.1-0.12-1.72
			c0.02-4.44-0.1-8.9,0.14-13.33c0.26-4.78,2.16-8.98,5.33-12.6c3.49-3.99,7.88-6.28,13.05-7.18c0.26-0.05,0.53-0.05,0.79-0.08
			c0.26-0.03,0.52-0.08,0.89-0.14c-6.61-5.67-9.73-12.72-8.58-21.36c0.86-6.44,4.06-11.6,9.28-15.46c9.66-7.15,23.41-5.46,31.23,3.8
			c7.76,9.19,7.68,23.65-3.14,32.8c0.27,0.03,0.45,0.07,0.64,0.08c1.21,0.06,2.42,0.12,3.62,0.15c0.21,0,0.44-0.14,0.64-0.26
			c1.13-0.73,2.25-1.49,3.39-2.2c2.84-1.77,6.2-1.33,8.53,1.08c0.85,0.87,1.78,1.66,2.62,2.54c2.3,2.4,2.78,6.35,0.9,9.07
			c-0.93,1.34-1.2,2.63-1.18,4.2c0.08,5.74,0.04,11.48,0.04,17.22c0,7.75,0,15.5-0.01,23.25c0,2.14-1.9,3.34-3.77,2.41
			c-0.83-0.42-1.28-1.14-1.29-2.04c-0.02-4.42,0.01-8.83,0.01-13.25c0-2.41-0.03-4.81-0.03-7.22c-0.01-4.79-0.01-9.58-0.01-14.37
			c0-0.23,0-0.47,0-0.7C79.08,60.94,79.01,60.91,78.95,60.88z M36.69,94.76c0,0.02,0,0.04,0,0.06c3.83,0,7.67-0.02,11.5,0.02
			c0.66,0.01,1.08-0.18,1.45-0.71c2.45-3.54,4.92-7.07,7.37-10.61c2.22-3.21,4.41-6.45,6.64-9.66c2.55-3.67,5.13-7.31,7.67-10.97
			c3.21-4.62,6.39-9.26,9.6-13.88c0.75-1.09,0.68-2.3-0.27-3.23c-0.81-0.8-1.64-1.58-2.47-2.35c-0.86-0.8-1.4-0.82-2.38-0.15
			c-1.75,1.19-3.5,2.37-5.27,3.53c-4.37,2.88-8.74,5.74-13.11,8.61c-3.11,2.05-6.21,4.1-9.31,6.16
			c-5.26,3.48-10.52,6.97-15.79,10.45c-3.83,2.53-7.65,5.08-11.51,7.56c-0.95,0.61-1.66,1.16-1.79,2.43
			c-0.24,2.42-0.72,4.81-0.31,7.25c0.36,2.17,1.22,4.03,3.4,4.88c0.87,0.34,1.84,0.57,2.77,0.59C28.81,94.8,32.75,94.76,36.69,94.76
			z M50.56,5.16c-9.99,0.02-18.04,8.08-18.04,18.06c0,9.82,8.16,17.9,18.04,17.89c9.87-0.01,17.98-8.07,17.98-17.86
			C68.55,13.25,60.49,5.14,50.56,5.16z M21.23,73.26c0.62-0.44,1.05-0.77,1.5-1.07c2.93-1.93,5.86-3.87,8.81-5.78
			c0.39-0.25,0.51-0.52,0.51-0.96c-0.02-2.22-0.02-4.44-0.01-6.67c0.01-1.62,1.09-2.77,2.57-2.73c1.46,0.03,2.5,1.15,2.51,2.71
			c0.01,1.27,0,2.53,0,3.95c8.29-5.48,16.47-10.89,24.82-16.4c-0.35-0.04-0.45-0.06-0.56-0.06c-7.77,0-15.55-0.05-23.32,0.04
			c-1.77,0.02-3.61,0.29-5.29,0.83c-6.93,2.24-11.53,8.72-11.54,15.98c0,2.75,0,5.5,0,8.25C21.23,71.91,21.23,72.46,21.23,73.26z
			 M56.19,93.7c2.64,0,5.12,0.07,7.59-0.03c1.11-0.04,2.25-0.31,3.3-0.68c1.64-0.57,2.47-1.8,2.44-3.58
			c-0.02-1.03-0.04-2.06,0.01-3.09c0.12-2.42-1.17-4.34-4.02-4.81c-0.6-0.1-0.92,0.04-1.24,0.5c-1.54,2.24-3.1,4.46-4.65,6.7
			C58.5,90.33,57.38,91.96,56.19,93.7z"/>
	</g>
</g>
</svg>
