<?xml version="1.0" encoding="utf-8"?>
<!-- Generator: Adobe Illustrator 27.0.0, SVG Export Plug-In . SVG Version: 6.00 Build 0)  -->
<svg version="1.1" id="Capa_1" xmlns="http://www.w3.org/2000/svg" xmlns:xlink="http://www.w3.org/1999/xlink" x="0px" y="0px"
	 viewBox="0 0 100 100" style="enable-background:new 0 0 100 100;" xml:space="preserve">
<style type="text/css">
	.st0{fill:#196480;}
	.st1{fill-rule:evenodd;clip-rule:evenodd;fill:#196480;}
</style>
<g>
	<g>
		<g>
			<path class="st0" d="M3.02,94.32c-0.36,0-0.71-0.14-0.97-0.4c-0.26-0.26-0.41-0.61-0.41-0.98V48.37
				c0-19.16,11.34-36.54,28.88-44.28C36.69,1.38,43.24,0,50.01,0c7.18,0,14.1,1.54,20.55,4.58c5.09,2.41,9.68,5.63,13.64,9.59
				c9.13,9.12,14.17,21.27,14.17,34.2v44.06c0,0.76-0.61,1.37-1.37,1.38l-15.49,0.11c-0.01,0-0.01,0-0.01,0
				c-0.76,0-1.37-0.61-1.38-1.37c-0.01-0.76,0.61-1.38,1.37-1.39l14.12-0.1V48.37c0-12.19-4.74-23.65-13.36-32.25
				c-3.74-3.73-8.06-6.78-12.86-9.05C57.57,1.51,43.62,1.34,31.63,6.61C15.08,13.91,4.4,30.3,4.4,48.37v43.19l14.96-0.11
				c0.01,0,0.01,0,0.01,0c0.76,0,1.37,0.61,1.38,1.37c0.01,0.76-0.61,1.38-1.37,1.39L3.03,94.32C3.02,94.32,3.02,94.32,3.02,94.32z"
				/>
		</g>
		<g>
			<path class="st0" d="M76.5,90.02H24.87c-0.42,0-0.82-0.19-1.08-0.53c-0.26-0.33-0.36-0.77-0.26-1.18l11.53-47.85
				c0.15-0.62,0.7-1.06,1.34-1.06h6.39c0.76,0,1.38,0.62,1.38,1.38s-0.62,1.38-1.38,1.38h-5.3L26.62,87.26h48.14L64.05,42.17h-6.31
				c-0.76,0-1.38-0.62-1.38-1.38s0.62-1.38,1.38-1.38h7.4c0.64,0,1.19,0.44,1.34,1.06l11.36,47.85c0.1,0.41,0,0.84-0.26,1.17
				C77.32,89.83,76.93,90.02,76.5,90.02z"/>
		</g>
		<g>
			<path class="st0" d="M53.19,46.47h-5.85c-3.28,0-5.94-2.67-5.94-5.94c0-3.28,2.67-5.94,5.94-5.94h5.85
				c3.28,0,5.94,2.66,5.94,5.94C59.13,43.81,56.46,46.47,53.19,46.47z M47.33,37.35c-1.76,0-3.18,1.43-3.18,3.18
				c0,1.76,1.43,3.18,3.18,3.18h5.85c1.75,0,3.18-1.43,3.18-3.18c0-1.75-1.43-3.18-3.18-3.18H47.33z"/>
		</g>
		<g>
			<path class="st0" d="M76.51,100H24.87c-0.76,0-1.38-0.62-1.38-1.38v-9.98c0-0.76,0.62-1.38,1.38-1.38s1.38,0.62,1.38,1.38v8.6
				h48.88v-8.6c0-0.76,0.62-1.38,1.38-1.38c0.76,0,1.38,0.62,1.38,1.38v9.98C77.89,99.38,77.27,100,76.51,100z"/>
		</g>
		<g>
			<path class="st0" d="M73.81,71.37c-0.35,0-0.69-0.13-0.96-0.39c-0.54-0.53-0.55-1.41-0.02-1.95c4.81-4.92,6.77-10.21,6.77-18.26
				c0-15.75-12.81-28.56-28.56-28.56c-15.76,0-28.57,12.81-28.57,28.56c0,7.67,1.81,12.6,6.46,17.59c0.52,0.56,0.49,1.43-0.07,1.95
				c-0.56,0.52-1.43,0.49-1.95-0.07c-5.11-5.5-7.2-11.14-7.2-19.47c0-17.27,14.06-31.32,31.33-31.32
				c17.27,0,31.32,14.05,31.32,31.32c0,8.85-2.19,14.69-7.56,20.19C74.53,71.23,74.17,71.37,73.81,71.37z"/>
		</g>
		<g>
			<path class="st0" d="M69.97,15.66h-38.9c-0.76,0-1.38-0.62-1.38-1.38V5.35c0-0.76,0.62-1.38,1.38-1.38s1.38,0.62,1.38,1.38v7.55
				h36.14V5.83c0-0.76,0.62-1.38,1.38-1.38c0.76,0,1.38,0.62,1.38,1.38v8.46C71.35,15.05,70.74,15.66,69.97,15.66z"/>
		</g>
		<g>
			<path class="st0" d="M50.69,9.81c-9.47,0-9.47-2-9.47-2.76s0-2.76,9.47-2.76s9.47,2,9.47,2.76S60.16,9.81,50.69,9.81z
				 M57.76,7.86h0.03H57.76z"/>
		</g>
		<g>
			<path class="st0" d="M14.03,80.55c-3.7,0-6.72-3.01-6.72-6.72s3.01-6.71,6.72-6.71s6.72,3.01,6.72,6.71S17.73,80.55,14.03,80.55z
				 M14.03,69.88c-2.18,0-3.96,1.78-3.96,3.96c0,2.18,1.78,3.96,3.96,3.96s3.96-1.78,3.96-3.96C17.99,71.65,16.21,69.88,14.03,69.88
				z"/>
		</g>
		<g>
			<path class="st0" d="M92.69,47.68h-7.92c-0.76,0-1.38-0.62-1.38-1.38c0-0.76,0.62-1.38,1.38-1.38h7.92
				c0.76,0,1.38,0.62,1.38,1.38C94.07,47.06,93.45,47.68,92.69,47.68z"/>
		</g>
		<g>
			<path class="st0" d="M92.69,51.46h-7.92c-0.76,0-1.38-0.62-1.38-1.38c0-0.76,0.62-1.38,1.38-1.38h7.92
				c0.76,0,1.38,0.62,1.38,1.38C94.07,50.85,93.45,51.46,92.69,51.46z"/>
		</g>
		<g>
			<path class="st0" d="M92.69,55.25h-7.92c-0.76,0-1.38-0.62-1.38-1.38c0-0.76,0.62-1.38,1.38-1.38h7.92
				c0.76,0,1.38,0.62,1.38,1.38C94.07,54.63,93.45,55.25,92.69,55.25z"/>
		</g>
		<g>
			<path class="st0" d="M92.69,59.04h-7.92c-0.76,0-1.38-0.62-1.38-1.38s0.62-1.38,1.38-1.38h7.92c0.76,0,1.38,0.62,1.38,1.38
				S93.45,59.04,92.69,59.04z"/>
		</g>
	</g>
</g>
</svg>
